<svg width="37" height="37" xmlns="http://www.w3.org/2000/svg" xmlns:xlink="http://www.w3.org/1999/xlink" xml:space="preserve" overflow="hidden"><defs><clipPath id="clip0"><rect x="560" y="617" width="37" height="37"/></clipPath></defs><g clip-path="url(#clip0)" transform="translate(-560 -617)"><path d="M592.76 630.104 573.682 630.104 580.812 628.524C581.853 628.293 582.508 627.252 582.277 626.211 582.046 625.171 581.005 624.516 579.965 624.747L569.558 627.059C569.173 627.175 568.787 627.406 568.479 627.792L565.203 632.031 562.312 632.031 562.312 643.208 564.24 643.208C566.976 643.208 567.169 646.292 572.333 646.292 573.567 646.292 577.652 646.292 579.271 646.292 580.543 646.292 581.583 645.251 581.583 643.979 581.583 643.362 581.352 642.823 580.967 642.438 581.044 642.438 581.121 642.438 581.198 642.438 582.47 642.438 583.51 641.397 583.51 640.125 583.51 639.508 583.279 638.93 582.855 638.506 583.896 638.275 584.667 637.35 584.667 636.271 584.667 634.999 583.626 633.958 582.354 633.958L592.76 633.958C593.84 633.958 594.688 633.11 594.688 632.031 594.688 630.952 593.84 630.104 592.76 630.104Z" fill="#FFFFFF"/></g></svg>