<svg width="38" height="37" xmlns="http://www.w3.org/2000/svg" xmlns:xlink="http://www.w3.org/1999/xlink" xml:space="preserve" overflow="hidden"><defs><clipPath id="clip0"><rect x="536" y="616" width="38" height="37"/></clipPath><clipPath id="clip1"><rect x="537" y="616" width="37" height="37"/></clipPath><clipPath id="clip2"><rect x="537" y="616" width="37" height="37"/></clipPath><clipPath id="clip3"><rect x="537" y="616" width="37" height="37"/></clipPath></defs><g clip-path="url(#clip0)" transform="translate(-536 -616)"><g clip-path="url(#clip1)"><g clip-path="url(#clip2)"><g clip-path="url(#clip3)"><path d="M569.76 629.104 550.682 629.104 557.812 627.524C558.853 627.293 559.508 626.252 559.277 625.211 559.046 624.171 558.005 623.516 556.965 623.747L546.558 626.059C546.173 626.175 545.787 626.406 545.479 626.792L542.203 631.031 539.312 631.031 539.312 642.208 541.24 642.208C543.976 642.208 544.169 645.292 549.333 645.292 550.567 645.292 554.652 645.292 556.271 645.292 557.543 645.292 558.583 644.251 558.583 642.979 558.583 642.362 558.352 641.823 557.967 641.438 558.044 641.438 558.121 641.438 558.198 641.438 559.47 641.438 560.51 640.397 560.51 639.125 560.51 638.508 560.279 637.93 559.855 637.506 560.896 637.275 561.667 636.35 561.667 635.271 561.667 633.999 560.626 632.958 559.354 632.958L569.76 632.958C570.84 632.958 571.688 632.11 571.688 631.031 571.688 629.952 570.84 629.104 569.76 629.104Z" fill="#000000" fill-rule="nonzero" fill-opacity="1"/></g></g></g></g></svg>