<svg width="281" height="232" xmlns="http://www.w3.org/2000/svg" xmlns:xlink="http://www.w3.org/1999/xlink" xml:space="preserve" overflow="hidden"><defs><clipPath id="clip0"><rect x="228" y="268" width="281" height="232"/></clipPath><clipPath id="clip1"><rect x="228" y="269" width="281" height="230"/></clipPath><clipPath id="clip2"><rect x="228" y="269" width="281" height="230"/></clipPath><clipPath id="clip3"><rect x="228" y="269" width="281" height="230"/></clipPath></defs><g clip-path="url(#clip0)" transform="translate(-228 -268)"><g clip-path="url(#clip1)"><g clip-path="url(#clip2)"><g clip-path="url(#clip3)"><path d="M270.773 64.7128C270.652 64.4123 270.396 64.1853 270.083 64.101 266.634 63.1718 263.471 62.2089 260.412 61.157 258.939 60.7982 258.917 62.6719 258.233 63.5551 257.514 65.2694 262.416 67.5173 263.293 68.7531 234.805 117.475 205.168 165.094 175.702 213.175 175.551 213.42 175.297 214.006 175.019 213.929 174.766 213.86 174.314 213.486 173.767 213.239 149.469 202.262 125.214 191.693 101.036 180.993 73.4451 168.782 45.9969 156.317 19.4013 141.494 18.8278 141.088 17.1227 140.556 16.9449 139.963 16.0157 136.85 15.3456 133.826 15.6461 131.267 15.6921 130.872 15.5066 130.484 15.1693 130.27 13.7402 129.671 12.4246 127.73 10.902 127.947 8.34287 132.873 10.6153 140.697 13.0441 143.457 14.1511 144.008 28.3575 152.033 33.4481 154.983 54.6955 167.296 79.5969 175.935 100.936 186.841 114.114 192.778 127.639 199.168 140.893 204.87 152.646 209.878 165.315 215.978 176.933 221.794 177.615 222.136 178.443 221.909 178.856 221.268 209.959 172.794 242.067 117.898 270.773 64.7128Z" fill="#FFFFFF" fill-rule="nonzero" fill-opacity="1" transform="matrix(1.00693 0 0 1 228 269)"/><path d="M41.7205 143.722C83.973 164.528 129.255 187.09 171.143 205.252 171.669 205.48 172.281 205.286 172.58 204.797 204.324 152.978 237.204 101.307 264.923 49.5497 265.138 49.1479 264.983 48.645 264.578 48.438 251.692 41.8661 236.098 38.249 222.321 33.4405 203.759 27.3945 184.692 20.9269 167.902 16.0801 167.207 15.8792 166.462 16.0571 165.93 16.5462 125.023 54.188 82.3216 97.6381 41.4644 142.356 41.0734 142.784 41.2007 143.466 41.7205 143.722Z" fill="#FFFFFF" fill-rule="nonzero" fill-opacity="1" transform="matrix(1.00693 0 0 1 228 269)"/><path d="M263.41 68.6642C262.096 67.4667 257.954 64.0458 257.589 64.0611 243.832 87.1424 230.09 110.871 216.304 134.346 201.912 158.853 187.471 183.085 172.912 206.017 172.747 206.434 171.453 205.191 171.109 205.073 167.776 203.916 164.504 202.454 161.34 201.037 135.864 189.301 110.448 177.916 85.2595 165.996 62.2104 155.087 39.353 143.732 16.8161 131.25 16.1169 130.81 15.1033 131.491 15.2843 132.319 15.8608 134.789 15.6584 137.811 17.0323 139.998 32.1939 149.607 48.7661 157.248 64.791 164.637 100.738 181.87 137.574 196.94 173.639 213.256 174.927 213.839 175.303 214.112 175.755 213.333 191.236 188.063 206.491 163.154 221.637 138.207 235.624 115.164 249.519 92.0889 263.41 68.6642Z" fill="#FFFFFF" fill-rule="nonzero" fill-opacity="1" transform="matrix(1.00693 0 0 1 228 269)"/><path d="M165.956 16.8651C165.66 15.4652 159.911 14.7905 158.496 14.1312 155.751 13.3753 146.765 10.7364 143.574 9.55113 142.937 9.315 142.221 9.43767 141.695 9.867 95.6831 47.4229 60.513 81.6439 26.312 113.347 22.0723 117.798 15.6722 121.406 12.3173 126.531 12.8156 127.866 16.514 129.478 17.8879 130.407 24.84 134.783 33.0188 138.972 40.1933 142.723 48.8045 134.194 56.4604 125.503 64.2053 117.515 78.9329 102.322 92.8035 88.4856 105.892 74.8451 125.552 54.3521 144.469 35.3188 165.956 16.8651Z" fill="#FFFFFF" fill-rule="nonzero" fill-opacity="1" transform="matrix(1.00693 0 0 1 228 269)"/><path d="M271.944 62.4435C268.451 61.5281 264.988 60.513 261.57 59.3553 263.066 56.2795 264.748 53.1545 265.768 49.8947 266.972 49.496 267.6 47.7649 266.167 47.0565 260.135 44.0787 253.681 41.8431 247.357 39.5784 215.341 28.4556 182.91 18.3877 150.104 9.85933 150.026 9.81333 149.939 9.79033 149.853 9.79953 147.513 9.246 145.171 8.76913 142.779 8.57747 142.655 8.53453 142.522 8.52227 142.385 8.54987 142.126 8.5514 141.942 8.65873 141.832 8.82433 134.949 13.0732 128.553 18.5932 122.337 23.8234 84.5296 56.7947 46.6624 89.8809 11.1305 125.309 10.8713 125.233 10.5861 125.292 10.3607 125.563 6.59333 130.263 7.53633 137.857 10.1062 143.046 9.93753 144.054 10.7533 144.627 11.5644 145.132 12.1701 145.731 12.9229 146.582 13.8 146.619 45.6703 165.019 79.7671 179.247 113.122 194.697 134.289 203.989 155.345 214.096 176.807 222.612 177.066 223.801 178.937 224.478 179.8 223.129 191.458 204.665 202.687 185.932 214 167.254 232.085 136.868 250.689 106.74 267.306 75.5136 268.905 72.2507 270.676 68.9417 271.766 65.481 273.212 65.2602 273.646 62.8912 271.944 62.4435ZM174.282 212.977C142.962 197.644 110.414 184.863 78.8471 170.021 58.2176 160.247 36.9518 151.375 17.6303 139.129 16.997 136.83 16.7363 134.472 16.3484 132.132 46.4646 149.261 78.1141 163.484 109.394 178.319 129.878 187.606 149.945 197.664 170.83 206.054 171.091 207.241 172.96 207.917 173.823 206.568 202.748 160.005 231.527 113.293 258.344 65.4779 259.236 66.9285 260.795 68.0601 262.166 68.9617 262.286 69.0399 262.404 69.0828 262.517 69.0997 232.639 116.854 204.36 165.612 174.527 213.405 174.513 213.428 174.495 213.415 174.498 213.386 174.507 213.227 174.444 213.067 174.282 212.977ZM14.2615 143.052C14.1419 142.976 14.0223 142.899 13.9027 142.822 10.7272 139.017 10.5999 133.579 11.3559 128.889 12.558 129.72 13.7785 130.525 15.0159 131.305 14.7016 134.101 15.1677 136.902 15.9313 139.63 15.9206 139.832 15.9727 140.038 16.1031 140.216 16.6183 141.956 17.2577 143.692 18.0029 145.375 16.744 144.619 15.4943 143.848 14.2615 143.052ZM216.085 32.4714C232.03 37.6924 248.558 42.8275 263.854 49.5144 234.629 102.003 203.142 153.201 171.488 204.255 165.034 200.509 157.826 197.291 150.963 194.132 114.776 177.424 78.5542 160.753 42.9747 142.775 83.2048 100.045 123.648 57.408 166.706 17.4984 183.243 22.2287 199.698 27.2443 216.085 32.4714ZM29.6853 111.605C66.4332 76.8261 104.339 43.2967 142.687 10.3101 144.178 10.8851 145.688 11.4141 147.215 11.9125 144.664 14.2738 142.019 16.5079 139.351 18.7312 135.794 21.6767 131.968 24.4291 128.844 27.8453 128.478 28.2455 128.959 28.9677 129.453 28.6335 133.271 26.0452 136.738 22.9126 140.259 19.9379 143.14 17.4938 145.999 15.0589 148.675 12.3771 153.928 14.0055 159.235 15.3487 164.499 16.8743 158.237 21.1477 152.396 26.6585 146.827 31.8887 110.164 67.2811 74.8067 104.034 40.0108 141.257 32.8486 137.569 25.6189 133.9 18.7005 129.737 20.4071 129.392 21.8883 127.961 23.2177 126.897 25.1083 125.376 26.9085 123.745 28.6948 122.104 32.1663 118.918 35.7849 115.791 39.0264 112.367 39.5033 111.864 38.8807 110.966 38.2597 111.374 32.4898 115.376 27.9772 121.02 22.5339 125.436 21.1585 126.617 19.5423 127.607 18.2804 128.894 18.124 129.053 18.1056 129.251 18.1731 129.416 16.7977 128.582 15.4361 127.727 14.0913 126.85 19.0532 121.55 24.4275 116.595 29.6853 111.605ZM266.292 71.5637C238.002 122.084 207.897 171.566 177.466 220.82 158.715 210.832 138.79 203.202 119.571 194.174 86.411 178.989 52.9169 164.398 20.8211 147.027 20.0575 145.342 19.2617 143.681 18.5871 141.964 24.9519 146.136 31.8841 149.54 38.6553 152.947 62.9357 165.082 87.7588 176.096 112.557 187.12 132.439 195.748 152.134 204.844 172.163 213.12 172.75 213.351 173.34 213.584 173.928 213.819 174.064 213.874 174.187 213.849 174.283 213.783 174.302 213.771 174.32 213.782 174.312 213.802 174.018 214.696 175.401 215.407 175.982 214.498 186.777 197.351 197.154 179.943 207.699 162.641 226.253 131.539 245.611 100.884 263.609 69.4631 263.867 68.9739 264.12 68.4817 264.376 67.9926 264.653 67.4621 263.916 67.0419 263.58 67.528 263.503 67.6399 263.428 67.7534 263.35 67.8669 263.29 67.7227 263.187 67.5878 263.031 67.4789 261.593 66.4915 260.279 65.4396 258.983 64.2804 259.363 63.5674 259.742 62.8513 260.119 62.1368 263.33 63.2423 266.579 64.2191 269.857 65.1023 268.646 67.1247 267.465 69.4692 266.292 71.5637Z" fill="#000000" fill-rule="nonzero" fill-opacity="1" transform="matrix(1.00693 0 0 1 228 269)"/><path d="M168.017 53.8139C166.138 53.3247 164.203 52.854 162.403 52.0628 163.099 49.6846 163.78 47.3003 164.557 44.9512 164.731 44.4161 164.376 43.7077 163.815 43.5681 163.786 43.5605 163.691 43.5313 163.656 43.5237 163.085 43.4087 162.538 43.8119 162.362 44.3471 161.61 46.6149 160.722 48.8474 159.865 51.0815 157.976 50.4635 156.124 49.4607 154.181 49.0391 153.042 48.8566 152.194 50.3731 153.346 51.0232 155.155 51.9601 157.082 52.7421 158.89 53.7004 158.215 55.5527 157.565 57.4157 156.869 59.2603 156.628 60.1021 155.866 61.0512 156.435 61.9053 157.108 63.0614 158.818 62.7869 159.215 61.5419 160.114 59.3783 160.857 57.1611 161.546 54.9255 162.837 55.4775 168.092 58.1394 168.872 55.6692 169.395 54.9393 168.829 53.8292 168.017 53.8139Z" fill="#000000" fill-rule="nonzero" fill-opacity="1" transform="matrix(1.00693 0 0 1 228 269)"/><path d="M185.596 60.8473C183.956 60.467 181.691 60.1128 179.759 59.6037 177.977 59.2603 176.255 58.4169 174.504 58.0949 169.895 60.1695 183.594 64.4123 185.165 64.0259 186.952 64.0105 187.413 61.2689 185.596 60.8473Z" fill="#000000" fill-rule="nonzero" fill-opacity="1" transform="matrix(1.00693 0 0 1 228 269)"/><path d="M204.2 61.5664C201.989 64.3295 198.876 66.4041 196.221 68.7393 194.118 70.6085 191.549 71.9839 189.334 73.6383 187.537 74.6089 189.526 77.8703 193.235 74.9923 198.078 71.5714 202.914 67.7427 206.166 62.7149 206.937 61.4637 204.968 60.3183 204.2 61.5664Z" fill="#000000" fill-rule="nonzero" fill-opacity="1" transform="matrix(1.00693 0 0 1 228 269)"/><path d="M195.64 64.5365C197.32 62.8437 194.769 60.26 193.064 61.8991 191.345 63.595 193.902 66.2247 195.64 64.5365Z" fill="#000000" fill-rule="nonzero" fill-opacity="1" transform="matrix(1.00693 0 0 1 228 269)"/><path d="M201.524 74.5062C200.73 74.3467 199.793 74.8635 199.418 75.5611 199.418 75.5611 199.418 75.5611 199.418 75.5611 199.347 75.7068 199.24 75.9997 199.224 76.0518 198.755 77.6863 200.847 78.9958 202.239 78.0513 203.8 77.2141 203.282 74.6718 201.524 74.5062Z" fill="#000000" fill-rule="nonzero" fill-opacity="1" transform="matrix(1.00693 0 0 1 228 269)"/><path d="M226.754 69.5658C224.587 71.2816 222.784 73.4451 220.401 74.9861 219.69 72.5037 219.368 69.8081 218.477 67.3961 215.251 64.1623 217.769 75.6547 217.891 76.774 216.044 78.0712 214.159 79.3163 212.256 80.5307 211.704 80.7929 210.85 81.5166 210.632 81.972 209.892 82.7356 210.625 84.2904 211.74 83.8749 214.213 83.1833 216.226 81.1501 218.419 79.8238 218.646 81.1992 218.856 82.5807 218.991 83.9669 219.162 85.7287 218.784 87.8646 219.681 89.4209 220.01 89.9929 221.01 90.2413 221.469 89.6509 223.407 87.3356 221.565 80.7515 221.062 77.8443 223.267 75.9015 226.989 73.2811 228.085 70.5916 228.326 69.7973 227.43 69.2147 226.754 69.5658Z" fill="#000000" fill-rule="nonzero" fill-opacity="1" transform="matrix(1.00693 0 0 1 228 269)"/></g></g></g></g></svg>