<svg width="552" height="251" xmlns="http://www.w3.org/2000/svg" xmlns:xlink="http://www.w3.org/1999/xlink" xml:space="preserve" overflow="hidden"><defs><clipPath id="clip0"><rect x="79" y="469" width="552" height="251"/></clipPath></defs><g clip-path="url(#clip0)" transform="translate(-79 -469)"><path d="M307.232 205.13 431.336 205.13 431.336 451.286 307.232 451.286Z" fill="#FFFFFF" transform="matrix(1 0 0 1.00199 24.1236 266.29)"/><path d="M322.788 225.643 367.916 225.643 367.916 266.669 322.788 266.669Z" fill="#E6E6E6" transform="matrix(1 0 0 1.00199 24.1236 266.29)"/><path d="M370.586 225.643 389.797 225.643 389.797 266.669 370.586 266.669Z" fill="#E6E6E6" transform="matrix(1 0 0 1.00199 24.1236 266.29)"/><path d="M392.532 225.643 411.743 225.643 411.743 266.669 392.532 266.669Z" fill="#E6E6E6" transform="matrix(1 0 0 1.00199 24.1236 266.29)"/><path d="M322.723 276.242 368.087 276.242 368.087 287.182 322.723 287.182Z" fill="#E6E6E6" transform="matrix(1 0 0 1.00199 24.1236 266.29)"/><path d="M370.602 276.242 389.797 276.242 389.797 287.182 370.602 287.182Z" fill="#E6E6E6" transform="matrix(1 0 0 1.00199 24.1236 266.29)"/><path d="M392.548 276.242 411.743 276.242 411.743 287.182 392.548 287.182Z" fill="#E6E6E6" transform="matrix(1 0 0 1.00199 24.1236 266.29)"/><path d="M322.788 296.755 367.849 296.755 367.849 307.695 322.788 307.695Z" fill="#FFC000" transform="matrix(1 0 0 1.00199 24.1236 266.29)"/><path d="M370.586 296.755 389.6 296.755 389.6 307.695 370.586 307.695Z" fill="#FFC000" transform="matrix(1 0 0 1.00199 24.1236 266.29)"/><path d="M392.548 296.755 411.743 296.755 411.743 307.695 392.548 307.695Z" fill="#FFC000" transform="matrix(1 0 0 1.00199 24.1236 266.29)"/><path d="M348.668 317.268 368.088 317.268 368.088 328.208 348.668 328.208Z" fill="#E6E6E6" transform="matrix(1 0 0 1.00199 24.1236 266.29)"/><path d="M370.602 317.268 389.797 317.268 389.797 328.208 370.602 328.208Z" fill="#E6E6E6" transform="matrix(1 0 0 1.00199 24.1236 266.29)"/><path d="M322.858 358.294 367.849 358.294 367.849 369.234 322.858 369.234Z" fill="#E6E6E6" transform="matrix(1 0 0 1.00199 24.1236 266.29)"/><path d="M370.586 358.294 389.797 358.294 389.797 369.234 370.586 369.234Z" fill="#E6E6E6" transform="matrix(1 0 0 1.00199 24.1236 266.29)"/><path d="M348.717 337.781 368.087 337.781 368.087 348.721 348.717 348.721Z" fill="#E6E6E6" transform="matrix(1 0 0 1.00199 24.1236 266.29)"/><path d="M370.602 337.781 389.803 337.781 389.803 348.721 370.602 348.721Z" fill="#E6E6E6" transform="matrix(1 0 0 1.00199 24.1236 266.29)"/><path d="M392.532 337.781 411.734 337.781 411.734 348.721 392.532 348.721Z" fill="#E6E6E6" transform="matrix(1 0 0 1.00199 24.1236 266.29)"/><path d="M370.602 378.807 389.554 378.807 389.554 389.747 370.602 389.747Z" fill="#E6E6E6" transform="matrix(1 0 0 1.00199 24.1236 266.29)"/><path d="M348.65 419.833 367.849 419.833 367.849 430.773 348.65 430.773Z" fill="#E6E6E6" transform="matrix(1 0 0 1.00199 24.1236 266.29)"/><path d="M322.723 399.32 368.087 399.32 368.087 410.26 322.723 410.26Z" fill="#E6E6E6" transform="matrix(1 0 0 1.00199 24.1236 266.29)"/><path d="M370.602 399.32 389.554 399.32 389.554 410.26 370.602 410.26Z" fill="#E6E6E6" transform="matrix(1 0 0 1.00199 24.1236 266.29)"/><path d="M392.726 399.32 411.678 399.32 411.678 410.26 392.726 410.26Z" fill="#E6E6E6" transform="matrix(1 0 0 1.00199 24.1236 266.29)"/><path d="M370.602 419.758 389.803 419.758 389.803 451.286 370.602 451.286Z" fill="#E6E6E6" transform="matrix(1 0 0 1.00199 24.1236 266.29)"/><path d="M437.611 404.79 589.407 404.79 589.407 430.773 437.611 430.773Z" fill="#737373" transform="matrix(1 0 0 1.00199 24.1236 266.29)"/><path d="M594.927 246.064 430.823 246.064 430.823 451.286 442.015 451.286 442.015 410.26 501.935 410.26 501.935 451.286 513.127 451.286 513.127 410.26 522.196 410.26 522.196 451.286 533.388 451.286 533.388 410.26 583.735 410.26 583.735 451.286 594.927 451.286 594.927 287.182C594.927 287.182 593.322 285.558 593.322 281.541 593.322 277.524 594.927 276.242 594.927 276.242L594.927 246.064Z" fill="#E6E6E6" transform="matrix(1 0 0 1.00199 24.1236 266.29)"/><path d="M430.823 296.755 492.362 296.755 492.362 317.268 430.823 317.268Z" fill="#D2D2D2" transform="matrix(1 0 0 1.00199 24.1236 266.29)"/><path d="M430.823 337.781 492.362 337.781 492.362 358.294 430.823 358.294Z" fill="#D2D2D2" transform="matrix(1 0 0 1.00199 24.1236 266.29)"/><path d="M430.823 378.807 492.362 378.807 492.362 399.32 430.823 399.32Z" fill="#D2D2D2" transform="matrix(1 0 0 1.00199 24.1236 266.29)"/><path d="M458.193 358.294 533.408 358.294 533.408 369.234 458.193 369.234Z" fill="#737373" transform="matrix(1 0 0 1.00199 24.1236 266.29)"/><path d="M458.193 317.268 533.408 317.268 533.408 328.208 458.193 328.208Z" fill="#737373" transform="matrix(1 0 0 1.00199 24.1236 266.29)"/><path d="M478.687 276.242 594.927 276.242 594.927 287.182 478.687 287.182Z" fill="#737373" transform="matrix(1 0 0 1.00199 24.1236 266.29)"/><path d="M61.5889 225.643 184.667 225.643 184.667 451.286 61.5889 451.286Z" fill="#FFFFFF" transform="matrix(1 0 0 1.00199 24.1236 266.29)"/><path d="M61.539 246.155 155.899 246.155 155.899 248.206 61.539 248.206Z" fill="#D2D2D2" transform="matrix(1 0 0 1.00199 24.1236 266.29)"/><path d="M61.539 254.36 155.899 254.36 155.899 256.411 61.539 256.411Z" fill="#D2D2D2" transform="matrix(1 0 0 1.00199 24.1236 266.29)"/><path d="M61.539 262.565 155.899 262.565 155.899 264.616 61.539 264.616Z" fill="#D2D2D2" transform="matrix(1 0 0 1.00199 24.1236 266.29)"/><path d="M114.873 270.77 155.899 270.77 155.899 272.822 114.873 272.822Z" fill="#D2D2D2" transform="matrix(1 0 0 1.00199 24.1236 266.29)"/><path d="M114.873 278.975 155.899 278.975 155.899 281.027 114.873 281.027Z" fill="#D2D2D2" transform="matrix(1 0 0 1.00199 24.1236 266.29)"/><path d="M114.873 287.181 155.899 287.181 155.899 289.232 114.873 289.232Z" fill="#D2D2D2" transform="matrix(1 0 0 1.00199 24.1236 266.29)"/><path d="M114.873 295.386 155.899 295.386 155.899 297.437 114.873 297.437Z" fill="#D2D2D2" transform="matrix(1 0 0 1.00199 24.1236 266.29)"/><path d="M183.299 296.755 183.299 328.208 102.615 328.208 102.615 369.234 61.3612 369.342 61.3612 451.241 307.745 451.286 307.745 296.755Z" fill="#E6E6E6" transform="matrix(1 0 0 1.00199 24.1236 266.29)"/><path d="M131.278 389.982 150.479 389.982 150.479 410.26 131.278 410.26Z" fill="#737373" transform="matrix(1 0 0 1.00199 24.1236 266.29)"/><path d="M131.278 410.26 150.479 410.26 150.479 430.539 131.278 430.539Z" fill="#D2D2D2" transform="matrix(1 0 0 1.00199 24.1236 266.29)"/><path d="M102.615 389.982 122.924 389.982 122.924 410.26 102.615 410.26Z" fill="#737373" transform="matrix(1 0 0 1.00199 24.1236 266.29)"/><path d="M102.615 410.26 122.924 410.26 122.924 430.539 102.615 430.539Z" fill="#D2D2D2" transform="matrix(1 0 0 1.00199 24.1236 266.29)"/><path d="M261.193 410.495 280.395 410.495 280.395 430.773 261.193 430.773Z" fill="#737373" transform="matrix(1 0 0 1.00199 24.1236 266.29)"/><path d="M261.193 430.773 280.395 430.773 280.395 451.052 261.193 451.052Z" fill="#D2D2D2" transform="matrix(1 0 0 1.00199 24.1236 266.29)"/><path d="M233.843 410.495 253.044 410.495 253.044 430.773 233.843 430.773Z" fill="#737373" transform="matrix(1 0 0 1.00199 24.1236 266.29)"/><path d="M233.843 430.773 253.044 430.773 253.044 451.052 233.843 451.052Z" fill="#D2D2D2" transform="matrix(1 0 0 1.00199 24.1236 266.29)"/><path d="M184.667 410.495 225.489 410.495 225.489 430.773 184.667 430.773Z" fill="#737373" transform="matrix(1 0 0 1.00199 24.1236 266.29)"/><path d="M184.667 430.773 225.489 430.773 225.489 451.052 184.667 451.052Z" fill="#D2D2D2" transform="matrix(1 0 0 1.00199 24.1236 266.29)"/><path d="M184.667 369.234 280.394 369.234 280.394 389.747 184.667 389.747Z" fill="#D2D2D2" transform="matrix(1 0 0 1.00199 24.1236 266.29)"/><path d="M184.667 328.208 280.394 328.208 280.394 348.721 184.667 348.721Z" fill="#D2D2D2" transform="matrix(1 0 0 1.00199 24.1236 266.29)"/><path d="M143.641 362.487 239.368 362.487 239.368 369.325 143.641 369.325Z" fill="#737373" transform="matrix(1 0 0 1.00199 24.1236 266.29)"/><path d="M143.641 321.473 239.368 321.473 239.368 328.311 143.641 328.311Z" fill="#737373" transform="matrix(1 0 0 1.00199 24.1236 266.29)"/></g></svg>