<svg width="101" height="117" xmlns="http://www.w3.org/2000/svg" xmlns:xlink="http://www.w3.org/1999/xlink" xml:space="preserve" overflow="hidden"><defs><clipPath id="clip0"><rect x="-203" y="679" width="101" height="117"/></clipPath></defs><g clip-path="url(#clip0)" transform="translate(203 -679)"><path d="M49.8407 101.509C63.1878 102.501 74.3551 93.8918 78.8174 82.9775 83.2304 72.1832 81.231 58.8742 71.7657 50.306 63.0996 41.9913 50.9899 40.0922 40.8461 43.7091 30.1926 47.5074 21.4494 57.4086 21.1885 70.6515 20.6064 86.9785 33.5137 100.94 49.8407 101.509Z" fill="#FFFFFF" transform="matrix(1 0 0 1.00081 -203 679)"/><path d="M26.4771 98.3159C26.625 98.308 27.9818 96.855 28.3874 96.797 29.1834 96.591 30.0193 96.4256 30.634 97.096 31.3832 97.8292 31.0142 99.8628 30.2706 101.585 34.239 106.227 43.6924 107.431 50.1739 107.788 56.3318 107.912 63.7437 107.183 69.9469 102.956 70.1711 102.804 70.2133 102.486 70.1338 102.227 69.6359 100.604 69.6343 99.1176 70.3692 98.4893 71.4396 97.6288 72.9983 98.1966 73.8517 99.3395 73.9392 99.4572 74.072 99.5335 74.2175 99.5518 86.3757 90.6678 91.0917 74.0895 86.1753 60.0624 81.2167 44.3867 66.6958 35.5552 52.6075 35.0804 38.5558 34.6072 23.6093 42.2347 17.5756 57.4746 11.689 71.1159 14.9822 88.5993 26.4771 98.3159ZM81.0402 72.6969C81.0402 90.2996 64.5509 102.106 49.7214 101.411 35.0367 100.722 21.1623 90.636 21.3706 71.0221 22.5031 51.8623 36.4697 41.9349 50.8595 41.8538 66.0214 41.7679 81.0402 53.6533 81.0402 72.6969Z" fill="#FFFFFF" transform="matrix(1 0 0 1.00081 -203 679)"/><path d="M71.6527 98.0416C73.9161 97.8674 75.5878 103.463 76.8093 105.047 77.9092 106.724 80.2536 110.135 78.6074 111.988 78.0324 112.531 77.1894 112.419 76.4546 112.096 74.0799 110.9 73.5447 108.497 72.2635 106.321 70.6579 103.226 68.0493 98.9084 71.6527 98.0416Z" fill="#FFFFFF" transform="matrix(1 0 0 1.00081 -203 679)"/><path d="M21.3953 106.931C22.0244 105.347 23.1123 104.055 24.1096 102.727 25.4321 100.955 26.2051 98.5712 27.9651 97.127 28.7476 96.078 29.9628 96.5719 30.6269 97.3131 31.6893 98.6969 30.5593 100.71 29.8849 101.906 28.0979 104.425 26.2457 109.764 23.0272 110.405 20.5841 110.849 20.9698 107.666 21.3953 106.931Z" fill="#FFFFFF" transform="matrix(1 0 0 1.00081 -203 679)"/><path d="M71.671 35.5719C72.0671 34.573 74.402 36.5206 75.0144 36.6702 75.4557 36.8881 75.3046 37.2889 74.8617 37.6714 74.1125 38.318 74.0831 40.2107 73.594 41.1332 73.1669 42.2188 71.1931 40.0779 70.4558 39.8536 69.6327 39.5658 71.5494 36.1819 71.671 35.5719Z" fill="#FFFFFF" transform="matrix(1 0 0 1.00081 -203 679)"/><path d="M79.9809 24.201C79.8727 24.4794 79.522 24.6146 79.2548 24.481 78.3171 24.0364 77.2849 23.7867 76.3123 23.366 76.0252 23.226 76.088 22.4936 76.5604 22.3011 77.5091 21.9146 77.3867 19.1805 78.4595 19.2663 81.2621 19.9439 81.0815 22.3107 79.9809 24.201Z" fill="#FFFFFF" transform="matrix(1 0 0 1.00081 -203 679)"/><path d="M30.5139 40.9607C29.4745 40.676 29.0808 37.2666 28.5385 36.2972 28.3365 36.0379 28.4414 35.6236 28.7428 35.4916 29.9302 35.0637 31.473 33.975 32.9077 33.9193 33.0373 33.9813 33.1367 34.0919 33.1837 34.2279 33.695 35.6951 34.13 37.1394 34.4513 38.2337 34.5237 38.4786 34.4132 38.7403 34.1873 38.8596 32.9093 39.4401 31.7784 40.4247 30.5139 40.9607Z" fill="#FFFFFF" transform="matrix(1 0 0 1.00081 -203 679)"/><path d="M28.9854 21.8685C28.1241 22.146 27.2334 22.3146 26.4119 22.6566 26.1336 22.7791 25.7844 22.6192 25.6954 22.3282 25.3764 21.373 24.8563 20.499 25.1617 19.3427 25.4265 18.3717 26.2306 17.7474 27.5499 17.4881 28.5035 17.4539 28.8264 19.4636 28.8295 20.4076 28.8303 20.5754 28.9146 20.7297 29.0546 20.8227 29.4212 21.0661 29.4904 21.7126 28.9854 21.8685Z" fill="#FFFFFF" transform="matrix(1 0 0 1.00081 -203 679)"/><path d="M54.6241 25.3648C54.6241 27.6132 53.8194 29.4358 52.8267 29.4358 51.8341 29.4358 51.0294 27.6132 51.0294 25.3648 51.0294 23.1164 51.8341 21.2937 52.8267 21.2937 53.8194 21.2937 54.6241 23.1164 54.6241 25.3648Z" fill="#FFFFFF" transform="matrix(0.0348996 -1.0002 0.99939 0.0349279 -177.367 756.336)"/><path d="M67.3487 23.5648C73.3737 21.2315 78.8897 24.7816 83.7966 27.67 87.6306 31.4007 88.5038 36.597 85.9057 41.6351 85.4643 42.7755 79.7574 38.8397 78.7545 38.4627 76.6916 37.2857 71.5517 34.5086 69.3472 33.8326 65.1275 32.5395 62.3035 30.7159 61.7516 29.8427 60.5968 28.016 61.8367 25.7017 67.3487 23.5648Z" fill="#FFFFFF" transform="matrix(1 0 0 1.00081 -203 679)"/><path d="M17.4992 33.4994 17.4992 33.4994C17.7116 30.2356 19.6298 26.2926 23.0296 24.78 26.8763 22.8904 30.8551 20.9356 35.2609 21.5448 38.4786 22.2176 44.3064 24.5812 43.8165 28.2522 43.3226 30.5028 38.3991 31.7999 35.995 32.5363 35.0271 32.6906 21.7866 38.6202 19.2902 39.5347 17.8993 39.8409 17.364 34.2684 17.4992 33.4994Z" fill="#FFFFFF" transform="matrix(1 0 0 1.00081 -203 679)"/><path d="M74.0163 41.7448C74.4378 40.4573 75.0414 39.2087 75.4398 37.9179 75.4772 37.782 75.4446 37.6468 75.3722 37.5362 78.6567 39.3479 81.8784 41.2772 85.3259 42.7675 85.6186 42.8932 85.9812 42.8654 86.1522 42.5504 90.1477 35.5353 87.2123 28.1162 80.2457 24.535 81.0696 23.7048 81.4641 22.2407 81.1817 21.1297 80.831 19.7499 79.5204 19.0508 78.2201 18.7844 78.0483 18.7494 77.8161 18.7693 77.6976 18.9228 77.1242 19.6552 76.7035 20.4799 76.4976 21.3921 75.8693 21.4462 75.2633 21.4104 74.7591 21.2521 69.115 18.2651 71.9025 9.99184 65.8711 6.43855 62.006 4.28415 57.3783 4.4106 53.0775 4.19906 49.2109 4.07022 45.116 3.88094 41.4601 5.3188 34.841 8.01797 36.6049 17.3203 31.4245 19.6361 30.8257 19.8564 30.0885 19.8684 29.3298 19.7372 29.1977 18.856 28.8629 18.013 28.3667 17.2766 28.2705 17.1334 28.0915 16.9855 27.903 17.0109 26.5519 17.1915 25.1633 17.7394 24.6869 19.1359 24.3171 20.2199 24.6058 21.684 25.3502 22.5858 18.2134 25.6492 14.6697 33.0723 18.2436 40.2123 18.3478 40.439 18.693 40.571 18.926 40.4899 22.0824 39.3884 25.083 37.914 28.1122 36.5079 28.2037 37.4829 28.5862 38.4571 28.8828 39.3844 29.0721 39.9761 29.2542 40.6378 29.5294 41.2295 10.4619 54.6354 8.52297 83.1357 25.5872 98.9967L25.5983 98.9856C25.1657 99.6822 24.7776 100.404 24.38 101.122 23.0757 103.433 20.7941 105.354 20.3678 108.091 20.1308 109.665 20.9038 111.322 22.6924 111.25 24.5199 111.175 25.7828 109.8 26.7841 108.418 28.047 106.603 29.0713 104.633 30.2523 102.764 41.8728 110.882 58.1529 111.464 70.3382 104.183 71.2193 105.848 72.0249 107.555 72.9045 109.22 73.7745 110.799 74.8728 112.54 76.7171 113.052 78.4158 113.524 79.7224 112.444 79.8274 110.728 79.9411 108.869 78.8039 107.039 77.8456 105.537 77.3652 104.784 76.8332 104.057 76.4419 103.252 76.0395 102.423 75.6737 101.579 75.249 100.762 93.9483 85.7283 93.332 55.9755 74.0163 41.7448ZM74.6112 37.436C74.0362 38.1549 73.7976 39.215 73.4676 40.0636 73.3387 40.396 73.2091 40.7284 73.0787 41.0601 72.3088 40.5137 71.5199 39.9992 70.7143 39.5149 71.166 38.2981 71.6337 37.102 72.1466 35.9035 73.0826 36.3178 73.998 36.7879 74.9022 37.2785 74.7965 37.2857 74.6939 37.3326 74.6112 37.436ZM51.7064 24.3951C52.4373 24.3291 53.1721 24.3156 53.9062 24.3251 54.707 24.4539 55.7385 24.5971 56.2212 25.3319 56.2244 25.3367 56.2403 25.359 56.2427 25.3812 56.2451 25.4011 56.2355 25.4218 56.2339 25.4258 56.1671 25.5864 55.989 25.7296 55.8045 25.8441 54.4183 26.7054 52.8071 26.5678 51.3008 26.2672 50.764 26.1503 49.7858 25.9737 49.4638 25.4536 48.9627 24.6901 51.2468 24.4221 51.7064 24.3951ZM53.3519 34.247C53.3002 33.1805 53.1872 32.1188 53.1848 31.042 53.1833 30.3485 53.1848 29.6558 53.1737 28.9623 53.1674 28.5743 53.2079 28.1194 53.1196 27.7177 54.5424 27.8092 58.2547 26.9439 57.3274 24.8023 57.1501 24.4277 56.8455 24.143 56.4884 23.9267 56.661 22.8578 54.649 23.1409 53.9936 23.0956 52.9924 23.0813 51.9888 23.1083 50.9963 23.2491 50.2193 23.3588 49.3516 23.5258 48.7369 24.0499 48.1444 24.5549 47.975 25.3844 48.3957 26.0596 49.1655 27.1873 50.6964 27.4131 51.9474 27.6231 51.8432 28.0987 51.945 28.6904 51.9355 29.1309 51.9196 29.8539 51.8878 30.5768 51.8671 31.2997 51.8432 32.1323 51.6881 33.3149 51.9697 34.2 45.9892 34.1078 40.19 35.4144 34.9492 37.9792 34.5221 36.7051 34.1221 35.4224 33.7125 34.142 36.698 33.0127 42.727 32.1061 44.331 29.2216 44.9871 27.9428 44.681 26.5622 43.8404 25.4544 42.8852 24.1963 41.507 23.2793 40.128 22.5429 37.9283 21.3007 35.5226 20.5491 32.9841 20.6986 35.1162 19.353 36.1795 16.8447 36.9954 14.5599 37.8519 11.9379 38.6568 9.07887 41.1492 7.47957 44.677 5.28938 49.0661 5.76734 53.0409 5.8079 55.2852 5.91367 57.5517 5.95661 59.7817 6.2453 71.6034 7.80165 66.6258 16.6674 72.7415 22.0705 70.7668 21.8446 68.8406 22.1683 66.9892 22.8467 64.5501 23.77 60.8823 25.421 60.6 28.3627 60.3336 32.3089 68.1837 34.1595 71.1151 35.4741 70.6579 36.6336 70.1982 37.7899 69.7274 38.9439 64.7593 36.1628 59.1876 34.546 53.3519 34.247ZM86.8139 36.0848C86.7844 37.9768 86.2174 39.7948 85.3609 41.4673 80.9487 39.4767 76.8888 36.7727 72.5323 34.67 72.5005 34.3185 72.075 34.1642 71.7696 34.3312 69.6176 33.4143 67.3622 32.728 65.2571 31.6965 63.1218 30.7517 60.5594 29.092 62.8705 26.7292 64.636 25.013 68.0812 23.6404 70.5258 23.4328 75.2649 23.1107 79.4027 25.8862 83.3552 28.1281 85.4802 30.2435 86.8616 33.0373 86.8139 36.0848ZM77.4567 22.7314C77.6229 22.2773 77.5091 21.7381 77.6523 21.2545 77.7931 20.7782 78.0141 20.3177 78.2965 19.9057 79.1506 20.1348 79.9976 20.5833 80.1749 21.5289 80.3554 22.4952 79.8091 23.296 79.46 24.1438 78.753 23.8121 78.0364 23.5378 77.3056 23.3238 77.16 23.261 77.0137 23.2006 76.8666 23.1409 76.7505 23.094 76.7974 23.0431 76.8658 23.0638 77.0972 23.1338 77.3724 22.962 77.4567 22.7314ZM25.6532 19.6417C25.887 18.7152 26.761 18.2945 27.6326 18.1283 27.8776 18.549 28.0669 18.996 28.1814 19.4747 28.3754 20.0449 27.911 21.2935 28.7182 21.381 28.8264 21.3929 28.6474 21.5559 28.3778 21.6132 27.635 21.7731 26.8994 21.9846 26.1797 22.251 25.8966 21.3937 25.4162 20.5809 25.6532 19.6417ZM19.0469 29.7449C19.7706 28.2919 20.8004 27.0338 22.018 25.9824 27.1539 23.4813 32.6755 20.4115 38.345 23.2038 40.089 23.9958 44.0392 26.0564 43.2304 28.408 42.2427 30.8026 35.5973 32.0385 33.1686 32.9745 32.8878 32.7574 32.4687 32.9204 32.382 33.2544 27.8362 34.954 23.6372 37.4599 19.0858 39.1474 17.8062 36.1373 17.5549 32.7415 19.0469 29.7449ZM29.9 39.0051C29.5636 38.0539 29.399 37.0241 28.9655 36.1151 30.1855 35.5592 31.4102 35.012 32.6596 34.5253 33.1193 35.8478 33.524 37.168 33.9201 38.5057 32.755 39.1212 31.6202 39.802 30.5187 40.5431 30.304 40.0342 30.0821 39.5268 29.9 39.0051ZM26.7666 106.198C25.9578 107.541 24.9669 109.321 23.3938 109.871 22.9238 110.035 22.255 110.163 21.8629 109.764 21.3921 109.284 21.5154 108.407 21.676 107.827 22.1103 106.26 23.2053 104.898 24.1724 103.623 25.289 102.15 26.0341 100.477 27.0815 98.9593 27.5094 98.3613 28.0048 97.9342 28.5377 97.4419 28.8224 97.1787 28.9409 97.1183 29.3369 97.2367 29.659 97.333 30.005 97.5342 30.2173 97.8022 31.0658 99.0373 29.8698 100.819 29.317 101.939 29.317 101.939 29.2471 102.054 29.251 102.057 28.4717 103.46 27.5929 104.826 26.7666 106.198ZM78.3752 109.246C78.7092 110.298 78.8055 112.256 77.1688 111.899 75.5599 111.549 74.6374 109.834 73.9169 108.511 73.388 107.541 72.9284 106.537 72.4273 105.553 71.9462 104.608 71.4253 103.688 71.0022 102.715 70.4423 101.469 69.6653 99.2583 71.4865 98.7557 71.8404 98.646 72.0838 98.5999 72.3351 98.8782 72.856 99.4556 73.3618 99.9574 73.7745 100.629 74.6096 102.042 75.136 103.612 76.0275 104.99 76.9008 106.339 77.8845 107.699 78.3752 109.246ZM87.0684 72.9912C86.7129 83.1469 82.0565 92.6329 74.266 99.1351 73.8596 98.576 73.3586 98.067 72.7113 97.9342 72.3017 97.8499 71.9462 97.6415 71.5175 97.6368 71.0173 97.6304 70.5115 97.8205 70.1131 98.1163 68.7524 99.1263 69.0752 100.982 69.5906 102.443 57.9366 109.518 42.2307 108.963 31.1144 101.077 31.7227 99.6608 32.1594 97.8881 30.9235 96.7731 30.5752 96.459 30.1099 96.2363 29.6439 96.1814 29.154 96.1242 28.7476 96.3174 28.2736 96.389 27.6374 96.4852 27.1221 96.9369 26.6894 97.4499 3.22802 75.1289 20.2795 34.8036 52.6663 36.0944 72.3232 36.7823 87.7563 53.3344 87.0684 72.9912Z" transform="matrix(1 0 0 1.00081 -203 679)"/><path d="M52.0929 41.173C24.9931 40.1781 10.1056 72.8441 28.6323 92.6432 39.6095 104.904 60.0735 105.636 71.8985 94.1566 91.7637 75.7007 79.1943 42.0725 52.0929 41.173ZM80.0874 72.7836C79.157 98.5887 47.3666 110.458 29.7528 91.599 12.4755 73.1701 25.7582 42.6307 50.9986 42.684 67.0155 42.3285 80.9948 56.7843 80.0874 72.7836Z" transform="matrix(1 0 0 1.00081 -203 679)"/><path d="M56.4709 81.0688C55.1388 78.8126 53.8926 76.5039 52.6767 74.1825 54.3396 72.724 53.3837 70.0805 51.3032 69.682 51.3621 65.1124 52.1804 60.565 51.9649 55.9898 51.8901 54.5464 51.8019 53.0934 51.3605 51.7112 51.2332 51.3128 50.5334 51.3549 50.5891 51.8154 51.4034 57.8873 49.8423 63.9441 49.8176 70.02 47.2831 71.0754 48.1181 74.9134 50.9668 74.6732 51.1235 74.7074 51.2873 74.7201 51.4559 74.7082 52.9447 77.5736 54.7038 80.2894 56.5059 82.9632 56.7795 83.329 57.1405 83.8268 57.5692 84.0137 57.7195 84.0789 57.9446 84.0073 57.9295 83.8069 57.8961 83.3608 57.6161 82.9146 57.3998 82.5313 57.1159 82.0303 56.7684 81.5635 56.4709 81.0688Z" transform="matrix(1 0 0 1.00081 -203 679)"/><path d="M65.5824 48.7234C64.8849 49.2952 64.267 49.9799 63.6372 50.6249 63.0256 51.2507 62.4077 51.9347 62.0808 52.757 61.8621 53.3081 62.725 53.6302 63.0145 53.1507 63.498 52.3498 64.0237 51.6786 64.6798 51.0082 65.2675 50.4077 65.8671 49.8709 66.194 49.0788 66.3483 48.7035 65.8273 48.5229 65.5824 48.7234Z" transform="matrix(1 0 0 1.00081 -203 679)"/><path d="M37.5481 53.262C37.8853 53.499 38.2782 53.0441 38.0913 52.7188 37.7199 52.0731 37.2157 51.5124 36.8014 50.8929 36.4546 50.3743 36.1429 49.8391 35.7564 49.3508 35.3794 48.8745 34.74 49.4813 34.9667 49.96 35.2506 50.5604 35.6808 51.0901 36.0769 51.6229 36.5206 52.2202 36.9326 52.8302 37.5481 53.262Z" transform="matrix(1 0 0 1.00081 -203 679)"/><path d="M70.3731 61.8963C71.6138 61.2275 73.062 61.0962 74.3034 60.4624 74.5014 60.3614 74.4632 60.0179 74.2398 59.9741 72.7812 59.6878 71.2901 60.4274 69.958 60.9125 69.2263 61.179 69.6844 62.2669 70.3731 61.8963Z" transform="matrix(1 0 0 1.00081 -203 679)"/><path d="M73.7212 72.0551C73.6393 72.0289 73.5542 72.013 73.4684 72.0074 73.4485 72.0098 73.4318 72.0122 73.4167 72.0138 72.8488 71.8412 72.6166 72.6023 73.0278 72.9125 73.0659 72.9411 73.1296 72.9904 73.1383 72.996 73.3817 73.1431 73.5829 73.1884 73.7944 73.2353 74.9714 73.4493 76.1397 74.0075 77.3398 73.7435 77.5378 73.6958 77.5298 73.4517 77.3914 73.3483 76.7258 72.8544 75.9568 72.7415 75.1702 72.5244 74.6796 72.3915 74.2 72.219 73.7212 72.0551Z" transform="matrix(1 0 0 1.00081 -203 679)"/><path d="M71.9446 84.4797C71.4309 84.0877 70.9394 83.6002 70.3366 83.352 69.966 83.1993 69.5938 83.7163 69.8133 84.0328 70.1902 84.5768 70.8137 84.9553 71.3489 85.3307 71.8388 85.6742 72.3828 86.1315 72.9785 86.2683 73.3801 86.3606 73.7594 85.8373 73.4079 85.5303 72.9578 85.1382 72.4202 84.8416 71.9446 84.4797Z" transform="matrix(1 0 0 1.00081 -203 679)"/><path d="M62.4943 92.6289C62.3226 92.1199 62.1905 91.2197 61.6641 90.9573 61.4215 90.8364 61.1249 90.9342 61.0462 91.2086 60.8768 91.8018 61.4207 92.6949 61.6347 93.2397 61.8987 93.9117 62.1078 94.602 62.7154 95.0378 62.9898 95.2343 63.3095 94.9114 63.2467 94.6298 63.0908 93.9364 62.7218 93.3017 62.4943 92.6289Z" transform="matrix(1 0 0 1.00081 -203 679)"/><path d="M50.2026 92.2058C49.7827 93.5284 49.8837 95.0187 49.6037 96.3794 49.4725 97.0149 50.4594 97.2797 50.574 96.6467 50.8261 95.251 51.0559 93.6023 50.7187 92.2058 50.6535 91.9394 50.2789 91.9649 50.2026 92.2058Z" transform="matrix(1 0 0 1.00081 -203 679)"/><path d="M39.1975 89.121C38.5438 89.5059 38.1462 90.3067 37.7096 90.9 37.3883 91.3573 37.0344 91.7923 36.6837 92.2241 36.6376 92.2957 36.5612 92.4579 36.5525 92.6329 36.5358 92.9621 36.7783 93.3471 37.1608 93.1872 37.8066 92.9168 38.1215 92.2122 38.4802 91.6332 38.8937 90.9644 39.4886 90.2837 39.7232 89.525 39.8155 89.2236 39.4608 88.9659 39.1975 89.121Z" transform="matrix(1 0 0 1.00081 -203 679)"/><path d="M31.3712 81.3607C30.7605 81.3002 30.1576 81.5666 29.6049 81.7973 29.0657 82.0223 28.4104 82.2124 27.9396 82.5583 27.4879 82.89 27.7392 83.6328 28.3333 83.492 28.8725 83.364 29.3592 83.0013 29.8626 82.7731 30.4209 82.5202 31.0317 82.3977 31.578 82.1217 31.9733 81.9221 31.7379 81.3965 31.3712 81.3607Z" transform="matrix(1 0 0 1.00081 -203 679)"/><path d="M29.1333 72.961C29.6025 72.8814 29.5381 72.1935 29.1333 72.0742 28.4351 71.8691 27.7877 71.8189 27.1261 71.465 26.5511 71.1573 26.0135 70.5735 25.378 70.4232 25.0003 70.3342 24.7728 70.7064 24.912 71.0292 25.2134 71.7275 26.2178 72.1927 26.8763 72.4862 27.5603 72.7908 28.3786 73.0882 29.1333 72.961Z" transform="matrix(1 0 0 1.00081 -203 679)"/><path d="M29.2375 59.4468C29.721 59.8795 30.2157 60.3439 30.7891 60.6565 31.2289 60.8966 31.621 60.3479 31.3084 59.9837 30.8869 59.4938 30.3549 59.1009 29.8761 58.6691 29.4093 58.2484 28.9647 57.6432 28.4096 57.3473 28.0009 57.1294 27.6263 57.5573 27.8076 57.9493 28.0796 58.5394 28.7603 59.0206 29.2375 59.4468Z" transform="matrix(1 0 0 1.00081 -203 679)"/><path d="M51.3064 48.5858C51.8186 48.2327 51.7915 47.4231 51.8432 46.8521 51.9045 46.1729 51.9108 45.4253 51.6269 44.7947 51.0782 44.1879 50.8746 46.3662 50.8547 46.658 50.7966 47.2028 50.5223 47.9352 50.764 48.4426 50.8515 48.6271 51.141 48.6995 51.3064 48.5858Z" transform="matrix(1 0 0 1.00081 -203 679)"/><path d="M91.0773 33.2155C91.4829 32.4027 91.3772 31.3784 91.2634 30.5068 90.8777 27.643 89.2705 24.9995 86.9356 23.3056 86.4584 22.9564 86.0098 23.7477 86.4743 24.0953 88.5587 25.6429 89.9131 28.0597 90.2908 30.6157 90.422 31.4444 90.3115 32.3319 90.5175 33.1423 90.5803 33.3873 90.9588 33.4541 91.0773 33.2155Z" transform="matrix(1 0 0 1.00081 -203 679)"/><path d="M89.4518 23.2181C91.6563 24.9891 92.3585 27.1817 92.8039 29.8634 92.8532 30.106 93.25 30.1091 93.297 29.8634 93.8139 27.1722 92.0524 24.2654 90.0149 22.6542 89.6188 22.3417 89.0518 22.8928 89.4518 23.2181Z" transform="matrix(1 0 0 1.00081 -203 679)"/><path d="M17.4149 23.9171C17.9359 23.5521 18.4886 23.2435 18.9641 22.8165 19.2671 22.5445 18.9339 22.1492 18.6047 22.1993 15.9834 22.7306 13.6191 25.9896 12.796 28.4041 12.5805 29.0188 13.5467 29.2749 13.7662 28.6721 14.4589 26.7618 15.7576 25.0886 17.4149 23.9171Z" transform="matrix(1 0 0 1.00081 -203 679)"/><path d="M12.2687 25.9785C12.9018 24.2257 14.1305 22.7035 15.7043 21.707 15.9652 21.513 17.8539 20.5976 16.9656 20.3201 15.7035 20.2406 14.3993 21.4287 13.5873 22.2749 12.6345 23.2682 11.9434 24.4651 11.5235 25.7733 11.3709 26.2505 12.1017 26.4397 12.2687 25.9785Z" transform="matrix(1 0 0 1.00081 -203 679)"/><path d="M12.1629 55.453C8.86494 61.2744 8.03944 68.2474 9.28007 74.7766 9.44549 75.6737 9.54967 76.7481 10.1477 77.4686 10.3919 77.7636 10.9732 77.6141 11.0376 77.2332 11.1911 76.3337 10.8126 75.3889 10.64 74.507 10.1207 71.8659 9.95924 69.154 10.1589 66.4699 10.4324 62.8371 11.4225 59.2401 13.1324 56.0208 13.472 55.383 12.5176 54.8191 12.1629 55.453Z" transform="matrix(1 0 0 1.00081 -203 679)"/><path d="M6.91174 57.0268C4.74461 61.0764 4.3597 65.9633 4.33823 70.4821 4.35175 71.2893 4.38833 72.0957 4.44639 72.9013 4.47104 73.2457 4.48058 73.6012 4.54023 73.9415 4.60862 74.3344 4.62612 74.7742 4.87106 75.0963 5.03887 75.3182 5.45877 75.4208 5.60272 75.0963 5.8747 74.4823 5.70292 73.6704 5.64805 73.0119 5.34584 69.2526 5.47309 65.4265 6.34789 61.7476 6.70656 60.2541 7.23621 58.8138 7.63305 57.3314 7.74678 56.9028 7.13601 56.634 6.91174 57.0268Z" transform="matrix(1 0 0 1.00081 -203 679)"/><path d="M92.376 67.029C93.4099 72.6182 92.8969 78.4022 91.2062 83.8109 90.993 84.5943 90.5604 85.3697 90.5405 86.1912 90.5326 86.5164 90.974 86.7121 91.199 86.464 91.7319 85.8778 91.9346 85.038 92.2019 84.3095 93.0671 81.9245 93.5403 79.4107 93.8123 76.8928 94.163 73.5113 94.0127 70.0884 93.4115 66.7443 93.289 66.0643 92.2543 66.3522 92.376 67.029Z" transform="matrix(1 0 0 1.00081 -203 679)"/><path d="M97.3059 71.3116C97.1843 70.8185 96.4303 71.0269 96.5457 71.5215 97.1477 74.1062 97.2002 76.7171 96.7763 79.3319 96.5759 80.567 96.2745 81.783 95.8617 82.9639 95.4291 84.2022 94.8024 85.3641 94.4103 86.6079 94.3078 86.934 94.7595 87.2051 94.9925 86.9467 95.8689 85.9717 96.3977 84.6738 96.8256 83.4403 98.1887 79.5673 98.2961 75.2848 97.3059 71.3116Z" transform="matrix(1 0 0 1.00081 -203 679)"/></g></svg>