<svg width="484" height="489" xmlns="http://www.w3.org/2000/svg" xmlns:xlink="http://www.w3.org/1999/xlink" xml:space="preserve" overflow="hidden"><defs><clipPath id="clip0"><rect x="631" y="231" width="484" height="489"/></clipPath></defs><g clip-path="url(#clip0)" transform="translate(-631 -231)"><path d="M552.259 512.155 513.47 512.155 513.47 474.022 531.221 474.022 531.221 472.708 513.47 472.708 513.47 260.351 512.155 260.351 512.155 472.708 474.022 472.708 474.022 434.575 503.608 434.575 503.608 433.26 474.022 433.26 474.022 395.128 489.144 395.128 489.144 393.813 474.022 393.813 474.022 242.205 472.708 242.205 472.708 393.813 434.575 393.813 434.575 355.681 468.105 355.681 468.105 354.366 434.575 354.366 434.575 316.234 447.067 316.234 447.067 314.919 434.575 314.919 434.575 224.059 433.26 224.059 433.26 314.919 395.128 314.919 395.128 276.787 426.029 276.787 426.029 275.472 395.128 275.472 395.128 237.34 404.99 237.34 404.99 236.025 395.128 236.025 395.128 205.914 393.813 205.914 393.813 236.025 355.681 236.025 355.681 197.893 383.952 197.893 383.952 196.578 355.681 196.578 355.681 187.768 354.366 187.768 354.366 196.578 316.234 196.578 316.234 169.622 314.919 169.622 314.919 196.578 276.787 196.578 276.787 158.446 362.913 158.446 362.913 157.131 276.787 157.131 276.787 151.477 275.472 151.477 275.472 157.131 237.34 157.131 237.34 133.331 236.025 133.331 236.025 157.131 197.893 157.131 197.893 118.999 341.875 118.999 341.875 117.684 197.893 117.684 197.893 115.185 196.578 115.185 196.578 117.684 158.446 117.684 158.446 97.0398 157.131 97.0398 157.131 117.684 118.999 117.684 118.999 78.8942 117.684 78.8942 117.684 117.684 78.8942 117.684 78.8942 118.999 117.684 118.999 117.684 157.131 101.773 157.131 101.773 158.446 117.684 158.446 117.684 323.466 118.999 323.466 118.999 158.446 157.131 158.446 157.131 196.578 124.653 196.578 124.653 197.893 157.131 197.893 157.131 236.025 147.532 236.025 147.532 237.34 157.131 237.34 157.131 346.345 158.446 346.345 158.446 237.34 196.578 237.34 196.578 275.472 170.411 275.472 170.411 276.787 196.578 276.787 196.578 314.919 193.291 314.919 193.291 316.234 196.578 316.234 196.578 369.225 197.893 369.225 197.893 316.234 236.025 316.234 236.025 354.366 216.17 354.366 216.17 355.681 236.025 355.681 236.025 392.104 237.34 392.104 237.34 355.681 275.472 355.681 275.472 393.813 239.049 393.813 239.049 395.128 275.472 395.128 275.472 414.983 276.787 414.983 276.787 395.128 314.919 395.128 314.919 433.26 261.929 433.26 261.929 434.575 314.919 434.575 314.919 437.863 316.234 437.863 316.234 434.575 354.366 434.575 354.366 460.742 355.681 460.742 355.681 434.575 393.813 434.575 393.813 472.708 284.808 472.708 284.808 474.022 393.813 474.022 393.813 483.621 395.128 483.621 395.128 474.022 433.26 474.022 433.26 506.501 434.575 506.501 434.575 474.022 472.708 474.022 472.708 512.155 307.687 512.155 307.687 513.47 472.708 513.47 472.708 529.38 474.022 529.38 474.022 513.47 512.155 513.47 512.155 552.259 513.47 552.259 513.47 513.47 552.259 513.47 552.259 512.155ZM472.708 395.128 472.708 433.26 434.575 433.26 434.575 395.128 472.708 395.128ZM433.26 433.26 395.128 433.26 395.128 395.128 433.26 395.128 433.26 433.26ZM433.26 393.813 395.128 393.813 395.128 355.681 433.26 355.681 433.26 393.813ZM237.34 197.893 275.472 197.893 275.472 236.025 237.34 236.025 237.34 197.893ZM236.025 236.025 197.893 236.025 197.893 197.893 236.025 197.893 236.025 236.025ZM275.472 237.34 275.472 275.472 237.34 275.472 237.34 237.34 275.472 237.34ZM316.234 275.472 316.234 237.34 354.366 237.34 354.366 275.472 316.234 275.472ZM354.366 276.787 354.366 314.919 316.234 314.919 316.234 276.787 354.366 276.787ZM314.919 275.472 276.787 275.472 276.787 237.34 314.919 237.34 314.919 275.472ZM275.472 276.787 275.472 314.919 237.34 314.919 237.34 276.787 275.472 276.787ZM276.787 276.787 314.919 276.787 314.919 314.919 276.787 314.919 276.787 276.787ZM314.919 316.234 314.919 354.366 276.787 354.366 276.787 316.234 314.919 316.234ZM316.234 316.234 354.366 316.234 354.366 354.366 316.234 354.366 316.234 316.234ZM355.681 316.234 393.813 316.234 393.813 354.366 355.681 354.366 355.681 316.234ZM354.366 355.681 354.366 393.813 316.234 393.813 316.234 355.681 354.366 355.681ZM355.681 355.681 393.813 355.681 393.813 393.813 355.681 393.813 355.681 355.681ZM433.26 316.234 433.26 354.366 395.128 354.366 395.128 316.234 433.26 316.234ZM393.813 314.919 355.681 314.919 355.681 276.787 393.813 276.787 393.813 314.919ZM393.813 237.34 393.813 275.472 355.681 275.472 355.681 237.34 393.813 237.34ZM354.366 197.893 354.366 236.025 316.234 236.025 316.234 197.893 354.366 197.893ZM314.919 197.893 314.919 236.025 276.787 236.025 276.787 197.893 314.919 197.893ZM275.472 158.446 275.472 196.578 237.34 196.578 237.34 158.446 275.472 158.446ZM236.025 158.446 236.025 196.578 197.893 196.578 197.893 158.446 236.025 158.446ZM196.578 118.999 196.578 157.131 158.446 157.131 158.446 118.999 196.578 118.999ZM118.999 157.131 118.999 118.999 157.131 118.999 157.131 157.131 118.999 157.131ZM158.446 158.446 196.578 158.446 196.578 196.578 158.446 196.578 158.446 158.446ZM158.446 236.025 158.446 197.893 196.578 197.893 196.578 236.025 158.446 236.025ZM197.893 237.34 236.025 237.34 236.025 275.472 197.893 275.472 197.893 237.34ZM197.893 314.919 197.893 276.787 236.025 276.787 236.025 314.919 197.893 314.919ZM237.34 354.366 237.34 316.234 275.472 316.234 275.472 354.366 237.34 354.366ZM276.787 393.813 276.787 355.681 314.919 355.681 314.919 393.813 276.787 393.813ZM316.234 433.26 316.234 395.128 354.366 395.128 354.366 433.26 316.234 433.26ZM355.681 433.26 355.681 395.128 393.813 395.128 393.813 433.26 355.681 433.26ZM395.128 472.708 395.128 434.575 433.26 434.575 433.26 472.708 395.128 472.708ZM434.575 472.708 434.575 434.575 472.708 434.575 472.708 472.708 434.575 472.708ZM474.022 512.155 474.022 474.022 512.155 474.022 512.155 512.155 474.022 512.155Z" fill="#E6E6E6" transform="matrix(1 0 0 1.00101 557.414 159.45)"/><path d="M233.097 176.841C233.097 183.326 227.84 188.583 221.355 188.583 214.871 188.583 209.614 183.326 209.614 176.841 209.614 170.357 214.871 165.1 221.355 165.1 227.84 165.1 233.097 170.357 233.097 176.841Z" fill="#D2D2D2" transform="matrix(1 0 0 1.00101 557.414 159.45)"/><path d="M465.476 490.366C465.476 496.851 460.219 502.108 453.734 502.108 447.25 502.108 441.993 496.851 441.993 490.366 441.993 483.881 447.25 478.625 453.734 478.625 460.219 478.625 465.476 483.881 465.476 490.366Z" fill="#F2F2F2" transform="matrix(1 0 0 1.00101 557.414 159.45)"/><path d="M465.476 335.393C465.476 341.878 460.219 347.134 453.734 347.134 447.25 347.134 441.993 341.878 441.993 335.393 441.993 328.908 447.25 323.651 453.734 323.651 460.219 323.651 465.476 328.908 465.476 335.393Z" fill="#D2D2D2" transform="matrix(1 0 0 1.00101 557.414 159.45)"/><path d="M425.843 414.287C425.843 420.772 420.586 426.029 414.102 426.029 407.617 426.029 402.36 420.772 402.36 414.287 402.36 407.802 407.617 402.546 414.102 402.546 420.586 402.546 425.843 407.802 425.843 414.287Z" fill="#737373" transform="matrix(1 0 0 1.00101 557.414 159.45)"/><path d="M325.911 435.14C325.911 441.625 320.654 446.882 314.169 446.882 307.684 446.882 302.428 441.625 302.428 435.14 302.428 428.656 307.684 423.399 314.169 423.399 320.654 423.399 325.911 428.656 325.911 435.14Z" fill="#737373" transform="matrix(1 0 0 1.00101 557.414 159.45)"/><path d="M328.54 216.866C328.54 223.351 323.283 228.608 316.799 228.608 310.314 228.608 305.057 223.351 305.057 216.866 305.057 210.382 310.314 205.125 316.799 205.125 323.283 205.125 328.54 210.382 328.54 216.866Z" fill="#F2F2F2" transform="matrix(1 0 0 1.00101 557.414 159.45)"/><path d="M307.687 256.499C307.687 262.983 302.43 268.24 295.946 268.24 289.461 268.24 284.204 262.983 284.204 256.499 284.204 250.014 289.461 244.757 295.946 244.757 302.43 244.757 307.687 250.014 307.687 256.499Z" fill="#737373" transform="matrix(1 0 0 1.00101 557.414 159.45)"/><path d="M110.268 217.05C110.268 223.534 105.012 228.791 98.527 228.791 92.0424 228.791 86.7856 223.534 86.7856 217.05 86.7856 210.565 92.0424 205.308 98.527 205.308 105.012 205.308 110.268 210.565 110.268 217.05Z" fill="#F2F2F2" transform="matrix(1 0 0 1.00101 557.414 159.45)"/><path d="M207.753 238.088C207.753 244.573 202.496 249.83 196.011 249.83 189.527 249.83 184.27 244.573 184.27 238.088 184.27 231.604 189.527 226.347 196.011 226.347 202.496 226.347 207.753 231.604 207.753 238.088Z" fill="#505050" transform="matrix(1 0 0 1.00101 557.414 159.45)"/><path d="M368.171 237.907C368.171 244.391 362.914 249.648 356.429 249.648 349.945 249.648 344.688 244.391 344.688 237.907 344.688 231.422 349.945 226.165 356.429 226.165 362.914 226.165 368.171 231.422 368.171 237.907Z" fill="#F2F2F2" transform="matrix(1 0 0 1.00101 557.414 159.45)"/><path d="M430.098 289.945C430.098 296.43 424.841 301.687 418.356 301.687 411.871 301.687 406.615 296.43 406.615 289.945 406.615 283.461 411.871 278.204 418.356 278.204 424.841 278.204 430.098 283.461 430.098 289.945Z" fill="#505050" transform="matrix(1 0 0 1.00101 557.414 159.45)"/><path d="M386.187 399.468C386.187 405.953 380.93 411.21 374.446 411.21 367.961 411.21 362.704 405.953 362.704 399.468 362.704 392.984 367.961 387.727 374.446 387.727 380.93 387.727 386.187 392.984 386.187 399.468Z" fill="#F2F2F2" transform="matrix(1 0 0 1.00101 557.414 159.45)"/><path d="M182.983 306.669C182.983 313.153 177.726 318.41 171.242 318.41 164.757 318.41 159.5 313.153 159.5 306.669 159.5 300.184 164.757 294.927 171.242 294.927 177.726 294.927 182.983 300.184 182.983 306.669Z" fill="#505050" transform="matrix(1 0 0 1.00101 557.414 159.45)"/><path d="M149.897 177.421C149.897 183.906 144.64 189.163 138.156 189.163 131.671 189.163 126.414 183.906 126.414 177.421 126.414 170.937 131.671 165.68 138.156 165.68 144.64 165.68 149.897 170.937 149.897 177.421Z" fill="#737373" transform="matrix(1 0 0 1.00101 557.414 159.45)"/><path d="M309.414 352.959C309.414 359.443 304.158 364.7 297.673 364.7 291.188 364.7 285.932 359.443 285.932 352.959 285.932 346.474 291.188 341.217 297.673 341.217 304.158 341.217 309.414 346.474 309.414 352.959Z" fill="#D2D2D2" transform="matrix(1 0 0 1.00101 557.414 159.45)"/><path d="M389.211 272.278C389.211 278.762 383.954 284.019 377.47 284.019 370.985 284.019 365.728 278.762 365.728 272.278 365.728 265.793 370.985 260.536 377.47 260.536 383.954 260.536 389.211 265.793 389.211 272.278Z" fill="#505050" transform="matrix(1 0 0 1.00101 557.414 159.45)"/><path d="M368.12 341.218C368.12 347.703 362.863 352.959 356.379 352.959 349.894 352.959 344.637 347.703 344.637 341.218 344.637 334.733 349.894 329.477 356.379 329.477 362.863 329.477 368.12 334.733 368.12 341.218Z" fill="#D2D2D2" transform="matrix(1 0 0 1.00101 557.414 159.45)"/><path d="M410.25 326.707C410.25 329.949 407.621 332.577 404.379 332.577 401.137 332.577 398.509 329.949 398.509 326.707 398.509 323.465 401.137 320.836 404.379 320.836 407.621 320.836 410.25 323.465 410.25 326.707Z" fill="#505050" transform="matrix(1 0 0 1.00101 557.414 159.45)"/><path d="M333.985 288.668C333.985 291.91 331.357 294.538 328.115 294.538 324.873 294.538 322.245 291.91 322.245 288.668 322.245 285.426 324.873 282.798 328.115 282.798 331.357 282.798 333.985 285.426 333.985 288.668Z" fill="#505050" transform="matrix(1 0 0 1.00101 557.414 159.45)"/><path d="M409.214 247.289C409.214 250.531 406.585 253.159 403.343 253.159 400.101 253.159 397.473 250.531 397.473 247.289 397.473 244.046 400.101 241.418 403.343 241.418 406.585 241.418 409.214 244.046 409.214 247.289Z" fill="#F2F2F2" transform="matrix(1 0 0 1.00101 557.414 159.45)"/><path d="M294.538 401.75C294.538 404.992 291.91 407.62 288.668 407.62 285.426 407.62 282.798 404.992 282.798 401.75 282.798 398.507 285.426 395.879 288.668 395.879 291.91 395.879 294.538 398.507 294.538 401.75Z" fill="#505050" transform="matrix(1 0 0 1.00101 557.414 159.45)"/><path d="M310.317 374.043C310.317 377.285 307.689 379.914 304.447 379.914 301.205 379.914 298.576 377.285 298.576 374.043 298.576 370.801 301.205 368.173 304.447 368.173 307.689 368.173 310.317 370.801 310.317 374.043Z" fill="#505050" transform="matrix(1 0 0 1.00101 557.414 159.45)"/><path d="M348.356 381.933C348.356 385.175 345.728 387.803 342.486 387.803 339.243 387.803 336.615 385.175 336.615 381.933 336.615 378.691 339.243 376.062 342.486 376.062 345.728 376.062 348.356 378.69 348.356 381.933Z" fill="#505050" transform="matrix(1 0 0 1.00101 557.414 159.45)"/><path d="M230.015 263.591C230.015 266.833 227.386 269.462 224.144 269.462 220.902 269.462 218.274 266.833 218.274 263.591 218.274 260.349 220.902 257.721 224.144 257.721 227.386 257.721 230.015 260.349 230.015 263.591Z" fill="#505050" transform="matrix(1 0 0 1.00101 557.414 159.45)"/><path d="M310.317 304.447C310.317 307.689 307.689 310.317 304.447 310.317 301.205 310.317 298.576 307.689 298.576 304.447 298.576 301.205 301.205 298.576 304.447 298.576 307.689 298.576 310.317 301.205 310.317 304.447Z" fill="#505050" transform="matrix(1 0 0 1.00101 557.414 159.45)"/></g></svg>