<svg width="200" height="415" xmlns="http://www.w3.org/2000/svg" xmlns:xlink="http://www.w3.org/1999/xlink" xml:space="preserve" overflow="hidden"><defs><clipPath id="clip0"><rect x="726" y="173" width="200" height="415"/></clipPath></defs><g clip-path="url(#clip0)" transform="translate(-726 -173)"><path d="M917.477 179.537C917.477 179.537 902.409 194.548 900.915 197.19 899.485 199.721 897.239 203.164 895.975 204.887 894.711 206.61 881.213 219.304 881.213 219.304 881.213 219.304 876.101 223.669 873.43 227.633 870.759 231.597 868.059 238.891 864.613 243.831 862.307 247.137 856.801 254.917 854.561 258.478 852.742 261.369 842.728 266.52 838.133 266.807 838.133 266.807 830.063 269.851 828.914 270.282 828.914 270.282 822.768 274.676 817.168 271.517L805.91 264.567 805.45 260.316C805.45 260.316 795.972 257.616 795.972 268.817 795.972 268.817 789.855 270.425 790.142 273.728 790.142 273.728 784.8 273.383 782.589 273.814 780.378 274.245 778.597 276.054 777.017 277.892 775.437 279.73 772.135 285.646 770.526 287.542 769.686 288.532 760.478 296.554 751.686 305.233 743.64 313.176 735.251 324.548 733.535 327.979 733.535 327.979 729.974 335.791 760.991 356.44L752.145 419.078 741.806 478.585C741.635 479.614 742.498 480.811 743.494 480.502 748.929 478.815 754.299 479.504 753.869 483.18 753.869 483.18 750.48 492.658 783.508 487.201 783.508 487.201 778.338 511.785 781.383 529.333 781.383 529.333 783.853 540.965 783.508 543.377 783.319 544.699 781.895 546.875 781.44 548.776 781.065 550.345 781.524 551.733 781.095 552.222 777.878 555.898 772.364 569.799 772.364 569.799 772.364 569.799 766.668 575.458 770.066 578.874 771.658 580.474 775.47 581.178 782.387 581.315 782.387 581.315 794.995 583.469 797.522 574.508 797.522 574.508 800.538 576.03 801.256 572.44 801.256 572.44 801.83 560.665 801.313 557.563 800.973 555.523 800.222 553.715 800.222 553.715 800.222 553.715 805.363 549.867 804.358 544.841 803.353 539.815 801.888 529.361 803.382 516.38 804.875 503.399 810.39 484.386 810.39 484.386L817.895 484.175C817.895 484.175 832.063 487.238 836.735 485.554L838.037 499.416 841.407 517.988C841.407 517.988 843.475 526.681 842.699 530.625 842.269 532.812 840.105 537.173 840.871 540.926 841.637 544.679 846.845 548.814 846.845 548.814L844.972 569.494C844.823 570.743 845.565 571.919 846.691 572.479 850.51 574.377 856.625 575.078 861.396 574.509 862.373 574.392 863.152 573.637 864 573.475 864 573.475 868.715 576.902 884.525 576.232 888.137 576.079 891.024 575.884 892.72 575.007 895.268 573.689 895.55 571.385 894.941 569.799 893.926 567.157 883.989 561.298 883.989 561.298 883.989 561.298 874.148 547.714 867.686 543.836 867.686 543.836 871.496 539.758 870.204 537.173 868.912 534.588 866.166 533.193 866.375 531.046 868.213 512.129 864.843 488.569 864.843 484.405L864.588 482.694C864.426 481.605 865.077 480.559 866.125 480.224L880.389 476.517 864.076 414.865 860.247 371.288C860.247 371.288 857.873 346.857 856.954 331.157 856.035 315.457 855.882 296.31 855.882 296.31 855.882 296.31 865.532 286.507 866.451 283.75 867.37 280.993 865.991 275.555 865.991 275.555 865.991 275.555 878.857 250.282 884.372 241.168 889.417 232.829 904.744 209.538 904.744 209.538 904.744 209.538 906.946 211.529 910.668 208.861 910.846 208.733 911.517 209.005 911.445 209.212 911.024 210.418 911.558 212.307 913.857 210.993 916.873 209.27 918.663 205.23 918.663 205.23 918.663 205.23 920.424 201.075 918.184 200.922 918.184 200.922 919.448 195.963 917.456 194.278 916.349 193.341 914.285 193.274 911.274 193.345 911.072 193.35 910.966 193.106 911.108 192.962 911.108 192.962 920.06 183.862 920.443 183.058 920.742 182.43 921.975 179.095 919.849 177.391 919.459 177.078 918.89 178.312 917.477 179.537ZM764.094 337.438C764.031 338.422 763.011 339.345 762.486 338.51L754.403 325.969C754.23 325.696 754.287 325.336 754.537 325.13L765.077 316.45C765.357 316.219 765.778 316.435 765.754 316.797L764.094 337.438Z" fill="#FFFFFF"/><path d="M894.611 570.327C893.393 567.872 890.787 566.059 888.293 564.696 886.643 563.727 885.085 562.812 883.726 561.558 883.524 561.367 881.363 558.43 880.868 557.451 880.696 557.221 873.86 547.284 869.495 544.987 868.374 544.397 867.585 543.432 866.926 543.007 863.532 541.484 859.721 544.358 859.53 547.752 859.491 548.002 859.008 548.303 858.85 548.65 856.844 553.538 851.357 552.608 847.889 550.36 847.7 550.251 847.469 550.244 847.274 550.341 847.079 550.439 846.947 550.629 846.922 550.846 846.488 554.679 846.268 558.589 846.055 562.371 845.964 565.215 845.595 568.145 845.551 571.012 850.316 573.666 855.622 573.908 861.911 573.848 862.133 573.846 863.857 572.821 864.852 573.425 869.162 576.04 874.726 575.543 879.663 575.553 884.293 574.996 894.795 577.579 894.611 570.327Z" fill="#FFFFFF"/><path d="M801.059 559.534C800.948 557.893 800.346 556.391 800.224 554.808 800.21 554.598 799.624 553.468 799.707 553.142 800.093 551.629 797.194 552.198 796.433 552.223 795.566 552.26 795.279 549.864 794.296 548.583 792.754 546.087 780.209 546.712 782.188 551.304 782.116 551.952 778.857 554.061 773.4 567.617 772.384 570.141 768.541 574.468 769.322 577.267 770.145 580.811 780.277 581.176 784.543 581.46 791.1 581.386 795.269 579.492 796.501 575.226 796.552 575.05 797.689 573.995 798.083 574.377 798.477 574.759 799.402 574.659 800.376 573.808 801.304 572.568 800.685 569.314 800.941 567.643 800.977 564.934 801.239 562.26 801.059 559.534Z" fill="#FFFFFF"/><path d="M869.668 537.404C869.263 536.373 868.313 535.615 867.715 534.762 866.534 533.007 866.218 528.254 866.222 528.214 869.015 498.825 860.214 475.018 863.465 448.143 865.929 430.083 863.758 411.919 861.972 393.92 861.957 393.454 860.641 392.618 860.249 392.886 853.749 396.944 845.589 399.616 834.861 401.387 819.93 403.947 804.648 406.804 789.714 403.799 788.912 403.638 787.482 404.017 787.416 404.833 785.785 425.091 785.83 446.711 786.727 467.212 786.81 476.87 783.899 486.251 782.017 495.587 778.974 510.981 780.833 526.431 782.936 539.471 783.658 543.224 783.828 545.83 782.254 547.758 782.04 548.021 782.065 548.404 782.312 548.636 782.558 548.868 782.943 548.871 783.192 548.642 786.029 546.257 794.988 545.517 795.573 551.763 795.609 552.211 796.163 552.5 796.548 552.249 798.729 551.097 799.917 554.289 800.858 553.487 804.708 549.782 803.695 543.66 803.156 539.012 802.67 534.588 802.197 529.602 802.467 524.652 803.371 505.239 810.47 487.118 814.07 468.246 814.08 468.194 814.411 466.576 814.415 466.523 815.246 455.575 815.54 446.464 819.24 435.965 821.028 429.886 822.382 423.7 825.558 418.274 826.159 417.247 826.93 418.056 827.281 419.193 834.132 441.399 835.516 464.018 836.931 487.316 837.567 500.626 840.991 512.776 842.33 525.915 843.567 537.244 835.482 537.996 846.121 548.316 846.448 548.634 848.535 550.552 848.571 550.568 851.488 551.895 855.448 552.728 857.715 549.604 857.733 549.579 857.753 549.553 857.773 549.53 858.177 549.058 858.531 548.654 859.007 548.549 860.191 548.344 858.373 545.621 861.468 543.419 864.967 540.762 867.282 543.833 867.948 542.802 868.717 541.473 870.326 539.241 869.668 537.404Z" fill="#FFFFFF"/><path d="M778.03 353.044C777.797 352.55 777.164 352.674 776.717 352.636 775.899 352.746 775.428 352.293 774.766 352.346 772.937 355.005 772.584 358.316 771.79 362.23 771.731 362.562 771.956 362.842 772.246 362.973 773.234 363.494 774.203 364.237 775.274 364.557 775.851 364.567 775.971 363.947 775.936 363.49 776.057 360.05 776.183 356.494 777.99 353.67 778.112 353.482 778.126 353.246 778.03 353.044Z" fill="#FFFFFF"/><path d="M866.445 279.938C866.24 279.121 866.793 277.602 865.858 277.221 865.576 277.156 865.285 277.286 865.146 277.54 864.805 278.16 863.422 280.352 862.758 281.428 857.795 275.635 855.44 266.979 856.817 258.759 856.941 258.116 856.037 257.719 855.658 258.271 851.919 263.403 845.863 264.046 840.616 266.798 840.323 266.95 840.192 267.299 840.312 267.607 841.086 270.237 838.056 270.776 836.779 272.429 836.196 273.232 835.879 274.258 835.287 275.005 834.762 275.728 835.782 276.189 836.24 276.584 837.138 277.265 838.066 277.968 838.417 278.921 838.904 282.021 838.545 285.475 837.373 288.469 836.904 289.429 836.327 291.478 836.021 291.233 833.074 288.868 828.51 285.622 828.608 282.607 828.645 282.182 828.209 281.822 827.799 281.942 826.291 282.363 825.733 281.999 824.961 281.534 823.651 281.362 822.568 281.072 821.651 280.648 821.355 280.511 821.004 280.616 820.832 280.892 818.275 284.982 818.676 290.455 818.968 292.618 819.031 292.856 818.872 293.047 818.61 292.858 814.719 289.529 809.982 285.284 809.78 279.957 809.7 279.023 808.437 279.323 807.794 278.979 807.179 278.753 805.96 278.407 806.049 279.466 799.969 281.506 793.31 282.466 785.725 282.404 783.394 282.53 780.978 283.054 778.121 284.052 775.314 285.977 772.385 287.541 769.725 289.934 764.601 294.687 758.394 298.693 753.489 303.74 753.231 303.997 753.252 304.46 753.54 304.687 754.837 305.763 756.814 307.499 758.084 308.565 762.576 311.949 766.715 316.651 771.716 319.134 774.968 317.633 782.007 315.227 782.285 315.688 784.038 319.093 785.288 322.524 786.421 326.027 790.004 337.107 791.35 348.516 790.893 360.032 790.492 370.131 788.636 380.144 787.493 389.976 786.983 394.362 786.3 398.973 785.961 403.225 797.547 405.28 810.013 405.007 821.515 402.71 834.943 400.609 850.116 398.517 862.164 391.431 862.114 385.911 860.909 380.427 860.479 374.429 858.802 351.034 854.959 324.321 855.807 297.46 854.758 295.245 859.348 291.314 860.983 289.316 862.383 287.838 863.831 286.309 865.384 285.009 866.157 283.553 866.64 281.638 866.445 279.938Z" fill="#FFFFFF"/><path d="M906.794 199.023C905.793 198.387 905.37 197.371 905.043 196.292 905.028 195.868 904.369 195.845 904.236 196.243 903.713 197.799 905.412 199.73 906.735 200.301 908.508 201.123 912.964 201.808 910.519 204.517 908.334 206.724 904.875 205.547 902.779 203.811 902.523 203.617 902.276 203.978 902.383 204.207 905.973 210.753 918.194 203.084 909.07 199.924 908.325 199.644 907.47 199.453 906.794 199.023Z"/><path d="M914.423 190.879C915.809 189.435 917.164 187.959 918.502 186.47 919.691 185.147 921.247 183.666 921.605 181.859 921.906 180.249 921.472 178.065 920.175 176.99 920.051 176.862 919.857 176.808 919.666 176.926 917.26 178.4 915.356 180.726 913.378 182.711 909.11 187.287 904.017 191.098 900.499 196.329 898.432 198.821 897.117 201.837 894.985 204.267 892.455 206.765 889.985 209.323 887.608 211.971 883.015 217.142 877.133 221.046 873.048 226.672 870.958 229.577 869.668 232.933 868.057 236.106 865.447 241.385 861.765 246.02 858.443 250.842 855.351 254.954 852.814 260.129 847.591 261.845 844.858 262.855 841.985 263.779 839.862 265.876 839.394 265.424 838.859 265.026 838.38 264.64 837.974 264.313 837.247 264.726 837.561 265.233L831.38 268.142C830.665 266.938 828.974 269.442 828.291 269.883 825.869 270.359 823.598 271.503 821.04 271.435 820.318 270.771 819.187 270.491 818.272 270.833 817.433 269.694 815.871 269.027 814.68 268.317 812.05 266.738 809.399 265.195 806.75 263.647 807.062 261.547 806.407 259.388 805.995 257.342 805.811 256.625 804.821 256.949 804.917 257.639 804.977 258.064 805.03 258.492 805.079 258.919 804.854 258.841 804.634 258.775 804.421 258.723 802.536 255.985 798.485 258.502 797.124 260.659 795.775 262.624 795.337 265.047 795.143 267.379 794.872 267.6 794.741 267.993 794.782 268.36 792.996 269.28 790.67 269.996 790.193 272.187 788.274 273.384 785.831 272.821 783.692 272.999 778.771 273.224 775.987 277.616 773.566 281.343 772.148 283.437 770.721 285.525 769.315 287.627 765.482 290.92 761.714 294.283 757.759 297.432 748.458 306.128 739.575 315.687 732.875 326.559 732.469 327.364 731.956 328.911 732.104 330.003 733.187 333.11 735.174 335.944 737.078 338.595 742.929 346.151 751.343 351.255 759.128 356.601 754.066 393.63 749.022 430.676 742.039 467.404 741.18 472.018 740.303 476.583 739.998 481.273 739.952 481.976 740.7 482.211 741.199 481.944 741.425 482.24 741.793 482.416 742.224 482.275 743.895 481.732 745.691 481.349 747.446 481.239 749.043 481.113 752.567 481.269 752.658 483.388 752.558 484.152 752.202 484.79 752.26 485.591 752.981 489.662 760.269 490.561 763.665 490.839 769.871 490.957 776.189 490.386 782.272 489.203 778.55 503.746 778.689 518.888 780.916 533.658 781.162 537.878 783.5 542.81 780.956 546.647 780.434 547.371 779.774 547.925 778.999 548.357 777.372 549.605 779.327 550.727 780.283 551.559 779.52 552.591 778.752 553.626 778.007 554.672 775.309 558.533 774.124 563.168 772.095 567.37 770.322 571.186 765.527 575.761 769.617 579.765 771.241 581.16 773.457 581.396 775.491 581.703 782.696 582.672 795.355 584.629 798.017 575.614 803.62 576.101 802.027 570.692 802.414 567.017 802.49 564.554 802.707 562.042 802.49 559.582 802.441 557.793 801.59 556.122 801.594 554.346 807.107 550.45 805.402 542.732 804.771 537.006 803.257 519.825 807.395 502.834 811.57 486.294 815.313 485.887 819.042 485.882 822.707 486.838 826.976 487.802 831.286 489.475 835.732 488.753 836.436 500.72 839.44 512.343 841.071 524.169 841.273 526.45 841.313 528.752 841.074 531.033 840.831 533.349 839.997 535.503 839.622 537.784 838.822 542.759 842.153 546.989 845.949 549.789 844.63 551.623 844.98 555.075 844.649 557.305 844.337 561.729 843.937 566.156 843.693 570.581 843.682 572.084 844.522 572.841 845.836 573.344 851.325 575.328 857.484 576.514 863.282 575.382 863.752 575.272 864 574.939 864.061 574.565 870.015 578.673 877.84 576.994 884.656 577.37 888.612 577.483 893.763 577.565 895.759 573.417 896.683 571.691 896.423 570.06 895.368 568.475 893.195 565.068 889.246 563.634 886.094 561.355 883.938 559.778 882.387 557.544 880.869 555.386 877.82 551.104 874.512 546.679 869.782 544.17 871.472 541.469 872.712 537.562 870.125 535.011 869.448 534.299 868.679 533.749 868.292 532.812 867.508 530.912 867.767 528.684 867.837 526.686 868.324 512.021 867.715 497.299 865.798 482.748 869.621 482.434 872.764 478.454 876.982 479.613 878.176 479.889 879.019 480.329 879.6 481.478 880.449 483.138 882.888 481.951 882.506 480.253 877.551 457.876 872.134 435.594 865.514 413.645 864.9 406.38 864.364 399.061 862.978 391.897 863.675 390.35 863.029 388.466 862.935 386.818 859.67 357.265 857.464 327.594 856.553 297.874 857.192 297.47 857.473 296.632 857.92 296.036 859.231 294.105 860.774 292.46 862.355 290.769 867.967 285.314 869.124 283.255 867.016 275.423 878.471 253.08 891.575 231.659 905.195 210.58 907.03 211.674 909.163 210.498 910.804 209.571 910.165 210.969 911.715 212.196 913.023 212.073 914.78 211.953 917.244 209.65 917.563 207.974 919.777 205.964 920.558 202.556 919.014 199.925 919.119 199.11 919.14 198.282 919.062 197.467 918.804 194.838 918.388 193.055 915.351 192.943 914.393 192.822 913.427 192.823 912.47 192.916 913.161 192.28 913.782 191.546 914.423 190.879ZM749.32 346.569C746.304 343.878 743.208 341.224 740.542 338.178 738.405 335.37 736.393 332.447 734.653 329.375 739.691 320.66 746.454 313.108 753.261 305.704 756.513 309.323 760.284 312.442 764.104 315.446 760.589 318.274 756.911 320.736 753.754 324.005 753.277 323.987 752.791 324.352 753.003 324.911 753.236 325.355 753.147 325.99 753.58 326.324 758.307 336.303 765.587 345.083 773.998 352.183 772.394 355.024 771.67 358.341 771.066 361.525 763.553 356.957 756.051 352.258 749.32 346.569ZM790.221 363.339C790.087 365.185 789.905 367.029 789.694 368.87 789.057 368.157 787.921 369.33 787.182 368.668 787.395 368.43 787.59 368.188 787.765 367.929 788.488 367.863 788.795 367.181 788.65 366.592 789.116 366.199 788.874 365.345 788.231 365.365 787.935 365.398 787.655 365.497 787.391 365.635 784.008 364.783 780.226 366.018 776.942 364.631 777.023 361.702 776.925 355.569 778.793 353.323 782.821 353.197 786.618 351.881 790.477 350.812 790.634 354.986 790.523 359.17 790.221 363.339ZM764.68 318.244C763.61 324.342 763.021 330.511 762.614 336.687 759.948 333.309 757.68 329.645 755.43 325.984 758.302 322.991 761.657 320.531 764.769 317.795 764.741 317.947 764.712 318.097 764.68 318.244ZM774.97 352.961C775.679 353.376 776.645 353.231 777.447 353.322 775.462 356.422 775.405 360.344 775.276 363.911 774.317 363.441 773.362 362.878 772.43 362.331 772.947 359.044 773.651 356.066 774.97 352.961ZM778.734 561.447C781.921 561.448 785.378 560.786 788.15 562.827 788.667 563.14 789.372 563.636 790.046 563.725 789.546 564.955 788.395 565.018 787.219 565.021 783.974 565.117 780.699 564.802 777.547 564.008 777.943 563.154 778.338 562.301 778.734 561.447ZM790.765 562.307C786.729 559.766 784.166 559.062 779.394 560.021 779.829 559.085 780.258 558.147 780.698 557.213 782.695 557.317 784.827 557.201 786.821 557.719 788.662 557.947 790.376 559.219 792.231 559.062 791.764 560.152 791.282 561.24 790.765 562.307ZM792.445 558.564C790.856 556.047 784.02 555.178 781.288 555.98 781.674 555.177 782.06 554.371 782.421 553.556 787.026 552.409 789.549 554.229 793.61 555.767 793.235 556.705 792.844 557.635 792.445 558.564ZM794.13 554.454C792.742 553.41 791.037 552.876 789.413 552.313 787.367 551.519 785.185 551.613 783.068 552.13 783.336 551.825 783.271 551.404 783.41 551.048 783.492 550.804 783.317 550.622 783.112 550.583 783.18 550.259 783.211 549.93 783.191 549.594 784.92 547.386 791.921 546.936 793.816 549.02 794.668 550.025 794.658 551.237 794.891 552.417 794.597 553.079 794.382 553.795 794.13 554.454ZM800.35 565.739C800.294 567.869 800.208 570.001 800.194 572.132 800.324 573.32 799.632 573.883 798.498 573.924 798.689 573.406 798.954 572.929 799.401 572.548 800.483 571.625 798.922 570.091 797.845 570.992 796.348 572.243 796.215 574.2 795.584 575.914 792.596 582.63 777.712 580.235 771.943 578.676 767.443 576.411 773.379 571.328 774.314 568.386 776.285 564.289 777.536 559.832 780.103 556.036 778.883 558.734 777.615 561.404 776.374 564.091 776.235 564.391 776.338 564.753 776.683 564.851 780.281 565.895 784.007 566.45 787.758 566.278 790.556 566.439 791.311 564.423 792.24 562.223 793.586 559.391 794.765 556.515 795.922 553.597 796.616 552.778 798.029 552.344 798.803 553.154 798.493 553.759 798.769 554.463 799.321 554.797 799.431 556.411 800.292 557.96 800.415 559.583 800.568 561.622 800.404 563.698 800.35 565.739ZM889.836 566.378C891.585 567.426 893.07 568.835 894.043 570.635 893.936 575.323 887.871 574.896 884.517 574.865 879.298 574.74 873.964 575.437 868.826 574.301 866.583 573.728 864.012 572.616 862.618 570.694 862.027 569.88 860.672 570.623 861.241 571.499 861.639 572.113 862.078 572.678 862.556 573.195 857.787 573.412 852.95 573.07 848.381 571.599 847.639 571.347 846.877 571.143 846.168 570.809 846.128 570.687 846.179 570.464 846.185 570.341 846.724 563.873 846.838 557.364 847.566 550.918 851.962 553.474 856.858 554.246 859.433 548.93 859.599 549.068 859.867 549.092 860.057 548.983 860.156 549.202 860.519 549.422 860.738 549.233 864.974 553.453 869.579 557.296 873.984 561.341 875.513 563.09 877.847 563.032 879.98 562.891 880.964 562.83 882.805 563.113 883.289 562.033 885.237 563.833 887.61 564.975 889.836 566.378ZM866.643 543.588C866.654 544.407 867.434 545.068 868.244 545.134 869.322 545.915 870.343 546.76 871.318 547.655 868.789 547.82 866.313 548.928 864.841 551.032 863.921 550.395 861.405 547.445 860.38 548.069 860.327 547.977 860.25 547.898 860.168 547.852 860.315 546.916 860.495 546.265 860.929 545.499 862.037 543.73 864.7 542.642 866.643 543.588ZM880.386 558.719C881.019 559.566 881.682 560.388 882.405 561.155 880.297 561.074 877.506 561.959 875.665 560.713 875.086 560.249 874.521 559.764 873.962 559.269 874.89 559.112 875.812 558.93 876.763 558.895 877.959 558.754 879.235 559.146 880.386 558.719ZM879.023 556.82C876.674 556.835 874.671 557.06 872.622 558.057 871.729 557.233 870.845 556.399 869.95 555.588 871.358 554.817 872.933 554.775 874.436 554.713 875.349 554.637 876.592 555.176 877.27 554.365 877.873 555.172 878.447 555.994 879.023 556.82ZM876.181 552.944C873.993 552.569 870.435 553.06 868.788 554.547 867.784 553.648 866.778 552.751 865.77 551.856 867.895 550.181 870.639 548.976 873.376 549.689 874.359 550.73 875.292 551.819 876.181 552.944ZM866.567 535.139C867.128 535.972 868.1 536.631 868.493 537.56 869.045 539.099 868.133 540.696 867.372 542.006 863.598 540.223 858.132 543.543 858.864 547.919 857.714 548.172 857.219 549.453 856.29 550.09 853.852 552.262 850.527 550.602 847.926 549.624 848.099 549.237 848.085 548.752 847.759 548.378 837.104 538.302 844.626 538.551 843.689 525.926 842.378 512.927 838.68 500.353 838.062 487.149 835.922 463.678 836.506 438.831 827.31 416.598 827.398 416.096 827.465 415.589 827.507 415.06 827.547 414.546 826.785 414.213 826.45 414.622 821.078 422.128 819.038 431.607 816.303 440.306 813.626 449.329 813.3 458.715 812.45 468.011 808.852 486.829 802.117 505.135 801.25 524.437 800.99 529.177 801.06 533.94 801.578 538.661 802.071 543.004 803.671 548.561 800.058 552.007 799.193 550.996 797.521 550.688 796.371 551.378 795.979 547.726 793.329 546.245 789.93 546.263 787.637 546.099 784.879 546.464 783.057 547.907 783.011 547.944 782.963 547.895 782.998 547.847 784.791 545.375 784.689 542.196 784.136 539.303 781.812 524.897 780.48 510.119 783.332 495.691 785.231 486.297 787.888 476.959 787.794 467.295 787.801 462.364 787.43 457.441 787.293 452.513 786.792 436.583 788.101 420.685 788.66 404.776 803.996 408.846 819.798 404.946 835.086 402.564 843.975 401.097 852.875 398.742 860.583 393.93 860.847 398.11 861.429 402.283 861.837 406.45 861.616 406.665 861.498 406.985 861.6 407.379 863.365 417.33 863.086 427.668 862.8 437.759 862.277 447.991 859.96 458.128 861.155 468.399 864.108 488.508 866.304 508.769 865.141 529.123 865.129 531.2 865.379 533.374 866.567 535.139ZM860.228 289.171C858.878 290.777 853.699 295.405 854.933 297.514 854.85 328.635 857.603 359.724 861.126 390.616 860.888 390.729 860.688 390.912 860.575 391.158 848.655 398.177 834.835 399.971 821.4 402.074 809.987 404.356 798.266 404.432 786.816 402.403 788.612 390.169 790.187 377.863 791.601 365.576 793.128 348.508 790.408 330.922 783.307 315.293 784.089 314.195 783.028 313.23 782.139 313.617 781.914 313.715 781.737 313.772 781.738 313.771 778.33 315.016 775.013 316.59 771.727 318.107 765.821 313.76 760.297 308.941 754.658 304.263 759.488 299.283 765.063 295.142 770.139 290.429 771.876 288.959 773.735 287.582 775.681 286.374 776.559 285.804 777.587 285.407 778.331 284.663 780.729 283.826 783.213 283.187 785.757 283.051 792.729 283.105 799.709 282.287 806.338 280.051 806.677 279.939 806.767 279.614 806.682 279.353 807.463 279.52 808.278 279.854 809.132 279.952 809.119 281.466 809.581 282.959 810.261 284.327 812.043 287.917 815.168 290.818 818.192 293.354 818.844 293.901 819.776 293.385 819.605 292.532 819.112 288.873 819.383 284.427 821.378 281.236 822.483 281.747 823.676 282.019 824.875 282.177 825.478 282.921 826.925 282.842 827.962 282.57 827.733 286.251 833.903 290.231 836.49 292.461 837.126 292.942 837.93 292.023 837.549 291.402 836.832 289.933 838.394 288.554 838.544 287.087 839.126 284.387 839.597 281.489 839.04 278.75 838.518 277.252 836.955 276.392 835.789 275.412 836.414 274.637 836.727 273.615 837.309 272.8 838.012 271.759 839.333 271.517 840.142 270.567 840.879 269.708 841.347 268.481 840.912 267.374 846.278 264.585 852.31 263.952 856.179 258.654 854.634 267.874 857.581 278.419 864.966 284.516 863.28 285.925 861.745 287.572 860.228 289.171ZM865.78 279.544C865.812 280.348 865.886 281.167 865.773 281.967 865.281 281.395 864.781 280.822 864.368 280.324 864.834 279.511 865.26 278.673 865.712 277.851 865.739 278.412 865.753 278.975 865.78 279.544ZM913.535 210.413C913.083 210.684 912.055 210.979 911.873 210.237 911.815 209.367 912.724 208.544 913.128 207.825 913.566 208.514 914.354 208.921 915.095 208.922 914.642 209.488 914.17 210.032 913.535 210.413ZM918.033 205.552C917.709 206.206 917.316 206.878 916.75 207.353 916.473 207.34 916.221 207.573 916.039 207.785 915.229 208.102 914.041 208.082 913.979 207.084 916.43 206.451 917.899 204.056 918.627 201.762 919.009 203.057 918.63 204.386 918.033 205.552ZM911.484 193.916C912.975 193.735 916.417 193.644 917.325 194.98 919.035 198.42 917.818 204.226 914.112 205.868 912.282 206.248 914.405 201.745 914.68 201.012 914.898 200.534 915.148 200.057 915.178 199.521 915.221 198.739 914.616 197.704 913.711 197.967 913.564 198.01 913.49 198.217 913.616 198.327 914.582 199.173 913.454 200.679 913.094 201.604 912.599 203.15 911.468 205.316 912.697 206.744 912.317 207.187 911.962 207.65 911.631 208.131 909.851 207.296 907.668 210.263 905.705 209.35 905.629 209.034 905.349 208.787 905.022 208.7 904.61 208.407 904.237 208.742 904.006 209.076 888.975 231.406 873.712 253.994 863.256 278.901 857.424 271.128 856.824 260.388 860.121 251.491 865.53 244.901 869.636 237.537 873.281 229.875 876.728 223.856 882.656 219.979 887.406 215.095 889.872 212.568 892.216 209.925 894.716 207.431 897.227 205.245 898.89 202.425 900.612 199.624 901.583 198.208 902.648 196.836 903.69 195.47 906.676 191.557 910.721 188.625 913.999 184.966 916.013 182.756 918.264 180.722 919.883 178.184 921.544 181.691 918.868 183.887 916.635 186.143 915.412 187.435 914.172 188.711 912.943 189.997 911.853 191.137 910.595 192.185 910.007 193.679 909.912 194.308 910.536 194.333 910.943 194.028 911.016 194.056 911.393 193.929 911.484 193.916Z"/><path d="M796.859 269.428C798.235 270.753 800.051 271.471 801.814 272.129 802.548 272.396 803.384 272.874 804.133 272.467 804.471 272.283 804.519 271.874 804.372 271.555 803.974 270.655 801.447 270.353 800.455 269.759 799.284 269.347 798.297 268.38 797.158 268.009 796.714 267.779 796.215 268.246 796.467 268.7 796.619 268.973 796.604 269.175 796.859 269.428Z" fill="#FFFFFF"/><path d="M839.131 277.54C837.217 275.756 834.902 274.527 832.421 273.66 833.387 272.29 834.581 271.031 835.424 269.585 836.169 268.18 835.352 267.395 834.179 268.624 832.978 270.049 832.051 271.751 830.984 273.286 830.654 273.222 830.324 273.173 829.993 273.144 829.644 271.905 829.088 270.739 828.218 269.862 827.855 269.496 827.343 269.958 827.541 270.384 828.997 273.687 829.466 277.75 828.057 281.136 825.216 277.473 822.14 273.841 818.558 270.903 818.451 270.386 817.764 270.364 817.53 270.741 813.384 271.433 809.603 275.365 807.677 278.943 803.409 278.104 795.274 278.226 793.072 273.869 792.804 273.344 792.961 272.606 792.518 272.191 792.411 272.116 792.433 272.12 792.583 272.204 792.497 271.789 791.816 271.783 791.741 272.205 790.963 273.109 791.545 274.727 792.134 275.625 795.558 279.835 801.913 279.872 806.865 280.786 806.527 281.416 806.413 283.024 807.503 282.677 808.198 282.352 808.224 281.412 808.524 280.791 808.987 280.66 809.437 280.097 809.032 279.659 810.779 276.076 813.887 273.4 817.453 271.725 818.047 275.339 819.267 278.853 820.462 282.354 820.68 282.993 821.371 283.141 821.714 282.926 822.091 282.689 822.102 282.034 821.907 281.442 821.023 278.758 820.175 276.063 819.338 273.364 821.831 276.299 824.492 279.106 826.753 282.23 826.89 282.423 827.067 282.534 827.253 282.58 826.649 283.428 827.754 284.319 828.512 283.682 830.723 281.258 830.729 277.536 830.284 274.447 830.326 274.462 830.368 274.477 830.41 274.492 830.477 274.966 831.1 275.346 831.463 274.9 834.102 276.011 836.87 277.305 838.675 279.613 839.082 280.167 839.291 280.689 839.856 281.11 840.178 281.35 840.745 281.106 840.815 280.72 841.042 279.478 839.973 278.351 839.131 277.54Z" fill="#FFFFFF"/><path d="M768.091 376.805C762.91 410.93 758.534 445.202 754.356 479.465 754.286 480.505 754.328 481.547 754.255 482.589 754.236 482.867 754.689 482.931 754.744 482.655 757.526 469.043 758.851 455.157 760.869 441.413 763.594 419.922 766.954 398.501 769.175 376.952 769.23 376.338 768.201 376.192 768.091 376.805Z" fill="#FFFFFF"/><path d="M825.67 464.73C825.223 456.246 824.792 447.761 824.353 439.276 824.312 438.475 823.066 438.468 823.101 439.276 823.899 453.225 823.868 467.258 825.243 481.16 825.335 481.727 826.162 481.545 826.195 481.031 826.423 475.6 825.886 470.157 825.67 464.73Z" fill="#FFFFFF"/><path d="M802.127 221.202 796.674 238.667C796.674 238.667 787.92 241.786 790.678 250.535 790.678 250.535 792.517 254.717 798.241 253.501 798.241 253.501 800.628 257.659 805.241 262.221 809.763 266.693 816.529 270.744 828.049 270.259 828.049 270.259 846.616 266.285 841.04 250.209 841.04 250.209 842.345 237.515 839.438 225.473 838.116 219.997 833.153 217.504 833.153 217.504 833.153 217.504 805.667 211.07 802.127 221.202Z" fill="#FFFFFF"/><path d="M842.149 250.102C842.371 248.877 842.374 247.576 842.434 246.338 842.496 245.049 842.521 243.759 842.511 242.47 842.492 239.933 842.335 237.4 842.016 234.882 841.928 234.188 841.833 233.491 841.729 232.792 841.892 232.758 842.048 232.664 842.157 232.506 847.242 225.135 844.422 214.258 837.992 208.617 830.729 202.245 820.453 200.9 811.224 202.574 808.595 203.051 806.013 203.775 803.517 204.73 801.357 205.556 799.113 206.52 797.148 207.79 797.165 207.413 797.149 207.032 797.096 206.65 797.046 206.289 796.587 206.102 796.275 206.184 794.619 206.618 794.047 208.113 794.064 209.653 793.586 209.477 793.071 209.44 792.489 209.619 791.723 209.855 791.093 210.491 790.924 211.283 790.917 211.317 790.912 211.351 790.907 211.386 790.88 211.474 790.874 211.565 790.889 211.653 790.897 212.262 791.244 212.81 791.828 213.051 790.51 215.074 789.51 217.285 788.729 219.568 786.969 224.714 786.156 230.501 787.238 235.88 787.756 238.456 788.806 240.972 790.642 242.89 790.665 242.914 790.689 242.935 790.713 242.955 790.456 243.365 790.24 243.803 790.066 244.256 788.868 247.375 789.633 251.446 792.528 253.367 793.225 253.829 794.029 254.139 794.865 254.293 795.213 257.029 798.61 258.999 800.95 259.731 801.368 259.862 801.658 259.583 801.729 259.238 802.68 260.523 803.813 261.689 805.001 262.751 807.7 265.166 810.75 267.26 813.988 268.883 814.476 269.128 814.973 269.351 815.475 269.563 819.046 271.613 823.568 272.015 827.652 271.348 834.116 270.292 840.552 266.229 842.685 259.79 843.25 258.086 843.504 256.238 843.343 254.447 843.214 252.997 842.908 251.394 842.149 250.102ZM840.168 258.275C839.502 260.854 837.988 263.25 835.888 264.896 831.513 268.325 825.386 269.618 819.934 268.856 816.781 268.414 813.879 267.506 811.377 265.472 811.309 265.416 811.192 265.487 811.246 265.573 811.321 265.69 811.4 265.803 811.479 265.916 810.437 265.273 809.422 264.584 808.442 263.851 806.713 262.558 805.076 261.111 803.605 259.528 802.919 258.79 802.251 258.011 801.661 257.193 801.146 256.479 800.774 255.653 800.244 254.958 800.18 254.874 800.072 254.832 799.973 254.837 799.67 254.315 799.351 253.88 799.032 253.643 799.102 253.603 799.173 253.565 799.241 253.522 799.441 253.395 799.362 253.08 799.12 253.075 797.33 253.036 795.394 253.37 793.728 252.519 792.479 251.881 791.607 250.74 791.188 249.414 790.412 246.96 790.967 243.585 793.314 242.148 793.961 241.752 794.696 241.551 795.454 241.539 796.238 241.526 796.952 241.769 797.69 241.936 797.79 242.499 797.97 243.055 798.182 243.577 798.707 244.871 799.595 246.819 800.981 247.372 801.439 247.555 801.768 246.966 801.576 246.598 801.531 246.511 801.478 246.429 801.423 246.348 801.56 246.247 801.644 246.073 801.594 245.844 801.403 244.968 801.068 244.136 800.898 243.253 800.741 242.434 800.667 241.609 800.685 240.774 800.721 239.138 801.088 237.54 801.515 235.967 801.7 235.287 801.889 234.609 802.071 233.931 802.222 233.516 802.368 233.134 802.504 232.791 802.573 232.759 802.639 232.714 802.699 232.65 804.582 230.633 806.092 228.116 807.085 225.55 807.778 223.759 808.166 221.795 807.892 219.91 808.335 220.271 808.787 220.61 809.24 220.922 811.061 222.177 813.072 223.069 815.206 223.638 817.535 224.259 819.895 224.684 821.918 226.08 822.632 226.555 823.276 225.42 822.585 224.938 821.317 224.102 820.382 222.959 819.586 221.698 820.643 222.516 821.812 223.205 823.088 223.754 826.225 225.102 829.685 225.994 833.03 226.614 833.224 226.65 833.403 226.552 833.51 226.41 833.761 226.475 834.013 226.518 834.262 226.531 834.563 226.547 834.738 226.128 834.513 225.926 833.619 225.125 832.34 224.713 831.304 224.116 830.694 223.765 830.102 223.387 829.532 222.976L828.234 221.828C828.822 222.093 829.472 222.247 830.087 222.379 831.346 222.649 832.621 222.833 833.875 223.127 834.649 223.308 835.448 223.516 836.174 223.862 836.898 224.324 837.447 224.792 837.862 225.236 838.342 225.955 838.522 226.819 838.564 227.735 838.574 227.959 838.711 228.139 838.888 228.239 839.267 230.487 839.62 232.739 839.812 235.019 840.021 237.494 840.125 239.984 840.094 242.469 840.078 243.667 840.032 244.864 839.956 246.061 839.888 247.114 839.71 248.179 839.634 249.235 839.366 249.526 839.229 249.933 839.358 250.372 839.742 251.673 840.352 252.847 840.488 254.223 840.624 255.582 840.507 256.957 840.168 258.275Z"/><path d="M796.866 245.25C796.357 244.845 795.819 244.433 795.164 244.319 794.258 244.16 793.337 244.759 793.346 245.731 793.347 245.872 793.555 245.902 793.592 245.764 793.674 245.469 794.12 245.368 794.357 245.436 794.502 245.478 794.618 245.575 794.728 245.673 795.008 245.919 795.188 246.245 795.392 246.552 795.859 247.256 796.306 248.029 797.016 248.505 798.017 249.172 799.089 247.891 798.582 246.939 798.211 246.248 797.473 245.734 796.866 245.25Z"/><path d="M813.86 250.65C815.48 249.67 821.7 250.68 826.45 250.94 830.28 250.43 832.77 250.44 833.63 251.02 835.58 252.33 835.85 256.52 831.1 259.15 828.88 260.28 814.97 261.11 812.85 259 810.28 256.43 810.95 252.4 813.86 250.65Z" fill="#FFFFFF"/><path d="M834.98 250.91C834.09 250.03 832.93 249.67 832.1 249.52 830.96 249.34 829.72 249.13 828.65 249.69 828.41 249.78 828.23 250.01 828.21 250.27 823.14 250.53 817.77 247.34 812.97 249.93 808.57 252.39 809.45 259.69 814.51 260.91 817.45 261.76 820.63 261.41 823.61 261.51 828.35 261.57 834.04 260.76 835.93 255.83 836.51 254.18 836.29 252.16 834.98 250.91ZM817.75 251.02 817.75 251.02C818.83 251.04 819.91 251.13 820.99 251.27 821.07 251.28 821.52 251.33 821.61 251.34 821.55 251.89 821.53 252.44 821.54 252.98 821.54 253.61 821.52 254.13 821.53 254.77 819.94 254.83 818.35 254.89 816.75 254.98 816.64 254.26 816.57 253.74 816.53 253.04 816.51 252.39 816.43 251.75 816.28 251.12 816.77 251.05 817.24 251.03 817.75 251.02ZM815.66 251.23C815.29 252.47 815.37 253.78 815.31 255.04 814.36 255.07 813.35 255.11 812.37 255.23 812.16 253.18 813.95 251.5 815.66 251.23ZM812.4 255.61C813.4 255.71 814.43 255.73 815.31 255.74 815.31 256.6 815.36 257.47 815.47 258.32 815.49 258.57 815.64 258.79 815.86 258.91 815.89 258.92 815.96 258.94 815.96 258.95 815.94 258.97 815.78 258.91 815.7 258.89 813.75 258.44 812.64 257.36 812.4 255.61ZM816.41 259.03C816.38 259.02 816.38 258.99 816.41 258.98 816.94 258.9 817.4 258.39 817.28 257.83 817.2 257.35 817.11 256.88 817.02 256.42L817.02 256.42C816.97 256.2 816.93 255.97 816.89 255.75 818.4 255.78 820.06 255.77 821.53 255.74 821.54 256.5 821.59 257.23 821.6 258 821.59 258.4 821.61 258.8 821.66 259.2 819.91 259.21 818.15 259.27 816.41 259.03ZM828.57 255.9 828.57 255.9C828.54 256.34 828.5 256.79 828.48 257.23 828.48 257.66 828.44 258.09 828.38 258.51 828.25 258.62 828.17 258.78 828.17 258.94 826.68 259.19 825.19 259.25 823.68 259.22L823.68 259.22C823.62 259.08 823.52 258.96 823.38 258.9L823.39 258.84C823.39 258.71 823.38 258.58 823.34 258.45 823.16 257.51 823.07 256.63 822.96 255.71 824.89 255.68 826.78 255.63 828.59 255.56 828.58 255.67 828.57 255.78 828.57 255.9ZM828.67 254.44C826.51 254.55 824.55 254.64 822.84 254.72 822.73 253.81 822.63 252.89 822.56 252.04L822.56 252.04C822.54 251.84 822.53 251.63 822.5 251.43L822.5 251.43C824.65 251.61 826.57 251.51 828.67 251.22 828.73 251.27 828.8 251.31 828.87 251.34L828.93 251.36C828.81 252.4 828.74 253.43 828.67 254.44ZM829.81 258.52C829.75 258.11 829.7 257.69 829.69 257.27 829.67 256.78 829.62 256.28 829.59 255.8L829.59 255.79C829.59 255.7 829.58 255.61 829.57 255.51 830.37 255.49 831.18 255.43 831.98 255.43 832.06 255.43 832.21 255.43 832.28 255.43 832.74 255.44 833.2 255.4 833.65 255.31 832.92 256.91 831.58 257.9 829.81 258.52ZM832.03 254.22C831.28 254.32 830.27 254.34 829.5 254.39 829.44 253.42 829.39 252.46 829.31 251.48 829.31 251.48 829.31 251.48 829.31 251.48L829.31 251.48 829.31 251.48C829.77 251.58 830.23 251.65 830.69 251.67 832.29 251.66 834.17 252.44 833.93 254.23 833.31 254.06 832.66 254.15 832.03 254.22Z"/><path d="M826.78 247.94C825.6 247.97 824.32 247.27 824.79 246.07 824.96 245.66 825.35 245.32 825.81 245.32 826.01 245.32 826.22 245.39 826.39 245.51 826.63 245.65 826.91 245.72 827.19 245.7 827.73 245.68 828.26 245.59 828.77 245.43 829.21 245.31 829.79 245 830.05 244.5 830.37 243.87 830 243.25 829.28 243.02 828.91 242.91 828.53 242.85 828.14 242.84 828.08 242.84 828.01 242.84 827.93 242.84 827.38 242.85 826.83 242.9 826.29 242.98 825.94 243.03 825.57 243.08 825.21 243.11 825.14 243.11 825.08 243.07 825.07 243 825.05 242.94 825.07 242.86 825.13 242.82 825.69 242.52 826.27 242.28 826.88 242.11 828.09 241.75 829.87 241.56 830.89 242.27 832.05 243.02 832.08 244.96 831.2 246.01 830.06 247.36 828.75 247.78 826.78 247.94L826.78 247.94Z"/><path d="M835.24 243.07C835.14 243.06 835.02 243.05 834.92 243.03 834.72 242.97 834.54 242.84 834.41 242.68 834.27 242.51 834.2 242.31 834.21 242.09 834.24 241.6 834.26 240.99 834.06 240.42 833.88 239.92 833.44 239.55 832.92 239.47 831.92 239.24 831.26 240.24 831.27 241.2 831.04 241.89 830.26 240.78 830.24 240.43 829.77 237.45 833.87 236.61 835.37 238.85 836.14 239.84 836.41 241.13 836.12 242.35 836.06 242.54 835.95 242.71 835.79 242.84 835.64 242.98 835.45 243.06 835.24 243.07L835.24 243.07Z"/><path d="M812.71 242.62C812.16 242.52 811.96 241.89 811.94 241.52 812.03 237.52 817.18 236.74 818.94 240.08 819.87 240.31 819.49 241.5 819 242.01 818.46 242.62 817.37 242.31 817.15 241.55 816.59 239.66 814.21 239.73 813.6 241.52 813.43 241.91 813.19 242.26 812.9 242.55 812.85 242.6 812.78 242.62 812.71 242.62Z"/><path d="M809.66 239.35C809.61 239.35 809.57 239.31 809.56 239.26 809.34 236.88 810.24 234.4 811.89 232.67 812.4 232.18 813 231.77 813.65 231.48 814.74 230.98 816.12 230.65 817.21 231.29 817.65 231.57 817.98 232 818.14 232.49 818.23 232.77 818.19 233.07 818.04 233.31 817.91 233.57 817.67 233.76 817.38 233.83 817.22 233.86 817.05 233.88 816.89 233.88 816.58 233.87 816.27 233.84 815.96 233.78L815.96 233.78C815.66 233.72 815.35 233.69 815.04 233.68 814.22 233.69 813.43 233.95 812.78 234.43 811.79 235.19 811.27 236.31 810.77 237.38 810.45 238.05 810.15 238.81 809.66 239.35Z"/><path d="M836.98 237.59C835.67 237.55 835.31 236.38 834.95 235.4 834.02 233.17 831.15 232.42 828.87 233.03 828.82 233.03 828.79 233 828.77 232.96 828.74 232.83 828.92 232.72 828.97 232.61 829.15 232.34 829.36 232.1 829.61 231.9 832.13 229.91 835.9 231.33 837.34 233.97 837.49 234.27 837.58 234.59 837.73 234.89 838.14 235.12 838.42 235.52 838.5 235.98 838.62 236.82 837.8 237.6 836.98 237.59Z"/></g></svg>