<svg width="457" height="281" xmlns="http://www.w3.org/2000/svg" xmlns:xlink="http://www.w3.org/1999/xlink" xml:space="preserve" overflow="hidden"><defs><clipPath id="clip0"><rect x="-301" y="517" width="457" height="281"/></clipPath></defs><g clip-path="url(#clip0)" transform="translate(301 -517)"><path d="M198.803 214.079 50.4309 221.275 14.117 224.647C14.117 224.647 9.57778 233.077 22.1579 235.93L156.908 268.353 307.87 256.681 376.131 251.415C377.271 251.307 378.217 250.49 378.494 249.379L380.887 234.633 198.803 214.079Z" fill="#FFFFFF" transform="matrix(1.00201 0 0 1 -301 517)"/><path d="M243.802 63.9578 205.232 198.771C204.045 202.921 206.911 207.132 211.208 207.549L378.284 223.728C383.721 224.255 388.718 220.704 390.009 215.395L435.271 29.2672 425.501 21.5484C425.501 21.5484 253.045 52.1882 243.802 63.9578Z" fill="#FFFFFF" transform="matrix(1.00201 0 0 1 -301 517)"/><path d="M97.3038 233.943 133.693 227.889 163.804 233.546C164.679 233.71 164.69 234.961 163.817 235.141L130.256 242.025 97.28 235.577C96.3722 235.4 96.3916 234.095 97.3038 233.943Z" fill="#FFFFFF" transform="matrix(1.00201 0 0 1 -301 517)"/><path d="M446.559 25.0112C446.299 19.1793 443.686 14.0305 437.662 12.5607 431.287 10.8099 424.042 12.2948 417.722 13.5701 409.666 15.1978 256.09 48.0337 245.97 54.501 240.512 57.9876 237.717 63.2531 235.262 69.0698 233.922 72.2451 197.113 193.06 192.029 213.009 182.196 213.283 172.381 214.027 162.567 214.716 137.792 216.316 112.96 216.541 88.167 217.807 75.9456 218.369 63.6443 218.56 51.4489 219.543 39.4265 220.682 27.4364 222.228 15.4334 223.529 15.0335 223.438 14.4801 223.356 14.2272 223.695 13.3994 223.819 12.5715 223.948 11.7458 224.093 11.2616 224.177 11.2832 224.949 11.7458 225.051 12.003 225.107 12.2581 225.157 12.5153 225.206 10.7212 227.623 11.7026 232.246 14.0478 234.293 14.104 234.445 14.2121 234.579 14.3786 234.665 16.5033 235.778 18.7665 236.457 21.0685 237.119 24.4621 238.096 27.8601 239.042 31.2731 239.946 67.5762 249.422 104.052 258.239 140.578 266.807 145.067 267.828 149.639 268.93 154.239 269.263 155.162 270.203 156.297 270.849 157.557 270.823 164.861 271.113 172.091 269.896 179.297 268.869 229.259 263.26 279.534 261.213 329.645 257.333 337.712 256.631 345.779 255.924 353.859 255.386 361.781 254.858 369.768 255.007 377.645 253.944 378.41 253.84 378.974 253.22 379.246 252.491 380.608 252.161 381.101 250.758 381.352 249.534 392.393 247.613 396.158 233.53 398.3 224.199 399.614 218.477 417.918 141.862 424.217 121.677 424.468 121.381 446.838 30.2659 446.559 25.0112ZM151.958 265.136C144.538 262.798 136.927 261.166 129.383 259.289 92.3539 250.676 55.4737 241.318 18.2585 233.55 18.0575 231.86 16.3261 230.831 15.6863 229.298 15.1935 228.124 15.1373 226.851 14.9924 225.602 15.6776 225.688 16.3628 225.755 17.0481 225.807 61.6579 238.42 106.972 248.514 151.978 259.633 151.448 261.401 151.507 263.388 151.958 265.136ZM154.293 255.649C112.071 245.637 69.8069 235.796 27.5553 225.885 27.4472 225.859 27.4602 225.704 27.5704 225.695 34.0313 225.26 40.464 224.523 46.9119 223.942 71.5275 222.243 96.2576 222.163 120.908 220.976 145.147 220.684 169.285 218.456 193.49 217.492 248.501 222.976 303.406 229.787 358.34 236.103 358.457 236.116 358.454 236.286 358.338 236.297 337.814 238.323 317.204 239.159 296.63 240.482 255.12 243.316 213.742 248.253 172.303 251.843 168.364 252.319 164.441 252.926 160.574 253.816 158.854 254.214 156.776 254.497 155.147 255.243 155.082 255.271 154.364 255.546 154.293 255.649ZM377.53 242.94C377.396 245.064 377.016 247.189 376.369 249.219 369.459 250.153 362.412 249.943 355.461 250.384 348.334 250.838 341.216 251.432 334.1 252.048 305.492 254.722 276.779 255.777 248.132 257.882 226.021 259.828 203.855 261.276 181.788 263.619 173.658 264.754 165.557 266.146 157.321 265.988 155.631 264.579 155.205 262.128 155.028 259.998 164.318 256.866 174.14 256.032 183.867 255.379 200.632 254.273 217.369 252.256 234.097 250.682 250.89 249.104 267.691 247.546 284.5 246.147 315.031 243.722 345.779 243.324 376.041 238.186 376.568 238.249 377.093 238.312 377.621 238.372L377.742 238.865C377.61 240.218 377.614 241.586 377.53 242.94ZM419.533 60.0864C409.871 100.736 401.331 141.741 390.337 182.077 388.642 188.542 387.657 199.923 383.308 205.335 381.76 207.261 380.258 208.4 378.245 209.187 376.157 210.004 373.946 210.75 371.739 211.282 371.475 211.26 215.147 198.827 213.35 198.336 215.637 186.461 220.146 174.641 223.57 163.064 231.806 134.99 240.309 106.996 248.674 78.961 250.146 73.9765 250.836 67.5546 256.073 65.0558 266.15 60.2529 280.676 59.7298 291.708 57.3283 304.245 54.5983 316.754 51.7386 329.287 48.9848 352.955 43.782 376.598 38.4667 400.287 33.3525 407.204 31.8589 419.211 26.4248 422.86 35.7216 425.918 43.5226 421.396 52.5211 419.533 60.0864Z" transform="matrix(1.00201 0 0 1 -301 517)"/><path d="M170.924 236.23C173.438 235.774 172.614 232.199 170.355 232.024 158.748 231.118 147.737 226.214 135.989 226.57 135.844 226.456 135.662 226.371 135.433 226.339 133.86 226.147 132.265 226.181 130.769 226.477 117.592 228.851 104.368 231.006 91.2234 233.552 90.616 233.457 90.0065 233.366 89.3969 233.269 88.7657 233.169 88.4134 233.887 88.7203 234.276 88.3053 235.629 90.9251 235.013 91.6925 235.152 95.8534 236.198 100.021 237.194 104.229 238.042 111.821 239.555 119.205 242.036 126.895 243.056 128.205 243.236 129.597 243.523 130.911 243.357 144.263 241.055 157.596 238.651 170.924 236.23ZM148.07 236.304C142.009 237.486 135.952 238.746 129.902 239.948 119.773 238.995 109.83 236.088 99.7096 234.823 99.595 234.808 99.595 234.646 99.7096 234.631 110.839 233.327 121.952 232.119 132.969 230.1 135.321 230.653 137.666 230.874 140.124 231.099 145.958 231.639 151.632 233.115 157.356 234.315 157.459 234.337 157.459 234.484 157.354 234.503 154.258 235.104 151.165 235.703 148.07 236.304Z" transform="matrix(1.00201 0 0 1 -301 517)"/><path d="M313.769 246.588C312.245 245.706 310.114 246.348 308.488 246.58 304.796 247.103 301.111 247.669 297.4 248.03 295.973 248.16 294.371 248.471 292.979 248.062 290.805 247.425 289.983 250.658 292.056 251.413 295.42 252.636 299.319 252.422 302.827 252.193 304.835 252.061 306.839 251.834 308.843 251.644 310.287 251.508 312.558 251.728 313.771 250.866 315.243 249.82 315.489 247.585 313.769 246.588Z" transform="matrix(1.00201 0 0 1 -301 517)"/><path d="M336.8 244.673C333.482 244.502 330.143 245.996 326.825 246.007 324.57 245.959 324.57 249.461 326.825 249.509 330.285 249.58 333.949 249.409 337.375 248.918 338.434 248.767 339.05 247.494 338.923 246.547 338.769 245.41 337.887 244.799 336.8 244.673Z" transform="matrix(1.00201 0 0 1 -301 517)"/></g></svg>