<svg width="495" height="374" xmlns="http://www.w3.org/2000/svg" xmlns:xlink="http://www.w3.org/1999/xlink" xml:space="preserve" overflow="hidden"><defs><clipPath id="clip0"><rect x="517" y="842" width="495" height="374"/></clipPath><clipPath id="clip1"><rect x="518" y="843" width="493" height="372"/></clipPath><clipPath id="clip2"><rect x="518" y="843" width="493" height="372"/></clipPath><clipPath id="clip3"><path d="M587.286 1358.16 403.629 823.501 938.556 639.937 1122.21 1174.59Z" fill-rule="nonzero" clip-rule="nonzero"/></clipPath><clipPath id="clip4"><path d="M587.286 1358.16 403.629 823.501 938.556 639.937 1122.21 1174.59Z" fill-rule="evenodd" clip-rule="evenodd"/></clipPath><clipPath id="clip5"><path d="M587.286 1358.16 403.629 823.501 938.556 639.937 1122.21 1174.59Z" fill-rule="evenodd" clip-rule="evenodd"/></clipPath><clipPath id="clip6"><rect x="507" y="921" width="408" height="248"/></clipPath><clipPath id="clip7"><rect x="507" y="921" width="408" height="248"/></clipPath><clipPath id="clip8"><rect x="507" y="921" width="408" height="248"/></clipPath></defs><g clip-path="url(#clip0)" transform="translate(-517 -842)"><g clip-path="url(#clip1)"><g clip-path="url(#clip2)"><g clip-path="url(#clip3)"><g clip-path="url(#clip4)"><g clip-path="url(#clip5)"><path d="M235.306 506.82C248.225 502.383 262.293 509.262 266.729 522.181 271.164 535.097 264.288 549.166 251.369 553.603 238.45 558.037 224.381 551.161 219.946 538.242 215.511 525.323 222.388 511.255 235.306 506.82Z" fill="#9900FF" fill-rule="nonzero" fill-opacity="1" transform="matrix(1.0005 0 0 1 393.996 348.978)"/><path d="M364.673 501.003C372.365 498.363 380.739 502.456 383.379 510.148 386.019 517.837 381.924 526.211 374.235 528.851 366.546 531.491 358.171 527.396 355.531 519.707 352.891 512.017 356.984 503.643 364.673 501.003Z" fill="#9900FF" fill-rule="nonzero" fill-opacity="1" transform="matrix(1.0005 0 0 1 393.996 348.978)"/><path d="M192.697 718.185C200.387 715.545 208.76 719.638 211.401 727.329 214.041 735.018 209.947 743.393 202.258 746.033 194.568 748.673 186.194 744.58 183.554 736.888 180.914 729.199 185.007 720.825 192.697 718.185Z" fill="#9900FF" fill-rule="nonzero" fill-opacity="1" transform="matrix(1.0005 0 0 1 393.996 348.978)"/><path d="M538.091 714.154C551.01 709.72 565.079 716.596 569.516 729.515 573.95 742.434 567.074 756.502 554.155 760.937 541.236 765.374 527.167 758.495 522.733 745.578 518.296 732.659 525.175 718.591 538.091 714.154Z" fill="#9900FF" fill-rule="nonzero" fill-opacity="1" transform="matrix(1.0005 0 0 1 393.996 348.978)"/><path d="M597.085 710.089C604.777 707.449 613.151 711.542 615.791 719.231 618.431 726.92 614.336 735.294 606.646 737.935 598.957 740.575 590.583 736.482 587.943 728.792 585.303 721.103 589.396 712.729 597.085 710.089Z" fill="#9900FF" fill-rule="nonzero" fill-opacity="1" transform="matrix(1.0005 0 0 1 393.996 348.978)"/><path d="M459.787 556.423C448.823 544.493 428.558 538.962 413.559 544.062 392.396 551.259 392.185 575.757 373.577 578.412 359.052 580.482 346.218 565.192 344.191 562.76 328.883 544.39 338.793 526.011 324.92 515.714 316.092 509.162 301.637 508.85 293.288 514.901 284.989 520.916 283.654 529.356 279.116 559.224 277.42 570.394 274.951 586.656 265.279 590.52 249.191 596.95 225.818 569.847 219.479 561.412 206.903 544.676 203.138 532.806 192.631 523.963 178.12 511.749 156.022 513.117 142.193 525.908 126.22 540.684 130.789 572.683 147.014 586.942 161.279 599.477 174.167 592.299 196.003 605.497 205.994 611.535 213.773 616.258 215.992 624.63 220.989 643.489 190.566 655.125 192.324 676.158 194.158 698.088 228.548 699.712 232.11 721.869 235.961 745.827 197.744 756.543 196.848 789.854 196.385 807.037 205.9 828.403 221.748 835.181 247.397 846.155 270.004 811.416 300.277 822.307 317.979 828.674 320.659 846.085 335.621 853.4 350.276 860.562 366.345 858.008 381.522 848.604 401.824 836.027 403.829 813.903 419.79 808.625 439.018 802.266 450.928 824.493 473.509 819.316 488.235 815.94 502.486 802.05 506 786.637 512.479 758.221 478.899 740.231 487.304 717.264 492.325 703.542 509.503 695.689 521.416 693.935 544.102 690.595 553.633 706.987 569.649 700.761 581.556 696.136 590.668 681.49 589.117 667.746 587.316 651.76 571.819 643.459 567.46 641.122 549.422 631.458 537.14 648.224 513.405 643.454 511.739 643.12 491.427 638.728 478.581 622.078 460.206 598.257 477.138 575.305 459.787 556.423Z" fill="#9900FF" fill-rule="nonzero" fill-opacity="1" transform="matrix(1.0005 0 0 1 393.996 348.978)"/></g></g></g><g clip-path="url(#clip6)"><g clip-path="url(#clip7)"><g clip-path="url(#clip8)"><path d="M173.994 187.363 44.1374 193.661 12.3553 196.612C12.3553 196.612 8.38253 203.99 19.3928 206.487L137.327 234.864 269.45 224.648 329.194 220.04C330.19 219.945 331.018 219.23 331.259 218.258L333.355 205.352 173.994 187.363Z" fill="#FFFFFF" fill-rule="nonzero" fill-opacity="1" transform="matrix(1.01898 0 0 1 507.735 922.153)"/><path d="M213.377 55.9764 179.62 173.965C178.581 177.598 181.09 181.283 184.851 181.648L331.076 195.808C335.834 196.27 340.208 193.162 341.337 188.515L380.953 25.6149 372.4 18.8593C372.4 18.8593 221.466 45.6755 213.377 55.9764Z" fill="#FFFFFF" fill-rule="nonzero" fill-opacity="1" transform="matrix(1.01898 0 0 1 507.735 922.153)"/><path d="M85.1608 204.749 117.009 199.45 143.362 204.401C144.128 204.544 144.138 205.64 143.373 205.797L114.001 211.822 85.14 206.179C84.3455 206.024 84.3625 204.881 85.1608 204.749Z" fill="#FFFFFF" fill-rule="nonzero" fill-opacity="1" transform="matrix(1.01898 0 0 1 507.735 922.153)"/><path d="M390.83 21.8899C390.604 16.7859 388.316 12.2796 383.046 10.9932 377.464 9.46084 371.125 10.7605 365.592 11.8767 358.543 13.3012 224.132 42.0395 215.275 47.6997 210.498 50.751 208.052 55.3595 205.903 60.4503 204.73 63.2294 172.514 168.967 168.065 186.427 159.459 186.667 150.869 187.318 142.28 187.921 120.596 189.321 98.8631 189.518 77.1642 190.626 66.4682 191.118 55.7018 191.285 45.0283 192.146 34.5064 193.142 24.0125 194.495 13.5074 195.634 13.1574 195.555 12.6731 195.483 12.4518 195.78 11.7272 195.888 11.0027 196.001 10.28 196.128 9.85624 196.202 9.87516 196.877 10.28 196.966 10.5051 197.015 10.7283 197.059 10.9535 197.102 9.3833 199.217 10.2422 203.264 12.2948 205.055 12.344 205.188 12.4385 205.305 12.5842 205.381 14.4438 206.355 16.4245 206.949 18.4393 207.528 21.4094 208.383 24.3833 209.211 27.3703 210.002 59.1431 218.296 91.067 226.012 123.035 233.511 126.964 234.404 130.965 235.369 134.991 235.661 135.798 236.483 136.792 237.049 137.895 237.026 144.287 237.28 150.615 236.215 156.922 235.316 200.649 230.407 244.65 228.616 288.507 225.22 295.569 224.605 302.628 223.986 309.7 223.515 316.634 223.054 323.623 223.184 330.516 222.253 331.186 222.163 331.681 221.62 331.919 220.982 333.111 220.693 333.543 219.465 333.761 218.394 343.425 216.712 346.72 204.387 348.595 196.22 349.744 191.213 365.765 124.158 371.279 106.493 371.497 106.234 391.076 26.489 390.83 21.8899ZM132.995 232.049C126.5 230.002 119.839 228.574 113.237 226.932 80.8286 219.393 48.5509 211.203 15.98 204.404 15.804 202.925 14.2887 202.024 13.7287 200.683 13.2974 199.656 13.2482 198.542 13.1215 197.448 13.7212 197.524 14.3209 197.583 14.9206 197.628 53.9635 208.667 93.6229 217.501 133.012 227.233 132.548 228.78 132.6 230.519 132.995 232.049ZM135.038 223.746C98.0856 214.983 61.0955 206.37 24.1166 197.696 24.022 197.673 24.0333 197.537 24.1298 197.53 29.7845 197.149 35.4143 196.504 41.0575 195.995 62.6012 194.508 84.2454 194.438 105.819 193.4 127.034 193.144 148.16 191.194 169.344 190.35 217.49 195.15 265.542 201.111 313.622 206.639 313.723 206.65 313.723 206.799 313.62 206.809 295.657 208.582 277.618 209.314 259.612 210.471 223.283 212.951 187.068 217.272 150.8 220.415 147.354 220.831 143.92 221.363 140.536 222.142 139.03 222.49 137.212 222.738 135.785 223.39 135.728 223.415 135.101 223.655 135.038 223.746ZM330.416 212.622C330.301 214.482 329.967 216.341 329.4 218.118 323.352 218.935 317.186 218.752 311.1 219.138 304.864 219.535 298.635 220.055 292.407 220.594 267.369 222.934 242.238 223.858 217.166 225.7 197.815 227.403 178.415 228.671 159.102 230.721 151.987 231.714 144.896 232.933 137.688 232.794 136.209 231.561 135.836 229.416 135.681 227.552 143.812 224.811 152.408 224.081 160.921 223.51 175.594 222.541 190.242 220.776 204.883 219.399 219.58 218.018 234.285 216.654 248.996 215.43 275.718 213.307 302.628 212.959 329.114 208.462 329.575 208.517 330.035 208.572 330.496 208.625L330.602 209.056C330.486 210.241 330.491 211.438 330.416 212.622ZM367.178 52.588C358.721 88.165 351.248 124.052 341.626 159.355 340.143 165.014 339.28 174.974 335.473 179.711 334.12 181.396 332.805 182.393 331.043 183.082 329.216 183.797 327.279 184.45 325.349 184.915 325.118 184.896 188.298 174.015 186.726 173.585 188.727 163.192 192.673 152.847 195.67 142.715 202.878 118.144 210.32 93.6438 217.641 69.1072 218.93 64.7446 219.533 59.1243 224.117 56.9373 232.936 52.7338 245.649 52.2758 255.306 50.1741 266.278 47.7848 277.224 45.282 288.193 42.8719 308.909 38.3184 329.6 33.6662 350.334 29.1902 356.387 27.883 366.897 23.1272 370.089 31.2639 372.767 38.0913 368.809 45.9669 367.178 52.588Z" fill="#000000" fill-rule="nonzero" fill-opacity="1" transform="matrix(1.01898 0 0 1 507.735 922.153)"/><path d="M149.594 206.75C151.794 206.351 151.073 203.222 149.096 203.069 138.937 202.276 129.3 197.984 119.018 198.296 118.892 198.195 118.733 198.122 118.532 198.093 117.155 197.925 115.759 197.955 114.45 198.214 102.917 200.292 91.3433 202.178 79.8394 204.406 79.3076 204.323 78.7743 204.244 78.2408 204.159 77.6882 204.071 77.3801 204.7 77.6486 205.04 77.2854 206.224 79.5781 205.685 80.2499 205.806 83.8915 206.722 87.5388 207.594 91.2223 208.336 97.8663 209.66 104.329 211.832 111.06 212.725 112.206 212.882 113.424 213.133 114.574 212.988 126.26 210.973 137.929 208.869 149.594 206.75ZM129.592 206.815C124.287 207.849 118.986 208.952 113.691 210.004 104.826 209.17 96.1239 206.625 87.2666 205.519 87.1662 205.505 87.1662 205.364 87.2666 205.35 97.0073 204.209 106.733 203.152 116.375 201.385 118.434 201.869 120.486 202.062 122.637 202.259 127.743 202.732 132.709 204.024 137.719 205.074 137.81 205.093 137.81 205.222 137.717 205.239 135.008 205.765 132.301 206.289 129.592 206.815Z" fill="#000000" fill-rule="nonzero" fill-opacity="1" transform="matrix(1.01898 0 0 1 507.735 922.153)"/><path d="M274.612 215.816C273.279 215.044 271.415 215.606 269.992 215.808 266.759 216.266 263.535 216.762 260.285 217.078 259.038 217.191 257.635 217.464 256.418 217.106 254.513 216.548 253.795 219.378 255.61 220.038 258.553 221.109 261.966 220.922 265.035 220.721 266.795 220.606 268.546 220.407 270.3 220.241 271.565 220.121 273.553 220.314 274.614 219.559 275.902 218.644 276.118 216.688 274.612 215.816Z" fill="#000000" fill-rule="nonzero" fill-opacity="1" transform="matrix(1.01898 0 0 1 507.735 922.153)"/><path d="M294.771 214.14C291.865 213.99 288.944 215.297 286.04 215.307 284.065 215.265 284.065 218.33 286.04 218.371 289.067 218.434 292.274 218.284 295.273 217.855 296.199 217.722 296.738 216.608 296.628 215.78 296.492 214.785 295.722 214.249 294.771 214.14Z" fill="#000000" fill-rule="nonzero" fill-opacity="1" transform="matrix(1.01898 0 0 1 507.735 922.153)"/></g></g></g></g></g></g></svg>