<svg width="709" height="592" xmlns="http://www.w3.org/2000/svg" xmlns:xlink="http://www.w3.org/1999/xlink" xml:space="preserve" overflow="hidden"><defs><clipPath id="clip0"><rect x="197" y="50" width="709" height="592"/></clipPath><clipPath id="clip1"><path d="M331.51 32.8225 1004.98 268.94 835.806 751.797 162.344 515.683Z" fill-rule="evenodd" clip-rule="evenodd"/></clipPath><clipPath id="clip2"><path d="M331.51 32.8225 1004.98 268.94 835.806 751.797 162.344 515.683Z" fill-rule="evenodd" clip-rule="evenodd"/></clipPath><clipPath id="clip3"><path d="M278.154-278.567 1254.35 63.6825 912.211 1040.25-63.9854 697.995Z" fill-rule="evenodd" clip-rule="evenodd"/></clipPath><clipPath id="clip4"><rect x="186" y="32" width="736" height="455"/></clipPath><clipPath id="clip5"><rect x="186" y="32" width="736" height="455"/></clipPath><clipPath id="clip6"><rect x="186" y="32" width="736" height="455"/></clipPath></defs><g clip-path="url(#clip0)" transform="translate(-197 -50)"><g clip-path="url(#clip1)"><g clip-path="url(#clip2)"><g clip-path="url(#clip3)"><path d="M215.51 387.919C254.05 325.893 331.929 281.701 369.402 283.026 442.866 285.627 462.119 359.62 576.293 390.781 652.013 411.449 666.553 385.18 722.838 412.332 790.493 444.967 853.23 523.307 839.217 593.361 836.066 609.094 825.807 640.631 778.875 675.256 634.627 781.673 314.185 791.703 218.545 614.912 206.966 593.506 165.064 469.106 215.51 387.919Z" fill="#9900FF" transform="matrix(0.943682 0.330852 -0.330744 0.944041 278.154 -278.567)"/></g></g></g><g clip-path="url(#clip4)"><g clip-path="url(#clip5)"><g clip-path="url(#clip6)"><path d="M320.387 345.005 81.2737 356.602 22.7507 362.036C22.7507 362.036 15.4354 375.622 35.7093 380.22L252.87 432.472 496.158 413.661 606.167 405.176C608.002 405.001 609.528 403.684 609.974 401.894L613.83 378.129 320.387 345.005Z" fill="#FFFFFF" transform="matrix(1 0 0 1.00159 186.293 32.5961)"/><path d="M392.907 103.073 330.747 320.335C328.835 327.023 333.454 333.809 340.379 334.482L609.636 360.555C618.397 361.406 626.452 355.682 628.53 347.127L701.473 47.1665 685.731 34.7269C685.731 34.7269 407.802 84.1052 392.907 103.073Z" fill="#FFFFFF" transform="matrix(1 0 0 1.00159 186.293 32.5961)"/><path d="M156.813 377.019 215.457 367.261 263.983 376.378C265.393 376.642 265.411 378.659 264.003 378.948L209.919 390.044 156.775 379.652C155.311 379.366 155.343 377.262 156.813 377.019Z" fill="#FFFFFF" transform="matrix(1 0 0 1.00159 186.293 32.5961)"/><path d="M719.666 40.3075C719.25 30.9091 715.038 22.6114 705.325 20.2426 695.053 17.421 683.38 19.8141 673.195 21.8694 660.207 24.4924 412.711 77.41 396.401 87.833 387.605 93.4514 383.101 101.937 379.144 111.311 376.984 116.429 317.663 311.132 309.47 343.281 293.624 343.723 277.805 344.922 261.99 346.033 222.062 348.611 182.044 348.973 142.088 351.014 122.392 351.92 102.568 352.226 82.9143 353.811 63.539 355.647 44.216 358.138 24.8721 360.235 24.2277 360.089 23.3359 359.956 22.9284 360.503 21.5942 360.702 20.26 360.911 18.9293 361.144 18.149 361.28 18.1838 362.524 18.9293 362.687 19.3439 362.778 19.7549 362.858 20.1694 362.938 17.2781 366.832 18.8596 374.284 22.6392 377.583 22.7298 377.827 22.9039 378.043 23.1722 378.182 26.5965 379.976 30.2437 381.069 33.9536 382.136 39.4227 383.71 44.8988 385.236 50.3992 386.692 108.905 401.964 167.688 416.173 226.553 429.981 233.788 431.626 241.155 433.402 248.568 433.939 250.055 435.454 251.885 436.495 253.915 436.454 265.686 436.921 277.338 434.96 288.952 433.305 369.47 424.265 450.492 420.966 531.25 414.713 544.251 413.581 557.251 412.442 570.272 411.575 583.039 410.724 595.911 410.965 608.605 409.251 609.838 409.084 610.747 408.084 611.186 406.91 613.38 406.377 614.175 404.117 614.579 402.145 632.375 399.048 638.442 376.353 641.89 361.315 644.012 352.094 673.511 228.621 683.659 196.093 684.062 195.616 720.112 48.7759 719.666 40.3075ZM244.893 427.289C232.934 423.519 220.669 420.889 208.512 417.866 148.836 403.984 89.4004 388.904 29.4251 376.385 29.1011 373.66 26.3108 372.002 25.2797 369.533 24.4855 367.641 24.3949 365.589 24.1615 363.576 25.2658 363.715 26.3701 363.823 27.4743 363.907 99.3669 384.233 172.395 400.501 244.924 418.42 244.071 421.269 244.165 424.471 244.893 427.289ZM248.655 412C180.612 395.864 112.499 380.004 44.4076 364.032 44.2334 363.99 44.2543 363.739 44.4319 363.726 54.8441 363.025 65.2112 361.837 75.602 360.9 115.272 358.162 155.127 358.033 194.853 356.121 233.917 355.651 272.817 352.059 311.825 350.506 400.48 359.343 488.964 370.32 577.493 380.498 577.682 380.519 577.678 380.795 577.49 380.812 544.415 384.076 511.199 385.424 478.043 387.556 411.146 392.123 344.462 400.079 277.68 405.865 271.333 406.632 265.01 407.611 258.778 409.045 256.006 409.687 252.658 410.143 250.031 411.345 249.927 411.39 248.77 411.832 248.655 412ZM608.42 391.517C608.204 394.941 607.591 398.365 606.549 401.636 595.413 403.141 584.056 402.803 572.854 403.514 561.368 404.245 549.897 405.203 538.43 406.196 492.326 410.506 446.051 412.205 399.884 415.598 364.252 418.733 328.529 421.068 292.965 424.844 279.864 426.672 266.808 428.916 253.536 428.661 250.811 426.39 250.125 422.44 249.839 419.009 264.811 413.961 280.641 412.616 296.316 411.564 323.334 409.78 350.307 406.531 377.266 403.995 404.329 401.452 431.406 398.94 458.494 396.687 507.698 392.778 557.251 392.137 606.02 383.856 606.87 383.957 607.717 384.059 608.566 384.156L608.761 384.951C608.549 387.131 608.556 389.336 608.42 391.517ZM676.11 96.8343C660.542 162.345 646.778 228.427 629.057 293.432 626.328 303.851 624.74 322.192 617.731 330.915 615.237 334.018 612.816 335.854 609.573 337.122 606.208 338.439 602.645 339.641 599.088 340.498 598.663 340.462 346.726 320.426 343.831 319.635 347.517 300.497 354.783 281.449 360.301 262.791 373.574 217.548 387.277 172.433 400.759 127.252 403.131 119.219 404.242 108.869 412.683 104.843 428.923 97.1023 452.331 96.2593 470.111 92.3895 490.315 87.9893 510.475 83.3807 530.672 78.9427 568.816 70.5579 606.919 61.9923 645.097 53.7503 656.243 51.3432 675.589 42.5857 681.47 57.5682 686.401 70.1399 679.112 84.6417 676.11 96.8343Z" transform="matrix(1 0 0 1.00159 186.293 32.5961)"/><path d="M275.457 380.704C279.509 379.969 278.181 374.207 274.541 373.925 255.835 372.466 238.09 364.562 219.157 365.136 218.923 364.952 218.631 364.816 218.262 364.763 215.726 364.454 213.155 364.509 210.745 364.987 189.509 368.811 168.197 372.285 147.014 376.388 146.035 376.235 145.053 376.088 144.07 375.932 143.053 375.771 142.485 376.928 142.98 377.555 142.311 379.736 146.533 378.743 147.77 378.966 154.476 380.652 161.191 382.258 167.974 383.623 180.208 386.061 192.107 390.061 204.502 391.705 206.613 391.994 208.857 392.458 210.974 392.189 232.492 388.479 253.978 384.606 275.457 380.704ZM238.626 380.823C228.858 382.728 219.098 384.759 209.348 386.696 193.024 385.16 177 380.474 160.69 378.436 160.505 378.412 160.505 378.151 160.69 378.126 178.627 376.026 196.535 374.078 214.291 370.825 218.081 371.716 221.86 372.072 225.821 372.434 235.223 373.305 244.367 375.684 253.591 377.618 253.758 377.652 253.758 377.889 253.588 377.92 248.6 378.889 243.614 379.854 238.626 380.823Z" transform="matrix(1 0 0 1.00159 186.293 32.5961)"/><path d="M505.664 397.397C503.208 395.976 499.773 397.01 497.154 397.383 491.204 398.226 485.265 399.139 479.283 399.72 476.985 399.929 474.403 400.431 472.16 399.772 468.655 398.745 467.331 403.956 470.672 405.172 476.093 407.144 482.377 406.799 488.03 406.43 491.267 406.217 494.496 405.852 497.725 405.545 500.052 405.326 503.713 405.681 505.668 404.29 508.04 402.605 508.437 399.003 505.664 397.397Z" transform="matrix(1 0 0 1.00159 186.293 32.5961)"/><path d="M542.781 394.31C537.433 394.036 532.051 396.442 526.704 396.46 523.071 396.383 523.071 402.027 526.704 402.103 532.281 402.218 538.186 401.943 543.707 401.152 545.414 400.908 546.407 398.856 546.202 397.33 545.954 395.498 544.533 394.513 542.781 394.31Z" transform="matrix(1 0 0 1.00159 186.293 32.5961)"/></g></g></g></g></svg>