<svg id="visual" viewBox="0 0 960 600" width="960" height="600" xmlns="http://www.w3.org/2000/svg" xmlns:xlink="http://www.w3.org/1999/xlink" version="1.1"><g stroke-width="1" stroke-linejoin="bevel"><path d="M516.3 238L566.3 264L639 165Z" fill="#328bb6" stroke="#328bb6"></path><path d="M639 165L550.3 96L516.3 238Z" fill="#032640" stroke="#032640"></path><path d="M639 165L624 99L550.3 96Z" fill="#1a5073" stroke="#1a5073"></path><path d="M678 380L621 297L536.3 438Z" fill="#08304c" stroke="#08304c"></path><path d="M566.3 264L621 297L639 165Z" fill="#3798c4" stroke="#3798c4"></path><path d="M550.3 96L449.7 167L516.3 238Z" fill="#3798c4" stroke="#3798c4"></path><path d="M723.7 264L721.7 129L639 165Z" fill="#144566" stroke="#144566"></path><path d="M639 165L721.7 129L624 99Z" fill="#328bb6" stroke="#328bb6"></path><path d="M621 297L723.7 264L639 165Z" fill="#08304c" stroke="#08304c"></path><path d="M756.7 0L605 0L624 99Z" fill="#1a5073" stroke="#1a5073"></path><path d="M624 99L605 0L550.3 96Z" fill="#08304c" stroke="#08304c"></path><path d="M550.3 96L398.7 88L449.7 167Z" fill="#144566" stroke="#144566"></path><path d="M605 0L524.3 0L550.3 96Z" fill="#328bb6" stroke="#328bb6"></path><path d="M439.7 0L398.7 88L550.3 96Z" fill="#24678d" stroke="#24678d"></path><path d="M723.7 264L781.7 181L721.7 129Z" fill="#032640" stroke="#032640"></path><path d="M721.7 129L756.7 0L624 99Z" fill="#1a5073" stroke="#1a5073"></path><path d="M621 297L678 380L723.7 264Z" fill="#032640" stroke="#032640"></path><path d="M723.7 264L833.3 207L781.7 181Z" fill="#24678d" stroke="#24678d"></path><path d="M536.3 438L621 297L566.3 264Z" fill="#2e7fa9" stroke="#2e7fa9"></path><path d="M398.7 88L341 196L449.7 167Z" fill="#29739b" stroke="#29739b"></path><path d="M449.7 167L388.7 339L516.3 238Z" fill="#24678d" stroke="#24678d"></path><path d="M516.3 238L436.7 382L566.3 264Z" fill="#0e3a59" stroke="#0e3a59"></path><path d="M524.3 0L439.7 0L550.3 96Z" fill="#24678d" stroke="#24678d"></path><path d="M398.7 88L353 86L341 196Z" fill="#2e7fa9" stroke="#2e7fa9"></path><path d="M388.7 339L436.7 382L516.3 238Z" fill="#24678d" stroke="#24678d"></path><path d="M341 196L388.7 339L449.7 167Z" fill="#24678d" stroke="#24678d"></path><path d="M356 0L353 86L398.7 88Z" fill="#1a5073" stroke="#1a5073"></path><path d="M436.7 382L536.3 438L566.3 264Z" fill="#032640" stroke="#032640"></path><path d="M877.3 306L833.3 207L723.7 264Z" fill="#1a5073" stroke="#1a5073"></path><path d="M858.3 126L756.7 0L721.7 129Z" fill="#328bb6" stroke="#328bb6"></path><path d="M858.3 126L721.7 129L781.7 181Z" fill="#2e7fa9" stroke="#2e7fa9"></path><path d="M213.3 162L317 297L341 196Z" fill="#24678d" stroke="#24678d"></path><path d="M341 196L317 297L388.7 339Z" fill="#0e3a59" stroke="#0e3a59"></path><path d="M388.7 339L280 401L436.7 382Z" fill="#3798c4" stroke="#3798c4"></path><path d="M439.7 0L356 0L398.7 88Z" fill="#29739b" stroke="#29739b"></path><path d="M353 86L232.3 123L341 196Z" fill="#144566" stroke="#144566"></path><path d="M769.7 490L776.7 397L678 380Z" fill="#032640" stroke="#032640"></path><path d="M678 380L776.7 397L723.7 264Z" fill="#3798c4" stroke="#3798c4"></path><path d="M960 183L858.3 126L833.3 207Z" fill="#1a5073" stroke="#1a5073"></path><path d="M833.3 207L858.3 126L781.7 181Z" fill="#328bb6" stroke="#328bb6"></path><path d="M558.3 531L603 511L536.3 438Z" fill="#1a5073" stroke="#1a5073"></path><path d="M536.3 438L603 511L678 380Z" fill="#1f5b80" stroke="#1f5b80"></path><path d="M558.3 531L536.3 438L392.7 530Z" fill="#24678d" stroke="#24678d"></path><path d="M776.7 397L877.3 306L723.7 264Z" fill="#1f5b80" stroke="#1f5b80"></path><path d="M392.7 530L536.3 438L436.7 382Z" fill="#0e3a59" stroke="#0e3a59"></path><path d="M251.3 0L232.3 123L353 86Z" fill="#2e7fa9" stroke="#2e7fa9"></path><path d="M603 511L769.7 490L678 380Z" fill="#3798c4" stroke="#3798c4"></path><path d="M776.7 397L889.3 414L877.3 306Z" fill="#1a5073" stroke="#1a5073"></path><path d="M733.7 600L769.7 490L603 511Z" fill="#0e3a59" stroke="#0e3a59"></path><path d="M858.3 126L875.3 0L756.7 0Z" fill="#328bb6" stroke="#328bb6"></path><path d="M960 66L875.3 0L858.3 126Z" fill="#08304c" stroke="#08304c"></path><path d="M237.3 366L280 401L317 297Z" fill="#1f5b80" stroke="#1f5b80"></path><path d="M317 297L280 401L388.7 339Z" fill="#3798c4" stroke="#3798c4"></path><path d="M232.3 123L213.3 162L341 196Z" fill="#032640" stroke="#032640"></path><path d="M356 0L251.3 0L353 86Z" fill="#2e7fa9" stroke="#2e7fa9"></path><path d="M232.3 123L125.7 175L213.3 162Z" fill="#1a5073" stroke="#1a5073"></path><path d="M209.3 311L237.3 366L317 297Z" fill="#24678d" stroke="#24678d"></path><path d="M213.3 162L209.3 311L317 297Z" fill="#3798c4" stroke="#3798c4"></path><path d="M291 508L392.7 530L280 401Z" fill="#08304c" stroke="#08304c"></path><path d="M280 401L392.7 530L436.7 382Z" fill="#1f5b80" stroke="#1f5b80"></path><path d="M769.7 490L843.3 464L776.7 397Z" fill="#0e3a59" stroke="#0e3a59"></path><path d="M843.3 464L889.3 414L776.7 397Z" fill="#2e7fa9" stroke="#2e7fa9"></path><path d="M877.3 306L960 183L833.3 207Z" fill="#328bb6" stroke="#328bb6"></path><path d="M960 306L960 183L877.3 306Z" fill="#29739b" stroke="#29739b"></path><path d="M960 386L960 306L877.3 306Z" fill="#0e3a59" stroke="#0e3a59"></path><path d="M960 183L960 66L858.3 126Z" fill="#032640" stroke="#032640"></path><path d="M444.7 600L567.3 600L558.3 531Z" fill="#3798c4" stroke="#3798c4"></path><path d="M558.3 531L616 600L603 511Z" fill="#2e7fa9" stroke="#2e7fa9"></path><path d="M769.7 490L872.3 600L843.3 464Z" fill="#24678d" stroke="#24678d"></path><path d="M567.3 600L616 600L558.3 531Z" fill="#29739b" stroke="#29739b"></path><path d="M243.3 507L291 508L280 401Z" fill="#328bb6" stroke="#328bb6"></path><path d="M392.7 530L444.7 600L558.3 531Z" fill="#0e3a59" stroke="#0e3a59"></path><path d="M243.3 507L280 401L237.3 366Z" fill="#24678d" stroke="#24678d"></path><path d="M342 600L444.7 600L392.7 530Z" fill="#24678d" stroke="#24678d"></path><path d="M960 66L960 0L875.3 0Z" fill="#24678d" stroke="#24678d"></path><path d="M960 479L960 386L889.3 414Z" fill="#08304c" stroke="#08304c"></path><path d="M889.3 414L960 386L877.3 306Z" fill="#29739b" stroke="#29739b"></path><path d="M616 600L733.7 600L603 511Z" fill="#24678d" stroke="#24678d"></path><path d="M843.3 464L960 479L889.3 414Z" fill="#0e3a59" stroke="#0e3a59"></path><path d="M213.3 162L136.7 267L209.3 311Z" fill="#328bb6" stroke="#328bb6"></path><path d="M209.3 311L127.7 429L237.3 366Z" fill="#0e3a59" stroke="#0e3a59"></path><path d="M125.7 175L136.7 267L213.3 162Z" fill="#0e3a59" stroke="#0e3a59"></path><path d="M98.7 63L125.7 175L232.3 123Z" fill="#032640" stroke="#032640"></path><path d="M127.7 429L243.3 507L237.3 366Z" fill="#2e7fa9" stroke="#2e7fa9"></path><path d="M291 508L342 600L392.7 530Z" fill="#2e7fa9" stroke="#2e7fa9"></path><path d="M210.3 600L342 600L291 508Z" fill="#1f5b80" stroke="#1f5b80"></path><path d="M872.3 600L960 479L843.3 464Z" fill="#144566" stroke="#144566"></path><path d="M251.3 0L98.7 63L232.3 123Z" fill="#032640" stroke="#032640"></path><path d="M96.7 510L127.7 429L0 397Z" fill="#328bb6" stroke="#328bb6"></path><path d="M127.7 429L136.7 267L0 327Z" fill="#144566" stroke="#144566"></path><path d="M136.7 267L127.7 429L209.3 311Z" fill="#1a5073" stroke="#1a5073"></path><path d="M243.3 507L210.3 600L291 508Z" fill="#0e3a59" stroke="#0e3a59"></path><path d="M733.7 600L872.3 600L769.7 490Z" fill="#29739b" stroke="#29739b"></path><path d="M251.3 0L85.7 0L98.7 63Z" fill="#1f5b80" stroke="#1f5b80"></path><path d="M0 165L136.7 267L125.7 175Z" fill="#24678d" stroke="#24678d"></path><path d="M96.7 510L210.3 600L243.3 507Z" fill="#2e7fa9" stroke="#2e7fa9"></path><path d="M872.3 600L960 600L960 479Z" fill="#29739b" stroke="#29739b"></path><path d="M0 165L125.7 175L0 111Z" fill="#0e3a59" stroke="#0e3a59"></path><path d="M127.7 429L96.7 510L243.3 507Z" fill="#29739b" stroke="#29739b"></path><path d="M0 111L125.7 175L98.7 63Z" fill="#328bb6" stroke="#328bb6"></path><path d="M0 0L0 111L98.7 63Z" fill="#3798c4" stroke="#3798c4"></path><path d="M0 165L0 327L136.7 267Z" fill="#328bb6" stroke="#328bb6"></path><path d="M85.7 0L0 0L98.7 63Z" fill="#328bb6" stroke="#328bb6"></path><path d="M0 327L0 397L127.7 429Z" fill="#0e3a59" stroke="#0e3a59"></path><path d="M96.7 510L83.7 600L210.3 600Z" fill="#3798c4" stroke="#3798c4"></path><path d="M0 532L83.7 600L96.7 510Z" fill="#08304c" stroke="#08304c"></path><path d="M0 397L0 532L96.7 510Z" fill="#032640" stroke="#032640"></path><path d="M0 532L0 600L83.7 600Z" fill="#29739b" stroke="#29739b"></path></g></svg>