<svg width="1948" height="2062" xmlns="http://www.w3.org/2000/svg" xmlns:xlink="http://www.w3.org/1999/xlink" xml:space="preserve" overflow="hidden"><defs><clipPath id="clip0"><rect x="2140" y="252" width="1948" height="2062"/></clipPath><clipPath id="clip1"><path d="M2145.33 921.966 3242.87 255.323 4086.41 1644.1 2988.88 2310.74Z" fill-rule="nonzero" clip-rule="nonzero"/></clipPath><clipPath id="clip2"><path d="M2145.33 921.966 3242.87 255.323 4086.41 1644.1 2988.88 2310.74Z" fill-rule="evenodd" clip-rule="evenodd"/></clipPath><clipPath id="clip3"><path d="M1591.07 900.524 3494.1-255.375 4650 1647.66 2746.97 2803.56Z" fill-rule="evenodd" clip-rule="evenodd"/></clipPath><clipPath id="clip4"><rect x="2720" y="656" width="687" height="1429"/></clipPath><clipPath id="clip5"><rect x="2720" y="656" width="687" height="1429"/></clipPath><clipPath id="clip6"><rect x="2720" y="656" width="687" height="1429"/></clipPath></defs><g clip-path="url(#clip0)" transform="translate(-2140 -252)"><g clip-path="url(#clip1)"><g clip-path="url(#clip2)"><g clip-path="url(#clip3)"><path d="M1310.48 353.069C1084.83 302.61 734.481 632.337 614.673 872.603 588.789 924.51 422.807 1257.39 568.286 1475.63 617.419 1549.34 667.007 1557.36 1032.16 1698.29 1396.68 1838.98 1480.16 1882.28 1552.2 1886.07 1571.54 1887.09 1583.61 1889.28 1598.08 1883.84 1828.14 1797.16 1717.33 444.053 1310.48 353.069Z" fill="#9900FF" fill-rule="nonzero" fill-opacity="1" transform="matrix(0.85469 -0.519139 0.51914 0.854692 1591.07 900.524)"/></g></g></g><g clip-path="url(#clip4)"><g clip-path="url(#clip5)"><g clip-path="url(#clip6)"><path d="M657.723 22.4546C657.723 22.4546 605.965 74.0174 600.833 83.0926 595.921 91.7866 588.206 103.613 583.864 109.532 579.522 115.45 533.156 159.054 533.156 159.054 533.156 159.054 515.597 174.048 506.422 187.664 497.247 201.281 487.973 226.336 476.136 243.304 468.214 254.661 449.301 281.385 441.607 293.617 435.359 303.547 400.961 321.241 385.177 322.227 385.177 322.227 357.456 332.683 353.509 334.164 353.509 334.164 332.398 349.257 313.162 338.406L274.491 314.533 272.911 299.93C272.911 299.93 240.354 290.656 240.354 329.131 240.354 329.131 219.342 334.655 220.328 346.001 220.328 346.001 201.978 344.816 194.383 346.296 186.788 347.776 180.671 353.99 175.243 360.304 169.816 366.617 158.474 386.939 152.947 393.452 150.061 396.852 118.432 424.408 88.2314 454.22 60.5934 481.504 31.7772 520.567 25.8827 532.353 25.8827 532.353 13.6507 559.187 120.194 630.116L89.8081 845.278 54.2936 1049.68C53.7062 1053.22 56.6706 1057.33 60.0919 1056.27 78.7611 1050.47 97.207 1052.84 95.73 1065.47 95.73 1065.47 84.0888 1098.02 197.54 1079.28 197.54 1079.28 179.781 1163.73 190.241 1224 190.241 1224 198.725 1263.96 197.54 1272.24 196.891 1276.79 191.999 1284.26 190.436 1290.79 189.148 1296.18 190.725 1300.95 189.251 1302.63 178.201 1315.25 159.26 1363 159.26 1363 159.26 1363 139.695 1382.44 151.367 1394.18 156.835 1399.67 169.929 1402.09 193.689 1402.56 193.689 1402.56 236.998 1409.96 245.678 1379.18 245.678 1379.18 256.038 1384.41 258.504 1372.08 258.504 1372.08 260.476 1331.63 258.7 1320.97 257.532 1313.97 254.952 1307.76 254.952 1307.76 254.952 1307.76 272.612 1294.54 269.16 1277.27 265.707 1260.01 260.675 1224.1 265.807 1179.51 270.936 1134.92 289.88 1069.61 289.88 1069.61L315.659 1068.89C315.659 1068.89 364.326 1079.41 380.375 1073.62L384.847 1121.24 396.423 1185.03C396.423 1185.03 403.526 1214.89 400.861 1228.44 399.384 1235.95 391.951 1250.93 394.582 1263.83 397.213 1276.72 415.102 1290.92 415.102 1290.92L408.669 1361.96C408.157 1366.25 410.706 1370.29 414.573 1372.21 427.692 1378.73 448.697 1381.14 465.085 1379.18 468.441 1378.78 471.117 1376.19 474.03 1375.63 474.03 1375.63 490.226 1387.4 544.533 1385.1 556.94 1384.58 566.857 1383.91 572.683 1380.89 581.435 1376.37 582.404 1368.45 580.312 1363 576.826 1353.93 542.692 1333.8 542.692 1333.8 542.692 1333.8 508.888 1287.14 486.691 1273.82 486.691 1273.82 499.779 1259.81 495.341 1250.93 490.903 1242.05 481.47 1237.26 482.188 1229.89 488.501 1164.91 476.926 1083.98 476.926 1069.68L476.05 1063.8C475.493 1060.06 477.729 1056.46 481.329 1055.31L530.326 1042.58 474.291 830.806 461.138 681.119C461.138 681.119 452.984 597.199 449.827 543.269 446.67 489.34 446.145 423.57 446.145 423.57 446.145 423.57 479.292 389.896 482.449 380.426 485.606 370.956 480.869 352.276 480.869 352.276 480.869 352.276 525.064 265.464 544.008 234.157 561.337 205.513 613.985 125.508 613.985 125.508 613.985 125.508 621.549 132.347 634.334 123.183 634.946 122.743 637.251 123.677 637.003 124.388 635.557 128.531 637.392 135.02 645.289 130.506 655.649 124.587 661.797 110.71 661.797 110.71 661.797 110.71 667.846 96.4376 660.152 95.912 660.152 95.912 664.494 78.8779 657.651 73.0899 653.849 69.8713 646.759 69.6412 636.416 69.8851 635.722 69.9022 635.358 69.0641 635.846 68.5695 635.846 68.5695 666.596 37.311 667.911 34.5492 668.939 32.392 673.174 20.9363 665.871 15.0831 664.531 14.0079 662.577 18.2467 657.723 22.4546ZM130.853 564.844C130.636 568.224 127.133 571.395 125.329 568.527L97.5643 525.448C96.97 524.511 97.1658 523.274 98.0246 522.566L134.229 492.751C135.191 491.957 136.637 492.699 136.555 493.943L130.853 564.844Z" fill="#FFFFFF" fill-rule="nonzero" fill-opacity="1" transform="matrix(1 0 0 1.00104 2720 657)"/><path d="M579.179 1364.82C574.995 1356.39 566.043 1350.16 557.476 1345.48 551.809 1342.15 546.457 1339 541.789 1334.7 541.095 1334.04 533.672 1323.95 531.971 1320.59 531.381 1319.8 507.899 1285.67 492.905 1277.78 489.055 1275.75 486.344 1272.43 484.081 1270.97 472.422 1265.74 459.331 1275.61 458.675 1287.27 458.541 1288.13 456.882 1289.17 456.34 1290.36 449.449 1307.15 430.601 1303.95 418.689 1296.23 418.039 1295.86 417.246 1295.83 416.576 1296.17 415.906 1296.5 415.453 1297.16 415.367 1297.9 413.876 1311.07 413.12 1324.5 412.389 1337.49 412.076 1347.26 410.809 1357.32 410.658 1367.17 427.025 1376.29 445.251 1377.12 466.854 1376.91 467.617 1376.91 473.539 1373.38 476.956 1375.46 491.761 1384.44 510.874 1382.73 527.832 1382.77 543.736 1380.86 579.811 1389.73 579.179 1364.82Z" fill="#FFFFFF" fill-rule="nonzero" fill-opacity="1" transform="matrix(1 0 0 1.00104 2720 657)"/><path d="M257.828 1327.74C257.446 1322.11 255.378 1316.95 254.959 1311.51 254.911 1310.79 252.898 1306.91 253.183 1305.79 254.509 1300.59 244.551 1302.54 241.937 1302.63 238.959 1302.76 237.973 1294.53 234.597 1290.13 229.3 1281.55 186.208 1283.7 193.006 1299.47 192.758 1301.7 181.564 1308.94 162.819 1355.51 159.329 1364.18 146.128 1379.04 148.811 1388.66 151.638 1400.83 186.441 1402.08 201.095 1403.06 223.618 1402.81 237.939 1396.3 242.171 1381.65 242.346 1381.04 246.252 1377.42 247.605 1378.73 248.958 1380.04 252.136 1379.7 255.481 1376.78 258.669 1372.52 256.543 1361.34 257.422 1355.6 257.546 1346.29 258.446 1337.11 257.828 1327.74Z" fill="#FFFFFF" fill-rule="nonzero" fill-opacity="1" transform="matrix(1 0 0 1.00104 2720 657)"/><path d="M493.499 1251.73C492.108 1248.19 488.845 1245.58 486.791 1242.65 482.734 1236.62 481.649 1220.3 481.662 1220.16 491.256 1119.21 461.025 1037.43 472.192 945.116 480.656 883.08 473.199 820.687 467.064 758.86 467.012 757.259 462.492 754.388 461.145 755.308 438.818 769.247 410.788 778.426 373.937 784.509 322.649 793.303 270.156 803.117 218.858 792.794 216.103 792.241 211.191 793.543 210.964 796.346 205.361 865.932 205.516 940.197 208.597 1010.62 208.882 1043.79 198.883 1076.02 192.418 1108.09 181.966 1160.96 188.351 1214.04 195.575 1258.83 198.055 1271.72 198.639 1280.67 193.232 1287.29 192.497 1288.2 192.583 1289.51 193.432 1290.31 194.277 1291.11 195.599 1291.12 196.454 1290.33 206.2 1282.14 236.974 1279.6 238.983 1301.05 239.107 1302.59 241.01 1303.58 242.332 1302.72 249.824 1298.76 253.905 1309.73 257.137 1306.97 270.362 1294.25 266.882 1273.22 265.031 1257.25 263.361 1242.05 261.737 1224.93 262.664 1207.92 265.769 1141.24 290.154 1078.99 302.52 1014.17 302.555 1013.99 303.692 1008.43 303.705 1008.25 306.56 970.645 307.57 939.349 320.279 903.284 326.421 882.403 331.072 861.154 341.982 842.516 344.046 838.988 346.694 841.767 347.9 845.673 371.433 921.95 376.187 999.647 381.048 1079.68 383.233 1125.4 394.994 1167.13 399.593 1212.26 403.843 1251.18 376.071 1253.76 412.616 1289.21 413.739 1290.3 420.908 1296.89 421.031 1296.95 431.051 1301.5 444.654 1304.37 452.441 1293.63 452.503 1293.55 452.571 1293.46 452.64 1293.38 454.028 1291.76 455.244 1290.37 456.879 1290.01 460.946 1289.31 454.701 1279.95 465.332 1272.39 477.352 1263.26 485.304 1273.81 487.591 1270.27 490.233 1265.7 495.76 1258.04 493.499 1251.73Z" fill="#FFFFFF" fill-rule="nonzero" fill-opacity="1" transform="matrix(1 0 0 1.00104 2720 657)"/><path d="M178.723 618.451C177.923 616.754 175.748 617.18 174.213 617.049 171.403 617.427 169.785 615.871 167.511 616.053 161.229 625.187 160.016 636.56 157.289 650.005 157.086 651.145 157.859 652.107 158.855 652.557 162.249 654.347 165.577 656.899 169.256 657.998 171.238 658.032 171.65 655.903 171.53 654.333 171.946 642.517 172.379 630.302 178.586 620.601 179.005 619.955 179.053 619.145 178.723 618.451Z" fill="#FFFFFF" fill-rule="nonzero" fill-opacity="1" transform="matrix(1 0 0 1.00104 2720 657)"/><path d="M482.428 367.332C481.724 364.526 483.624 359.308 480.412 357.999 479.443 357.776 478.444 358.222 477.966 359.095 476.795 361.225 472.044 368.754 469.764 372.45 452.716 352.551 444.626 322.818 449.356 294.582 449.782 292.373 446.677 291.01 445.375 292.906 432.532 310.534 411.729 312.743 393.706 322.196 392.699 322.718 392.249 323.917 392.662 324.975 395.32 334.009 384.912 335.86 380.526 341.539 378.523 344.297 377.434 347.821 375.401 350.387 373.597 352.871 377.101 354.454 378.674 355.811 381.759 358.15 384.947 360.565 386.152 363.839 387.825 374.487 386.592 386.352 382.566 396.636 380.955 399.934 378.973 406.972 377.922 406.13 367.799 398.006 352.122 386.856 352.458 376.5 352.585 375.04 351.088 373.803 349.679 374.216 344.499 375.662 342.583 374.411 339.931 372.814 335.431 372.223 331.711 371.227 328.561 369.771 327.544 369.3 326.339 369.661 325.748 370.609 316.965 384.658 318.342 403.458 319.345 410.888 319.561 411.705 319.015 412.361 318.115 411.712 304.75 400.277 288.478 385.695 287.784 367.397 287.509 364.189 283.171 365.219 280.962 364.038 278.85 363.261 274.663 362.073 274.968 365.711 254.083 372.718 231.21 376.016 205.155 375.803 197.148 376.235 188.849 378.035 179.036 381.464 169.394 388.076 159.332 393.448 150.195 401.668 132.594 417.995 111.273 431.755 94.4247 449.092 93.5385 449.975 93.6106 451.565 94.5999 452.345 99.0551 456.041 105.846 462.004 110.209 465.666 125.639 477.29 139.856 493.441 157.034 501.97 168.205 496.814 192.384 488.55 193.339 490.133 199.36 501.829 203.654 513.615 207.546 525.648 219.854 563.707 224.477 602.897 222.907 642.455 221.53 677.145 215.155 711.539 211.228 745.312 209.477 760.378 207.13 776.217 205.966 790.823 245.764 797.882 288.585 796.944 328.094 789.054 374.219 781.837 426.338 774.651 467.723 750.31 467.551 731.349 463.412 712.512 461.935 691.908 456.175 611.547 442.974 519.787 445.887 427.52 442.284 419.911 458.05 406.408 463.666 399.545 468.475 394.468 473.449 389.216 478.784 384.751 481.439 379.749 483.098 373.171 482.428 367.332Z" fill="#FFFFFF" fill-rule="nonzero" fill-opacity="1" transform="matrix(1 0 0 1.00104 2720 657)"/><path d="M621.027 89.389C617.589 87.2043 616.136 83.7144 615.013 80.008 614.961 78.5516 612.697 78.4725 612.24 79.8397 610.444 85.1845 616.28 91.8175 620.825 93.7789 626.915 96.6025 642.221 98.9555 633.823 108.261 626.317 115.842 614.435 111.799 607.236 105.836 606.356 105.169 605.508 106.409 605.875 107.196 618.207 129.682 660.186 103.339 628.845 92.4839 626.286 91.5221 623.349 90.866 621.027 89.389Z" fill="#000000" fill-rule="nonzero" fill-opacity="1" transform="matrix(1 0 0 1.00104 2720 657)"/><path d="M647.233 61.4143C651.994 56.4542 656.648 51.3841 661.244 46.2694 665.328 41.7249 670.673 36.6377 671.903 30.4307 672.937 24.9003 671.446 17.3983 666.991 13.7056 666.565 13.266 665.899 13.0805 665.242 13.4858 656.978 18.549 650.438 26.5388 643.643 33.3573 628.983 49.0758 611.488 62.1666 599.404 80.1351 592.304 88.6951 587.787 99.0551 580.463 107.402 571.773 115.983 563.288 124.769 555.123 133.865 539.346 151.628 519.142 165.038 505.11 184.363 497.931 194.342 493.499 205.87 487.966 216.769 479 234.902 466.353 250.824 454.942 267.387 444.321 281.512 435.606 299.288 417.665 305.182 408.277 308.652 398.408 311.826 391.116 319.029 389.508 317.476 387.671 316.109 386.025 314.783 384.631 313.66 382.133 315.079 383.212 316.82L361.98 326.813C359.524 322.677 353.716 331.278 351.369 332.793 343.05 334.428 335.249 338.358 326.462 338.124 323.982 335.843 320.097 334.881 316.954 336.056 314.072 332.144 308.707 329.853 304.616 327.414 295.582 321.99 286.475 316.69 277.376 311.372 278.448 304.159 276.198 296.743 274.783 289.715 274.151 287.252 270.75 288.365 271.08 290.735 271.286 292.195 271.468 293.665 271.636 295.132 270.863 294.864 270.108 294.637 269.376 294.458 262.901 285.053 248.986 293.699 244.311 301.109 239.677 307.858 238.173 316.181 237.506 324.192 236.575 324.951 236.125 326.301 236.266 327.561 230.131 330.722 222.141 333.181 220.503 340.707 213.911 344.819 205.519 342.885 198.172 343.496 181.268 344.269 171.705 359.356 163.389 372.158 158.518 379.351 153.617 386.523 148.787 393.744 135.621 405.055 122.678 416.607 109.092 427.424 77.1432 457.295 46.6301 490.13 23.6156 527.475 22.221 530.24 20.4589 535.554 20.9672 539.305 24.6873 549.978 31.5127 559.712 38.0529 568.819 58.1511 594.773 87.0532 612.306 113.795 630.669 96.4067 757.864 79.0805 885.117 55.0939 1011.28 52.1433 1027.13 49.1308 1042.81 48.0831 1058.92 47.9251 1061.33 50.4945 1062.14 52.2085 1061.22 52.9849 1062.24 54.2489 1062.84 55.7294 1062.36 61.4693 1060.49 67.6386 1059.18 73.667 1058.8 79.1527 1058.37 91.2576 1058.9 91.5702 1066.18 91.2267 1068.81 90.0038 1071 90.2031 1073.75 92.6797 1087.73 117.714 1090.82 129.379 1091.78 150.697 1092.18 172.399 1090.22 193.294 1086.16 180.509 1136.11 180.987 1188.12 188.636 1238.86 189.481 1253.36 197.512 1270.3 188.774 1283.48 186.981 1285.96 184.714 1287.87 182.052 1289.35 176.463 1293.64 183.178 1297.49 186.462 1300.35 183.841 1303.89 181.203 1307.45 178.644 1311.04 169.376 1324.31 165.306 1340.23 158.336 1354.66 152.246 1367.77 135.775 1383.48 149.824 1397.24 155.403 1402.03 163.015 1402.84 170.002 1403.89 194.751 1407.22 238.234 1413.95 247.378 1382.98 266.625 1384.65 261.153 1366.07 262.482 1353.45 262.743 1344.99 263.488 1336.36 262.743 1327.91 262.575 1321.76 259.652 1316.02 259.665 1309.92 278.602 1296.54 272.746 1270.03 270.578 1250.36 265.378 1191.34 279.592 1132.98 293.933 1076.16 306.79 1074.77 319.599 1074.75 332.188 1078.03 346.852 1081.34 361.657 1087.09 376.929 1084.61 379.348 1125.72 389.666 1165.64 395.269 1206.27 395.963 1214.1 396.1 1222.01 395.279 1229.84 394.444 1237.8 391.58 1245.2 390.291 1253.03 387.543 1270.12 398.985 1284.65 412.025 1294.27 407.494 1300.57 408.696 1312.43 407.559 1320.09 406.487 1335.28 405.113 1350.49 404.275 1365.69 404.238 1370.85 407.123 1373.45 411.637 1375.18 430.491 1382 451.647 1386.07 471.564 1382.18 473.178 1381.8 474.03 1380.66 474.239 1379.38 494.691 1393.49 521.57 1387.72 544.983 1389.01 558.572 1389.4 576.266 1389.68 583.122 1375.43 586.296 1369.5 585.403 1363.9 581.779 1358.46 574.315 1346.75 560.75 1341.83 549.923 1334 542.517 1328.58 537.189 1320.91 531.975 1313.5 521.502 1298.79 510.139 1283.59 493.891 1274.97 499.696 1265.69 503.956 1252.27 495.069 1243.51 492.744 1241.06 490.102 1239.17 488.773 1235.95 486.08 1229.43 486.969 1221.77 487.21 1214.91 488.883 1164.54 486.791 1113.97 480.206 1063.98 493.338 1062.91 504.134 1049.23 518.623 1053.22 522.724 1054.16 525.62 1055.67 527.616 1059.62 530.532 1065.32 538.91 1061.25 537.598 1055.41 520.578 978.549 501.97 902.01 479.23 826.615 477.121 801.66 475.28 776.519 470.519 751.911 472.913 746.597 470.694 740.125 470.372 734.465 459.156 632.95 451.579 531.03 448.449 428.942 450.644 427.554 451.61 424.676 453.145 422.629 457.648 415.996 462.949 410.345 468.379 404.536 487.656 385.798 491.631 378.726 484.39 351.823 523.738 275.075 568.75 201.494 615.535 129.087 621.838 132.845 629.165 128.806 634.802 125.621 632.607 130.423 637.931 134.638 642.424 134.216 648.459 133.804 656.923 125.893 658.019 120.136 665.624 113.231 668.307 101.525 663.003 92.4873 663.364 89.6878 663.436 86.8436 663.168 84.0441 662.282 75.0135 660.853 68.8889 650.42 68.5042 647.13 68.0886 643.812 68.092 640.524 68.4114 642.898 66.2268 645.031 63.7055 647.233 61.4143ZM80.1042 596.209C69.7442 586.966 59.1095 577.849 49.9518 567.386 42.6112 557.741 35.6999 547.7 29.723 537.148 47.0286 507.212 70.2595 481.271 93.6415 455.838 104.812 468.269 117.766 478.983 130.887 489.302 118.813 499.016 106.179 507.473 95.335 518.702 93.6965 518.64 92.0271 519.894 92.7553 521.814 93.5556 523.339 93.2499 525.521 94.7373 526.668 110.975 560.946 135.981 591.105 164.873 615.493 159.363 625.252 156.876 636.646 154.802 647.583 128.995 631.892 103.225 615.751 80.1042 596.209ZM220.599 653.814C220.139 660.155 219.514 666.489 218.789 672.813 216.601 670.364 212.699 674.393 210.16 672.119 210.892 671.302 211.562 670.471 212.163 669.581 214.646 669.354 215.701 667.012 215.203 664.988 216.803 663.638 215.972 660.705 213.763 660.774 212.747 660.887 211.785 661.227 210.878 661.701 199.257 658.774 186.266 663.017 174.986 658.252 175.264 648.191 174.927 627.124 181.344 619.409 195.18 618.977 208.223 614.456 221.478 610.784 222.018 625.122 221.636 639.494 220.599 653.814ZM132.866 498.913C129.19 519.86 127.167 541.05 125.769 562.265 116.611 550.661 108.821 538.075 101.092 525.5 110.957 515.219 122.482 506.769 133.171 497.371 133.075 497.893 132.976 498.408 132.866 498.913ZM168.212 618.166C170.647 619.591 173.966 619.093 176.72 619.406 169.902 630.054 169.706 643.526 169.263 655.779 165.969 654.165 162.688 652.231 159.487 650.352 161.263 639.061 163.681 628.831 168.212 618.166ZM181.141 1334.32C192.089 1334.32 203.963 1332.04 213.485 1339.06 215.261 1340.13 217.683 1341.83 219.998 1342.14 218.28 1346.36 214.327 1346.58 210.287 1346.59 199.141 1346.92 187.891 1345.84 177.064 1343.11 178.424 1340.18 179.781 1337.25 181.141 1334.32ZM222.468 1337.27C208.604 1328.54 199.8 1326.12 183.408 1329.42 184.903 1326.2 186.376 1322.98 187.888 1319.77 194.747 1320.13 202.071 1319.73 208.92 1321.51 215.244 1322.29 221.132 1326.66 227.503 1326.12 225.899 1329.87 224.244 1333.6 222.468 1337.27ZM228.239 1324.41C222.78 1315.77 199.299 1312.78 189.914 1315.54 191.24 1312.78 192.566 1310.01 193.806 1307.21 209.624 1303.27 218.291 1309.52 232.24 1314.8 230.952 1318.03 229.609 1321.22 228.239 1324.41ZM234.026 1310.29C229.259 1306.71 223.402 1304.87 217.824 1302.94 210.796 1300.21 203.3 1300.54 196.029 1302.31 196.949 1301.26 196.726 1299.82 197.203 1298.59 197.485 1297.76 196.884 1297.13 196.18 1297 196.413 1295.88 196.52 1294.75 196.451 1293.6 202.39 1286.02 226.439 1284.47 232.948 1291.63 235.875 1295.08 235.84 1299.24 236.641 1303.3 235.631 1305.57 234.892 1308.03 234.026 1310.29ZM255.392 1349.06C255.2 1356.37 254.904 1363.7 254.856 1371.02 255.303 1375.1 252.926 1377.03 249.031 1377.17 249.687 1375.39 250.597 1373.76 252.132 1372.45 255.849 1369.28 250.487 1364.01 246.788 1367.1 241.645 1371.4 241.188 1378.12 239.021 1384.01 228.757 1407.08 177.631 1398.85 157.814 1393.5 142.357 1385.72 162.747 1368.26 165.959 1358.15 172.729 1344.08 177.026 1328.77 185.844 1315.73 181.653 1325 177.297 1334.17 173.035 1343.4 172.557 1344.43 172.911 1345.67 174.096 1346.01 186.455 1349.59 199.254 1351.5 212.139 1350.91 221.75 1351.46 224.343 1344.54 227.534 1336.98 232.158 1327.25 236.208 1317.37 240.182 1307.35 242.566 1304.54 247.42 1303.05 250.078 1305.83 249.013 1307.91 249.961 1310.33 251.858 1311.47 252.235 1317.02 255.193 1322.34 255.615 1327.91 256.141 1334.92 255.578 1342.05 255.392 1349.06ZM562.776 1351.25C568.784 1354.85 573.885 1359.69 577.228 1365.88 576.86 1381.98 556.027 1380.51 544.506 1380.41 526.578 1379.98 508.256 1382.37 490.607 1378.47 482.902 1376.5 474.071 1372.68 469.283 1366.08 467.253 1363.28 462.598 1365.83 464.553 1368.84 465.92 1370.95 467.428 1372.89 469.07 1374.67 452.688 1375.41 436.073 1374.24 420.379 1369.19 417.83 1368.32 415.212 1367.62 412.777 1366.47 412.64 1366.05 412.815 1365.29 412.835 1364.87 414.687 1342.65 415.078 1320.29 417.579 1298.15 432.679 1306.93 449.497 1309.58 458.342 1291.32 458.912 1291.79 459.833 1291.88 460.486 1291.5 460.826 1292.25 462.073 1293.01 462.825 1292.36 477.376 1306.86 493.194 1320.06 508.325 1333.95 513.577 1339.96 521.594 1339.76 528.921 1339.28 532.301 1339.07 538.625 1340.04 540.288 1336.33 546.979 1342.51 555.13 1346.43 562.776 1351.25ZM483.109 1272.97C483.146 1275.78 485.826 1278.05 488.608 1278.28 492.311 1280.96 495.818 1283.87 499.167 1286.94 490.48 1287.51 481.975 1291.31 476.919 1298.54 473.759 1296.35 465.116 1286.22 461.595 1288.36 461.413 1288.05 461.149 1287.77 460.867 1287.62 461.372 1284.4 461.99 1282.16 463.481 1279.53 467.287 1273.46 476.434 1269.72 483.109 1272.97ZM530.316 1324.94C532.49 1327.85 534.768 1330.68 537.251 1333.31 530.01 1333.03 520.423 1336.07 514.099 1331.79 512.11 1330.2 510.169 1328.53 508.249 1326.83 511.437 1326.29 514.604 1325.67 517.871 1325.55 521.979 1325.06 526.362 1326.41 530.316 1324.94ZM525.634 1318.42C517.565 1318.47 510.685 1319.25 503.646 1322.67 500.579 1319.84 497.542 1316.98 494.468 1314.19 499.305 1311.54 504.715 1311.4 509.878 1311.18 513.014 1310.92 517.283 1312.77 519.612 1309.99 521.684 1312.76 523.655 1315.58 525.634 1318.42ZM515.872 1305.11C508.356 1303.82 496.134 1305.51 490.477 1310.61 487.028 1307.53 483.572 1304.44 480.11 1301.37 487.409 1295.62 496.835 1291.48 506.236 1293.93 509.613 1297.5 512.818 1301.24 515.872 1305.11ZM482.848 1243.95C484.775 1246.81 488.113 1249.07 489.463 1252.26 491.359 1257.55 488.227 1263.04 485.613 1267.54 472.649 1261.41 453.873 1272.81 456.388 1287.85 452.437 1288.72 450.737 1293.12 447.546 1295.3 439.171 1302.76 427.75 1297.06 418.816 1293.7 419.41 1292.37 419.362 1290.71 418.242 1289.42 381.642 1254.81 407.48 1255.67 404.262 1212.3 399.758 1167.65 387.056 1124.46 384.933 1079.1 377.582 998.479 379.588 913.129 348 836.759 348.302 835.034 348.532 833.293 348.676 831.476 348.814 829.71 346.196 828.566 345.046 829.971 326.593 855.754 319.585 888.315 310.191 918.196 300.995 949.19 299.875 981.431 296.956 1013.36 284.597 1078 261.462 1140.88 258.484 1207.19 257.591 1223.47 257.831 1239.83 259.61 1256.05 261.304 1270.96 266.8 1290.05 254.389 1301.89 251.418 1298.42 245.675 1297.36 241.724 1299.73 240.378 1287.18 231.275 1282.1 219.599 1282.16 211.723 1281.59 202.249 1282.85 195.991 1287.81 195.833 1287.93 195.668 1287.76 195.788 1287.6 201.947 1279.11 201.597 1268.19 199.697 1258.25 191.714 1208.77 187.139 1158 196.935 1108.44 203.458 1076.17 212.585 1044.1 212.262 1010.9 212.286 993.965 211.012 977.055 210.541 960.127 208.82 905.407 213.317 850.798 215.237 796.15 267.916 810.131 322.196 796.734 374.71 788.552 405.244 783.513 435.815 775.424 462.292 758.894 463.199 773.253 465.198 787.587 466.6 801.901 465.841 802.639 465.435 803.738 465.786 805.092 471.849 839.273 470.89 874.784 469.908 909.447 468.111 944.594 460.152 979.414 464.257 1014.7 474.401 1083.77 481.944 1153.37 477.949 1223.28 477.908 1230.42 478.767 1237.88 482.848 1243.95ZM461.073 399.047C456.436 404.564 438.646 420.461 442.885 427.705 442.6 534.606 452.056 641.397 464.158 747.511 463.34 747.899 462.653 748.528 462.265 749.372 421.32 773.483 373.848 779.645 327.699 786.869 288.495 794.708 248.234 794.969 208.903 787.999 215.072 745.975 220.482 703.704 225.339 661.498 230.585 602.87 221.241 542.462 196.849 488.776 199.536 485.005 195.891 481.69 192.837 483.019 192.065 483.356 191.457 483.552 191.46 483.548 179.754 487.825 168.36 493.232 157.072 498.442 136.785 483.51 117.81 466.957 98.4402 450.888 115.031 433.782 134.181 419.558 151.617 403.368 157.584 398.319 163.97 393.589 170.654 389.44 173.67 387.482 177.201 386.118 179.757 383.562 187.994 380.687 196.527 378.492 205.265 378.025 229.214 378.211 253.19 375.401 275.961 367.72 277.125 367.335 277.435 366.219 277.143 365.322 279.825 365.896 282.625 367.043 285.558 367.38 285.514 372.581 287.101 377.709 289.436 382.408 295.558 394.74 306.292 404.705 316.679 413.416 318.919 415.295 322.12 413.522 321.533 410.592 319.84 398.024 320.771 382.752 327.623 371.791 331.419 373.546 335.517 374.48 339.636 375.023 341.707 377.579 346.677 377.307 350.239 376.373 349.453 389.017 370.647 402.688 379.533 410.348 381.718 412.001 384.479 408.844 383.171 406.711 380.708 401.665 386.073 396.928 386.589 391.889 388.588 382.614 390.206 372.66 388.292 363.251 386.499 358.105 381.13 355.151 377.125 351.785 379.272 349.123 380.347 345.612 382.346 342.813 384.761 339.237 389.299 338.406 392.078 335.143 394.609 332.192 396.217 327.977 394.723 324.175 413.155 314.594 433.875 312.42 447.165 294.221 441.858 325.892 451.981 362.114 477.348 383.057 471.557 387.897 466.284 393.555 461.073 399.047ZM480.144 365.979C480.254 368.74 480.508 371.554 480.12 374.302 478.43 372.337 476.713 370.368 475.294 368.658 476.895 365.865 478.358 362.987 479.911 360.163 480.003 362.09 480.051 364.024 480.144 365.979ZM644.183 128.514C642.63 129.444 639.099 130.458 638.474 127.909 638.274 124.921 641.397 122.094 642.784 119.624 644.289 121.991 646.996 123.389 649.541 123.392 647.985 125.336 646.364 127.205 644.183 128.514ZM659.633 111.816C658.52 114.063 657.17 116.371 655.226 118.003 654.275 117.958 653.409 118.758 652.784 119.486 650.001 120.575 645.921 120.507 645.708 117.079 654.127 114.904 659.173 106.677 661.674 98.7974 662.986 103.246 661.684 107.811 659.633 111.816ZM637.137 71.8464C642.259 71.2247 654.082 70.9121 657.201 75.5013 663.075 87.3177 658.895 107.261 646.165 112.902 639.878 114.207 647.171 98.7391 648.116 96.2212 648.864 94.5793 649.723 92.9408 649.826 91.0996 649.974 88.4134 647.896 84.8582 644.787 85.7616 644.282 85.9093 644.028 86.6204 644.461 86.9982 647.779 89.9042 643.904 95.0773 642.668 98.2547 640.967 103.565 637.082 111.005 641.304 115.911 639.999 117.432 638.779 119.023 637.642 120.675 631.528 117.807 624.029 127.998 617.286 124.862 617.025 123.777 616.064 122.928 614.94 122.629 613.525 121.623 612.244 122.774 611.45 123.921 559.819 200.625 507.391 278.214 471.474 363.77 451.441 337.07 449.38 300.178 460.706 269.616 479.285 246.98 493.39 221.685 505.91 195.366 517.75 174.69 538.113 161.373 554.429 144.596 562.9 135.916 570.952 126.837 579.539 118.27 588.165 110.762 593.877 101.075 599.792 91.4534 603.127 86.5895 606.786 81.8766 610.365 77.1844 620.622 63.7433 634.516 53.6719 645.776 41.1032 652.694 33.5118 660.427 26.5251 665.988 17.807 671.693 29.8536 662.501 37.3968 654.831 45.1462 650.63 49.5842 646.371 53.9673 642.149 58.3847 638.405 62.3006 634.084 65.9005 632.064 71.0323 631.738 73.193 633.881 73.2788 635.279 72.2312 635.53 72.3273 636.825 71.8911 637.137 71.8464Z" fill="#000000" fill-rule="nonzero" fill-opacity="1" transform="matrix(1 0 0 1.00104 2720 657)"/><path d="M243.401 331.23C248.127 335.781 254.365 338.248 260.421 340.508 262.942 341.425 265.814 343.067 268.387 341.669 269.548 341.037 269.713 339.632 269.208 338.536 267.841 335.445 259.16 334.407 255.753 332.367 251.73 330.952 248.34 327.63 244.428 326.356 242.903 325.566 241.188 327.17 242.054 328.729 242.576 329.667 242.525 330.361 243.401 331.23Z" fill="#FFFFFF" fill-rule="nonzero" fill-opacity="1" transform="matrix(1 0 0 1.00104 2720 657)"/><path d="M388.605 359.095C382.03 352.967 374.078 348.745 365.556 345.767 368.874 341.061 372.976 336.736 375.871 331.769 378.43 326.943 375.624 324.247 371.595 328.468 367.469 333.363 364.285 339.21 360.62 344.482 359.486 344.262 358.353 344.094 357.216 343.995 356.017 339.739 354.107 335.733 351.119 332.721 349.872 331.464 348.113 333.051 348.793 334.514 353.795 345.86 355.406 359.816 350.566 371.447 340.807 358.865 330.241 346.389 317.937 336.297 317.569 334.521 315.209 334.445 314.405 335.74 300.164 338.117 287.176 351.624 280.56 363.914 265.9 361.032 237.956 361.451 230.392 346.485 229.472 344.682 230.011 342.147 228.489 340.721 228.122 340.463 228.197 340.477 228.713 340.766 228.417 339.34 226.078 339.319 225.82 340.769 223.148 343.874 225.147 349.432 227.17 352.517 238.932 366.978 260.761 367.105 277.771 370.245 276.61 372.409 276.219 377.932 279.963 376.74 282.35 375.624 282.439 372.395 283.47 370.262 285.06 369.812 286.606 367.878 285.215 366.374 291.216 354.066 301.892 344.874 314.141 339.12 316.181 351.534 320.372 363.605 324.477 375.631 325.226 377.826 327.599 378.334 328.777 377.596 330.073 376.782 330.11 374.532 329.44 372.498 326.404 363.279 323.491 354.021 320.616 344.75 329.179 354.832 338.32 364.474 346.086 375.205 346.557 375.868 347.165 376.249 347.804 376.407 345.729 379.32 349.525 382.381 352.129 380.193 359.723 371.866 359.744 359.081 358.215 348.47 358.36 348.522 358.504 348.573 358.648 348.625 358.878 350.253 361.018 351.558 362.265 350.026 371.33 353.843 380.838 358.288 387.039 366.216 388.437 368.119 389.154 369.912 391.095 371.358 392.201 372.182 394.149 371.344 394.389 370.018 395.169 365.752 391.497 361.881 388.605 359.095Z" fill="#FFFFFF" fill-rule="nonzero" fill-opacity="1" transform="matrix(1 0 0 1.00104 2720 657)"/><path d="M144.583 700.07C126.786 817.289 111.754 935.014 97.4028 1052.71 97.1624 1056.28 97.3066 1059.86 97.0559 1063.44 96.9906 1064.39 98.5467 1064.61 98.7356 1063.66 108.292 1016.91 112.843 969.209 119.775 921.998 129.135 848.177 140.677 774.596 148.306 700.575 148.495 698.466 144.96 697.964 144.583 700.07Z" fill="#FFFFFF" fill-rule="nonzero" fill-opacity="1" transform="matrix(1 0 0 1.00104 2720 657)"/><path d="M342.366 1002.09C340.831 972.95 339.35 943.804 337.842 914.658 337.702 911.906 333.422 911.882 333.542 914.658 336.283 962.573 336.176 1010.78 340.9 1058.53 341.216 1060.48 344.056 1059.85 344.17 1058.09 344.953 1039.43 343.108 1020.73 342.366 1002.09Z" fill="#FFFFFF" fill-rule="nonzero" fill-opacity="1" transform="matrix(1 0 0 1.00104 2720 657)"/><path d="M261.496 165.574 242.765 225.566C242.765 225.566 212.695 236.28 222.169 266.333 222.169 266.333 228.486 280.698 248.148 276.521 248.148 276.521 256.347 290.804 272.193 306.474 287.726 321.835 310.967 335.751 350.538 334.085 350.538 334.085 414.316 320.434 395.162 265.213 395.162 265.213 399.645 221.609 389.659 180.245 385.118 161.435 368.07 152.871 368.07 152.871 368.07 152.871 273.656 130.77 261.496 165.574Z" fill="#FFFFFF" fill-rule="nonzero" fill-opacity="1" transform="matrix(1 0 0 1.00104 2720 657)"/><path d="M398.972 264.845C399.734 260.637 399.745 256.168 399.951 251.916 400.164 247.488 400.25 243.057 400.215 238.629 400.15 229.915 399.611 221.214 398.515 212.565 398.213 210.181 397.886 207.787 397.529 205.385 398.089 205.269 398.625 204.946 398.999 204.403 416.466 179.084 406.779 141.721 384.692 122.344 359.744 100.457 324.446 95.8365 292.744 101.587 283.714 103.225 274.845 105.712 266.271 108.993 258.851 111.83 251.143 115.141 244.393 119.504 244.452 118.209 244.397 116.9 244.215 115.588 244.043 114.348 242.466 113.705 241.395 113.987 235.706 115.478 233.741 120.613 233.8 125.903 232.158 125.298 230.389 125.171 228.39 125.786 225.758 126.597 223.594 128.782 223.014 131.502 222.99 131.619 222.973 131.736 222.955 131.856 222.863 132.158 222.842 132.471 222.894 132.773 222.921 134.865 224.113 136.747 226.119 137.575 221.592 144.524 218.157 152.119 215.474 159.961 209.428 177.638 206.636 197.516 210.352 215.993 212.132 224.841 215.739 233.484 222.045 240.072 222.124 240.155 222.207 240.227 222.289 240.295 221.406 241.704 220.664 243.208 220.067 244.764 215.952 255.478 218.579 269.462 228.524 276.061 230.918 277.648 233.68 278.712 236.551 279.241 237.747 288.64 249.415 295.406 257.453 297.921 258.889 298.371 259.885 297.413 260.129 296.227 263.396 300.641 267.288 304.647 271.368 308.295 280.639 316.59 291.116 323.783 302.239 329.358 303.915 330.2 305.622 330.966 307.347 331.694 319.613 338.736 335.146 340.116 349.175 337.825 371.378 334.198 393.486 320.242 400.813 298.124 402.754 292.27 403.626 285.922 403.073 279.77 402.63 274.79 401.579 269.283 398.972 264.845ZM392.167 292.92C389.879 301.778 384.679 310.009 377.465 315.663 362.437 327.441 341.391 331.883 322.663 329.265 311.833 327.747 301.864 324.628 293.27 317.641 293.036 317.449 292.634 317.693 292.82 317.988 293.078 318.39 293.349 318.778 293.62 319.166 290.041 316.958 286.554 314.591 283.188 312.073 277.249 307.632 271.626 302.661 266.573 297.224 264.217 294.689 261.922 292.013 259.895 289.203 258.126 286.75 256.849 283.913 255.028 281.526 254.808 281.237 254.437 281.093 254.097 281.11 253.056 279.317 251.961 277.823 250.865 277.009 251.105 276.871 251.349 276.741 251.583 276.593 252.27 276.157 251.998 275.075 251.167 275.058 245.018 274.924 238.368 276.071 232.646 273.148 228.355 270.956 225.36 267.037 223.921 262.482 221.255 254.053 223.162 242.459 231.224 237.523 233.446 236.163 235.971 235.473 238.574 235.431 241.267 235.387 243.72 236.221 246.255 236.795 246.599 238.729 247.217 240.639 247.945 242.432 249.748 246.877 252.799 253.568 257.56 255.468 259.133 256.096 260.263 254.073 259.603 252.809 259.449 252.51 259.267 252.229 259.078 251.95 259.549 251.603 259.837 251.006 259.665 250.219 259.009 247.21 257.859 244.352 257.275 241.319 256.735 238.506 256.481 235.672 256.543 232.804 256.667 227.184 257.927 221.695 259.394 216.292 260.029 213.956 260.679 211.627 261.304 209.298 261.822 207.872 262.324 206.56 262.791 205.382 263.028 205.272 263.255 205.118 263.461 204.898 269.929 197.969 275.116 189.323 278.527 180.509 280.907 174.357 282.24 167.611 281.299 161.136 282.821 162.376 284.373 163.54 285.929 164.612 292.184 168.923 299.092 171.987 306.423 173.941 314.423 176.075 322.529 177.534 329.478 182.33 331.931 183.961 334.143 180.063 331.769 178.407 327.414 175.535 324.202 171.609 321.468 167.278 325.099 170.087 329.114 172.454 333.497 174.34 344.273 178.97 356.158 182.034 367.648 184.164 368.314 184.288 368.929 183.951 369.297 183.463 370.159 183.687 371.025 183.834 371.88 183.879 372.914 183.934 373.515 182.495 372.742 181.801 369.671 179.049 365.278 177.634 361.719 175.583 359.624 174.378 357.59 173.079 355.632 171.668L351.174 167.724C353.193 168.634 355.426 169.163 357.539 169.617 361.863 170.544 366.243 171.176 370.551 172.186 373.209 172.808 375.954 173.522 378.448 174.711 380.935 176.298 382.82 177.905 384.246 179.431 385.895 181.9 386.513 184.868 386.657 188.015 386.692 188.784 387.162 189.402 387.77 189.746 389.072 197.468 390.285 205.203 390.944 213.035 391.662 221.537 392.019 230.09 391.913 238.626 391.858 242.741 391.7 246.853 391.439 250.964 391.205 254.582 390.594 258.24 390.333 261.867 389.412 262.867 388.941 264.265 389.385 265.773 390.704 270.242 392.799 274.274 393.266 279.001 393.733 283.669 393.331 288.392 392.167 292.92Z" fill="#000000" fill-rule="nonzero" fill-opacity="1" transform="matrix(1 0 0 1.00104 2720 657)"/><path d="M243.425 248.179C241.676 246.788 239.828 245.372 237.578 244.981 234.466 244.435 231.303 246.492 231.333 249.831 231.337 250.315 232.051 250.418 232.178 249.944 232.46 248.931 233.992 248.584 234.806 248.818 235.304 248.962 235.703 249.295 236.081 249.632 237.042 250.477 237.661 251.597 238.361 252.651 239.966 255.069 241.501 257.725 243.94 259.36 247.378 261.651 251.061 257.251 249.319 253.98 248.045 251.607 245.51 249.841 243.425 248.179Z" fill="#000000" fill-rule="nonzero" fill-opacity="1" transform="matrix(1 0 0 1.00104 2720 657)"/><path d="M-5335.03-3989.24C-5329.47-3992.6-5308.1-3989.13-5291.79-3988.24-5278.63-3989.99-5270.08-3989.96-5267.12-3987.97-5260.43-3983.47-5259.5-3969.07-5275.81-3960.04-5283.44-3956.16-5331.22-3953.31-5338.5-3960.55-5347.33-3969.38-5345.03-3983.22-5335.03-3989.24Z" fill="#FFFFFF" fill-rule="nonzero" fill-opacity="1" transform="matrix(1 0 0 1.00104 8356.83 4917.37)"/><path d="M-5262.49-3988.34C-5265.54-3991.37-5269.53-3992.6-5272.38-3993.12-5276.3-3993.74-5280.56-3994.46-5284.23-3992.53-5285.06-3992.22-5285.67-3991.43-5285.74-3990.54-5303.16-3989.65-5321.6-4000.61-5338.09-3991.71-5353.21-3983.26-5350.18-3958.18-5332.8-3953.99-5322.7-3951.07-5311.78-3952.28-5301.54-3951.93-5285.26-3951.73-5265.72-3954.51-5259.22-3971.44-5257.23-3977.11-5257.99-3984.05-5262.49-3988.34ZM-5321.67-3987.97C-5317.96-3987.9-5314.25-3987.59-5310.54-3987.11-5310.27-3987.07-5308.72-3986.9-5308.41-3986.87-5308.62-3984.98-5308.69-3983.09-5308.65-3981.23-5308.65-3979.07-5308.72-3977.28-5308.69-3975.08-5314.15-3974.88-5319.61-3974.67-5325.11-3974.36-5325.48-3976.84-5325.73-3978.62-5325.86-3981.03-5325.93-3983.26-5326.21-3985.46-5326.72-3987.62-5325.04-3987.86-5323.42-3987.93-5321.67-3987.97ZM-5328.85-3987.24C-5330.12-3982.98-5329.85-3978.48-5330.05-3974.16-5333.32-3974.05-5336.79-3973.92-5340.15-3973.5-5340.87-3980.55-5334.73-3986.32-5328.85-3987.24ZM-5340.05-3972.2C-5336.61-3971.86-5333.08-3971.79-5330.05-3971.75-5330.05-3968.8-5329.88-3965.81-5329.5-3962.89-5329.44-3962.03-5328.92-3961.28-5328.16-3960.86-5328.06-3960.83-5327.82-3960.76-5327.82-3960.73-5327.89-3960.66-5328.44-3960.86-5328.71-3960.93-5335.41-3962.48-5339.23-3966.19-5340.05-3972.2ZM-5326.27-3960.45C-5326.38-3960.49-5326.38-3960.59-5326.27-3960.62-5324.45-3960.9-5322.87-3962.65-5323.29-3964.57-5323.56-3966.22-5323.87-3967.84-5324.18-3969.42-5324.35-3970.17-5324.49-3970.96-5324.63-3971.72-5319.44-3971.61-5313.74-3971.65-5308.69-3971.75-5308.65-3969.14-5308.48-3966.63-5308.45-3963.99-5308.48-3962.61-5308.41-3961.24-5308.24-3959.87-5314.25-3959.83-5320.3-3959.63-5326.27-3960.45ZM-5284.51-3971.2C-5284.61-3969.69-5284.75-3968.15-5284.81-3966.63-5284.81-3965.16-5284.95-3963.68-5285.16-3962.24-5285.6-3961.86-5285.88-3961.31-5285.88-3960.76-5291-3959.9-5296.12-3959.7-5301.3-3959.8-5301.51-3960.28-5301.85-3960.69-5302.33-3960.9L-5302.3-3961.1C-5302.3-3961.55-5302.33-3962-5302.47-3962.44-5303.09-3965.67-5303.4-3968.69-5303.78-3971.86-5297.15-3971.96-5290.65-3972.13-5284.44-3972.37-5284.47-3971.99-5284.51-3971.61-5284.51-3971.2ZM-5284.16-3976.22C-5291.58-3975.84-5298.31-3975.53-5304.19-3975.26-5304.57-3978.38-5304.91-3981.54-5305.15-3984.46-5305.22-3985.15-5305.25-3985.87-5305.36-3986.56-5297.97-3985.94-5291.38-3986.28-5284.16-3987.28-5283.96-3987.11-5283.72-3986.97-5283.48-3986.87L-5283.27-3986.8C-5283.68-3983.22-5283.92-3979.69-5284.16-3976.22ZM-5280.25-3962.2C-5280.45-3963.61-5280.62-3965.05-5280.66-3966.5-5280.73-3968.18-5280.9-3969.9-5281-3971.55L-5281-3971.58C-5281-3971.89-5281.04-3972.2-5281.07-3972.54-5278.32-3972.61-5275.54-3972.82-5272.79-3972.82-5272.52-3972.82-5272-3972.82-5271.76-3972.82-5270.18-3972.78-5268.6-3972.92-5267.06-3973.23-5269.56-3967.73-5274.17-3964.33-5280.25-3962.2ZM-5272.62-3976.97C-5275.2-3976.63-5278.67-3976.56-5281.31-3976.39-5281.52-3979.72-5281.69-3983.02-5281.96-3986.39-5281.96-3986.39-5281.96-3986.39-5281.96-3986.39-5280.38-3986.04-5278.8-3985.8-5277.22-3985.73-5271.73-3985.77-5265.27-3983.09-5266.09-3976.94-5268.22-3977.52-5270.46-3977.21-5272.62-3976.97Z" fill="#000000" fill-rule="nonzero" fill-opacity="1" transform="matrix(1 0 0 1.00104 8356.83 4917.37)"/><path d="M-5290.65-3998.55C-5294.71-3998.44-5299.1-4000.85-5297.49-4004.97-5296.91-4006.38-5295.57-4007.54-5293.99-4007.54-5293.3-4007.54-5292.58-4007.3-5291.99-4006.89-5291.17-4006.41-5290.21-4006.17-5289.25-4006.24-5287.39-4006.31-5285.57-4006.62-5283.82-4007.17-5282.31-4007.58-5280.31-4008.64-5279.42-4010.36-5278.32-4012.53-5279.59-4014.66-5282.07-4015.45-5283.34-4015.82-5284.64-4016.03-5285.98-4016.06-5286.19-4016.06-5286.43-4016.06-5286.7-4016.06-5288.59-4016.03-5290.48-4015.86-5292.34-4015.58-5293.54-4015.41-5294.81-4015.24-5296.05-4015.14-5296.29-4015.14-5296.49-4015.27-5296.53-4015.51-5296.6-4015.72-5296.53-4015.99-5296.32-4016.13-5294.4-4017.16-5292.41-4017.99-5290.31-4018.57-5286.15-4019.81-5280.04-4020.46-5276.54-4018.02-5272.55-4015.45-5272.45-4008.78-5275.47-4005.17-5279.39-4000.54-5283.89-3999.09-5290.65-3998.55L-5290.65-3998.55Z" fill="#000000" fill-rule="nonzero" fill-opacity="1" transform="matrix(1 0 0 1.00104 8356.83 4917.37)"/><path d="M-5261.59-4015.27C-5261.94-4015.31-5262.35-4015.34-5262.69-4015.41-5263.38-4015.62-5264-4016.06-5264.44-4016.61-5264.93-4017.2-5265.17-4017.88-5265.13-4018.64-5265.03-4020.32-5264.96-4022.42-5265.65-4024.38-5266.27-4026.09-5267.78-4027.36-5269.56-4027.64-5273-4028.43-5275.27-4024.99-5275.23-4021.7-5276.02-4019.33-5278.7-4023.14-5278.77-4024.34-5280.38-4034.58-5266.3-4037.46-5261.15-4029.77-5258.5-4026.37-5257.58-4021.94-5258.57-4017.75-5258.78-4017.09-5259.16-4016.51-5259.7-4016.06-5260.22-4015.58-5260.87-4015.31-5261.59-4015.27L-5261.59-4015.27Z" fill="#000000" fill-rule="nonzero" fill-opacity="1" transform="matrix(1 0 0 1.00104 8356.83 4917.37)"/><path d="M-5338.98-4016.82C-5340.87-4017.16-5341.56-4019.33-5341.63-4020.6-5341.32-4034.34-5323.63-4037.02-5317.58-4025.54-5314.39-4024.75-5315.7-4020.67-5317.38-4018.91-5319.23-4016.82-5322.98-4017.88-5323.73-4020.49-5325.66-4026.99-5333.83-4026.75-5335.93-4020.6-5336.51-4019.26-5337.34-4018.06-5338.33-4017.06-5338.5-4016.89-5338.74-4016.82-5338.98-4016.82Z" fill="#000000" fill-rule="nonzero" fill-opacity="1" transform="matrix(1 0 0 1.00104 8356.83 4917.37)"/><path d="M-5349.46-4028.05C-5349.63-4028.05-5349.77-4028.19-5349.8-4028.36-5350.56-4036.54-5347.47-4045.05-5341.8-4051-5340.05-4052.68-5337.99-4054.09-5335.76-4055.08-5332.01-4056.8-5327.27-4057.94-5323.53-4055.74-5322.02-4054.78-5320.88-4053.3-5320.33-4051.62-5320.02-4050.65-5320.16-4049.62-5320.68-4048.8-5321.12-4047.91-5321.95-4047.25-5322.94-4047.01-5323.49-4046.91-5324.08-4046.84-5324.63-4046.84-5325.69-4046.88-5326.76-4046.98-5327.82-4047.18L-5327.82-4047.18C-5328.85-4047.39-5329.92-4047.49-5330.98-4047.53-5333.8-4047.49-5336.51-4046.6-5338.74-4044.95-5342.14-4042.34-5343.93-4038.49-5345.65-4034.82-5346.75-4032.52-5347.78-4029.91-5349.46-4028.05Z" fill="#000000" fill-rule="nonzero" fill-opacity="1" transform="matrix(1 0 0 1.00104 8356.83 4917.37)"/><path d="M-5255.62-4034.1C-5260.12-4034.23-5261.35-4038.25-5262.59-4041.62-5265.78-4049.28-5275.64-4051.86-5283.48-4049.76-5283.65-4049.76-5283.75-4049.86-5283.82-4050-5283.92-4050.45-5283.3-4050.83-5283.13-4051.2-5282.51-4052.13-5281.79-4052.96-5280.93-4053.64-5272.28-4060.48-5259.33-4055.6-5254.38-4046.53-5253.87-4045.5-5253.56-4044.4-5253.04-4043.37-5251.63-4042.58-5250.67-4041.21-5250.4-4039.63-5249.98-4036.74-5252.8-4034.06-5255.62-4034.1Z" fill="#000000" fill-rule="nonzero" fill-opacity="1" transform="matrix(1 0 0 1.00104 8356.83 4917.37)"/></g></g></g></g></svg>