<svg width="2431" height="2431" xmlns="http://www.w3.org/2000/svg" xmlns:xlink="http://www.w3.org/1999/xlink" xml:space="preserve" overflow="hidden"><defs><clipPath id="clip0"><rect x="1625" y="65" width="2431" height="2431"/></clipPath><clipPath id="clip1"><path d="M1625.1 476.363 3644.36 65.6234 4055.1 2084.89 2035.84 2495.63Z" fill-rule="evenodd" clip-rule="evenodd"/></clipPath><clipPath id="clip2"><path d="M1625.1 476.363 3644.36 65.6234 4055.1 2084.89 2035.84 2495.63Z" fill-rule="evenodd" clip-rule="evenodd"/></clipPath><clipPath id="clip3"><path d="M1625.1 476.363 3644.36 65.6234 4055.1 2084.89 2035.84 2495.63Z" fill-rule="evenodd" clip-rule="evenodd"/></clipPath><clipPath id="clip4"><rect x="2495" y="594" width="690" height="1427"/></clipPath><clipPath id="clip5"><rect x="2495" y="594" width="690" height="1427"/></clipPath><clipPath id="clip6"><rect x="2495" y="594" width="690" height="1427"/></clipPath></defs><g clip-path="url(#clip0)" transform="translate(-1625 -65)"><g clip-path="url(#clip1)"><g clip-path="url(#clip2)"><g clip-path="url(#clip3)"><path d="M2878.69 554.813C2664.75 550.677 2407.84 914.334 2343.51 1154.33 2329.61 1206.18 2240.49 1538.69 2412.69 1709.77 2470.84 1767.55 2517.29 1765.68 2874.44 1826.13 3230.98 1886.47 3314.67 1910.34 3380.71 1900.49 3398.44 1897.85 3409.79 1897.61 3421.9 1890 3614.55 1768.96 3264.45 562.272 2878.69 554.813Z" fill="#9900FF"/></g></g></g><g clip-path="url(#clip4)"><g clip-path="url(#clip5)"><g clip-path="url(#clip6)"><path d="M658.404 22.4778C658.404 22.4778 606.592 74.094 601.455 83.1786 596.538 91.8816 588.815 103.721 584.468 109.645 580.122 115.57 533.708 159.219 533.708 159.219 533.708 159.219 516.13 174.228 506.946 187.859 497.762 201.489 488.478 226.57 476.628 243.556 468.699 254.924 449.766 281.676 442.064 293.921 435.809 303.862 401.376 321.574 385.575 322.56 385.575 322.56 357.826 333.027 353.875 334.509 353.875 334.509 332.742 349.618 313.486 338.756L274.775 314.858 273.193 300.241C273.193 300.241 240.603 290.957 240.603 329.472 240.603 329.472 219.569 335.001 220.556 346.359 220.556 346.359 202.187 345.172 194.584 346.654 186.982 348.136 180.858 354.357 175.425 360.677 169.992 366.997 158.638 387.339 153.105 393.859 150.217 397.263 118.554 424.847 88.3227 454.69 60.6561 482.003 31.8101 521.106 25.9095 532.904 25.9095 532.904 13.6648 559.766 120.318 630.768L89.901 846.153 54.3498 1050.77C53.7618 1054.31 56.7293 1058.42 60.1541 1057.36 78.8426 1051.56 97.3076 1053.93 95.8291 1066.57 95.8291 1066.57 84.1758 1099.16 197.744 1080.4 197.744 1080.4 179.967 1164.93 190.437 1225.27 190.437 1225.27 198.931 1265.27 197.744 1273.56 197.094 1278.11 192.198 1285.59 190.633 1292.13 189.344 1297.52 190.922 1302.29 189.447 1303.98 178.385 1316.62 159.425 1364.41 159.425 1364.41 159.425 1364.41 139.839 1383.87 151.523 1395.62 156.997 1401.12 170.105 1403.54 193.89 1404.01 193.89 1404.01 237.243 1411.42 245.932 1380.61 245.932 1380.61 256.303 1385.84 258.772 1373.5 258.772 1373.5 260.746 1333.01 258.968 1322.34 257.799 1315.33 255.216 1309.11 255.216 1309.11 255.216 1309.11 272.894 1295.88 269.438 1278.6 265.982 1261.31 260.945 1225.37 266.082 1180.73 271.216 1136.09 290.18 1070.72 290.18 1070.72L315.986 1069.99C315.986 1069.99 364.703 1080.52 380.768 1074.73L385.245 1122.4 396.833 1186.26C396.833 1186.26 403.944 1216.15 401.276 1229.71 399.797 1237.23 392.356 1252.23 394.99 1265.13 397.624 1278.04 415.532 1292.26 415.532 1292.26L409.092 1363.37C408.579 1367.66 411.131 1371.7 415.003 1373.63 428.134 1380.16 449.161 1382.57 465.566 1380.61 468.926 1380.21 471.605 1377.61 474.52 1377.05 474.52 1377.05 490.733 1388.84 545.097 1386.54 557.517 1386.01 567.444 1385.34 573.276 1382.32 582.037 1377.79 583.007 1369.87 580.913 1364.41 577.423 1355.33 543.254 1335.18 543.254 1335.18 543.254 1335.18 509.415 1288.47 487.195 1275.14 487.195 1275.14 500.296 1261.12 495.853 1252.23 491.411 1243.34 481.968 1238.54 482.687 1231.16 489.007 1166.11 477.419 1085.1 477.419 1070.78L476.542 1064.9C475.985 1061.16 478.224 1057.56 481.827 1056.41L530.875 1043.66 474.782 831.666 461.616 681.824C461.616 681.824 453.452 597.817 450.292 543.831 447.132 489.846 446.606 424.008 446.606 424.008 446.606 424.008 479.788 390.3 482.948 380.82 486.108 371.34 481.367 352.641 481.367 352.641 481.367 352.641 525.607 265.738 544.571 234.399 561.918 205.725 614.621 125.638 614.621 125.638 614.621 125.638 622.193 132.484 634.991 123.31 635.603 122.87 637.91 123.805 637.663 124.517 636.215 128.664 638.051 135.159 645.956 130.641 656.327 124.716 662.482 110.825 662.482 110.825 662.482 110.825 668.537 96.5374 660.835 96.0113 660.835 96.0113 665.181 78.9595 658.332 73.1656 654.525 69.9436 647.428 69.7132 637.075 69.9574 636.38 69.9746 636.016 69.1356 636.504 68.6404 636.504 68.6404 667.286 37.3496 668.603 34.585 669.631 32.4256 673.871 20.958 666.56 15.0987 665.219 14.0224 663.263 18.2656 658.404 22.4778ZM130.988 565.429C130.772 568.812 127.264 571.986 125.459 569.115L97.6653 525.992C97.0704 525.053 97.2664 523.816 98.126 523.107L134.368 493.261C135.331 492.466 136.779 493.209 136.696 494.454L130.988 565.429Z" fill="#FFFFFF" transform="matrix(1.00042 0 0 1 2496 594)"/><path d="M579.778 1366.23C575.59 1357.79 566.629 1351.55 558.053 1346.87 552.38 1343.54 547.022 1340.39 542.349 1336.08 541.655 1335.42 534.224 1325.32 532.522 1321.96 531.931 1321.16 508.425 1287 493.415 1279.1 489.561 1277.07 486.848 1273.75 484.582 1272.29 472.911 1267.05 459.807 1276.93 459.15 1288.61 459.016 1289.46 457.355 1290.5 456.812 1291.69 449.914 1308.5 431.047 1305.3 419.122 1297.57 418.472 1297.2 417.678 1297.17 417.007 1297.51 416.337 1297.84 415.883 1298.5 415.797 1299.24 414.305 1312.42 413.548 1325.87 412.816 1338.87 412.503 1348.65 411.234 1358.73 411.083 1368.59 427.467 1377.71 445.712 1378.54 467.337 1378.34 468.101 1378.33 474.029 1374.81 477.45 1376.88 492.27 1385.87 511.402 1384.17 528.379 1384.2 544.299 1382.29 580.411 1391.17 579.778 1366.23Z" fill="#FFFFFF" transform="matrix(1.00042 0 0 1 2496 594)"/><path d="M258.094 1329.12C257.713 1323.48 255.643 1318.31 255.223 1312.87 255.175 1312.15 253.16 1308.26 253.446 1307.14 254.773 1301.94 244.804 1303.89 242.188 1303.98 239.206 1304.11 238.22 1295.87 234.839 1291.46 229.537 1282.88 186.401 1285.03 193.205 1300.82 192.958 1303.05 181.752 1310.3 162.987 1356.91 159.494 1365.59 146.28 1380.47 148.965 1390.09 151.795 1402.28 186.634 1403.54 201.303 1404.51 223.85 1404.26 238.185 1397.74 242.421 1383.08 242.597 1382.47 246.507 1378.84 247.861 1380.16 249.216 1381.47 252.397 1381.13 255.746 1378.2 258.937 1373.94 256.808 1362.75 257.689 1357 257.812 1347.69 258.713 1338.49 258.094 1329.12Z" fill="#FFFFFF" transform="matrix(1.00042 0 0 1 2496 594)"/><path d="M494.01 1253.02C492.618 1249.48 489.351 1246.87 487.295 1243.94 483.234 1237.9 482.147 1221.56 482.161 1221.42 491.765 1120.37 461.502 1038.51 472.681 946.094 481.153 883.994 473.688 821.536 467.547 759.645 467.495 758.043 462.97 755.168 461.622 756.09 439.272 770.044 411.213 779.231 374.324 785.321 322.983 794.124 270.435 803.948 219.084 793.615 216.326 793.061 211.409 794.364 211.182 797.17 205.574 866.829 205.729 941.17 208.813 1011.66 209.098 1044.87 199.089 1077.13 192.617 1109.23 182.154 1162.17 188.546 1215.29 195.778 1260.13 198.26 1273.04 198.845 1282 193.432 1288.63 192.697 1289.53 192.783 1290.85 193.632 1291.64 194.478 1292.44 195.802 1292.45 196.658 1291.67 206.413 1283.46 237.219 1280.92 239.231 1302.4 239.354 1303.94 241.259 1304.93 242.583 1304.07 250.083 1300.11 254.168 1311.08 257.403 1308.33 270.642 1295.59 267.158 1274.53 265.305 1258.55 263.634 1243.34 262.008 1226.2 262.936 1209.17 266.044 1142.42 290.455 1080.11 302.833 1015.22 302.868 1015.04 304.006 1009.48 304.02 1009.29 306.877 971.649 307.888 940.321 320.611 904.219 326.759 883.316 331.415 862.045 342.336 843.388 344.402 839.857 347.053 842.638 348.26 846.548 371.818 922.904 376.577 1000.68 381.442 1080.79 383.629 1126.56 395.403 1168.34 400.007 1213.52 404.26 1252.47 376.46 1255.06 413.043 1290.54 414.167 1291.64 421.343 1298.23 421.467 1298.29 431.497 1302.85 445.114 1305.72 452.909 1294.97 452.971 1294.89 453.04 1294.8 453.109 1294.72 454.498 1293.1 455.715 1291.71 457.352 1291.35 461.423 1290.64 455.172 1281.28 465.814 1273.71 477.846 1264.57 485.806 1275.13 488.096 1271.58 490.74 1267.01 496.273 1259.34 494.01 1253.02Z" fill="#FFFFFF" transform="matrix(1.00042 0 0 1 2496 594)"/><path d="M178.908 619.091C178.107 617.392 175.93 617.819 174.393 617.688 171.58 618.066 169.961 616.509 167.685 616.691 161.395 625.834 160.182 637.219 157.451 650.678 157.249 651.819 158.022 652.782 159.019 653.232 162.417 655.024 165.749 657.579 169.431 658.679 171.415 658.714 171.828 656.582 171.708 655.01 172.124 643.182 172.557 630.954 178.77 621.244 179.19 620.597 179.238 619.786 178.908 619.091Z" fill="#FFFFFF" transform="matrix(1.00042 0 0 1 2496 594)"/><path d="M482.928 367.712C482.223 364.903 484.124 359.68 480.909 358.37 479.94 358.146 478.939 358.593 478.461 359.466 477.288 361.598 472.533 369.136 470.25 372.836 453.184 352.916 445.086 323.152 449.821 294.887 450.248 292.676 447.139 291.311 445.836 293.209 432.979 310.856 412.155 313.067 394.113 322.529 393.106 323.052 392.655 324.252 393.068 325.311 395.729 334.355 385.311 336.208 380.92 341.892 378.915 344.653 377.825 348.181 375.789 350.75 373.984 353.236 377.491 354.821 379.066 356.179 382.154 358.521 385.345 360.938 386.552 364.215 388.227 374.875 386.992 386.751 382.962 397.046 381.349 400.347 379.365 407.393 378.313 406.551 368.18 398.418 352.486 387.257 352.823 376.89 352.95 375.428 351.451 374.19 350.041 374.603 344.856 376.051 342.937 374.799 340.283 373.2 335.778 372.609 332.054 371.611 328.901 370.153 327.883 369.682 326.676 370.043 326.085 370.992 317.293 385.056 318.671 403.875 319.676 411.313 319.892 412.131 319.345 412.788 318.444 412.138 305.065 400.691 288.777 386.095 288.082 367.777 287.807 364.566 283.464 365.597 281.253 364.415 279.138 363.637 274.947 362.448 275.253 366.089 254.346 373.104 231.449 376.405 205.368 376.192 197.352 376.625 189.045 378.427 179.221 381.858 169.569 388.478 159.497 393.855 150.351 402.084 132.732 418.427 111.389 432.202 94.5224 449.557 93.6353 450.44 93.7075 452.032 94.6978 452.813 99.1576 456.513 105.956 462.482 110.323 466.148 125.769 477.784 140.001 493.952 157.197 502.49 168.379 497.328 192.583 489.055 193.539 490.64 199.567 502.349 203.865 514.146 207.761 526.192 220.081 564.291 224.71 603.521 223.138 643.12 221.759 677.846 215.377 712.276 211.447 746.084 209.693 761.165 207.345 777.02 206.179 791.641 246.018 798.707 288.883 797.769 328.434 789.87 374.606 782.646 426.78 775.452 468.207 751.087 468.035 732.106 463.892 713.249 462.413 692.625 456.647 612.18 443.432 520.325 446.348 427.962 442.741 420.346 458.524 406.829 464.146 399.959 468.96 394.877 473.939 389.619 479.279 385.149 481.937 380.142 483.598 373.558 482.928 367.712Z" fill="#FFFFFF" transform="matrix(1.00042 0 0 1 2496 594)"/><path d="M621.67 89.4815C618.228 87.2946 616.773 83.801 615.649 80.0908 615.597 78.6329 613.331 78.5538 612.874 79.9223 611.076 85.2727 616.918 91.9126 621.467 93.876 627.564 96.7025 642.886 99.0579 634.479 108.373 626.965 115.962 615.071 111.915 607.864 105.945 606.984 105.278 606.135 106.52 606.502 107.307 618.847 129.816 660.869 103.445 629.496 92.5796 626.934 91.6168 623.994 90.9601 621.67 89.4815Z" transform="matrix(1.00042 0 0 1 2496 594)"/><path d="M647.903 61.4779C652.669 56.5126 657.328 51.4373 661.929 46.3173 666.017 41.7681 671.367 36.6756 672.598 30.4622 673.633 24.9261 672.141 17.4163 667.681 13.7198 667.255 13.2797 666.588 13.094 665.931 13.4998 657.658 18.5682 651.111 26.5663 644.309 33.3918 629.634 49.1266 612.121 62.2309 600.024 80.218 592.917 88.7869 588.395 99.1576 581.064 107.513 572.365 116.103 563.871 124.899 555.698 134.004 539.905 151.785 519.679 165.209 505.633 184.554 498.446 194.543 494.01 206.083 488.471 216.993 479.496 235.146 466.835 251.083 455.412 267.664 444.78 281.803 436.057 299.598 418.097 305.498 408.7 308.971 398.821 312.148 391.521 319.359 389.911 317.805 388.072 316.436 386.425 315.109 385.029 313.985 382.529 315.405 383.609 317.148L362.355 327.151C359.896 323.011 354.082 331.621 351.733 333.137 343.405 334.774 335.596 338.708 326.8 338.474 324.318 336.191 320.429 335.228 317.282 336.404 314.397 332.488 309.026 330.194 304.931 327.753 295.888 322.323 286.772 317.017 277.663 311.695 278.736 304.474 276.484 297.05 275.067 290.015 274.434 287.549 271.03 288.663 271.36 291.036 271.567 292.497 271.749 293.969 271.917 295.437 271.144 295.169 270.387 294.942 269.655 294.763 263.173 285.348 249.244 294.003 244.564 301.42 239.925 308.177 238.419 316.509 237.752 324.527 236.82 325.287 236.37 326.639 236.511 327.901 230.369 331.064 222.371 333.526 220.731 341.06 214.133 345.176 205.732 343.24 198.377 343.852 181.456 344.626 171.883 359.728 163.558 372.543 158.682 379.744 153.776 386.923 148.941 394.151 135.761 405.474 122.805 417.038 109.205 427.866 77.223 457.768 46.6784 490.637 23.6401 528.021 22.244 530.789 20.48 536.108 20.9889 539.863 24.7129 550.547 31.5453 560.292 38.0923 569.407 58.2113 595.389 87.1433 612.939 113.912 631.322 96.5065 758.648 79.1624 886.033 55.151 1012.32 52.1973 1028.19 49.1816 1043.89 48.1329 1060.01 47.9747 1062.43 50.5467 1063.24 52.2626 1062.32 53.0397 1063.34 54.3051 1063.94 55.7871 1063.46 61.5329 1061.59 67.7086 1060.27 73.7432 1059.9 79.2346 1059.46 91.3521 1060 91.665 1067.29 91.3211 1069.91 90.097 1072.11 90.2964 1074.86 92.7756 1088.86 117.836 1091.95 129.513 1092.91 150.853 1093.31 172.578 1091.35 193.494 1087.28 180.696 1137.29 181.174 1189.35 188.832 1240.14 189.678 1254.65 197.717 1271.61 188.969 1284.81 187.174 1287.29 184.905 1289.2 182.24 1290.69 176.645 1294.98 183.368 1298.83 186.655 1301.7 184.031 1305.24 181.391 1308.8 178.829 1312.4 169.552 1325.68 165.477 1341.61 158.5 1356.06 152.404 1369.18 135.916 1384.92 149.979 1398.68 155.564 1403.48 163.183 1404.29 170.177 1405.35 194.952 1408.68 238.481 1415.41 247.634 1384.41 266.901 1386.08 261.423 1367.49 262.754 1354.85 263.015 1346.38 263.761 1337.74 263.015 1329.28 262.847 1323.13 259.92 1317.39 259.934 1311.28 278.891 1297.88 273.028 1271.34 270.858 1251.65 265.652 1192.58 279.881 1134.15 294.237 1077.28 307.108 1075.88 319.93 1075.86 332.532 1079.15 347.211 1082.46 362.032 1088.22 377.319 1085.73 379.74 1126.88 390.07 1166.85 395.678 1207.51 396.372 1215.36 396.51 1223.27 395.688 1231.12 394.853 1239.08 391.985 1246.49 390.695 1254.33 387.945 1271.44 399.398 1285.98 412.451 1295.61 407.916 1301.92 409.119 1313.79 407.981 1321.45 406.908 1336.67 405.533 1351.89 404.694 1367.1 404.656 1372.27 407.544 1374.87 412.063 1376.6 430.937 1383.43 452.115 1387.5 472.052 1383.61 473.668 1383.23 474.52 1382.09 474.73 1380.8 495.203 1394.93 522.11 1389.16 545.547 1390.45 559.15 1390.84 576.862 1391.12 583.726 1376.86 586.903 1370.92 586.009 1365.31 582.381 1359.86 574.909 1348.15 561.33 1343.22 550.492 1335.38 543.078 1329.96 537.745 1322.28 532.525 1314.85 522.041 1300.13 510.667 1284.92 494.402 1276.29 500.213 1267 504.477 1253.57 495.582 1244.79 493.254 1242.35 490.609 1240.45 489.279 1237.23 486.583 1230.7 487.473 1223.04 487.714 1216.17 489.389 1165.74 487.295 1115.12 480.703 1065.09 493.849 1064.01 504.656 1050.32 519.16 1054.31 523.265 1055.25 526.164 1056.77 528.162 1060.72 531.081 1066.43 539.468 1062.34 538.154 1056.51 521.116 979.562 502.49 902.944 479.726 827.471 477.615 802.49 475.772 777.323 471.006 752.689 473.403 747.37 471.182 740.891 470.858 735.225 459.632 633.605 452.046 531.58 448.914 429.386 451.111 427.997 452.077 425.115 453.614 423.066 458.122 416.426 463.428 410.77 468.864 404.955 488.161 386.198 492.14 379.118 484.891 352.187 524.28 275.359 569.339 201.702 616.172 129.221 622.481 132.983 629.816 128.939 635.459 125.751 633.261 130.558 638.591 134.778 643.089 134.355 649.13 133.942 657.603 126.023 658.7 120.26 666.313 113.348 668.998 101.63 663.689 92.5831 664.05 89.7806 664.122 86.9335 663.854 84.1311 662.967 75.0911 661.537 68.9602 651.094 68.5751 647.8 68.159 644.478 68.1625 641.187 68.4822 643.563 66.2953 645.699 63.7714 647.903 61.4779ZM80.1871 596.826C69.8164 587.573 59.1706 578.447 50.0035 567.973 42.6553 558.318 35.7369 548.267 29.7538 537.704 47.0772 507.737 70.3322 481.769 93.7384 456.31 104.921 468.754 117.887 479.479 131.023 489.808 118.936 499.533 106.289 507.998 95.4336 519.239 93.7934 519.177 92.1223 520.432 92.8513 522.354 93.6525 523.881 93.3464 526.064 94.8353 527.213 111.089 561.526 136.122 591.717 165.044 616.13 159.528 625.899 157.039 637.305 154.962 648.253 129.128 632.546 103.332 616.388 80.1871 596.826ZM220.827 654.491C220.367 660.839 219.741 667.179 219.015 673.51 216.825 671.058 212.919 675.091 210.378 672.815 211.11 671.997 211.781 671.164 212.382 670.274 214.868 670.047 215.924 667.702 215.425 665.677 217.028 664.325 216.196 661.389 213.985 661.457 212.967 661.571 212.004 661.911 211.096 662.386 199.464 659.456 186.459 663.703 175.167 658.934 175.445 648.862 175.108 627.773 181.532 620.05 195.382 619.617 208.438 615.092 221.708 611.416 222.248 625.769 221.866 640.156 220.827 654.491ZM133.003 499.429C129.324 520.398 127.299 541.61 125.899 562.847 116.732 551.231 108.933 538.632 101.197 526.044 111.072 515.752 122.609 507.293 133.309 497.885 133.213 498.408 133.113 498.924 133.003 499.429ZM168.386 618.806C170.824 620.233 174.146 619.734 176.903 620.047 170.078 630.706 169.882 644.192 169.438 656.458 166.141 654.842 162.857 652.906 159.652 651.025 161.43 639.722 163.851 629.482 168.386 618.806ZM181.329 1335.7C192.287 1335.7 204.174 1333.42 213.706 1340.44 215.484 1341.52 217.908 1343.22 220.226 1343.53 218.506 1347.76 214.549 1347.98 210.505 1347.99 199.347 1348.32 188.085 1347.23 177.247 1344.5 178.609 1341.57 179.967 1338.63 181.329 1335.7ZM222.698 1338.65C208.82 1329.92 200.007 1327.5 183.598 1330.79 185.094 1327.57 186.569 1324.35 188.082 1321.14 194.949 1321.49 202.28 1321.1 209.136 1322.88 215.467 1323.66 221.36 1328.03 227.739 1327.5 226.133 1331.24 224.476 1334.98 222.698 1338.65ZM228.475 1325.78C223.011 1317.13 199.505 1314.14 190.111 1316.9 191.438 1314.14 192.765 1311.36 194.007 1308.56 209.841 1304.62 218.517 1310.88 232.481 1316.17 231.191 1319.39 229.847 1322.59 228.475 1325.78ZM234.269 1311.65C229.496 1308.06 223.633 1306.22 218.049 1304.29 211.014 1301.56 203.511 1301.88 196.231 1303.66 197.153 1302.61 196.929 1301.16 197.407 1299.94 197.689 1299.1 197.088 1298.47 196.383 1298.34 196.617 1297.23 196.723 1296.09 196.654 1294.94 202.6 1287.35 226.673 1285.8 233.189 1292.97 236.119 1296.42 236.084 1300.59 236.885 1304.65 235.874 1306.92 235.135 1309.38 234.269 1311.65ZM255.656 1350.45C255.464 1357.78 255.168 1365.11 255.12 1372.44 255.567 1376.52 253.188 1378.46 249.288 1378.6 249.945 1376.82 250.856 1375.18 252.393 1373.87 256.114 1370.69 250.746 1365.42 247.043 1368.52 241.895 1372.82 241.438 1379.55 239.268 1385.44 228.994 1408.53 177.815 1400.3 157.977 1394.94 142.504 1387.15 162.915 1369.67 166.13 1359.56 172.908 1345.47 177.209 1330.14 186.036 1317.09 181.841 1326.37 177.481 1335.55 173.214 1344.79 172.736 1345.82 173.09 1347.06 174.276 1347.4 186.648 1350.99 199.46 1352.9 212.358 1352.31 221.979 1352.86 224.575 1345.93 227.77 1338.36 232.398 1328.63 236.452 1318.74 240.431 1308.7 242.817 1305.89 247.676 1304.39 250.337 1307.18 249.271 1309.26 250.22 1311.68 252.118 1312.83 252.496 1318.38 255.457 1323.71 255.88 1329.29 256.406 1336.3 255.842 1343.44 255.656 1350.45ZM563.359 1352.65C569.373 1356.26 574.479 1361.1 577.825 1367.29 577.457 1383.41 556.602 1381.94 545.069 1381.83 527.123 1381.4 508.782 1383.8 491.115 1379.9 483.402 1377.92 474.562 1374.1 469.768 1367.49 467.736 1364.69 463.077 1367.25 465.033 1370.26 466.402 1372.37 467.912 1374.31 469.555 1376.09 453.157 1376.84 436.524 1375.66 420.814 1370.6 418.262 1369.74 415.642 1369.04 413.204 1367.89 413.067 1367.47 413.242 1366.7 413.263 1366.28 415.116 1344.04 415.508 1321.66 418.011 1299.49 433.127 1308.28 449.962 1310.93 458.817 1292.66 459.387 1293.13 460.309 1293.21 460.962 1292.84 461.303 1293.59 462.551 1294.35 463.304 1293.7 477.87 1308.21 493.704 1321.42 508.851 1335.33 514.109 1341.35 522.134 1341.15 529.469 1340.66 532.852 1340.45 539.182 1341.42 540.847 1337.71 547.545 1343.9 555.705 1347.83 563.359 1352.65ZM483.609 1274.29C483.646 1277.1 486.328 1279.38 489.114 1279.6 492.82 1282.29 496.331 1285.19 499.684 1288.27 490.988 1288.84 482.474 1292.65 477.412 1299.88 474.249 1297.69 465.597 1287.55 462.073 1289.7 461.891 1289.38 461.626 1289.11 461.344 1288.95 461.849 1285.73 462.468 1283.49 463.961 1280.86 467.771 1274.78 476.927 1271.03 483.609 1274.29ZM530.865 1326.32C533.041 1329.23 535.321 1332.05 537.807 1334.69 530.559 1334.41 520.962 1337.46 514.631 1333.17 512.64 1331.58 510.697 1329.91 508.775 1328.21 511.966 1327.67 515.137 1327.04 518.407 1326.92 522.519 1326.44 526.907 1327.78 530.865 1326.32ZM526.178 1319.79C518.101 1319.84 511.213 1320.61 504.168 1324.04 501.097 1321.21 498.057 1318.34 494.98 1315.55 499.821 1312.9 505.237 1312.75 510.405 1312.54 513.545 1312.28 517.819 1314.13 520.15 1311.34 522.224 1314.12 524.197 1316.95 526.178 1319.79ZM516.405 1306.46C508.882 1305.17 496.648 1306.86 490.984 1311.97 487.532 1308.88 484.073 1305.79 480.607 1302.72 487.914 1296.96 497.349 1292.81 506.76 1295.27 510.14 1298.85 513.349 1302.59 516.405 1306.46ZM483.347 1245.23C485.276 1248.1 488.619 1250.36 489.97 1253.56 491.868 1258.85 488.732 1264.34 486.115 1268.85 473.138 1262.72 454.343 1274.13 456.86 1289.18 452.906 1290.05 451.204 1294.45 448.009 1296.64 439.626 1304.11 428.193 1298.4 419.249 1295.04 419.844 1293.71 419.796 1292.04 418.675 1290.76 382.037 1256.11 407.902 1256.97 404.68 1213.56 400.172 1168.86 387.456 1125.62 385.331 1080.22 377.973 999.512 379.981 914.074 348.36 837.625 348.663 835.899 348.893 834.155 349.037 832.336 349.175 830.569 346.555 829.424 345.403 830.83 326.931 856.64 319.916 889.234 310.512 919.146 301.307 950.172 300.186 982.446 297.263 1014.41 284.891 1079.12 261.732 1142.06 258.751 1208.44 257.857 1224.73 258.098 1241.11 259.879 1257.35 261.574 1272.28 267.076 1291.39 254.652 1303.24 251.678 1299.76 245.929 1298.7 241.974 1301.07 240.627 1288.52 231.514 1283.42 219.827 1283.48 211.942 1282.92 202.459 1284.18 196.194 1289.14 196.035 1289.27 195.87 1289.1 195.991 1288.93 202.156 1280.43 201.805 1269.5 199.904 1259.55 191.913 1210.02 187.332 1159.2 197.139 1109.59 203.669 1077.29 212.805 1045.18 212.482 1011.95 212.506 994.994 211.23 978.066 210.759 961.121 209.037 906.344 213.538 851.678 215.46 796.974 268.193 810.969 322.529 797.559 375.098 789.368 405.663 784.324 436.267 776.226 462.771 759.68 463.679 774.053 465.68 788.402 467.083 802.73 466.323 803.47 465.917 804.57 466.268 805.925 472.337 840.142 471.378 875.69 470.394 910.388 468.596 945.571 460.629 980.428 464.738 1015.75 474.892 1084.89 482.443 1154.56 478.444 1224.55 478.403 1231.69 479.262 1239.17 483.347 1245.23ZM461.55 399.46C456.908 404.983 439.1 420.896 443.343 428.148 443.058 535.159 452.524 642.061 464.638 748.284 463.82 748.673 463.132 749.302 462.743 750.148 421.756 774.283 374.235 780.452 328.038 787.683 288.794 795.53 248.491 795.791 209.119 788.815 215.295 746.747 220.71 704.432 225.573 662.183 230.823 603.494 221.47 543.023 197.053 489.282 199.742 485.507 196.094 482.188 193.037 483.519 192.263 483.856 191.655 484.052 191.658 484.049 179.94 488.33 168.534 493.742 157.235 498.958 136.927 484.011 117.932 467.44 98.5421 451.355 115.15 434.231 134.32 419.992 151.774 403.786 157.747 398.731 164.139 393.996 170.831 389.843 173.85 387.883 177.385 386.518 179.943 383.959 188.189 381.081 196.73 378.884 205.478 378.416 229.451 378.602 253.452 375.789 276.247 368.101 277.412 367.716 277.722 366.598 277.429 365.701 280.115 366.275 282.917 367.423 285.854 367.76 285.809 372.966 287.398 378.1 289.736 382.804 295.863 395.148 306.609 405.124 317.007 413.844 319.249 415.725 322.454 413.95 321.866 411.017 320.171 398.436 321.103 383.148 327.962 372.175 331.762 373.932 335.864 374.868 339.987 375.411 342.06 377.969 347.036 377.698 350.602 376.762 349.814 389.42 371.03 403.105 379.926 410.773 382.113 412.427 384.877 409.267 383.567 407.132 381.102 402.08 386.473 397.339 386.989 392.294 388.99 383.01 390.609 373.045 388.694 363.627 386.899 358.476 381.525 355.519 377.515 352.149 379.665 349.484 380.741 345.97 382.742 343.168 385.159 339.588 389.702 338.756 392.483 335.489 395.018 332.536 396.627 328.317 395.131 324.51 413.582 314.92 434.324 312.743 447.628 294.526 442.315 326.229 452.448 362.489 477.842 383.454 472.045 388.299 466.767 393.962 461.55 399.46ZM480.641 366.357C480.751 369.122 481.006 371.938 480.617 374.689 478.925 372.722 477.206 370.752 475.786 369.039 477.388 366.244 478.853 363.362 480.407 360.536 480.5 362.465 480.548 364.401 480.641 366.357ZM644.849 128.647C643.295 129.578 639.76 130.593 639.134 128.041 638.935 125.05 642.061 122.22 643.45 119.748 644.956 122.117 647.665 123.516 650.213 123.52 648.656 125.466 647.033 127.337 644.849 128.647ZM660.316 111.932C659.202 114.181 657.85 116.491 655.904 118.125 654.952 118.08 654.085 118.881 653.459 119.61 650.674 120.7 646.589 120.631 646.376 117.2 654.804 115.023 659.855 106.788 662.358 98.8997 663.672 103.353 662.369 107.922 660.316 111.932ZM637.797 71.9208C642.924 71.2984 654.759 70.9855 657.881 75.5794 663.761 87.408 659.577 107.372 646.833 113.018 640.541 114.325 647.841 98.8412 648.786 96.3208 649.536 94.6771 650.396 93.037 650.499 91.1939 650.647 88.5049 648.566 84.946 645.454 85.8504 644.949 85.9982 644.695 86.71 645.128 87.0883 648.449 89.9973 644.571 95.1757 643.333 98.3564 641.631 103.672 637.742 111.12 641.968 116.031 640.661 117.554 639.44 119.146 638.302 120.8 632.182 117.929 624.675 128.131 617.925 124.991 617.664 123.905 616.701 123.056 615.577 122.756 614.16 121.749 612.878 122.901 612.083 124.049 560.398 200.832 507.916 278.502 471.962 364.146 451.909 337.418 449.845 300.488 461.182 269.896 479.781 247.235 493.9 221.914 506.434 195.568 518.286 174.871 538.67 161.54 555.003 144.746 563.483 136.057 571.543 126.969 580.139 118.393 588.773 110.876 594.492 101.179 600.413 91.5481 603.752 86.6791 607.414 81.9614 610.997 77.2643 621.264 63.8092 635.173 53.7274 646.445 41.1457 653.37 33.5465 661.11 26.5525 666.677 17.8255 672.389 29.8845 663.187 37.4355 655.509 45.1929 651.303 49.6355 647.04 54.0231 642.814 58.4451 639.066 62.3651 634.74 65.9687 632.718 71.1059 632.391 73.2687 634.537 73.3547 635.936 72.3059 636.188 72.4022 637.484 71.9655 637.797 71.9208Z" transform="matrix(1.00042 0 0 1 2496 594)"/><path d="M243.653 331.573C248.384 336.129 254.628 338.598 260.691 340.86 263.214 341.779 266.089 343.422 268.665 342.023 269.827 341.39 269.992 339.984 269.486 338.887 268.118 335.792 259.429 334.754 256.018 332.711 251.991 331.294 248.597 327.969 244.681 326.694 243.154 325.903 241.438 327.509 242.305 329.07 242.827 330.008 242.776 330.703 243.653 331.573Z" fill="#FFFFFF" transform="matrix(1.00042 0 0 1 2496 594)"/><path d="M389.007 359.466C382.426 353.332 374.465 349.106 365.934 346.125 369.256 341.414 373.362 337.085 376.26 332.113 378.822 327.282 376.013 324.582 371.979 328.808 367.85 333.708 364.662 339.561 360.993 344.839 359.858 344.619 358.724 344.45 357.586 344.351 356.385 340.09 354.474 336.081 351.482 333.065 350.234 331.807 348.473 333.395 349.154 334.86 354.161 346.218 355.773 360.189 350.928 371.831 341.16 359.236 330.583 346.747 318.266 336.645 317.898 334.867 315.535 334.791 314.731 336.088 300.475 338.467 287.473 351.988 280.851 364.291 266.175 361.406 238.202 361.825 230.631 346.844 229.709 345.038 230.249 342.501 228.726 341.074 228.358 340.816 228.433 340.829 228.949 341.118 228.654 339.691 226.312 339.671 226.054 341.122 223.379 344.23 225.38 349.794 227.405 352.882 239.179 367.358 261.031 367.485 278.059 370.628 276.896 372.794 276.504 378.323 280.252 377.13 282.642 376.013 282.732 372.781 283.763 370.645 285.355 370.195 286.903 368.259 285.51 366.753 291.517 354.432 302.204 345.231 314.466 339.471 316.509 351.898 320.704 363.981 324.813 376.02 325.562 378.217 327.938 378.726 329.118 377.987 330.414 377.172 330.452 374.919 329.781 372.884 326.742 363.655 323.826 354.388 320.948 345.107 329.52 355.199 338.67 364.851 346.445 375.593 346.916 376.257 347.524 376.639 348.164 376.797 346.087 379.713 349.887 382.776 352.493 380.586 360.096 372.251 360.116 359.453 358.586 348.831 358.731 348.883 358.875 348.934 359.019 348.986 359.25 350.616 361.392 351.922 362.64 350.389 371.715 354.209 381.232 358.658 387.439 366.595 388.839 368.5 389.557 370.294 391.5 371.742 392.607 372.567 394.557 371.728 394.798 370.401 395.578 366.13 391.902 362.255 389.007 359.466Z" fill="#FFFFFF" transform="matrix(1.00042 0 0 1 2496 594)"/><path d="M144.732 700.794C126.917 818.135 111.87 935.981 97.5036 1053.8 97.2629 1057.37 97.4074 1060.96 97.1563 1064.54 97.091 1065.49 98.6487 1065.71 98.8378 1064.77 108.404 1017.96 112.96 970.212 119.899 922.953 129.269 849.055 140.823 775.397 148.46 701.3 148.649 699.189 145.11 698.687 144.732 700.794Z" fill="#FFFFFF" transform="matrix(1.00042 0 0 1 2496 594)"/><path d="M342.721 1003.13C341.184 973.957 339.702 944.781 338.192 915.604 338.051 912.85 333.767 912.826 333.887 915.604 336.631 963.569 336.524 1011.82 341.252 1059.62 341.569 1061.57 344.412 1060.95 344.526 1059.18 345.31 1040.51 343.463 1021.79 342.721 1003.13Z" fill="#FFFFFF" transform="matrix(1.00042 0 0 1 2496 594)"/><path d="M261.767 165.745 243.016 225.8C243.016 225.8 212.915 236.524 222.399 266.608 222.399 266.608 228.722 280.988 248.405 276.807 248.405 276.807 256.612 291.105 272.474 306.791 288.024 322.168 311.289 336.098 350.901 334.43 350.901 334.43 414.745 320.766 395.571 265.487 395.571 265.487 400.059 221.838 390.063 180.431 385.517 161.602 368.451 153.029 368.451 153.029 368.451 153.029 273.939 130.906 261.767 165.745Z" fill="#FFFFFF" transform="matrix(1.00042 0 0 1 2496 594)"/><path d="M399.385 265.119C400.148 260.907 400.158 256.434 400.365 252.177 400.578 247.744 400.664 243.309 400.629 238.876 400.564 230.153 400.024 221.443 398.927 212.785 398.625 210.398 398.298 208.002 397.94 205.598 398.501 205.481 399.037 205.158 399.412 204.615 416.897 179.269 407.2 141.868 385.091 122.471 360.116 100.561 324.782 95.9357 293.047 101.692 284.007 103.332 275.129 105.822 266.546 109.105 259.119 111.946 251.403 115.26 244.646 119.627 244.705 118.331 244.65 117.021 244.467 115.707 244.296 114.466 242.717 113.823 241.644 114.105 235.95 115.597 233.983 120.738 234.042 126.033 232.398 125.428 230.627 125.301 228.626 125.916 225.992 126.728 223.826 128.915 223.245 131.638 223.221 131.755 223.203 131.872 223.186 131.992 223.093 132.295 223.073 132.608 223.124 132.91 223.152 135.005 224.345 136.889 226.353 137.718 221.821 144.674 218.383 152.276 215.697 160.127 209.645 177.821 206.85 197.72 210.57 216.216 212.351 225.074 215.962 233.725 222.275 240.321 222.354 240.403 222.437 240.475 222.519 240.544 221.635 241.954 220.893 243.46 220.294 245.018 216.175 255.742 218.806 269.741 228.76 276.346 231.157 277.935 233.921 279.001 236.796 279.53 237.993 288.938 249.673 295.712 257.72 298.229 259.157 298.68 260.154 297.72 260.398 296.534 263.668 300.953 267.564 304.962 271.649 308.614 280.93 316.918 291.417 324.118 302.551 329.699 304.229 330.541 305.938 331.308 307.665 332.037 319.944 339.086 335.493 340.468 349.536 338.175 371.763 334.544 393.893 320.573 401.228 298.432 403.17 292.573 404.044 286.218 403.49 280.06 403.047 275.074 401.994 269.562 399.385 265.119ZM392.573 293.223C390.283 302.091 385.077 310.329 377.856 315.989 362.812 327.78 341.744 332.226 322.997 329.606 312.155 328.086 302.177 324.964 293.573 317.97 293.34 317.777 292.937 318.022 293.123 318.317 293.381 318.72 293.653 319.108 293.924 319.497 290.341 317.286 286.851 314.917 283.481 312.396 277.536 307.95 271.907 302.974 266.849 297.531 264.49 294.994 262.193 292.315 260.164 289.502 258.394 287.047 257.114 284.207 255.292 281.817 255.072 281.528 254.701 281.384 254.36 281.401 253.318 279.606 252.221 278.11 251.124 277.295 251.365 277.158 251.609 277.027 251.843 276.879 252.531 276.443 252.259 275.359 251.427 275.342 245.272 275.208 238.615 276.357 232.886 273.43 228.592 271.237 225.593 267.313 224.152 262.754 221.484 254.315 223.393 242.71 231.463 237.769 233.688 236.407 236.215 235.716 238.821 235.675 241.517 235.63 243.972 236.466 246.51 237.04 246.854 238.976 247.473 240.888 248.202 242.683 250.007 247.132 253.06 253.831 257.826 255.732 259.401 256.361 260.532 254.336 259.872 253.071 259.717 252.772 259.535 252.49 259.346 252.211 259.817 251.864 260.106 251.265 259.934 250.478 259.277 247.466 258.125 244.605 257.541 241.569 257.001 238.753 256.747 235.916 256.808 233.045 256.932 227.419 258.194 221.924 259.662 216.515 260.299 214.177 260.948 211.846 261.574 209.515 262.093 208.088 262.595 206.774 263.063 205.595 263.3 205.485 263.527 205.33 263.734 205.11 270.208 198.174 275.401 189.519 278.815 180.696 281.198 174.538 282.532 167.784 281.59 161.303 283.113 162.544 284.668 163.71 286.225 164.782 292.487 169.098 299.402 172.165 306.74 174.122 314.748 176.257 322.863 177.718 329.819 182.518 332.274 184.152 334.489 180.249 332.113 178.592 327.753 175.717 324.538 171.787 321.801 167.451 325.435 170.263 329.455 172.633 333.842 174.52 344.629 179.156 356.526 182.223 368.028 184.355 368.696 184.478 369.311 184.141 369.679 183.653 370.542 183.877 371.409 184.025 372.265 184.069 373.3 184.124 373.901 182.683 373.128 181.989 370.054 179.235 365.656 177.818 362.094 175.765 359.996 174.558 357.96 173.258 356 171.845L351.537 167.898C353.559 168.809 355.794 169.338 357.909 169.792 362.238 170.721 366.622 171.353 370.934 172.364 373.595 172.987 376.343 173.702 378.839 174.892 381.329 176.48 383.217 178.09 384.644 179.616 386.294 182.089 386.913 185.06 387.057 188.209 387.092 188.979 387.563 189.598 388.171 189.942 389.475 197.672 390.689 205.416 391.349 213.256 392.067 221.766 392.425 230.328 392.318 238.873 392.263 242.992 392.105 247.108 391.844 251.224 391.61 254.845 390.998 258.507 390.737 262.138 389.815 263.139 389.344 264.538 389.788 266.048 391.108 270.521 393.206 274.558 393.673 279.29 394.141 283.963 393.739 288.691 392.573 293.223Z" transform="matrix(1.00042 0 0 1 2496 594)"/><path d="M243.677 248.436C241.926 247.043 240.076 245.626 237.824 245.234 234.709 244.688 231.542 246.747 231.573 250.089 231.576 250.574 232.292 250.677 232.419 250.203 232.701 249.189 234.234 248.841 235.049 249.075 235.548 249.22 235.947 249.553 236.325 249.89 237.288 250.736 237.907 251.857 238.608 252.913 240.214 255.333 241.751 257.991 244.192 259.628 247.634 261.922 251.32 257.517 249.577 254.243 248.301 251.867 245.764 250.1 243.677 248.436Z" transform="matrix(1.00042 0 0 1 2496 594)"/><path d="M-5340.56-3993.36C-5334.99-3996.73-5313.6-3993.26-5297.26-3992.37-5284.09-3994.12-5275.53-3994.09-5272.58-3992.09-5265.87-3987.59-5264.94-3973.18-5281.28-3964.14-5288.91-3960.25-5336.74-3957.4-5344.03-3964.65-5352.87-3973.49-5350.56-3987.35-5340.56-3993.36Z" fill="#FFFFFF" transform="matrix(1.00042 0 0 1 8141.04 4854.37)"/><path d="M-5267.93-3992.47C-5270.99-3995.5-5274.98-3996.73-5277.84-3997.25-5281.76-3997.87-5286.02-3998.59-5289.7-3996.67-5290.52-3996.36-5291.14-3995.57-5291.21-3994.67-5308.65-3993.78-5327.11-4004.75-5343.62-3995.84-5358.75-3987.38-5355.72-3962.28-5338.32-3958.08-5328.21-3955.16-5317.28-3956.37-5307.03-3956.02-5290.73-3955.82-5271.17-3958.6-5264.67-3975.55-5262.67-3981.23-5263.43-3988.17-5267.93-3992.47ZM-5327.18-3992.09-5327.18-3992.09C-5323.47-3992.02-5319.75-3991.71-5316.04-3991.23-5315.76-3991.2-5314.22-3991.03-5313.91-3990.99-5314.11-3989.1-5314.18-3987.21-5314.15-3985.35-5314.15-3983.19-5314.22-3981.4-5314.18-3979.2-5319.65-3978.99-5325.12-3978.79-5330.62-3978.48-5331-3980.95-5331.24-3982.74-5331.38-3985.15-5331.44-3987.38-5331.72-3989.58-5332.23-3991.75-5330.55-3991.99-5328.93-3992.06-5327.18-3992.09ZM-5334.37-3991.37C-5335.64-3987.11-5335.36-3982.6-5335.57-3978.27-5338.84-3978.17-5342.31-3978.03-5345.68-3977.62-5346.4-3984.67-5340.25-3990.44-5334.37-3991.37ZM-5345.58-3976.31C-5342.14-3975.97-5338.6-3975.9-5335.57-3975.86-5335.57-3972.91-5335.4-3969.91-5335.02-3966.99-5334.95-3966.13-5334.44-3965.37-5333.68-3964.96-5333.58-3964.93-5333.33-3964.86-5333.33-3964.82-5333.4-3964.76-5333.95-3964.96-5334.23-3965.03-5340.93-3966.58-5344.75-3970.29-5345.58-3976.31ZM-5331.79-3964.55C-5331.89-3964.58-5331.89-3964.69-5331.79-3964.72-5329.97-3965-5328.38-3966.75-5328.8-3968.68-5329.07-3970.33-5329.38-3971.94-5329.69-3973.52L-5329.69-3973.52C-5329.86-3974.28-5330-3975.07-5330.14-3975.83-5324.94-3975.72-5319.24-3975.76-5314.18-3975.86-5314.15-3973.25-5313.98-3970.74-5313.94-3968.09-5313.98-3966.72-5313.91-3965.34-5313.73-3963.97-5319.75-3963.93-5325.8-3963.72-5331.79-3964.55ZM-5289.98-3975.31-5289.98-3975.31C-5290.08-3973.8-5290.22-3972.25-5290.28-3970.74-5290.28-3969.26-5290.42-3967.78-5290.63-3966.34-5291.08-3965.96-5291.35-3965.41-5291.35-3964.86-5296.47-3964-5301.6-3963.79-5306.79-3963.9L-5306.79-3963.9C-5307-3964.38-5307.34-3964.79-5307.82-3965L-5307.79-3965.2C-5307.79-3965.65-5307.82-3966.1-5307.96-3966.54-5308.58-3969.78-5308.89-3972.8-5309.27-3975.97-5302.63-3976.07-5296.13-3976.24-5289.91-3976.48-5289.94-3976.1-5289.98-3975.72-5289.98-3975.31ZM-5289.63-3980.33C-5297.06-3979.95-5303.8-3979.64-5309.68-3979.37-5310.06-3982.5-5310.4-3985.66-5310.64-3988.58L-5310.64-3988.58C-5310.71-3989.27-5310.74-3989.99-5310.85-3990.68L-5310.85-3990.68C-5303.45-3990.06-5296.85-3990.41-5289.63-3991.4-5289.42-3991.23-5289.18-3991.1-5288.94-3990.99L-5288.74-3990.92C-5289.15-3987.35-5289.39-3983.81-5289.63-3980.33ZM-5285.71-3966.3C-5285.92-3967.71-5286.09-3969.16-5286.12-3970.6-5286.19-3972.29-5286.36-3974.01-5286.47-3975.66L-5286.47-3975.69C-5286.47-3976-5286.5-3976.31-5286.54-3976.65-5283.79-3976.72-5281-3976.93-5278.25-3976.93-5277.97-3976.93-5277.46-3976.93-5277.22-3976.93-5275.64-3976.89-5274.05-3977.03-5272.51-3977.34-5275.02-3971.84-5279.62-3968.44-5285.71-3966.3ZM-5278.08-3981.09C-5280.66-3980.75-5284.13-3980.68-5286.78-3980.5-5286.98-3983.84-5287.16-3987.14-5287.43-3990.51-5287.43-3990.51-5287.43-3990.51-5287.43-3990.51L-5287.43-3990.51-5287.43-3990.51C-5285.85-3990.17-5284.27-3989.93-5282.69-3989.86-5277.18-3989.89-5270.72-3987.21-5271.54-3981.05-5273.68-3981.64-5275.91-3981.33-5278.08-3981.09Z" transform="matrix(1.00042 0 0 1 8141.04 4854.37)"/><path d="M-5296.13-4002.68C-5300.19-4002.58-5304.59-4004.99-5302.97-4009.11-5302.39-4010.52-5301.05-4011.69-5299.46-4011.69-5298.78-4011.69-5298.06-4011.45-5297.47-4011.04-5296.65-4010.56-5295.68-4010.32-5294.72-4010.39-5292.86-4010.45-5291.04-4010.76-5289.29-4011.31-5287.77-4011.73-5285.78-4012.79-5284.89-4014.51-5283.79-4016.68-5285.06-4018.81-5287.53-4019.6-5288.81-4019.98-5290.11-4020.19-5291.45-4020.22-5291.66-4020.22-5291.9-4020.22-5292.18-4020.22-5294.07-4020.19-5295.96-4020.01-5297.81-4019.74-5299.02-4019.57-5300.29-4019.39-5301.53-4019.29-5301.77-4019.29-5301.98-4019.43-5302.01-4019.67-5302.08-4019.88-5302.01-4020.15-5301.8-4020.29-5299.88-4021.32-5297.88-4022.15-5295.79-4022.73-5291.63-4023.97-5285.5-4024.62-5282-4022.18-5278.01-4019.6-5277.91-4012.93-5280.93-4009.32-5284.85-4004.68-5289.36-4003.23-5296.13-4002.68L-5296.13-4002.68Z" transform="matrix(1.00042 0 0 1 8141.04 4854.37)"/><path d="M-5267.04-4019.43C-5267.38-4019.46-5267.8-4019.5-5268.14-4019.57-5268.83-4019.77-5269.45-4020.22-5269.89-4020.77-5270.38-4021.35-5270.62-4022.04-5270.58-4022.8-5270.48-4024.48-5270.41-4026.58-5271.1-4028.54-5271.72-4030.26-5273.23-4031.53-5275.02-4031.81-5278.46-4032.6-5280.73-4029.16-5280.69-4025.86-5281.48-4023.49-5284.16-4027.3-5284.23-4028.51-5285.85-4038.75-5271.75-4041.64-5266.59-4033.94-5263.94-4030.54-5263.02-4026.1-5264.01-4021.9-5264.22-4021.25-5264.6-4020.67-5265.15-4020.22-5265.66-4019.74-5266.32-4019.46-5267.04-4019.43L-5267.04-4019.43Z" transform="matrix(1.00042 0 0 1 8141.04 4854.37)"/><path d="M-5344.51-4020.98C-5346.4-4021.32-5347.09-4023.49-5347.16-4024.76-5346.85-4038.51-5329.14-4041.2-5323.09-4029.71-5319.89-4028.92-5321.2-4024.83-5322.88-4023.07-5324.74-4020.98-5328.49-4022.04-5329.24-4024.66-5331.17-4031.15-5339.35-4030.91-5341.45-4024.76-5342.03-4023.42-5342.86-4022.21-5343.86-4021.22-5344.03-4021.05-5344.27-4020.98-5344.51-4020.98Z" transform="matrix(1.00042 0 0 1 8141.04 4854.37)"/><path d="M-5355-4032.22C-5355.17-4032.22-5355.31-4032.36-5355.34-4032.53-5356.1-4040.71-5353-4049.24-5347.33-4055.19-5345.58-4056.87-5343.51-4058.28-5341.28-4059.28-5337.53-4061-5332.78-4062.14-5329.04-4059.94-5327.52-4058.97-5326.39-4057.49-5325.84-4055.81-5325.53-4054.85-5325.67-4053.81-5326.18-4052.99-5326.63-4052.1-5327.45-4051.44-5328.45-4051.2-5329-4051.1-5329.59-4051.03-5330.14-4051.03-5331.2-4051.06-5332.27-4051.17-5333.33-4051.37L-5333.33-4051.37C-5334.37-4051.58-5335.43-4051.68-5336.5-4051.72-5339.32-4051.68-5342.03-4050.79-5344.27-4049.14-5347.67-4046.52-5349.46-4042.67-5351.18-4038.99-5352.28-4036.69-5353.31-4034.08-5355-4032.22Z" transform="matrix(1.00042 0 0 1 8141.04 4854.37)"/><path d="M-5261.06-4038.27C-5265.56-4038.41-5266.8-4042.43-5268.04-4045.8-5271.23-4053.47-5281.1-4056.05-5288.94-4053.95-5289.12-4053.95-5289.22-4054.06-5289.29-4054.19-5289.39-4054.64-5288.77-4055.02-5288.6-4055.4-5287.98-4056.32-5287.26-4057.15-5286.4-4057.84-5277.73-4064.68-5264.77-4059.8-5259.82-4050.72-5259.3-4049.69-5258.99-4048.59-5258.48-4047.56-5257.07-4046.77-5256.1-4045.39-5255.83-4043.81-5255.42-4040.92-5258.24-4038.24-5261.06-4038.27Z" transform="matrix(1.00042 0 0 1 8141.04 4854.37)"/></g></g></g></g></svg>