<svg width="554" height="554" xmlns="http://www.w3.org/2000/svg" xmlns:xlink="http://www.w3.org/1999/xlink" xml:space="preserve" overflow="hidden"><defs><clipPath id="clip0"><rect x="-469" y="125" width="554" height="554"/></clipPath></defs><g clip-path="url(#clip0)" transform="translate(469 -125)"><path d="M-16.7571 323.907C-16.7571 337.293-27.6086 348.144-40.9946 348.144-54.3806 348.144-65.2321 337.293-65.2321 323.907-65.2321 310.521-54.3806 299.669-40.9946 299.669-27.6086 299.669-16.7571 310.521-16.7571 323.907Z" fill="#9900FF"/><path d="M-52.5363 445.671C-52.5363 453.639-58.9955 460.098-66.9633 460.098-74.9312 460.098-81.3904 453.639-81.3904 445.671-81.3904 437.704-74.9312 431.244-66.9633 431.244-58.9955 431.244-52.5363 437.704-52.5363 445.671Z" fill="#9900FF"/><path d="M-199.115 217.146C-199.115 225.114-205.575 231.573-213.543 231.573-221.51 231.573-227.97 225.114-227.97 217.146-227.97 209.178-221.51 202.719-213.543 202.719-205.575 202.719-199.115 209.178-199.115 217.146Z" fill="#9900FF"/><path d="M-305.299 538.582C-305.299 551.968-316.15 562.819-329.536 562.819-342.922 562.819-353.774 551.968-353.774 538.582-353.774 525.196-342.922 514.344-329.536 514.344-316.15 514.344-305.299 525.196-305.299 538.582Z" fill="#9900FF"/><path d="M-320.303 594.559C-320.303 602.527-326.762 608.986-334.73 608.986-342.698 608.986-349.157 602.527-349.157 594.559-349.157 586.591-342.698 580.132-334.73 580.132-326.762 580.132-320.303 586.591-320.303 594.559Z" fill="#9900FF"/><path d="M-134.175 516.197C-119.626 509.83-108.052 492.805-108.006 477.281-107.94 455.373-130.582 447.382-127.12 429.289-124.418 415.167-106.16 408.136-103.26 407.031-81.3616 398.688-67.4792 413.723-53.5196 404.14-44.6371 398.042-39.7492 384.743-42.6993 375.08-45.6332 365.472-53.0326 361.548-79.2725 347.837-89.0864 342.71-103.375 335.245-103.879 325.051-104.718 308.094-72.1582 295.054-62.3236 291.862-42.8089 285.532-30.6082 285.819-19.0666 278.894-3.12753 269.331 2.63754 248.413-4.81842 231.524-13.4308 212.016-44.546 206.068-62.9249 216.569-79.0832 225.803-76.5337 240.032-95.7148 256.073-104.491 263.412-111.343 269.12-119.811 268.511-138.882 267.143-139.986 235.239-160.04 230.176-180.951 224.897-193.401 256.256-215.072 252.507-238.506 248.452-236.276 209.618-266.867 198.186-282.646 192.289-305.48 194.309-316.807 206.841-335.14 227.124-310.136 259.134-329.864 283.729-341.399 298.11-358.39 295.053-369.932 306.594-381.236 317.898-383.981 333.608-380.095 350.668-374.897 373.487-355.027 382.387-355.215 398.861-355.442 418.708-379.834 422.675-382.222 445.251-383.779 459.975-375.44 477.607-362.271 485.768-337.993 500.816-310.63 475.417-292.017 490.515-280.896 499.536-279.085 517.959-281.249 529.56-285.372 551.649-303.599 555.268-302.927 572.095-302.427 584.603-291.753 597.71-278.52 600.647-263.128 604.063-250.501 592.343-246.949 589.045-232.25 575.402-243.882 558.682-231.909 538.2-231.067 536.76-220.532 519.33-201.011 512.723-173.083 503.27-157.198 526.269-134.175 516.197Z" fill="#9900FF"/></g></svg>