<svg width="708" height="707" xmlns="http://www.w3.org/2000/svg" xmlns:xlink="http://www.w3.org/1999/xlink" xml:space="preserve" overflow="hidden"><defs><clipPath id="clip0"><rect x="472" y="19" width="708" height="707"/></clipPath><clipPath id="clip1"><path d="M472.756 138.578 1060.18 19.0905 1179.67 606.512 592.244 726Z" fill-rule="evenodd" clip-rule="evenodd"/></clipPath><clipPath id="clip2"><path d="M472.756 138.578 1060.18 19.0905 1179.67 606.512 592.244 726Z" fill-rule="evenodd" clip-rule="evenodd"/></clipPath><clipPath id="clip3"><path d="M472.756 138.578 1060.18 19.0905 1179.67 606.512 592.244 726Z" fill-rule="evenodd" clip-rule="evenodd"/></clipPath></defs><g clip-path="url(#clip0)" transform="translate(-472 -19)"><g clip-path="url(#clip1)"><g clip-path="url(#clip2)"><g clip-path="url(#clip3)"><path d="M837.438 161.4C775.2 160.197 700.464 265.988 681.749 335.805 677.706 350.889 651.78 447.618 701.873 497.388 718.79 514.196 732.303 513.652 836.201 531.237 939.922 548.793 964.268 555.736 983.478 552.871 988.636 552.102 991.938 552.032 995.461 549.819 1051.51 514.606 949.659 163.57 837.438 161.4Z" fill="#9900FF"/></g></g></g></g></svg>