<?xml version="1.0" encoding="utf-8"?>
<!-- Generator: Adobe Illustrator 26.5.0, SVG Export Plug-In . SVG Version: 6.00 Build 0)  -->
<svg version="1.1"
	 id="svg2" xmlns:rdf="http://www.w3.org/1999/02/22-rdf-syntax-ns#" xmlns:inkscape="http://www.inkscape.org/namespaces/inkscape" xmlns:svg="http://www.w3.org/2000/svg" xmlns:cc="http://creativecommons.org/ns#" xmlns:dc="http://purl.org/dc/elements/1.1/" xmlns:sodipodi="http://sodipodi.sourceforge.net/DTD/sodipodi-0.dtd"
	 xmlns="http://www.w3.org/2000/svg" xmlns:xlink="http://www.w3.org/1999/xlink" x="0px" y="0px" viewBox="0 0 595.3 841.9"
	 style="enable-background:new 0 0 595.3 841.9;" xml:space="preserve">
<style type="text/css">
	.st0{fill-rule:evenodd;clip-rule:evenodd;fill:#80E800;}
	.st1{fill:#80E800;}
	.st2{fill:#FFFF00;}
	.st3{fill:#FFCC00;}
	.st4{fill:#FFD42A;}
	.st5{fill:#0080E8;}
	.st6{fill-rule:evenodd;clip-rule:evenodd;fill:#0080E8;}
	.st7{fill:none;}
	.st8{fill:#FFFFFF;}
	.st9{fill:#C8FC00;}
</style>
<sodipodi:namedview  bordercolor="#666666" borderopacity="1.0" id="base" inkscape:current-layer="layer1" inkscape:cx="446.23434" inkscape:cy="732.90153" inkscape:document-units="px" inkscape:pageopacity="0.0" inkscape:pageshadow="2" inkscape:window-height="705" inkscape:window-maximized="1" inkscape:window-width="1366" inkscape:window-x="-8" inkscape:window-y="-8" inkscape:zoom="0.39917268" pagecolor="#ffffff" showgrid="false" showguides="false">
	</sodipodi:namedview>
<g id="layer1" transform="translate(0,-3.464567e-6)" inkscape:groupmode="layer" inkscape:label="Capa 1">
	<g id="g4165" transform="matrix(0.66315589,-0.74848131,0.74848131,0.66315589,-269.22177,498.446)">
	</g>
	<g id="g4330" transform="matrix(1.0381064,0,0,1.0381064,-14.177403,-18.743953)">
		<g id="g4222" transform="matrix(-2.7113023,0,0,2.7113023,1603.7589,-991.2838)">
			<g id="g4224">
				<g id="path4226">
					<path inkscape:connector-curvature="0" sodipodi:nodetypes="ccc" class="st0" d="M539.5,464.4c62.9-82.2-1.5-88.1-1.5-88.1
						l-18.7,40.1"/>
					<path d="M540.8,465.3c24.1-31.5,32.7-55.8,25.5-72.2s-27.2-18.4-28.1-18.4l-1.1-0.1l-19.2,41.1l2.9,1.4l18.2-39
						c4.1,0.7,18.8,3.8,24.3,16.4c2.9,6.7,2.9,15.2-0.2,25.2c-3.8,12.4-12.2,27.1-24.9,43.8L540.8,465.3z"/>
				</g>
				<g id="path4228">
					<path inkscape:connector-curvature="0" class="st0" d="M562.2,427.7c-21.7-29.2-37.2-23.5-37.2-23.5"/>
					<path d="M560.9,428.6l2.6-1.9c-22.1-29.9-38.3-24.3-39-24l1.1,3c0,0,3.7-1.2,9.7,0.9C541,408.6,550.1,414.1,560.9,428.6z"/>
				</g>
			</g>
			<g id="path4230">
				
					<path inkscape:flatsided="false" inkscape:randomized="9.5826125e-015" inkscape:rounded="1.1900203e-015" inkscape:transform-center-x="0.4906911" inkscape:transform-center-y="0.7796587" sodipodi:arg1="1.0636978" sodipodi:arg2="1.6920164" sodipodi:cx="543.66541" sodipodi:cy="1064.4059" sodipodi:r1="6.9619122" sodipodi:r2="5.6323056" sodipodi:sides="5" sodipodi:type="star" class="st1" d="
					M554.1,399.6l3.2,0.4l3.2,0.4l0.6,3.2l0.6,3.2l-2.9,1.6l-2.9,1.6l-2.4-2.2l-2.4-2.2l1.4-3L554.1,399.6z"/>
				<path class="st2" d="M556.2,412.4c0.4,0,0.8-0.1,1.2-0.3l5.7-3.2c0.9-0.5,1.4-1.5,1.2-2.6l-1.3-6.4c-0.2-1-1-1.8-2.1-1.9
					l-6.5-0.8c-1-0.1-2,0.4-2.5,1.4l-2.8,5.9c-0.4,0.9-0.2,2.1,0.5,2.8l4.8,4.5C555,412.2,555.6,412.4,556.2,412.4z M559.2,405.6
					l-2.7,1.5l-2.2-2.1l1.3-2.8l3,0.4L559.2,405.6z"/>
			</g>
			<g id="path4232">
				
					<path inkscape:flatsided="false" inkscape:randomized="9.58261e-015" inkscape:rounded="1.19002e-015" inkscape:transform-center-x="-0.418333" inkscape:transform-center-y="0.33468304" sodipodi:arg1="1.3961241" sodipodi:arg2="2.0244427" sodipodi:cx="379.50238" sodipodi:cy="713.02118" sodipodi:r1="7.7898059" sodipodi:r2="3.972801" sodipodi:sides="5" sodipodi:type="star" class="st1" d="
					M543.8,384.4l2.5,3.3l4.1-0.1L548,391l1.3,3.9l-3.9-1.2l-3.3,2.5l-0.1-4.1l-3.4-2.4l3.9-1.3L543.8,384.4z"/>
				<path class="st3" d="M540.6,399.3l5.1-3.9l6.2,1.9l-2.1-6.1l3.7-5.3l-6.4,0.1l-3.9-5.1l-1.9,6.1l-6.1,2.1l5.3,3.7L540.6,399.3z
					 M545.1,391.9l-1.4,1.1v-1.8l-1.5-1l1.7-0.6l0.5-1.7l1.1,1.4h1.8l-1,1.5l0.6,1.7L545.1,391.9z"/>
			</g>
		</g>
		<g id="path4148">
			<path d="M301.9,671.6c-4,0-8.1-0.3-12.2-0.9c-46.9-7.2-82.4-53.9-85.2-64.1l8.4-2.3c0.7,2.7,9.1,15.6,23.4,28.8
				c12.2,11.3,31.6,25.5,54.8,29c34.7,5.3,67-14.5,96-59l7.3,4.7c-16.5,25.3-34.4,43.3-53.3,53.5
				C328.4,668.1,315.3,671.6,301.9,671.6z"/>
		</g>
		<g id="path4156">
			<ellipse class="st4" cx="299.6" cy="138.2" rx="103" ry="15.8"/>
			<path d="M299.6,158.8c-27.7,0-53.9-1.7-73.5-4.7c-24-3.7-34.2-8.5-34.2-15.9c0-7.5,10.2-12.3,34.2-15.9c19.7-3,45.8-4.7,73.5-4.7
				c27.7,0,53.9,1.7,73.5,4.7c24,3.7,34.2,8.5,34.2,15.9c0,7.5-10.2,12.3-34.2,15.9C353.5,157.2,327.3,158.8,299.6,158.8z
				 M202.7,138.2c2.8,1.5,10.2,4.4,29,7c18.7,2.6,42.8,4,67.9,4c25.1,0,49.3-1.4,67.9-4c18.8-2.6,26.2-5.5,29-7
				c-2.8-1.5-10.2-4.4-29-7c-18.7-2.6-42.8-4-67.9-4c-25.1,0-49.3,1.4-67.9,4C212.9,133.7,205.5,136.7,202.7,138.2z"/>
		</g>
		<g id="rect4166">
			<rect x="259.8" y="156.8" class="st1" width="79.3" height="117.5"/>
			<path d="M339.1,278.6h-79.3c-2.4,0-4.3-1.9-4.3-4.3V156.8c0-2.4,1.9-4.3,4.3-4.3h79.3c2.4,0,4.3,1.9,4.3,4.3v117.5
				C343.4,276.7,341.5,278.6,339.1,278.6z M264.1,270h70.6V161.2h-70.6V270z"/>
		</g>
		<g id="path4172">
			<ellipse class="st5" cx="299.4" cy="230.4" rx="15.8" ry="14.8"/>
			<path d="M299.4,248.3c-10.4,0-18.9-8-18.9-17.9c0-9.9,8.5-17.9,18.9-17.9s18.9,8,18.9,17.9C318.3,240.3,309.9,248.3,299.4,248.3z
				 M299.4,218.8c-7,0-12.7,5.2-12.7,11.6s5.7,11.6,12.7,11.6s12.7-5.2,12.7-11.6C312.1,224,306.4,218.8,299.4,218.8z"/>
		</g>
		<g id="g4173" transform="matrix(2.7113023,0,0,2.7113023,-859.66437,-992.89532)">
			<g id="g4157" transform="matrix(0.66315589,-0.74848131,0.74848131,0.66315589,-269.22177,442.446)">
				<g id="circle4159">
					<circle class="st5" cx="353.5" cy="617.6" r="15"/>
					<path d="M341.1,628.6c-2.7-3-4.2-6.9-4.2-11c0-4.4,1.7-8.6,4.9-11.7c3.1-3.1,7.3-4.9,11.7-4.9c4.4,0,8.6,1.7,11.7,4.9
						c3.1,3.1,4.9,7.3,4.9,11.7s-1.7,8.6-4.9,11.7c-3.1,3.1-7.3,4.9-11.7,4.9l0,0c-4.4,0-8.6-1.7-11.7-4.9
						C341.6,629.1,341.3,628.9,341.1,628.6z M363.6,608.8c-0.2-0.2-0.4-0.4-0.6-0.6c-2.5-2.5-5.9-3.9-9.5-3.9s-6.9,1.4-9.5,3.9
						c-2.5,2.5-3.9,5.9-3.9,9.5s1.4,6.9,3.9,9.5c2.5,2.5,5.9,3.9,9.5,3.9l0,0c3.6,0,6.9-1.4,9.5-3.9c2.5-2.5,3.9-5.9,3.9-9.5
						C366.9,614.3,365.7,611.2,363.6,608.8z"/>
				</g>
				<g id="path4161">
					<path inkscape:connector-curvature="0" class="st6" d="M361,605.9c-16.2,23.8-16.2,23.8-16.2,23.8"/>
					<rect x="348.7" y="577.6" transform="matrix(-0.9696 0.2448 -0.2448 -0.9696 837.3375 1107.1455)" width="2.3" height="56"/>
				</g>
				<g id="path4163">
					<path inkscape:connector-curvature="0" class="st6" d="M365.3,626.8c-24.5-19.1-24.5-19.1-24.5-19.1"/>
					<polygon points="339.3,620.2 396,608.1 396.4,610.4 339.7,622.4 					"/>
				</g>
			</g>
		</g>
		<g id="g4179" transform="matrix(1.4718472,-2.2770213,2.2770213,1.4718472,-1380.675,768.48362)">
			<g id="g4181" transform="matrix(0.66315589,-0.74848131,0.74848131,0.66315589,-269.22177,442.446)">
				<g id="circle4183">
					<circle class="st5" cx="441.7" cy="532.4" r="15"/>
					<path d="M425.8,528c0.8-2.7,2.2-5.2,4.2-7.2c3.1-3.1,7.3-4.9,11.7-4.9c4.4,0,8.6,1.7,11.7,4.9c3.1,3.1,4.9,7.3,4.9,11.7
						c0,4.4-1.7,8.6-4.9,11.7c-3.2,3.1-7.3,4.9-11.7,4.9c-4.4,0-8.6-1.7-11.7-4.9c-3.1-3.1-4.9-7.3-4.9-11.7
						C425.2,530.9,425.4,529.4,425.8,528z M454.6,536.1c0.3-1.2,0.5-2.4,0.5-3.6c0-3.6-1.4-6.9-3.9-9.5c-2.5-2.5-5.9-3.9-9.5-3.9
						s-6.9,1.4-9.5,3.9c-2.5,2.5-3.9,5.9-3.9,9.5s1.4,6.9,3.9,9.5c2.5,2.5,5.9,3.9,9.5,3.9s6.9-1.4,9.5-3.9
						C452.8,540.3,454,538.3,454.6,536.1z"/>
				</g>
				<g id="path4185">
					<path inkscape:connector-curvature="0" class="st6" d="M449.2,520.7C433,544.5,433,544.5,433,544.5"/>
					<polygon points="425.8,526.9 426.6,524.7 479.9,544.5 479.2,546.6 					"/>
				</g>
				<g id="path4187">
					<path inkscape:connector-curvature="0" class="st6" d="M453.5,541.7C429,522.5,429,522.5,429,522.5"/>
					<rect x="440.2" y="488.3" transform="matrix(-0.925 -0.3801 0.3801 -0.925 647.3936 1192.0083)" width="2.3" height="87.6"/>
				</g>
			</g>
		</g>
		<g id="g4189" transform="matrix(2.6513916,-0.56681808,0.56681808,2.6513916,-1102.4161,-435.48101)">
			<g id="g4191" transform="matrix(0.66315589,-0.74848131,0.74848131,0.66315589,-269.22177,442.446)">
				<g id="circle4193">
					<circle class="st5" cx="501.3" cy="506.7" r="15"/>
					<path d="M486.9,514.9c-1.4-2.4-2.1-5.2-2.1-8.1c0-4.4,1.7-8.6,4.9-11.7c3.1-3.1,7.3-4.9,11.7-4.9c4.4,0,8.6,1.7,11.7,4.9
						c3.1,3.1,4.9,7.3,4.9,11.7c0,4.4-1.7,8.6-4.9,11.7c-3.1,3.1-7.3,4.9-11.7,4.9l0,0C495.1,523.3,489.7,519.9,486.9,514.9z
						 M513,500.2c-0.6-1-1.3-2-2.2-2.9c-2.5-2.5-5.9-3.9-9.5-3.9s-6.9,1.4-9.5,3.9c-2.5,2.5-3.9,5.9-3.9,9.5c0,2.4,0.6,4.6,1.7,6.6
						c2.3,4.1,6.7,6.8,11.7,6.8l0,0c3.6,0,6.9-1.4,9.5-3.9c2.5-2.5,3.9-5.9,3.9-9.5C514.7,504.4,514.1,502.1,513,500.2z"/>
				</g>
				<g id="path4195">
					<path inkscape:connector-curvature="0" class="st6" d="M508.8,495c-16.2,23.8-16.2,23.8-16.2,23.8"/>
					<rect x="499.6" y="466.3" transform="matrix(-0.897 0.4421 -0.4421 -0.897 1174.0144 740.1978)" width="2.3" height="81.2"/>
				</g>
				<g id="path4197">
					<path inkscape:connector-curvature="0" class="st6" d="M513.1,515.9c-24.5-19.1-24.5-19.1-24.5-19.1"/>
					<polygon points="487.3,512.1 526.4,495.4 527.3,497.5 488.2,514.2 					"/>
				</g>
			</g>
		</g>
		<g id="g4215" transform="matrix(2.7113023,0,0,2.7113023,-859.66437,-992.89532)">
			<g id="g4201">
				<g id="path4159">
					<path inkscape:connector-curvature="0" sodipodi:nodetypes="ccc" class="st0" d="M486.7,465.4c62.9-82.2-1.5-88.1-1.5-88.1
						l-18.7,40.1"/>
					<path d="M487.9,466.4l-2.5-1.9c12.8-16.7,21.2-31.4,24.9-43.8c3-10,3.1-18.5,0.2-25.2c-5.5-12.6-20.2-15.8-24.3-16.4l-18.2,39
						l-2.9-1.4l19.2-41.1l1.1,0.1c0.8,0.1,20.9,2.1,28.1,18.4C520.6,410.6,512,434.9,487.9,466.4z"/>
				</g>
				<g id="path4199">
					<path inkscape:connector-curvature="0" class="st0" d="M509.3,428.7c-21.7-29.2-37.2-23.5-37.2-23.5"/>
					<path d="M508.1,429.7c-20.7-28-35.2-23-35.3-22.9l-1.1-3c0.7-0.3,16.9-5.9,39,24L508.1,429.7z"/>
				</g>
			</g>
			<g id="path4211">
				
					<path inkscape:flatsided="false" inkscape:randomized="9.5826125e-015" inkscape:rounded="1.1900203e-015" inkscape:transform-center-x="0.4906911" inkscape:transform-center-y="0.7796587" sodipodi:arg1="1.0636978" sodipodi:arg2="1.6920164" sodipodi:cx="543.66541" sodipodi:cy="1064.4059" sodipodi:r1="6.9619122" sodipodi:r2="5.6323056" sodipodi:sides="5" sodipodi:type="star" class="st1" d="
					M501.3,400.7l3.2,0.4l3.2,0.4l0.6,3.2l0.6,3.2l-2.9,1.6l-2.9,1.6l-2.4-2.2l-2.4-2.2l1.4-3L501.3,400.7z"/>
				<path class="st2" d="M503.3,413.5c-0.6,0-1.2-0.2-1.6-0.6l-4.8-4.5c-0.8-0.7-1-1.8-0.5-2.8l2.8-5.9c0.4-0.9,1.4-1.5,2.5-1.4
					l6.5,0.8c1,0.1,1.9,0.9,2.1,1.9l1.3,6.4c0.2,1-0.3,2.1-1.2,2.6l-5.7,3.2C504.1,413.4,503.7,413.5,503.3,413.5z M501.4,406
					l2.2,2.1l2.7-1.5l-0.6-3l-3-0.4L501.4,406z"/>
			</g>
			<g id="path4213">
				
					<path inkscape:flatsided="false" inkscape:randomized="9.58261e-015" inkscape:rounded="1.19002e-015" inkscape:transform-center-x="-0.418333" inkscape:transform-center-y="0.33468304" sodipodi:arg1="1.3961241" sodipodi:arg2="2.0244427" sodipodi:cx="379.50238" sodipodi:cy="713.02118" sodipodi:r1="7.7898059" sodipodi:r2="3.972801" sodipodi:sides="5" sodipodi:type="star" class="st1" d="
					M490.9,385.4l2.5,3.3l4.1-0.1l-2.4,3.4l1.3,3.9l-3.9-1.2l-3.3,2.5l-0.1-4.1l-3.4-2.4l3.9-1.3L490.9,385.4z"/>
				<path class="st3" d="M487.7,400.3l-0.1-6.4l-5.3-3.7l6.1-2.1l1.9-6.1l3.9,5.1l6.4-0.1l-3.7,5.3l2.1,6.1l-6.2-1.9L487.7,400.3z
					 M489.3,391.2l1.5,1v1.8l1.4-1.1l1.7,0.5l-0.6-1.7l1-1.5h-1.8l-1.1-1.4l-0.5,1.7L489.3,391.2z"/>
			</g>
		</g>
		<g id="path4234">
			<path inkscape:connector-curvature="0" class="st7" d="M408.7,157c21.6,39.9,41.3,93.4,49.4,134.2c5.4,27.4,6,33.4,6,63.6
				c0,25.3-0.2,29.8-2.2,41.1c-9.1,51.7-33.2,119.7-66.9,189.3c-7.1,14.6-11.6,22.5-16.6,29.3c-18.5,24.6-39,40.4-59.6,45.9
				c-9.5,2.5-25.8,2.3-35.5-0.5c-22.8-6.5-46.6-23.4-62.5-44.6c-14.2-18.8-46.3-91.1-64-144C139,418,133,385.2,134.2,347.5
				c1-31.6,5.9-60.5,15.9-93.6c3.7-12.3,35.6-89,41.8-100.3l4-7.4l5.9,2.4c7.9,3.2,20.5,5.7,38.6,7.7l14.9,1.7v59.3
				c0,44.8,0.3,59.6,1.2,60.5c0.9,0.9,11.8,1.2,43,1.2h41.8l1.5-2.2c1.3-1.9,1.5-9.3,1.5-60.5V158l17.9-2.2
				c18.7-2.3,30.9-4.9,37.1-7.9l3.6-1.8L408.7,157L408.7,157z M286.3,339.6c-13.3,4.1-24.1,14.1-29.3,27.2
				c-1.9,4.6-2.2,7.5-2.3,16.4c0,10.4,0.1,11,3.6,18.3c8,16.9,22.6,26.3,40.5,26.4c9.3,0,14.5-1.2,22.1-5.2
				c16.3-8.6,26.1-28.3,23.3-46.6c-2.7-17.3-16-32.5-32.3-36.8C304.2,337.2,293.8,337.3,286.3,339.6L286.3,339.6z M285.2,448.4
				c-7.9,2.6-14.4,6.8-19.4,12.5c-20.2,23-13.2,58.2,14.3,71.3c13.8,6.6,30.8,5.6,43.3-2.6C343,516.8,350,493,340.3,472
				c-3.2-7-11.2-15.9-17.4-19.5C312.2,446.2,296.8,444.5,285.2,448.4z M292.4,555c-27,4.2-44.3,31.9-36.2,58
				c5.6,18.1,21.2,30.4,40.2,31.7c13.5,1,25-3.3,34.7-12.9c14.2-14,17.5-34,8.6-52.1c-7.2-14.7-22-24.3-39.6-25.6
				C299.4,554.1,295.9,554.5,292.4,555L292.4,555z"/>
		</g>
		<g id="path4140">
			<path d="M392.4,611.1l-7.7-4.1c0.2-0.4,19.6-37.3,39.2-85.4c25.8-63.4,40.1-117.4,41.5-156.2c1.1-32.5-3.5-86-31.7-156.2
				c-17-42.1-34.7-70.6-34.8-70.8l7.4-4.6c0.2,0.3,18.2,29.3,35.5,72c15.9,39.5,34.5,99.4,32.4,159.9
				c-1.4,40.4-15.6,93.9-42.1,159.2C412.2,573.5,392.6,610.7,392.4,611.1z"/>
		</g>
		<g id="path4142">
			<path d="M206.3,611.1c-0.2-0.4-19.8-37.6-39.5-86.1c-26.6-65.3-40.7-118.9-42.1-159.2c-1.1-33.4,3.5-88.3,32.4-159.9
				c17.2-42.8,35.3-71.8,35.5-72l7.4,4.6c-0.2,0.3-17.9,28.7-34.8,70.8c-15.6,38.7-33.8,97.3-31.7,156.2
				c1.3,38.8,15.7,92.8,41.5,156.2c19.6,48.1,39,85,39.2,85.4L206.3,611.1z"/>
		</g>
		<g id="path4236">
			<path inkscape:connector-curvature="0" class="st8" d="M408.7,157c21.6,39.9,41.3,93.4,49.4,134.2c5.4,27.4,6,33.4,6,63.6
				c0,25.3-0.2,29.8-2.2,41.1c-9.1,51.7-33.2,119.7-66.9,189.3c-7.1,14.6-11.6,22.5-16.6,29.3c-18.5,24.6-39,40.4-59.6,45.9
				c-9.5,2.5-25.8,2.3-35.5-0.5c-22.8-6.5-46.6-23.4-62.5-44.6c-14.2-18.8-46.3-91.1-64-144C139,418,133,385.2,134.2,347.5
				c1-31.6,5.9-60.5,15.9-93.6c3.7-12.3,35.6-89,41.8-100.3l4-7.4l5.9,2.4c7.9,3.2,20.5,5.7,38.6,7.7l14.9,1.7v59.3
				c0,44.8,0.3,59.6,1.2,60.5c0.9,0.9,11.8,1.2,43,1.2h41.8l1.5-2.2c1.3-1.9,1.5-9.3,1.5-60.5V158l17.9-2.2
				c18.7-2.3,30.9-4.9,37.1-7.9l3.6-1.8L408.7,157L408.7,157z M286.3,339.6c-13.3,4.1-24.1,14.1-29.3,27.2
				c-1.9,4.6-2.2,7.5-2.3,16.4c0,10.4,0.1,11,3.6,18.3c8,16.9,22.6,26.3,40.5,26.4c9.3,0,14.5-1.2,22.1-5.2
				c16.3-8.6,26.1-28.3,23.3-46.6c-2.7-17.3-16-32.5-32.3-36.8C304.2,337.2,293.8,337.3,286.3,339.6L286.3,339.6z M285.2,448.4
				c-7.9,2.6-14.4,6.8-19.4,12.5c-20.2,23-13.2,58.2,14.3,71.3c13.8,6.6,30.8,5.6,43.3-2.6C343,516.8,350,493,340.3,472
				c-3.2-7-11.2-15.9-17.4-19.5C312.2,446.2,296.8,444.5,285.2,448.4z M292.4,555c-27,4.2-44.3,31.9-36.2,58
				c5.6,18.1,21.2,30.4,40.2,31.7c13.5,1,25-3.3,34.7-12.9c14.2-14,17.5-34,8.6-52.1c-7.2-14.7-22-24.3-39.6-25.6
				C299.4,554.1,295.9,554.5,292.4,555L292.4,555z"/>
		</g>
		<g id="path4238">
			<path inkscape:connector-curvature="0" class="st8" d="M409.5,158.4c23,43.3,41.4,94.4,49.6,137.7c4.5,23.6,5,30.1,5,59.2
				c0,24.5-0.3,29.5-2.2,40.6c-7.9,45.5-27.8,104.4-56.7,167.9c-17.9,39.2-24.9,50.8-41.4,67.9c-10.5,10.9-18.7,17.1-29.9,22.7
				c-9.9,4.9-17,7-27.2,7.9c-24.2,2.2-53.6-11.8-77-36.4c-10.5-11.1-14.1-16.6-24.4-37.3c-18.5-37.1-36-79.4-49.1-118.7
				c-9.7-28.9-15.1-49.6-19.2-72.9c-2.5-14.3-2.8-17.7-2.8-40.1c0-36.6,4.4-65.7,15.5-102.4c4-13.1,34.8-87.3,41.5-99.9
				c4.5-8.4,4.5-8.5,7-7.2c7.4,3.8,27.6,7.8,49.7,9.9l7.1,0.7v59c0,52.5,0.2,59.2,1.5,60.6c1.4,1.4,6.3,1.5,43.3,1.3l41.7-0.3
				l1.2-2.4c1-1.9,1.2-15.7,1.3-60.4c0-54.6,0.1-58,1.7-58c0.9,0,7.7-0.7,14.9-1.5c15.6-1.8,32.4-5.4,38-8.1l4-1.9L409.5,158.4
				L409.5,158.4z M283.3,340.6c-11.3,4.3-21.7,14.7-26.3,26.2c-3.2,8-3.2,23.7-0.1,31.7c5.2,13.1,16.1,23.6,28.7,27.4
				c5.7,1.7,8.6,2,16.6,1.6c8.7-0.4,10.4-0.8,16.9-4c24.3-12,32.7-42.6,18.1-65.5c-5.5-8.5-17.1-16.8-27-19.3
				C304.1,337.1,289.7,338.2,283.3,340.6L283.3,340.6L283.3,340.6z M288.6,447.4c-20.9,4.8-35.8,25.5-34.1,47.4
				c2.8,37,47.5,55,74.9,30.3c19.8-17.8,20.2-49,0.8-66.7c-5.5-5.1-10.5-8-17.2-10.2C306.9,446.2,295.3,445.8,288.6,447.4
				L288.6,447.4z M284.7,557.1c-22.3,7.7-34.9,31.3-29,54.2c4.2,16.3,18,29.3,34.8,32.9c15.8,3.4,34.2-3.4,44.5-16.5
				c13.9-17.7,12.6-42.6-3.1-59C319.5,555.7,301.5,551.3,284.7,557.1z"/>
		</g>
		<g id="path4244">
			<path d="M300.2,811.2c-1.1,0-1.1-0.6-1.2-3.3c-0.1-2.9-0.2-8.3-0.4-15.5c-0.3-16.2-0.7-50.8-1.1-124h2.2
				c0.7,132.3,1.5,140.9,1.6,141.5l-1.1,0.2V811.2z"/>
		</g>
		<g id="path4246">
			<ellipse cx="299.4" cy="802.6" rx="9.9" ry="10.7"/>
		</g>
		<g id="path4328">
			<path inkscape:connector-curvature="0" class="st9" d="M417.5,175.7c17.5,36.5,27,62,35.5,95.3c8.7,34.5,10.9,51.8,10.9,85.6
				c0,22.3-1.1,33.5-5.1,53.5c-12.9,63.8-60.2,179.9-86,211.2c-22.6,27.4-44.8,40.1-70.2,40.3c-18,0.1-31.3-4.4-50.1-17
				c-26-17.4-36.4-31.7-58.9-81.2c-33.2-73.1-53.8-138.1-58.5-185.3c-5.9-58.9,11.3-130.7,50.5-211.4l9.8-20.2l10.5,3.5
				c5.8,1.9,19.3,4.6,30,5.9l19.5,2.4v59.6v59.6l12.3,1.3c15.5,1.6,65.3,1.6,71.4,0l4.5-1.2V218v-59.6l19.5-2.4
				c10.7-1.3,24.2-4,29.9-5.9l10.4-3.5L417.5,175.7L417.5,175.7z M281.9,341.3c-24.1,10.1-35,41.2-22.1,63.2
				c6.6,11.2,10.4,14.7,22.5,20c25.1,11.1,54.9-4.8,61.1-32.6c4.6-20.8-6.7-42.1-26.9-51C308.3,337.3,290.9,337.5,281.9,341.3z
				 M281.9,449.5c-16.9,7.1-27.4,23.2-27.3,42c0.1,18.3,9.2,32.7,25.6,40.3c35.4,16.5,73.3-15.8,62.3-53
				c-3.7-12.6-16.9-27.1-27.3-30.1C304.9,445.7,290.2,446.1,281.9,449.5L281.9,449.5z M285.4,556.9c-32.7,9.8-41.8,54.8-15.5,76.9
				c8.9,7.5,17.8,11,28.3,11c29.8,0,51-25.1,45.3-53.5C338.2,564.8,311.5,549,285.4,556.9L285.4,556.9z"/>
		</g>
	</g>
</g>
</svg>
