<svg width="309" height="219" xmlns="http://www.w3.org/2000/svg" xmlns:xlink="http://www.w3.org/1999/xlink" xml:space="preserve" overflow="hidden"><defs><clipPath id="clip0"><rect x="560" y="157" width="309" height="219"/></clipPath><clipPath id="clip1"><rect x="560" y="158" width="309" height="218"/></clipPath><clipPath id="clip2"><rect x="560" y="158" width="309" height="218"/></clipPath><clipPath id="clip3"><rect x="560" y="158" width="309" height="218"/></clipPath></defs><g clip-path="url(#clip0)" transform="translate(-560 -157)"><g clip-path="url(#clip1)"><g clip-path="url(#clip2)"><g clip-path="url(#clip3)"><path d="M88.9423 5.66305 87.3701 18.9759C87.3701 18.9759 81.1076 23.7917 80.1133 29.1773 80.1133 29.1773 67.3884 34.226 40.254 44.0063 32.5827 46.7709 27.582 53.8262 25.3722 57.8377 19.2897 68.8797 12.2394 99.5897 11.227 130.561 10.6721 147.52 10.7233 164.772 16.5399 178.413 16.5399 178.413 21.113 186.93 30.994 187.543 32.0658 187.609 32.8156 188.638 32.6389 189.696L30.8255 200.51C30.6356 201.812 31.5918 203.001 32.9048 203.09 42.0278 203.708 75.5469 205.642 111.558 203.546 135.371 202.16 160.536 200.993 180.023 193.345L178.897 172.456C178.862 171.82 179.401 171.335 180.037 171.371 189.875 171.926 203.643 173.071 222.88 164.109 222.88 164.109 254.693 165.792 261.004 156.484 267.314 147.176 265.645 139.946 265.645 139.946 265.835 139.269 266.228 138.669 266.768 138.22 268.54 136.752 272.799 132.843 275.727 127.036 284.982 108.685 297.193 62.2852 297.193 62.2852 297.193 62.2852 305.91 42.6388 287.296 42.9014 276.118 43.06 257.323 43.7949 240.811 44.216 227.848 44.5463 218.238 45.8114 214.519 52.6288L197.743 114.402C197.477 115.342 196.121 115.264 195.964 114.3L190.329 79.7616C190.329 79.7616 188.639 62.0293 171.36 53.4166 154.08 44.804 143.424 39.7966 143.424 39.7966L132.194 26.5035C131.566 25.8479 131.17 25.0039 131.068 24.1022L130.333 17.6415 88.9423 5.66305Z" fill="#FFFFFF" fill-rule="nonzero" fill-opacity="1" transform="matrix(1.00592 0 0 1 560 158)"/><path d="M298.703 49.6016C297.146 42.5794 286.766 43.1822 280.607 43.3737 260.373 44.0195 242.188 44.6553 226.266 45.3853 215.828 46.6933 213.858 54.9294 211.531 63.4644 203.435 90.7656 197.292 118.536 189.861 145.657 189.786 145.933 187.472 146.603 186.922 146.793 166.445 150.646 145.852 150.425 125.396 153.888 118.82 154.349 112.039 155.817 105.182 156.851 102.893 157.792 105.135 160.318 106.599 161.518 107.538 162.012 108.82 161.65 109.935 161.848 122.554 160.671 135.188 158.907 147.687 158.187 154.607 157.68 161.754 156.988 168.706 156.534 175.251 156.083 182.017 155.616 188.553 154.531 189.581 154.329 193.374 152.41 194.981 152.73 198.971 152.441 202.899 151.849 206.89 151.335 213.623 150.574 220.259 148.762 226.984 148.252 229.615 147.011 232.505 146.151 235.235 144.935 241.627 142.486 241.438 130.343 244.129 129.502 248.185 132.897 246.259 124.394 248.069 123.249 249.278 122.419 249.927 124.873 251.186 124.415 251.673 124.27 252.015 123.829 252.031 123.322 252.213 118.76 255.385 116.696 257.332 120.612 258.376 122.113 260.446 119.892 261.823 121.203 267.341 125.026 264.566 139.505 268.024 137.327 268.635 136.968 269.238 136.539 269.39 135.829 271.641 133.208 273.291 130.869 274.581 128.468 284.431 104.409 295.293 77.8937 298.703 49.6016Z" fill="#FFFFFF" fill-rule="nonzero" fill-opacity="1" transform="matrix(1.00592 0 0 1 560 158)"/><path d="M148.402 149.456C147.875 148.636 148.489 146.815 147.49 146.143 147.157 145.921 147.038 145.86 146.669 146.02 142.397 147.882 139 148.397 135.981 147.642 135.533 147.531 135.063 147.688 134.774 148.047 133.996 149.008 132.483 149.756 131.269 150.433 130.116 151.051 130.759 152.942 132.037 152.729 137.186 152.106 142.423 151.546 147.599 151.067 148.41 151.016 148.793 150.167 148.402 149.456Z" fill="#FFFFFF" fill-rule="nonzero" fill-opacity="1" transform="matrix(1.00592 0 0 1 560 158)"/><path d="M143.859 124.962C144.835 124.504 145.371 123.441 145.14 122.389 144.308 118.6 143.418 114.366 143 110.557 141.759 100.434 136.927 91.5319 135.619 81.4841 134.853 76.4338 134.879 72.0672 135.589 67.6279 134.638 64.4801 135.528 60.4967 135.913 57.0565 137.183 53.2993 135.642 34.4341 131.966 39.9898 131.622 42.7709 130.48 45.3341 129.271 48.0475 126.239 54.9542 124.826 64.1019 115.104 62.3315 114.209 62.2043 113.477 63.2216 113.905 64.0276 119.122 82.7772 118.5 103.732 112.858 123.142 112.351 125.619 109.175 132.785 110.28 134.666 110.577 134.95 111.005 135.056 111.396 134.952 123.149 131.499 134.605 129.295 143.859 124.962Z" fill="#FFFFFF" fill-rule="nonzero" fill-opacity="1" transform="matrix(1.00592 0 0 1 560 158)"/><path d="M106.194 165.16C106.282 164.106 105.879 161.794 107.14 161.794 108.402 161.794 148.892 157.376 148.998 158.113 149.104 158.849 154.256 190.504 154.782 192.608 155.307 194.712 158.042 200.074 157.305 200.917 156.569 201.757 104.159 207.297 102.057 206.981 99.9547 206.666 106.09 166.422 106.194 165.16Z" fill="#FFFFFF" fill-rule="nonzero" fill-opacity="1" transform="matrix(1.00592 0 0 1 560 158)"/><path d="M178.54 190.279C177.815 181.363 177.219 173.099 177.416 164.329 177.435 162.035 177.457 159.662 178.154 157.708 178.454 156.934 177.769 156.033 176.938 156.133 167.83 156.915 158.831 157.507 149.783 158.19 148.836 158.237 148.797 159.455 149.454 160.147 150.47 161.285 150.328 162.843 150.643 164.351 153.176 176.119 153.568 185.477 156.185 196.747 156.484 198.036 156.139 200.195 157.307 200.813 158.97 201.693 162.354 200.712 163.477 200.463 168.412 198.879 173.784 197.278 178.539 194.93 180.053 193.985 178.271 191.863 178.54 190.279Z" fill="#FFFFFF" fill-rule="nonzero" fill-opacity="1" transform="matrix(1.00592 0 0 1 560 158)"/><path d="M104.827 164.213C83.4428 174.134 58.6205 187.832 33.4481 188.927 33.2235 189.168 33.1096 189.492 33.1327 189.82 33.4547 193.947 31.6397 198.74 31.4184 202.917 33.1145 206.728 44.5959 206.747 48.0343 206.702 65.6312 205.914 80.7244 205.985 97.6012 206.991 98.7424 207.133 101.68 208.464 102.093 206.996 102.116 206.841 103.178 198.439 102.932 197.657 101.74 193.866 102.055 185.971 102.822 181.515 103.676 176.075 104.303 171.251 105.428 165.923 105.529 165.465 105.208 164.489 104.827 164.213Z" fill="#FFFFFF" fill-rule="nonzero" fill-opacity="1" transform="matrix(1.00592 0 0 1 560 158)"/><path d="M181.657 145.462C168.339 141.352 176.909 140.476 162.701 145.953 158.499 147 153.781 146.6 150.076 144.882 149.749 144.731 149.37 144.737 149.046 144.899 146.744 145.761 147.726 146.484 148.228 148.579 148.465 149.355 148.03 150.017 148.552 150.635 158.536 151.231 169.951 148.813 181.587 147.799 182.884 147.669 182.96 145.669 181.657 145.462Z" fill="#FFFFFF" fill-rule="nonzero" fill-opacity="1" transform="matrix(1.00592 0 0 1 560 158)"/><path d="M195.422 119.398C193.865 117.626 193.472 114.584 193.09 111.642 189.952 83.5386 191.472 60.1812 158.204 47.8939 154.532 46.1863 151.107 44.6652 147.888 42.2936 147.38 41.8956 145.163 40.9856 143.355 40.4225 140.531 36.0328 136.894 32.0047 133.576 27.8842 130.136 25.5902 131.444 32.88 132.067 35.0286 136.569 47.0715 136.423 48.3745 135.028 60.8484 134.798 61.699 135.565 66.5098 135.576 67.2992 136.504 69.9318 136.722 72.7146 136.952 75.6592 137.385 87.7252 143.593 98.432 144.749 110.338 145.044 113.599 145.17 116.952 145.29 120.194 145.375 121.466 144.98 124.113 147.023 123.527 150.512 122.047 153.626 120.077 157.145 118.696 165.079 115.317 172.175 118.544 182.378 121.976 183.072 122.533 186.742 124.402 191.837 128.528 192.466 129.096 193.513 129.02 193.701 128.196 193.977 125.966 196.221 121.063 195.422 119.398Z" fill="#FFFFFF" fill-rule="nonzero" fill-opacity="1" transform="matrix(1.00592 0 0 1 560 158)"/><path d="M115.01 80.3644C114.346 73.7302 113.55 64.4107 109.066 58.9161 108.315 57.9963 107.669 56.9921 107.238 55.8856 105.956 52.5908 98.3428 46.7478 97.1239 45.7205 90.9836 40.0426 87.2149 30.9841 87.2875 22.0675 87.3354 20.933 85.7202 20.4243 85.1207 21.402 83.1059 23.539 81.8095 25.8462 80.9903 28.2673 80.5972 29.43 79.5882 30.2789 78.371 30.4292 77.9251 30.4853 77.5948 30.5448 77.4957 30.6009 62.8517 38.7677 43.2317 38.1203 30.6852 50.4224 11.407 71.8938 5.25842 146.357 15.767 174.352 16.1056 175.254 17.2369 175.561 17.9751 174.942 18.2344 174.724 18.4392 174.521 18.5052 174.392 24.2905 164.413 31.9552 156.828 40.6273 150.015 41.9534 148.977 47.1409 146.062 51.0054 143.654 52.3993 142.787 57.2531 145.114 57.8179 145.381 70.8748 149.574 83.8193 143.804 95.9943 139.537 99.5665 138.384 103.347 137.241 107.892 135.94 108.485 135.769 108.84 135.175 108.729 134.567 108.161 131.441 109.345 128.063 110.491 124.797 115.315 110.576 116.623 95.5418 115.01 80.3644Z" fill="#FFFFFF" fill-rule="nonzero" fill-opacity="1" transform="matrix(1.00592 0 0 1 560 158)"/><path d="M126.82 95.0761C126.45 90.7194 126.186 86.3792 126.526 82.0093 126.874 77.5205 127.555 73.0399 128.516 68.6403 128.655 68.0044 127.771 67.7732 127.551 68.3744 125.968 72.7063 124.927 77.2067 124.415 81.7913 123.921 86.214 123.586 91.0579 125.19 95.2957 125.494 96.1033 126.906 96.0818 126.82 95.0761Z" fill="#000000" fill-rule="nonzero" fill-opacity="1" transform="matrix(1.00592 0 0 1 560 158)"/><path d="M298.174 44.7676C294.112 41.2697 288.214 41.2433 283.119 41.3556 269.952 41.6479 256.787 42.1913 243.628 42.6983 238.416 42.8998 233.204 43.0979 227.992 43.3325 225.275 43.4547 222.771 44.1467 220.239 45.1904 214.231 47.6693 212.42 53.8559 210.664 59.5454 205.348 76.7657 201.034 94.2569 196.657 111.732 193.79 94.0191 195.657 73.5023 182.672 59.3389 173.345 49.5686 160.174 45.0913 148.08 39.8329 146.777 39.2218 145.419 38.2293 143.981 37.9469 140.443 33.1674 136.584 28.6703 132.376 24.4606 132.078 22.5713 131.575 20.71 131.02 19.0469 130.765 18.2856 129.647 18.4144 129.616 19.2368 129.542 21.1691 129.697 23.0816 129.829 25.0089 130.027 26.4688 129.834 30.0956 130.734 31.0881 130.838 32.6356 131.119 34.1715 131.565 35.6628 131.837 38.918 130.42 41.9898 129.228 44.9526 127.963 47.846 126.648 50.6734 125.499 53.6131 122.787 60.5693 120.663 61.3505 113.448 61.1325 112.338 59.8212 111.112 58.5082 110.06 57.149 109.163 55.8196 108.374 54.4224 107.479 53.0913 105.509 50.1615 102.858 48.0492 100.128 45.8692 93.086 40.7132 90.1892 32.1451 88.6335 23.8875 89.9564 21.6827 89.6426 18.5399 89.6723 16.061 89.598 13.3773 89.8606 10.5598 89.1438 7.95205 88.8433 7.0883 87.6855 7.08665 87.385 7.95205 86.5856 11.0453 86.9919 14.3054 86.5906 17.4697 85.5039 18.6241 84.5741 19.9487 83.4114 21.0469 81.3503 23.1691 79.5419 25.5952 78.7707 28.4969 52.642 37.529 27.8066 37.1525 18.2245 68.1234 14.7365 77.8937 12.7134 88.1298 11.3228 98.389 8.69192 119.026 7.21712 140.048 9.92065 160.752 11.3575 173.297 15.2732 189.776 30.8652 189.667 30.2277 193.239 29.4399 196.707 28.814 200.273 28.5316 201.926 28.0774 203.553 28.8288 205.117 29.5638 206.649 31.5786 206.259 32.4044 205.117 33.2648 203.926 33.1046 202.056 33.2912 200.629 33.7471 196.996 34.5761 193.424 34.3119 189.733 46.2259 189.766 57.7584 186.132 68.8153 182.03 81.1076 177.662 93.0232 172.296 104.27 165.67 103.325 170.02 102.742 174.438 102.014 178.828 101.687 182.056 97.9563 199.926 103.025 199.506 104.27 199.506 105.415 198.43 105.377 197.155 105.059 187.807 106.865 178.626 108.255 169.426 108.414 168.331 108.876 164.791 108.026 163.18 113.535 163.452 118.977 162.129 124.448 161.645 132.473 160.732 140.522 160.075 148.574 159.469 147.779 161.18 147.863 163.033 148.098 164.846 148.423 170.889 149.816 176.795 150.739 182.753 151.677 187.118 151.389 198.806 156.25 200.256 156.983 200.477 157.872 199.992 158.047 199.235 158.372 197.822 157.88 196.35 157.477 195.001 157.028 193.495 156.664 191.979 156.39 190.431 155.5 183.589 154.347 176.81 152.978 170.043 152.646 168.042 152.23 166.071 151.791 164.091 151.437 162.397 151.061 160.709 149.865 159.368 158.92 158.683 167.984 158.086 177.033 157.307 176.075 159.992 176.284 163.269 176.199 166.055 176.101 169.222 176.251 172.407 176.383 175.571 176.583 180.345 176.9 185.113 177.313 189.875 177.457 191.531 177.502 193.127 178.367 194.595 179.249 196.091 181.348 195.658 181.881 194.136 182.403 192.644 182.159 191.174 182.027 189.639 181.896 188.122 181.776 186.606 181.665 185.089 181.351 180.692 181.095 176.291 181.009 171.883 184.554 172.063 188.018 172.988 191.558 173.168 202.563 173.437 213.078 169.338 223.291 165.718 225.975 166.438 228.763 166.248 231.524 166.233 234.581 166.177 237.64 166.017 240.677 165.665 257.448 163.949 267.314 158.037 267.394 139.883 269.423 138.909 271.547 137.571 272.318 135.347 273.689 133.626 274.962 131.827 276.031 129.902 285.35 109.01 292.7 87.1141 298.204 64.9045 298.947 61.7634 299.603 58.6007 300.117 55.4133 300.873 51.7816 301.392 47.4018 298.174 44.7676ZM149.275 44.6669C152.425 46.6041 155.779 48.069 159.127 49.6231 189.581 62.206 188.504 80.1117 191.487 108.886 192.184 112.559 192.146 117.462 194.532 120.179 193.88 122.754 193.222 125.325 192.557 127.897 190.134 125.834 187.434 124.077 184.659 122.516 183.762 109.857 183.88 96.8085 179.313 84.7425 179.127 84.2289 178.322 84.4304 178.481 84.9721 181.941 96.6582 181.711 108.911 181.759 120.965 174.152 117.061 165.021 114.32 156.712 117.594 153.193 118.969 150.017 120.967 146.56 122.438 146.397 118.376 146.295 114.283 145.926 110.229 145.071 100.103 140.219 90.9506 138.731 80.949 137.902 76.305 138.273 71.3933 136.694 66.9045 138.557 63.7865 140.93 60.9838 142.696 57.7997 143.168 56.8897 143.579 55.9533 144.075 55.0549 144.653 55.6808 145.38 56.2209 145.882 56.9343 146.522 57.8427 146.996 58.8782 147.963 59.481 148.973 60.1102 150.466 59.0549 150.052 57.874 149.979 57.666 149.888 57.4562 149.789 57.2481 151.14 52.7956 148.99 47.2895 147.181 43.2416 147.86 43.747 148.555 44.2243 149.275 44.6669ZM185.214 146.2C185.26 146.123 185.297 146.04 185.323 145.956 185.586 145.586 185.68 145.094 185.424 144.631 183.052 140.572 179.12 137.408 175.026 135.177 174.971 135.147 175.004 135.063 175.066 135.079 178.174 135.977 181.118 137.624 183.667 139.627 185.282 140.876 186.552 142.458 188.122 143.736 187.777 144.526 187.373 145.29 186.874 146.012 186.319 146.077 185.766 146.139 185.214 146.2ZM135.693 148.792C139.527 149.746 143.418 148.729 147.142 147.105 147.132 148.005 147.089 149.1 147.49 149.892 142.285 150.372 137.086 150.927 131.897 151.555 131.839 151.561 131.814 151.485 131.864 151.457 133.125 150.755 134.767 149.939 135.693 148.792ZM148.882 148.294C148.79 147.685 148.688 147.076 148.42 146.522 148.808 146.339 149.195 146.149 149.578 145.958 153.626 147.834 158.656 148.182 162.985 147.1 165.165 146.513 167.143 145.38 169.196 144.47 170.342 143.943 171.568 143.703 172.712 143.191 175.417 144.418 178.334 146.04 181.437 146.625 170.636 147.986 159.791 148.906 148.939 149.759 149.053 149.285 148.958 148.793 148.882 148.294ZM151.761 144.823C157.062 141.715 163.163 139.132 169.226 141.712 162.265 145.229 159.692 146.139 151.761 144.823ZM143.754 54.6784C143.593 54.6437 143.586 54.4653 143.754 54.6784ZM135.314 31.9221C140.683 38.1269 146.047 44.7874 146.963 53.2481 144.83 50.4653 142.356 50.6949 140.84 53.8146 139.436 56.5727 137.786 59.0714 136.126 61.6808 137.609 48.391 137.86 47.1458 133.175 34.6158 132.65 32.6125 132.341 30.6273 132.627 28.5894 133.477 29.7339 134.404 30.8239 135.314 31.9221ZM121.583 62.8682C126.323 60.7394 127.606 55.1986 129.358 50.8006 130.812 47.3242 132.673 43.9171 133.142 40.1318 135.489 45.42 135.525 51.2663 134.741 56.9046 134.351 60.3926 133.421 64.5131 134.456 67.9632 133.396 72.4454 133.89 77.1109 134.445 81.6245 135.713 91.6277 140.593 100.69 141.824 110.699 142.149 113.193 142.372 115.697 142.724 118.187 142.952 119.799 143.011 121.915 143.826 123.454 133.119 127.55 122.179 130.883 111.094 133.801 111.9 129.928 113.135 126.176 114.328 122.41 116.769 113.616 118.305 104.521 118.622 95.3932 118.721 87.2297 117.888 79.0779 116.921 70.9805 116.584 68.4537 116.1 65.8178 114.967 63.5008 117.246 63.77 119.627 63.7055 121.583 62.8682ZM86.0902 22.0808C86.0951 22.0725 86.1001 22.0642 86.105 22.0576 86.0291 31.06 89.7565 40.5364 96.3461 46.6107 100.039 49.6495 103.986 52.5033 106.354 56.7791 104.288 56.0128 102.078 55.4942 100.159 54.3811 96.0719 51.9022 91.598 46.3349 86.7838 50.7593 84.9127 52.533 83.4246 54.8501 80.9127 55.7816 82.8367 45.9567 78.1398 35.3094 83.2628 26.1187 84.1051 24.6984 85.1951 23.4631 86.0902 22.0808ZM15.0172 163.282C10.9132 135.3 13.194 73.4891 32.591 51.9402 44.8651 39.9369 63.6477 39.7586 78.0737 31.6298 76.9656 38.3234 78.3743 45.0286 78.1877 51.742 78.0985 53.7568 77.5717 55.6313 77.3157 57.6115 77.1439 58.9409 79.0712 59.4744 79.8425 58.5743 82.508 58.6106 85.0068 57.5289 87.0266 55.7089 87.9432 54.8831 88.802 53.6082 89.9663 53.116 90.9027 52.7197 91.9035 53.4067 92.7095 53.9187 95.413 55.6362 97.6095 57.7568 100.61 58.9971 103.682 60.2654 107.728 60.8666 110.055 63.4314 113.459 67.4941 113.129 75.3718 113.836 80.5262 115.324 94.0571 114.265 107.732 110.546 120.835 109.314 125.251 106.709 130.133 107.571 134.802 103.575 135.946 99.5897 137.134 95.6326 138.41 87.3784 140.993 79.385 144.889 70.6749 145.657 64.7179 146.105 58.9806 144.23 53.1771 143.269 53.4067 141.698 53.1408 140.156 53.0335 138.574 52.9112 136.77 52.8716 134.962 52.8468 133.155 52.8402 122.891 51.443 112.554 53.0087 102.344 53.1755 101.289 51.633 100.805 51.3687 101.892 49.7321 108.632 49.671 115.613 49.7998 122.511 50.1218 129.041 49.3886 135.672 50.2919 142.153 47.0963 144.79 43.4778 146.798 39.9898 149.018 36.4357 151.38 33.4729 154.446 30.4672 157.449 25.5489 162.403 20.7199 167.619 17.4582 173.845 16.2493 170.418 15.5523 166.669 15.0172 163.282ZM75.1968 174.593C61.1011 179.812 38.9972 188.958 24.2624 183.343 21.7174 181.875 19.9222 179.325 18.6093 176.633 22.2872 169.936 27.463 164.256 32.8602 158.912 35.8874 155.906 38.837 152.952 42.4621 150.663 44.1599 149.591 45.9055 148.593 47.5934 147.503 48.8948 146.663 50.6701 145.67 51.7552 144.4 52.2275 144.473 52.7444 144.301 52.9988 143.9 59.4661 147.414 67.0565 148.808 74.3562 147.733 79.7054 146.856 84.7838 144.873 89.8738 143.079 105.791 137.366 122.495 134.148 138.326 128.197 142.967 126.432 147.707 125.061 152.093 122.704 166.142 113.509 179.868 121.168 192.174 129.37 191.726 131.089 191.274 132.808 190.816 134.526 186.207 129.74 181.075 124.323 174.035 123.959 170.938 123.824 167.89 124.443 164.821 124.746 164.141 124.813 164.134 125.75 164.821 125.809 167.602 126.054 170.395 126.067 173.178 126.262 181.13 126.792 184.796 132.638 190.015 137.533 189.719 138.653 189.445 139.786 189.122 140.901 184.72 135.873 174.593 130.141 167.948 132.529 163.731 131.593 159.332 131.72 155.229 133.257 155.029 133.333 155.039 133.664 155.284 133.655 165.186 133.021 175.464 135.738 181.647 143.968 179.384 143.5 177.257 142.56 175.17 141.596 169.148 138.445 162.557 136.762 156.116 139.826 152.522 141.462 149.193 143.619 145.591 145.242 141.18 147.229 136.896 147.454 132.27 146.09 131.651 145.908 131.328 146.767 131.844 147.102 132.397 147.46 132.954 147.761 133.512 148.02 131.125 149.604 128.628 150.811 126.174 152.276 118.405 153.29 110.66 154.476 102.941 155.822 101.652 156.047 101.818 157.776 102.795 158.255 103.112 159.766 103.971 160.981 105.081 162.024 95.1636 166.322 85.3288 170.813 75.1968 174.593ZM158.686 156.118C144.035 157.365 129.347 158.18 114.779 160.271 113.17 160.479 111.55 160.651 109.925 160.663 109.083 160.668 108.153 160.451 107.337 160.593 106.475 159.905 105.68 159.066 105.382 158.017 111.892 156.899 118.419 155.883 124.964 154.988 125.312 155.204 125.766 155.1 126.108 154.836 146.375 151.867 166.965 151.631 187.135 147.958 187.568 148.296 188.177 148.448 188.73 148.278 188.687 149.89 188.644 151.502 188.601 153.114 188.507 153.191 188.428 153.275 188.36 153.365 178.621 154.98 168.531 155.201 158.686 156.118ZM264.119 143.507C263.635 149.328 261.739 155.183 256.444 158.263 247.737 162.99 237.306 163.001 227.64 163.097 225.988 163.287 221.983 161.465 221.435 163.533 211.663 167.028 201.586 170.882 191.065 170.846 187.657 170.719 184.331 170.066 180.993 170.935 180.948 167.87 180.788 164.81 180.73 161.744 180.692 160.204 180.753 158.456 180.189 157.006 183.084 156.62 186.075 156.562 188.905 155.791 189.316 156.024 189.835 156.05 190.365 155.703 191.696 154.838 192.955 154.934 194.477 154.815 204.104 153.786 213.685 152.354 223.219 150.655 222.842 151.456 222.679 152.337 222.846 153.289 222.953 153.901 223.871 154.129 224.267 153.664 225.136 152.645 225.724 151.432 226.722 150.514 229.656 147.979 233.8 147.687 237.052 145.7 242.462 142.423 241.754 137.053 244.056 132.153 245.167 135.682 245.042 139.462 244.783 143.11 244.388 146.608 243.934 152.304 239.565 152.826 239.085 152.899 239.115 153.55 239.442 153.773 242.956 156.166 245.674 150.412 246.434 147.938 247.845 143.34 248.031 138.291 247.23 133.565 247.521 130.455 247.638 127.272 248.561 124.275 249.684 125.599 249.848 127.5 250.203 129.148 250.703 132.065 251.205 135.003 251.59 137.935 252.069 141.523 252.213 145.175 251.75 148.773 251.59 150.014 251.101 151.287 251.42 152.524 251.593 153.196 252.503 153.447 252.986 152.937 256.55 147.545 253.306 132.058 251.901 125.677 252.66 124.805 253.172 118.684 255.002 119.522 256.371 120.433 257.217 125.091 257.625 126.774 258.794 131.892 259.025 137.165 258.165 142.357 257.808 144.793 257.197 147.173 257.397 149.647 257.468 150.527 258.743 151.076 259.212 150.139 260.256 148.05 260.602 145.857 260.943 143.565 262.211 136.316 261.621 128.841 259.182 121.89 265.121 121.558 264.493 139.428 264.119 143.507ZM296.878 55.7832C292.825 77.5783 285.222 98.6252 277.217 119.241 276.059 122.138 275.009 125.157 273.532 127.91 272.145 130.494 270.396 132.836 268.488 135.056 268.3 135.276 268.191 135.53 268.145 135.793 267.91 135.984 267.661 136.158 267.4 136.321 267.256 131.556 265.927 116.861 258.358 120.026 255.252 114.572 251.02 118.102 250.845 123.282 250.365 122.595 249.737 122.088 248.901 121.951 245.632 121.484 246.001 127.011 245.569 129.132 242.406 125.51 240.144 135.018 239.671 137.063 238.883 140.07 237.607 142.475 234.718 143.872 232.18 145.1 229.362 145.675 226.895 147.074 220.208 147.571 213.465 149.401 206.735 150.164 203.597 150.623 200.448 150.95 197.303 151.36 195.217 151.631 192.993 151.505 190.968 152.04 190.918 150.161 190.867 148.28 190.818 146.4 190.813 146.194 190.74 146.004 190.626 145.845 191.652 143.764 192.208 141.495 192.821 139.238 199.635 114.148 205.166 88.7144 212.666 63.8096 214.497 58.4157 215.244 51.4695 220.695 48.4389 222.439 47.6115 224.451 46.9509 226.322 46.5727 243.679 45.7916 261.068 45.1755 278.444 44.6388 283.74 44.5315 294.214 43.3292 297.218 48.614 297.364 48.9773 297.458 49.3588 297.527 49.742 297.715 51.4001 297.222 53.8988 296.878 55.7832Z" fill="#000000" fill-rule="nonzero" fill-opacity="1" transform="matrix(1.00592 0 0 1 560 158)"/></g></g></g></g></svg>