<?xml version="1.0" encoding="utf-8"?>
<!-- Generator: Adobe Illustrator 26.5.0, SVG Export Plug-In . SVG Version: 6.00 Build 0)  -->
<svg version="1.1" id="레이어_1" xmlns="http://www.w3.org/2000/svg" xmlns:xlink="http://www.w3.org/1999/xlink" x="0px"
	 y="0px" viewBox="0 0 1080 900" style="enable-background:new 0 0 1080 900;" xml:space="preserve">
<style type="text/css">
	.st0{fill:#76777A;}
	.st1{fill:url(#SVGID_1_);}
	.st2{fill:url(#SVGID_00000060748995817495325180000004742981609493153196_);}
	.st3{fill:url(#SVGID_00000093160323975280904700000006754542819117512095_);}
	.st4{fill:url(#SVGID_00000125577925149574338490000013382733667847304609_);}
	.st5{fill:url(#SVGID_00000034088895471168413090000018158667198877627008_);}
	.st6{fill:#003B71;}
</style>
<g>
	<g>
		<g>
			<g>
				<g>
					<path class="st0" d="M1002.92,644.9c0,0-16.77,0-18.81,0c0,2.12,0,38.15,0,38.15h-21.35c0,0,0-36.03,0-38.15
						c-1.95,0-18.13,0-20.11,0c0,2.12,0,38.15,0,38.15s-26.25,0-28.39,0c0,1.94,0,15.88,0,17.8c2.24,0,136.41,0,138.68,0
						c0-1.93,0-15.86,0-17.8c-2.24,0-48.69,0-48.69,0s0-36.03,0-38.15C1003.6,644.9,1002.92,644.9,1002.92,644.9z"/>
					<path class="st0" d="M1040.53,663.08c0-2.23,0-76.43,0-78.65c-0.64,0-1.31,0-1.31,0s-116.54,0-118.78,0c0,1.93,0,15.84,0,17.78
						c2.24,0,100.03,0,100.03,0s0,58.65,0,60.88H1040.53z"/>
				</g>
				<g>
					<path class="st0" d="M86.72,689.21c0,19.9,18.03,36.09,40.18,36.09c22.18,0,40.22-16.19,40.22-36.09
						c0-19.94-18.04-36.2-40.22-36.2C104.74,653.02,86.72,669.27,86.72,689.21z M106,688.94c0-10.6,9.54-19.24,21.21-19.24
						c11.72,0,21.26,8.65,21.26,19.24c0,10.6-9.54,19.24-21.26,19.31C115.54,708.18,106,699.54,106,688.94z"/>
					<path class="st0" d="M166.37,581.45c0,0-16.64,0-18.69,0c0,2.1,0,22.79,0,22.79s-21.54,0-23.66,0c0,1.94,0,15.72,0,17.66
						c2.12,0,23.66,0,23.66,0s0,27.76,0,29.91c1.97,0,18.07,0,20.03,0c0-2.2,0-68.16,0-70.36
						C167.09,581.45,166.37,581.45,166.37,581.45z"/>
					<path class="st0" d="M76.47,581.05c0,0-47.91,55.67-49.37,57.43c1.55,1.26,14.04,11.46,15.56,12.69
						c1.39-1.73,34.78-41.75,34.78-41.75s31.3,38.02,32.7,39.75c1.53-1.24,13.98-11.42,15.56-12.69
						c-1.45-1.73-46.53-54.64-48.21-56.63C76.98,580.42,76.47,581.02,76.47,581.05z"/>
				</g>
				<g>
					<path class="st0" d="M570.83,683.32h83.85V714H675c0-2.24,0-74.2,0-74.2h11.82c0,0,0,71.91,0,74.13h20.13V581.12
						c-0.64,0-1.31,0-1.31,0s-16.77,0-18.82,0c0,2.25,0,40.82,0,40.82H675c0,0,0-38.57,0-40.82h-20.32v84.34
						c-16.07,0-63.86,0-63.86,0v-64.9c0,0,44.99,0,47.17,0v-16.78c0,0-0.12,0-0.3,0h-66.76L570.83,683.32z"/>
				</g>
				<path class="st0" d="M344.33,635.99c0,0-2.55,0-6.97,0v-52.43c-0.66,0-1.35,0-1.35,0s-117.52,0-119.8,0v18.04
					c2.28,0,100.82,0,100.82,0s0,21,0,34.39h-109.9v17.99c2.2,0,43.18,0,43.18,0s0,21.55,0,23.65h20.59c0-2.1,0-23.65,0-23.65h18.39
					c0,0,0,21.55,0,23.65h20.61c0-2.1,0-23.65,0-23.65s33.59,0,35.75,0v-17.99C344.97,635.99,344.33,635.99,344.33,635.99z
					 M236.58,666.37h-20.32v47.28h123.65v-18.03c-2.24,0-103.33,0-103.33,0S236.58,668.55,236.58,666.37z"/>
				<path class="st0" d="M413.18,666.37c-0.68,0-1.36,0-1.36,0s-16.94,0-18.97,0v47.28h124.54v-18.03c-2.27,0-104.21,0-104.21,0
					S413.18,668.55,413.18,666.37z M516.41,604.35c0,0,0-21.1,0-23.23c-0.63,0-1.31,0-1.31,0s-16.9,0-18.96,0v54.86h-20.61v-52.43
					c-0.64,0-1.31,0-1.31,0s-82.88,0-85.12,0v18.04c2.24,0,66.09,0,66.09,0s0,23.66,0,34.39c-11.51,0-20.44,0-20.44,0
					s0-17.13,0-19.15c-0.64,0-1.28,0-1.28,0s-17.28,0-19.34,0c0,2.02,0,19.15,0,19.15s-29.24,0-31.4,0v18.09h113.41v21.05h20.27
					c0-2.23,0-52.9,0-52.9s18.73,0,20.79,0v-17.88C535.14,604.35,516.41,604.35,516.41,604.35z"/>
				<g>
					<path class="st0" d="M874.87,581.16c0,0-16.68,0-18.71,0c0,2.21,0,75.91,0,78.17c1.93,0,18.04,0,20.02,0
						c0-2.24,0-37.71,0-37.71s18.31,0,20.38,0c0-1.94,0-15.71,0-17.63c-2.07,0-20.38,0-20.38,0s0-20.74,0-22.82
						C875.53,581.16,874.87,581.16,874.87,581.16z"/>
					<path class="st0" d="M874.66,668.55c0,0-122.69,0-125.03,0c0,1.94,0,15.86,0,17.83c2.32,0,106.29,0,106.29,0s0,25.11,0,27.26
						c1.95,0,18.08,0,20.07,0c0-2.16,0-42.93,0-45.09C875.31,668.55,874.66,668.55,874.66,668.55z"/>
					<path class="st0" d="M835.38,583.57h-37.27c-0.03,0-0.05-0.01-0.1-0.03v-12.29h-20.32v12.31h-37.85v17h13.65
						c-3.88,5.93-6.18,12.88-6.18,20.37c0,21.3,18.27,38.57,40.75,38.57c22.51,0,40.74-17.27,40.74-38.57
						c0-7.49-2.28-14.44-6.16-20.37h12.73V583.57z M788.55,639.88c-10.77,0-19.48-8.27-19.48-18.5c0-10.17,8.71-18.46,19.48-18.46
						c10.79,0,19.51,8.29,19.51,18.46C808.06,631.61,799.34,639.88,788.55,639.88z"/>
				</g>
				<g>
					<path class="st0" d="M949.92,751.84l-3.63,6.04c-3.04-6.22-9.33-6.26-9.33-6.26c-4.91-0.12-8.38,2.83-8.25,7.01
						c0.16,5.57,5.14,7.48,10.86,9.71c6.12,2.38,12.61,6.12,13.27,13.87c0.79,9.37-7.35,15.9-18.76,15.71
						c-11.15-0.21-16.64-7.77-16.64-7.77l3.08-7.1c0,0,3.5,9.83,15.44,10.17c5.34,0.16,9.37-3.81,9.17-9.01
						c-0.18-5.57-4.93-7.41-10.51-9.56c-6.24-2.41-13.31-5.16-13.57-13.98c-0.26-8.63,6.47-14.03,17.12-13.76
						C938.18,746.9,944.99,746.89,949.92,751.84z"/>
					<path class="st0" d="M90.23,751.84l-3.6,6.04c-3.03-6.22-9.33-6.26-9.33-6.26c-4.9-0.12-8.4,2.83-8.27,7.01
						c0.18,5.57,5.14,7.48,10.85,9.71c6.16,2.38,12.64,6.12,13.28,13.87c0.77,9.37-7.35,15.9-18.77,15.71
						c-11.11-0.21-16.61-7.77-16.61-7.77l3.07-7.1c0,0,3.51,9.83,15.48,10.17c5.31,0.16,9.31-3.81,9.14-9.01
						c-0.14-5.57-4.96-7.41-10.49-9.56c-6.25-2.41-13.34-5.16-13.62-13.98c-0.25-8.63,6.5-14.03,17.13-13.76
						C78.49,746.9,85.34,746.89,90.23,751.84z"/>
					<path class="st0" d="M249,752.34l-0.58-0.38c-1.1-0.72-7.39-4.64-18.21-4.64c-16.64,0-26.91,9.88-26.91,25.15
						c0,15.59,9.69,24.98,25.98,24.98c6.34,0,12.64-1.11,18.79-3.21l0.56-0.21v-18.99h-7.72l0.01,16.01
						c-3.41,1.65-7.14,2.06-9.77,2.06c-12.55,0-19.45-7.45-19.45-20.97c0-12.67,6.67-20.49,18.24-20.49c5.8,0,12.04,2.5,15.54,6.47
						l0.29,0.3L249,752.34z"/>
					<path class="st0" d="M340.92,748.23h-7.57l-12.46,22.24l-12.52-22.24h-9.63l17.42,28.17c0,0.47,0,20.21,0,20.21h7.7
						c0,0,0-20.42,0-20.83L340.92,748.23z"/>
					<path class="st0" d="M1048.52,748.23h-7.6l-12.45,22.24l-12.54-22.24h-9.63l17.44,28.17c0,0.47,0,20.21,0,20.21h7.72
						c0,0-0.01-20.42-0.01-20.83L1048.52,748.23z"/>
					<path class="st0" d="M280.82,770.64l22.32-22.41h-7.85l-20.99,21.08c0-1.44,0.01-21.08,0.01-21.08h-7.73v48.38h7.73v-23.44
						l19.65,23.44h9.8L280.82,770.64z"/>
					<path class="st0" d="M473.11,770.64l22.32-22.41h-7.9l-20.95,21.08c0-1.44,0.04-21.08,0.04-21.08h-7.73v48.38h7.74l-0.01-23.44
						l19.65,23.44h9.81L473.11,770.64z"/>
					<polygon class="st0" points="508.96,796.61 514.77,796.61 527.61,759.45 539.62,796.61 546.3,796.61 562.42,748.21 
						555.74,748.21 542.79,786.44 530.4,748.21 525.99,748.21 513.15,786.37 501.66,748.23 493.48,748.21 					"/>
					<path class="st0" d="M581.26,747.56h-3.42l-20.8,48.98l6.65,0.07l7.6-18.37h14.93l7.38,18.37h9.09L581.26,747.56z
						 M578.7,758.55c1.19,2.7,4.98,13.26,5.74,15.1H572.6L578.7,758.55z"/>
					<polygon class="st0" points="784.16,748.23 784.16,796.61 791.86,796.61 791.85,748.23 					"/>
					<rect x="961.47" y="748.23" class="st0" width="7.7" height="48.38"/>
					<path class="st0" d="M711.97,775.32c0,11.92-4.93,17.25-14.14,17.25c-10.36,0-13.92-4.68-13.92-17.33v-26.96h-7.68l0.01,27.64
						c0.08,5.95,0.76,12.35,5.13,16.34c3.83,3.47,9.08,5.14,15.88,5.14c13,0,20.23-7.15,20.23-20.41v-28.75h-5.53L711.97,775.32z"/>
					<path class="st0" d="M379.54,775.32c0,11.92-4.97,17.25-14.16,17.25c-10.36,0-13.94-4.68-13.94-17.33v-26.96h-7.66l0.01,27.64
						c0.08,5.95,0.75,12.35,5.12,16.34c3.84,3.47,9.1,5.14,15.9,5.14c13,0,20.21-7.15,20.21-20.41v-28.75h-5.51L379.54,775.32z"/>
					<path class="st0" d="M135.72,775.32c0,11.92-4.99,17.25-14.17,17.25c-10.35,0-13.91-4.68-13.91-17.33v-26.96h-7.68l0.01,27.64
						c0.08,5.95,0.72,12.35,5.13,16.34c3.81,3.47,9.07,5.36,15.89,5.36c12.96,0,20.19-7.38,20.19-20.63v-28.75h-5.49L135.72,775.32z
						"/>
					<polygon class="st0" points="816.88,796.61 821.27,796.61 841.55,748.23 834.58,748.23 819.32,786.7 804.09,748.23 
						795.47,748.23 					"/>
					<path class="st0" d="M853.33,791c0-1.48,0-16.22,0-17.7h16.79v-4.95l-16.79,0.04c0-1.45,0-14.53,0-15.98h18.26v-4.18h-25.92
						v48.38h26.38V791H853.33z"/>
					<path class="st0" d="M974.33,748.23v4.05h14.97c0,1.65,0,44.33,0,44.33H997v-44.32l14.4-0.01l-0.05-4.06L974.33,748.23z"/>
					<path class="st0" d="M881.72,796.61l7.69,0.04l-0.03-23.51l20.78,23.51h8.23l-20.65-23.48c7.96-0.33,14.97-5.86,14.97-12.85
						c0-8-4.99-12.09-15.72-12.09h-15.27V796.61z M889.38,768.55c0-1.39,0-14.7,0-16.14h7.35c6.07,0,8.65,3.58,8.46,7.91
						c-0.17,4.57-2.54,8.02-9.41,8.21L889.38,768.55z"/>
					<path class="st0" d="M194.82,748.23h-5.53v34.43c-12.01-12.84-33.39-34.43-33.39-34.43h-3.92v48.38h5.53c0,0,0-20.11,0-36.25
						l34.05,36.25h3.29L194.82,748.23z"/>
					<path class="st0" d="M439.15,748.23h-5.54v34.43c-11.97-12.84-33.33-34.43-33.33-34.43h-3.94v48.38h5.51c0,0,0-20.11,0-36.25
						l34.02,36.25h3.29L439.15,748.23z"/>
					<path class="st0" d="M649.41,748.23h-5.54v34.43c-11.97-12.84-33.37-34.43-33.37-34.43h-3.93v48.38h5.54c0,0,0-20.11,0-36.25
						l34.01,36.25h3.31L649.41,748.23z"/>
					<path class="st0" d="M771.68,748.23h-5.5v34.43c-12.01-12.84-33.38-34.43-33.38-34.43h-3.93v48.38h5.52c0,0,0-20.11,0-36.25
						l34.05,36.25h3.3L771.68,748.23z"/>
				</g>
			</g>
		</g>
		<linearGradient id="SVGID_1_" gradientUnits="userSpaceOnUse" x1="607.0277" y1="321.3383" x2="458.714" y2="237.4424">
			<stop  offset="0" style="stop-color:#FFFFFF"/>
			<stop  offset="0.2" style="stop-color:#E8EC8F"/>
			<stop  offset="0.76" style="stop-color:#ABCD03"/>
			<stop  offset="1" style="stop-color:#8FC31F"/>
		</linearGradient>
		<path class="st1" d="M585.38,250.55c0-44.37,35.87-80.34,80.13-80.34c10.72,0,20.91,2.11,30.26,5.93
			c-70.88-65.41-181.4-63.73-250.21,5.07c-66.69,66.71-70.31,172.53-10.96,243.5c15.42-20.15,36.48-43.4,62.37-61.6
			c20.2-14.21,48.23-28.43,70.78-30.54c21.33-2.02,53.09,0.05,72.33,9.27c-15.03-15.41-30.89-32.7-38.66-43.06
			C591.35,285.37,585.38,268.66,585.38,250.55z"/>
		
			<linearGradient id="SVGID_00000129205593220694420070000009486877127387626927_" gradientUnits="userSpaceOnUse" x1="594.6663" y1="266.1655" x2="456.362" y2="173.6637">
			<stop  offset="0" style="stop-color:#E6EB91"/>
			<stop  offset="0.0209" style="stop-color:#E1E888"/>
			<stop  offset="0.0907" style="stop-color:#D3E16E"/>
			<stop  offset="0.1527" style="stop-color:#CADC5E"/>
			<stop  offset="0.2" style="stop-color:#C7DB58"/>
			<stop  offset="0.4" style="stop-color:#A3C910"/>
			<stop  offset="0.7027" style="stop-color:#83BC25"/>
			<stop  offset="1" style="stop-color:#66B22F"/>
		</linearGradient>
		<path style="fill:url(#SVGID_00000129205593220694420070000009486877127387626927_);" d="M579.66,309.31l-84.69-163.16
			c-15.65,7.53-30.44,17.45-43.83,29.76l127.97,133.17L579.66,309.31z"/>
		
			<linearGradient id="SVGID_00000026862843789292682480000007166393449937158569_" gradientUnits="userSpaceOnUse" x1="613.5242" y1="237.9691" x2="475.2368" y2="145.4787">
			<stop  offset="0" style="stop-color:#E6EB91"/>
			<stop  offset="0.0209" style="stop-color:#E1E888"/>
			<stop  offset="0.0907" style="stop-color:#D3E16E"/>
			<stop  offset="0.1527" style="stop-color:#CADC5E"/>
			<stop  offset="0.2" style="stop-color:#C7DB58"/>
			<stop  offset="0.4" style="stop-color:#A3C910"/>
			<stop  offset="0.7027" style="stop-color:#83BC25"/>
			<stop  offset="1" style="stop-color:#66B22F"/>
		</linearGradient>
		<path style="fill:url(#SVGID_00000026862843789292682480000007166393449937158569_);" d="M580.12,309.47l11.2-180.23
			c-14.63-1.45-29.44-1.13-44,1l32.66,179.17L580.12,309.47z"/>
		
			<linearGradient id="SVGID_00000085956629542771141460000016146165373180374680_" gradientUnits="userSpaceOnUse" x1="545.2402" y1="340.0786" x2="406.9253" y2="247.5697">
			<stop  offset="0" style="stop-color:#E6EB91"/>
			<stop  offset="0.0209" style="stop-color:#E1E888"/>
			<stop  offset="0.0907" style="stop-color:#D3E16E"/>
			<stop  offset="0.1527" style="stop-color:#CADC5E"/>
			<stop  offset="0.2" style="stop-color:#C7DB58"/>
			<stop  offset="0.4" style="stop-color:#A3C910"/>
			<stop  offset="0.7027" style="stop-color:#83BC25"/>
			<stop  offset="1" style="stop-color:#66B22F"/>
		</linearGradient>
		<path style="fill:url(#SVGID_00000085956629542771141460000016146165373180374680_);" d="M579.11,309.09l-174.49-64.83
			c-5.93,15.5-9.65,31.62-11.17,47.93l186.14,17.37L579.11,309.09z"/>
		
			<linearGradient id="SVGID_00000056402997022933776610000006330979808500383661_" gradientUnits="userSpaceOnUse" x1="528.2046" y1="365.552" x2="389.8852" y2="273.0401">
			<stop  offset="0" style="stop-color:#E6EB91"/>
			<stop  offset="0.0209" style="stop-color:#E1E888"/>
			<stop  offset="0.0907" style="stop-color:#D3E16E"/>
			<stop  offset="0.1527" style="stop-color:#CADC5E"/>
			<stop  offset="0.2" style="stop-color:#C7DB58"/>
			<stop  offset="0.4" style="stop-color:#A3C910"/>
			<stop  offset="0.7027" style="stop-color:#83BC25"/>
			<stop  offset="1" style="stop-color:#66B22F"/>
		</linearGradient>
		<path style="fill:url(#SVGID_00000056402997022933776610000006330979808500383661_);" d="M394.55,334.95
			c1.83,12.59,4.99,25.01,9.47,37.09l175.04-62L394.55,334.95z"/>
		<path class="st6" d="M431.25,468.9c-5.25-4.6-14.24-13.09-22.28-23.46c-36.89-41.41-79.02-149.96-8.92-248.42
			c28.94-40.58,70.45-67.92,111.7-78.99c96.19-25.86,170.09,19.62,203.91,56.23c3.77,4.06,3.24,9.27,0.38,11.7
			c-4.22,3.51-7.99,1.68-16.44-0.77c-13.2-3.84-24.54-4.73-36.75-3.17c-28.24,3.59-52.73,29.8-49.33,66.4
			c3.1,33.43,28.87,57.54,46.98,73.49c63.54,55.96,42.29,115.95,37.11,129.13c-17.58,44.75-62.6,76.31-120.99,76.31
			c-24.26,0-59.26-6.3-94.5-28.62c-1.35-0.6-2.7-2.42-1.03-5.41c2.69-6.81,13.94-26.67,18.77-32.37
			c17.5,20.23,47.04,39.25,79.86,40.44c44.85,1.64,73.75-22.61,84.36-53.43c11.9-34.6-0.77-69.89-34.28-101.71
			c-28.91-27.43-54.68-52.82-56.19-96.34c-1.91-55.75,46.62-88.86,91.73-86.66c1.38,0.07-62.37-45.9-144.13-18.52
			c-40.03,13.44-64.01,37.05-75.47,50.49c-1.74,2.08-0.66,3.67-0.08,4.49c1.28,1.83,29.08,40.61,29.08,40.61l-50.12-11.53
			c0,0-2.11-0.51-3.14,1.22c-15.93,27.48-39.42,106.94,13.03,179.3c0,0,44.67-70.77,133.37-76.79c5.89-0.38,5.15,1.7,1.26,3.13
			c-79.23,29.1-110.5,87.25-130.7,132.02C437.19,470.43,433.92,471.25,431.25,468.9z"/>
		<path class="st0" d="M512.91,414.3c0,0,4.95-2.21,6.34-2.99l0.05,34.36h6.17v-40.4l-1-0.67l-0.33,0.16
			c-4.51,2.25-9.16,4.34-13.07,5.96L512.91,414.3z"/>
		<path class="st0" d="M545.92,425.44c5.06,0,7.49,2.62,7.49,7.94c0,5.48-3.39,9.01-8.63,9.01c-3.77,0-6.37-2.54-7.3-3.65
			l-0.75-0.89l-1.51,5.34l0.47,0.24c2.17,1.03,4.91,2.07,8.97,2.07c8.86,0,15.29-5.4,15.29-12.82c0-6.83-5.24-8.79-8.48-9.34
			c3.54-1.51,6.65-4.68,6.65-9.51c0-5.67-4.47-9.16-11.62-9.2c-6.08-0.01-9.21,3.96-9.21,3.96l2.67,4.65l0.46-1.32
			c0.71-2.08,2.95-4.18,5.84-4.18c2.54,0,5.54,1.69,5.54,6.46c0,3.72-1.01,8.16-5.91,8.16l-3.21-0.27v3.81
			C542.72,425.89,544.52,425.43,545.92,425.44z"/>
		<path class="st0" d="M568.48,437.48l1.62,6.55c0,0,2.58,1.49,6.2,1.47c10.38-0.03,17.63-9.73,17.63-23.67
			c0-15.52-9.5-17.2-13.55-17.2c-7.9,0-13.41,5.33-13.41,12.94c0,7.47,4.55,12.09,11.82,12.09c3.71,0,6.59-1.44,8.71-4.17
			c-0.42,8.69-3.84,16.6-10.91,16.64C570.89,442.19,568.48,437.48,568.48,437.48z M579.78,426.27c-4.35,0-6.47-2.84-6.47-8.7
			c0-5.88,2.82-9.84,7.02-9.84c4.23,0,7.03,3.34,7.03,8.33C587.36,421.15,584.75,426.27,579.78,426.27z"/>
		<path class="st0" d="M618.62,422.26c3.54-1.58,5.8-4.77,5.8-8.55c0-4.18-3.04-9.08-11.61-9.08c-6.52,0-11.45,4.19-11.45,9.77
			c0,4.14,2.84,7.05,5.86,8.17c-5.04,2.02-7.87,5.84-7.87,11.07c0,7.1,5.4,11.86,13.47,11.86c7.81,0,13.45-5.54,13.45-13.19
			C626.27,425.25,621.07,422.95,618.62,422.26z M607.35,414.45c0-1.56,0.37-6.72,5.52-6.72c5.06,0,5.61,4.7,5.61,6.72
			c0,1.58-0.39,6.76-5.61,6.76C607.72,421.21,607.35,416.04,607.35,414.45z M612.81,442.4c-4.28,0-7.15-3.64-7.15-9.05
			c0-5.4,2.87-9.03,7.15-9.03c4.27,0,7.15,3.63,7.15,9.03C619.97,438.83,617.15,442.4,612.81,442.4z"/>
	</g>
</g>
</svg>
