<?xml version="1.0" encoding="utf-8"?>
<!-- Generator: Adobe Illustrator 26.5.0, SVG Export Plug-In . SVG Version: 6.00 Build 0)  -->
<svg version="1.1" id="레이어_1" xmlns="http://www.w3.org/2000/svg" xmlns:xlink="http://www.w3.org/1999/xlink" x="0px"
	 y="0px" viewBox="0 0 1080 900" style="enable-background:new 0 0 1080 900;" xml:space="preserve">
<style type="text/css">
	.st0{fill:#FFFFFF;}
	.st1{fill:none;}
	.st2{fill:#76777A;}
	.st3{fill:url(#SVGID_1_);}
	.st4{fill:url(#SVGID_00000021802487273591018430000009684979913229095566_);}
	.st5{fill:url(#SVGID_00000029023062768743845870000003904959672663525043_);}
	.st6{fill:url(#SVGID_00000170278218239667169830000004295955690248933265_);}
	.st7{fill:url(#SVGID_00000010990011226021740920000003735017045579753376_);}
	.st8{fill:#003B71;}
</style>
<g>
	<circle class="st0" cx="544.26" cy="440.45" r="408.51"/>
	<path class="st1" d="M935.16,440.45c0,215.87-175.05,390.87-390.89,390.87c-215.89,0-390.87-175-390.87-390.87
		c0-215.87,174.97-390.87,390.87-390.87C760.1,49.59,935.16,224.59,935.16,440.45z"/>
	<path class="st1" d="M848.57,440.45c0,168.06-136.24,304.3-304.3,304.3c-168.04,0-304.28-136.24-304.28-304.3
		c0-168.04,136.24-304.28,304.28-304.28C712.33,136.17,848.57,272.41,848.57,440.45z"/>
	<path class="st1" d="M792.78,436.45c0,136.44-110.6,247.02-246.97,247.02c-136.5,0-247.05-110.58-247.05-247.02
		s110.55-247.02,247.05-247.02C682.17,189.42,792.78,300,792.78,436.45z"/>
	<g>
		<g>
			<path class="st2" d="M793.8,666.57c0,0-6.32,6.65-7.06,7.45c0.8,0.77,15.03,14.38,15.03,14.38l-8.01,8.45
				c0,0-14.28-13.59-15.08-14.41c-0.75,0.77-6.86,7.14-7.58,7.94c0.8,0.8,15.1,14.43,15.1,14.43s-9.97,10.35-10.71,11.2
				c0.72,0.72,6.24,5.99,6.96,6.7c0.87-0.9,51.47-53.91,52.37-54.79c-0.8-0.74-6.29-5.99-7.04-6.73
				c-0.85,0.87-18.39,19.24-18.39,19.24s-14.26-13.59-15.03-14.41C794.09,666.31,793.8,666.57,793.8,666.57z"/>
			<path class="st2" d="M815.25,658.55c-0.92-0.82-30.26-28.82-31.16-29.67c-0.21,0.26-0.49,0.51-0.49,0.51s-43.92,46.03-44.8,46.95
				c0.74,0.75,6.24,5.96,6.99,6.7c0.85-0.9,37.78-39.56,37.78-39.56s23.14,22.17,24.07,22.99L815.25,658.55z"/>
		</g>
		<path class="st2" d="M277.54,680.98c-7.65,7.17-7.48,19.98,0.54,28.54c8.01,8.58,20.81,9.71,28.46,2.54
			c7.71-7.19,7.42-20.03-0.54-28.59C297.99,674.91,285.25,673.78,277.54,680.98z M284.6,688.32c4.08-3.8,10.87-3.24,15.08,1.26
			c4.24,4.55,4.34,11.35,0.21,15.18c-4.11,3.83-10.84,3.26-15.08-1.28C280.6,698.96,280.55,692.15,284.6,688.32z"/>
		<path class="st2" d="M347.92,672.89c0,0-6.01-6.4-6.78-7.17c-0.8,0.72-8.78,8.19-8.78,8.19s-7.76-8.35-8.5-9.14
			c-0.77,0.69-6.11,5.68-6.83,6.37c0.72,0.77,8.53,9.12,8.53,9.12s-10.74,10.04-11.58,10.79c0.72,0.77,6.52,6.99,7.24,7.73
			c0.87-0.77,26.35-24.58,27.15-25.35C348.13,673.17,347.92,672.89,347.92,672.89z"/>
		<path class="st2" d="M315.61,638.03c0,0-38.73,1.57-39.92,1.62c0.02,1.05,0.59,9.56,0.69,10.58c1.13-0.08,28.61-1.59,28.61-1.59
			s-3.39,25.79-3.52,26.95c1,0.15,9.43,1.31,10.48,1.44c0.18-1.18,4.37-37.66,4.5-39.04C316.04,637.98,315.61,638.03,315.61,638.03z
			"/>
		<path class="st2" d="M633.22,802.29l10.48-1.8l-11.77-69.15c-0.38,0.05-0.74,0.08-0.74,0.08s-8.71,1.54-9.79,1.7
			c0.18,1.18,3.65,21.24,3.65,21.24l-6.19,1.08c0,0-3.42-20.09-3.65-21.27L604.65,736l7.48,43.92c-8.35,1.39-33.26,5.68-33.26,5.68
			l-5.78-33.8c0,0,23.5-4.01,24.63-4.19l-1.49-8.76c0,0-0.08,0-0.21,0.03l-34.83,5.93c2.11,12.46,8.66,50.86,8.86,51.83l43.72-7.42
			l2.67,15.95l10.58-1.8c-0.13-1.16-6.58-38.66-6.58-38.66l6.17-1.03C626.61,763.69,632.98,801.16,633.22,802.29z"/>
		<path class="st2" d="M419.51,748.79c0,0-1.16-0.64-3.21-1.75l13.07-24.45c-0.33-0.15-0.62-0.31-0.62-0.31
			s-54.84-29.28-55.89-29.85l-4.47,8.4c1.05,0.59,46.95,25.12,46.95,25.12s-5.19,9.79-8.55,16.03l-51.22-27.36l-4.44,8.4
			c1.03,0.51,20.11,10.71,20.11,10.71s-5.37,10.07-5.88,11.05l9.58,5.14c0.54-0.98,5.91-11.02,5.91-11.02l8.58,4.55
			c0,0-5.37,10.07-5.91,11.02l9.61,5.16c0.51-0.98,5.91-11.05,5.91-11.05s15.64,8.37,16.67,8.91l4.47-8.4
			C419.89,748.94,419.51,748.79,419.51,748.79z M361.79,736.1l-9.53-5.03L340.5,753.1l57.67,30.77l4.47-8.4
			c-1.05-0.57-48.16-25.69-48.16-25.69S361.25,737.13,361.79,736.1z"/>
		<path class="st2" d="M465.02,778.84c-0.33-0.03-0.67-0.08-0.67-0.08s-8.86-1.41-9.91-1.57l-3.9,24.66l65.01,10.3l1.44-9.4
			c-1.16-0.18-54.38-8.6-54.38-8.6S464.87,780,465.02,778.84z M524.05,755c0,0,1.72-11.02,1.9-12.12c-0.31-0.03-0.64-0.08-0.64-0.08
			s-8.84-1.41-9.91-1.57l-4.57,28.64l-10.76-1.7l4.37-27.38c-0.33-0.05-0.69-0.1-0.69-0.1s-43.23-6.86-44.44-7.04l-1.46,9.43
			c1.18,0.15,34.5,5.44,34.5,5.44s-1.93,12.36-2.85,17.98c-5.99-0.95-10.69-1.7-10.69-1.7s1.46-8.96,1.59-10.04
			c-0.31-0.02-0.67-0.08-0.67-0.08s-9.02-1.44-10.07-1.62c-0.21,1.08-1.62,10.02-1.62,10.02s-15.28-2.41-16.36-2.59l-1.49,9.43
			l59.16,9.38l-1.7,10.97l10.58,1.7c0.15-1.16,4.34-27.61,4.34-27.61s9.79,1.54,10.84,1.72l1.49-9.32
			C533.81,756.57,524.05,755,524.05,755z"/>
		<path class="st2" d="M716,689.91c0,0-7.68,4.24-8.68,4.78c0.56,1.03,19.42,35.09,20.01,36.14c0.87-0.51,8.35-4.62,9.27-5.14
			c-0.56-1-9.63-17.44-9.63-17.44s8.48-4.67,9.4-5.19c-0.46-0.9-3.98-7.27-4.52-8.17c-0.92,0.54-9.38,5.21-9.38,5.21
			s-5.34-9.58-5.86-10.58C716.28,689.73,716,689.91,716,689.91z"/>
		<path class="st2" d="M738.3,730.37c0,0-56.82,31.39-57.84,31.98c0.49,0.9,4.06,7.35,4.57,8.25c1.05-0.59,49.16-27.18,49.16-27.18
			s6.4,11.63,6.94,12.61c0.95-0.51,8.4-4.65,9.3-5.16c-0.54-1-10.99-19.86-11.56-20.83C738.55,730.19,738.3,730.37,738.3,730.37z"/>
		<path class="st2" d="M698.35,701.11l-17.21,9.55c-0.02,0-0.02,0-0.02,0l-3.19-5.7l-9.4,5.21l3.16,5.7l-17.49,9.68l4.34,7.86
			l6.32-3.47c-0.31,3.7,0.41,7.5,2.34,10.99c5.5,9.81,18.34,13.15,28.72,7.4c10.38-5.75,14.43-18.42,8.96-28.28
			c-1.93-3.47-4.73-6.06-8.04-7.81l5.86-3.26L698.35,701.11z M691.09,739.13c-4.96,2.77-11.07,1.18-13.69-3.57
			c-2.65-4.7-0.69-10.76,4.26-13.54c5.01-2.72,11.12-1.16,13.74,3.6C698,730.32,696.07,736.38,691.09,739.13z"/>
	</g>
	<g>
		<path class="st2" d="M908.24,469.14l-8.09-5.09c8.53-3.9,8.86-12.43,8.86-12.43c0.33-6.65-3.6-11.48-9.27-11.43
			c-7.55,0.03-10.27,6.7-13.43,14.38c-3.47,8.27-8.81,16.93-19.34,17.52c-12.71,0.77-21.27-10.51-20.65-25.94
			c0.69-15.08,11.05-22.27,11.05-22.27l9.61,4.39c0,0-13.48,4.42-14.31,20.65c-0.44,7.17,4.83,12.74,11.92,12.71
			c7.5-0.05,10.17-6.47,13.25-13.95c3.47-8.37,7.45-17.88,19.39-17.93c11.74-0.1,18.85,9.2,18.13,23.66
			C915.35,453.42,915.12,462.64,908.24,469.14z"/>
		<path class="st2" d="M204.44,573.79l9.48,1.05c-5.96,7.27-2.47,15.03-2.47,15.03c2.62,6.16,8.22,8.76,13.33,6.24
			c6.75-3.34,6.29-10.51,5.81-18.83c-0.51-8.94,0.46-19.03,9.66-24.2c11.12-6.27,23.76,0.1,29.95,14.31
			c5.99,13.82-0.23,24.86-0.23,24.86l-10.51,0.21c0,0,10.17-9.84,3.83-24.81c-2.77-6.6-9.94-9.35-16.26-6.22
			c-6.76,3.34-6.35,10.27-5.88,18.37c0.57,9.07,1.16,19.32-9.58,24.61c-10.51,5.19-20.96-0.05-26.61-13.33
			C204.95,591.08,201.07,582.65,204.44,573.79z"/>
		<path class="st2" d="M194.45,335.65l-0.69,0.69c-1.23,1.21-8.19,8.45-11.17,22.84c-4.62,22.06,5.6,38.48,25.89,42.69
			c20.76,4.37,35.78-5.93,40.35-27.51c1.72-8.45,2.05-17.11,0.95-25.84l-0.1-0.8l-25.2-5.27l-2.13,10.25l21.24,4.39
			c1.26,4.96,0.72,10.07,0,13.51c-3.49,16.7-15.31,23.81-33.24,20.03c-16.77-3.47-25.3-14.56-22.12-29.87
			c1.59-7.73,6.65-15.31,12.94-18.85l0.46-0.26L194.45,335.65z"/>
		<path class="st2" d="M258.28,204.4l-5.93,8.37l14.87,31.16l-34.42-3.44l-7.5,10.66l44.82,2.65c0.57,0.39,22.42,15.75,22.42,15.75
			l6.01-8.55c0,0-22.6-15.87-23.07-16.21L258.28,204.4z"/>
		<path class="st2" d="M870.74,616.25l4.19-9.38l-20.7-27.64l34.47-3.34l5.27-11.94l-44.44,6.16c-0.64-0.26-25.1-11.07-25.1-11.07
			l-4.21,9.58c0,0,25.25,11.15,25.74,11.38L870.74,616.25z"/>
		<path class="st2" d="M237.47,295.97l-13.87-40.61l-4.73,9.56l13.05,38.14c-1.77-0.85-25.63-12.64-25.63-12.64l-4.62,9.4
			l58.85,28.97l4.62-9.4l-28.46-14.02l40.22-9.84l5.91-11.92L237.47,295.97z"/>
		<path class="st2" d="M434.02,119.76l19.42-38.22l-10.15,3.26l-18.24,35.96c-0.62-1.88-8.76-27.2-8.76-27.2l-9.97,3.24l20.24,62.37
			l9.94-3.24l-9.81-30.23l35.14,22.04l12.66-4.11L434.02,119.76z"/>
		<polygon class="st2" points="488.71,140.54 496.54,139.74 508.95,87.94 530.09,136.46 539.05,135.58 554.36,68.13 545.37,69.06 
			532.94,122.35 511.21,72.4 505.22,72.99 492.97,126.21 472.37,76.22 461.38,77.3 		"/>
		<path class="st2" d="M590.58,73.06L586,72.5l-35.99,62.55l8.94,1.13l13.28-23.48l20.09,2.44l6.91,25.94l12.25,1.49L590.58,73.06z
			 M585.44,87.42c1.1,3.85,4.44,18.67,5.21,21.29l-15.98-1.95L585.44,87.42z"/>
		
			<rect x="790.48" y="246.78" transform="matrix(0.8288 -0.5596 0.5596 0.8288 -0.0582 503.821)" class="st2" width="65.55" height="10.45"/>
		<polygon class="st2" points="909.86,494.14 845.15,483.68 843.46,493.98 908.16,504.41 		"/>
		<path class="st2" d="M749.55,177.5c-9.17,13.36-18.8,15.51-29.08,8.48c-11.61-7.96-11.97-15.95-2.31-30.08l20.7-30.15l-8.58-5.91
			l-21.17,30.95c-4.5,6.7-8.71,14.36-6.78,22.22c1.59,6.78,6.19,12.66,13.77,17.9c14.57,9.94,28.13,7.5,38.27-7.29l22.09-32.16
			l-6.14-4.24L749.55,177.5z"/>
		<path class="st2" d="M325.91,188.29c11.3,11.58,11.53,21.45,2.7,30.16c-10.07,9.84-17.98,8.68-29.98-3.57l-25.56-26.15l-7.45,7.3
			l26.23,26.79c5.68,5.7,12.43,11.25,20.45,10.94c7.01-0.28,13.69-3.65,20.29-10.09c12.56-12.3,12.79-26.12,0.23-38.94l-27.25-27.87
			l-5.39,5.24L325.91,188.29z"/>
		<path class="st2" d="M215.74,497.53c15.74-3.75,24.35,1.1,27.2,13.25c3.26,13.67-1.8,19.83-18.52,23.79l-35.6,8.45l2.41,10.12
			l36.5-8.68c7.83-1.98,16.03-4.8,19.91-11.92c3.37-6.09,4.29-13.64,2.13-22.58c-4.03-17.13-16.11-24.38-33.52-20.24l-37.94,8.99
			l1.7,7.32L215.74,497.53z"/>
		<polygon class="st2" points="813.79,299.28 816.51,304.55 887.38,299.13 883.09,290.65 827.22,296.07 864.21,253.89 
			858.82,243.49 		"/>
		<path class="st2" d="M839.01,339.45c1.93-0.59,20.96-6.6,22.91-7.19l6.83,21.68l6.34-2l-6.83-21.68
			c1.85-0.59,18.78-5.93,20.63-6.52l7.48,23.61l5.37-1.7l-10.58-33.52l-62.49,19.73l10.74,34.11l7.24-2.29L839.01,339.45z"/>
		<path class="st2" d="M906.85,516.53l-5.24-1.49l-5.55,19.57c-2.18-0.59-57.84-16.26-57.84-16.26l-2.8,9.99l57.77,16.29
			l-5.24,18.78l5.32,1.46L906.85,516.53z"/>
		<path class="st2" d="M842.3,376.21l1.28,10.33l31.62-4.13l-28.02,32.06l1.49,11.02l27.92-31.88
			c1.87,10.66,10.48,19.14,19.93,17.88c10.74-1.41,15.36-8.81,13.41-23.27l-2.67-20.52L842.3,376.21z M881.32,381.58
			c1.9-0.26,19.8-2.59,21.68-2.88l1.31,9.86c1.08,8.19-3.21,12.28-9.14,12.82c-6.11,0.57-11.15-2-12.64-11.22L881.32,381.58z"/>
		<path class="st2" d="M371.7,112.57l-6.34,4.03L390.3,156c-23.07-5.98-63.21-15.21-63.21-15.21l-4.47,2.85l35.06,55.41l6.29-4.03
			c0,0-14.54-23.04-26.25-41.51l65.24,16.82l3.8-2.39L371.7,112.57z"/>
		<path class="st2" d="M174.15,417.82l0.18,7.53l46.59-0.95c-17.03,16.62-45.67,46.18-45.67,46.18l0.03,5.32l65.58-1.34l-0.15-7.5
			c0,0-27.25,0.59-49.09,1l48.19-47.08l-0.13-4.5L174.15,417.82z"/>
		<path class="st2" d="M689.29,99.42l-7.11-2.39l-14.92,44.21c-9.81-21.68-27.95-58.69-27.95-58.69l-5.03-1.7l-20.96,62.11
			l7.11,2.41c0,0,8.73-25.86,15.75-46.57l27.97,61.31l4.21,1.44L689.29,99.42z"/>
		<path class="st2" d="M834.49,210.12l-5.11-5.5l-34.21,31.72c1.7-23.73,3.44-64.91,3.44-64.91l-3.65-3.9l-48.06,44.59l5.11,5.5
			c0,0,20.01-18.55,36.01-33.39l-4.62,67.2l3.03,3.29L834.49,210.12z"/>
	</g>
	<g>
		<g>
			<linearGradient id="SVGID_1_" gradientUnits="userSpaceOnUse" x1="594.0499" y1="443.9786" x2="415.0566" y2="342.7284">
				<stop  offset="0" style="stop-color:#FFFFFF"/>
				<stop  offset="0.2" style="stop-color:#E8EC8F"/>
				<stop  offset="0.76" style="stop-color:#ABCD03"/>
				<stop  offset="1" style="stop-color:#8FC31F"/>
			</linearGradient>
			<path class="st3" d="M567.9,358.54c0-53.55,43.36-96.99,96.76-96.99c12.89,0,25.25,2.59,36.53,7.19
				c-85.59-78.96-218.95-76.93-301.99,6.14c-80.5,80.47-84.87,208.21-13.23,293.87c18.57-24.32,44.03-52.4,75.26-74.36
				c24.38-17.13,58.23-34.29,85.41-36.86c25.76-2.41,64.09,0.08,87.31,11.2c-18.16-18.6-37.3-39.45-46.67-51.96
				C575.09,400.56,567.9,380.4,567.9,358.54z"/>
			
				<linearGradient id="SVGID_00000005256926021729891290000001572384636609032842_" gradientUnits="userSpaceOnUse" x1="579.1328" y1="377.3839" x2="412.1885" y2="265.7269">
				<stop  offset="0" style="stop-color:#E6EB91"/>
				<stop  offset="0.0209" style="stop-color:#E1E888"/>
				<stop  offset="0.0907" style="stop-color:#D3E16E"/>
				<stop  offset="0.1527" style="stop-color:#CADC5E"/>
				<stop  offset="0.2" style="stop-color:#C7DB58"/>
				<stop  offset="0.4" style="stop-color:#A3C910"/>
				<stop  offset="0.7027" style="stop-color:#83BC25"/>
				<stop  offset="1" style="stop-color:#66B22F"/>
			</linearGradient>
			<path style="fill:url(#SVGID_00000005256926021729891290000001572384636609032842_);" d="M561.04,429.43L458.81,232.55
				c-18.88,9.07-36.76,21.06-52.94,35.91l154.48,160.72L561.04,429.43z"/>
			
				<linearGradient id="SVGID_00000174590226540848064650000012653212828653251203_" gradientUnits="userSpaceOnUse" x1="601.8958" y1="343.3653" x2="434.959" y2="231.7133">
				<stop  offset="0" style="stop-color:#E6EB91"/>
				<stop  offset="0.0209" style="stop-color:#E1E888"/>
				<stop  offset="0.0907" style="stop-color:#D3E16E"/>
				<stop  offset="0.1527" style="stop-color:#CADC5E"/>
				<stop  offset="0.2" style="stop-color:#C7DB58"/>
				<stop  offset="0.4" style="stop-color:#A3C910"/>
				<stop  offset="0.7027" style="stop-color:#83BC25"/>
				<stop  offset="1" style="stop-color:#66B22F"/>
			</linearGradient>
			<path style="fill:url(#SVGID_00000174590226540848064650000012653212828653251203_);" d="M561.58,429.66l13.51-217.51
				c-17.7-1.77-35.5-1.39-53.12,1.16l39.43,216.25L561.58,429.66z"/>
			
				<linearGradient id="SVGID_00000047059158528031621620000008327482799002891433_" gradientUnits="userSpaceOnUse" x1="519.4609" y1="466.5671" x2="352.5327" y2="354.9209">
				<stop  offset="0" style="stop-color:#E6EB91"/>
				<stop  offset="0.0209" style="stop-color:#E1E888"/>
				<stop  offset="0.0907" style="stop-color:#D3E16E"/>
				<stop  offset="0.1527" style="stop-color:#CADC5E"/>
				<stop  offset="0.2" style="stop-color:#C7DB58"/>
				<stop  offset="0.4" style="stop-color:#A3C910"/>
				<stop  offset="0.7027" style="stop-color:#83BC25"/>
				<stop  offset="1" style="stop-color:#66B22F"/>
			</linearGradient>
			<path style="fill:url(#SVGID_00000047059158528031621620000008327482799002891433_);" d="M560.34,429.18l-210.63-78.21
				c-7.12,18.67-11.61,38.17-13.41,57.84l224.57,20.96L560.34,429.18z"/>
			
				<linearGradient id="SVGID_00000116219942619765542340000013187101930386361755_" gradientUnits="userSpaceOnUse" x1="498.922" y1="497.3478" x2="331.9605" y2="385.6794">
				<stop  offset="0" style="stop-color:#E6EB91"/>
				<stop  offset="0.0209" style="stop-color:#E1E888"/>
				<stop  offset="0.0907" style="stop-color:#D3E16E"/>
				<stop  offset="0.1527" style="stop-color:#CADC5E"/>
				<stop  offset="0.2" style="stop-color:#C7DB58"/>
				<stop  offset="0.4" style="stop-color:#A3C910"/>
				<stop  offset="0.7027" style="stop-color:#83BC25"/>
				<stop  offset="1" style="stop-color:#66B22F"/>
			</linearGradient>
			<path style="fill:url(#SVGID_00000116219942619765542340000013187101930386361755_);" d="M337.59,460.41
				c2.23,15.21,6.04,30.21,11.4,44.75l211.32-74.82L337.59,460.41z"/>
			<path class="st8" d="M381.9,622.05c-6.37-5.52-17.23-15.77-26.89-28.31c-44.51-49.99-95.37-180.96-10.76-299.81
				c34.93-49.01,85.07-81.96,134.8-95.35c116.13-31.18,205.28,23.66,246.12,67.86c4.55,4.93,3.88,11.2,0.44,14.1
				c-5.06,4.26-9.63,2.06-19.78-0.92c-15.95-4.6-29.69-5.7-44.39-3.83c-34.11,4.37-63.65,35.99-59.54,80.17
				c3.7,40.33,34.83,69.46,56.64,88.69c76.7,67.53,51.09,139.94,44.82,155.84c-21.22,54.02-75.52,92.08-146.03,92.08
				c-29.26,0-71.54-7.58-114.05-34.52c-1.64-0.74-3.24-2.93-1.26-6.55c3.24-8.22,16.82-32.16,22.68-39.07
				c21.11,24.43,56.77,47.39,96.4,48.83c54.1,1.98,89-27.33,101.77-64.5c14.36-41.77-0.9-84.33-41.38-122.75
				c-34.88-33.13-65.96-63.75-67.79-116.28c-2.31-67.3,56.28-107.27,110.71-104.59c1.67,0.08-75.26-55.38-173.97-22.35
				c-48.29,16.21-77.19,44.69-91.08,60.93c-2.06,2.52-0.77,4.44-0.05,5.44c1.54,2.21,35.06,49.01,35.06,49.01l-60.49-13.92
				c0,0-2.54-0.62-3.8,1.44c-19.21,33.16-47.52,129.07,15.75,216.4c0,0,53.91-85.38,160.97-92.65c7.09-0.49,6.22,2.06,1.54,3.78
				c-95.63,35.14-133.39,105.29-157.79,159.36C389.07,623.9,385.11,624.93,381.9,622.05z"/>
		</g>
		<g>
			<path class="st2" d="M480.46,556.17c0,0,5.98-2.67,7.68-3.62l0.02,41.48h7.48v-48.78l-1.23-0.8l-0.36,0.21
				c-5.45,2.7-11.07,5.24-15.8,7.17L480.46,556.17z"/>
			<path class="st2" d="M520.32,569.65c6.09,0,9.04,3.13,9.04,9.58c0,6.58-4.08,10.84-10.43,10.84c-4.6,0-7.68-3.08-8.81-4.39
				l-0.95-1.1l-1.77,6.47l0.54,0.28c2.65,1.23,6.01,2.52,10.87,2.52c10.69,0,18.47-6.55,18.47-15.51c0-8.22-6.37-10.58-10.28-11.28
				c4.29-1.77,8.07-5.62,8.07-11.46c0-6.88-5.39-11.04-14.08-11.1c-7.32-0.03-11.07,4.78-11.07,4.78l3.21,5.57l0.54-1.57
				c0.87-2.52,3.6-5.03,7.09-5.03c3.06,0,6.65,2.03,6.65,7.81c0,4.47-1.23,9.81-7.09,9.81l-3.9-0.31l0.05,4.6
				C516.47,570.17,518.6,569.6,520.32,569.65z"/>
			<path class="st2" d="M547.55,584.14l1.93,7.89c0,0,3.13,1.82,7.53,1.82c12.51-0.05,21.24-11.76,21.24-28.59
				c0-18.72-11.46-20.75-16.34-20.75c-9.5,0-16.21,6.42-16.21,15.64c0,8.97,5.5,14.56,14.26,14.56c4.47,0,7.99-1.75,10.56-5.03
				c-0.51,10.51-4.67,20.06-13.23,20.11C550.45,589.82,547.55,584.14,547.55,584.14z M561.17,570.6c-5.29,0-7.83-3.42-7.83-10.45
				c0-7.11,3.42-11.89,8.5-11.89c5.06,0,8.5,4.03,8.5,10.07C570.34,564.44,567.2,570.6,561.17,570.6z"/>
			<path class="st2" d="M608.04,565.8c4.27-1.9,7.01-5.78,7.01-10.35c0-5.03-3.67-10.94-14.02-10.94c-7.83,0-13.84,5.06-13.84,11.79
				c0,4.98,3.44,8.53,7.11,9.86c-6.06,2.41-9.5,7.04-9.5,13.33c0,8.58,6.5,14.36,16.23,14.36c9.4,0,16.26-6.7,16.26-15.95
				C617.29,569.4,611.05,566.62,608.04,565.8z M594.43,556.37c0-1.9,0.46-8.12,6.65-8.12c6.11,0,6.78,5.65,6.78,8.12
				c0,1.9-0.49,8.12-6.78,8.12C594.89,564.49,594.43,558.27,594.43,556.37z M601.03,590.07c-5.14,0-8.66-4.39-8.66-10.92
				s3.52-10.92,8.66-10.92c5.19,0,8.63,4.39,8.63,10.92C609.66,585.78,606.3,590.07,601.03,590.07z"/>
		</g>
	</g>
</g>
</svg>
