<svg width="375" height="376" xmlns="http://www.w3.org/2000/svg" xmlns:xlink="http://www.w3.org/1999/xlink" xml:space="preserve" overflow="hidden"><defs><clipPath id="clip0"><rect x="895" y="28" width="375" height="376"/></clipPath></defs><g clip-path="url(#clip0)" transform="translate(-895 -28)"><path d="M251.318 60.2756 227.612 60.2756C218.142 60.8923 208.872 62.2386 199.859 64.2674L279.073 64.2674C270.059 62.2386 260.788 60.8923 251.318 60.2756Z" fill="#E6E6E6" transform="matrix(1.00008 0 0 1 844.465 -25.1032)"/><path d="M305.729 72.4984 173.202 72.4984C170.07 73.7418 166.985 75.0781 163.943 76.4901L314.987 76.4901C311.945 75.079 308.861 73.7428 305.729 72.4984Z" fill="#E6E6E6" transform="matrix(1.00008 0 0 1 844.465 -25.1032)"/><path d="M330.647 84.7212 148.283 84.7212C146.102 86.0085 143.949 87.3368 141.828 88.7129L337.1 88.7129C334.98 87.3377 332.827 86.0095 330.647 84.7212Z" fill="#E6E6E6" transform="matrix(1.00008 0 0 1 844.465 -25.1032)"/><path d="M348.743 96.9449 130.186 96.9449C128.488 98.2492 126.805 99.5735 125.155 100.937L353.775 100.937C352.125 99.5735 350.443 98.2492 348.743 96.9449Z" fill="#E6E6E6" transform="matrix(1.00008 0 0 1 844.465 -25.1032)"/><path d="M363.065 109.168 115.865 109.168C114.486 110.476 113.131 111.808 111.793 113.159L367.137 113.159C365.8 111.808 364.445 110.476 363.065 109.168Z" fill="#E6E6E6" transform="matrix(1.00008 0 0 1 844.465 -25.1032)"/><path d="M374.793 121.391 104.136 121.391C102.987 122.707 101.854 124.035 100.743 125.383L378.186 125.383C377.076 124.034 375.942 122.706 374.793 121.391Z" fill="#E6E6E6" transform="matrix(1.00008 0 0 1 844.465 -25.1032)"/><path d="M384.562 133.614 94.3672 133.614C93.4042 134.932 92.4592 136.262 91.5311 137.606L387.399 137.606C386.471 136.262 385.525 134.932 384.562 133.614Z" fill="#E6E6E6" transform="matrix(1.00008 0 0 1 844.465 -25.1032)"/><path d="M392.761 145.837 86.1682 145.837C85.3598 147.157 84.5655 148.487 83.7911 149.829L395.138 149.829C394.363 148.487 393.57 147.156 392.761 145.837Z" fill="#E6E6E6" transform="matrix(1.00008 0 0 1 844.465 -25.1032)"/><path d="M399.607 158.06 79.3223 158.06C78.6487 159.381 77.992 160.712 77.3514 162.052L401.578 162.052C400.937 160.712 400.28 159.381 399.607 158.06Z" fill="#E6E6E6" transform="matrix(1.00008 0 0 1 844.465 -25.1032)"/><path d="M405.263 170.283 73.667 170.283C73.1141 171.606 72.5762 172.936 72.0543 174.274L406.876 174.274C406.353 172.936 405.815 171.606 405.263 170.283Z" fill="#E6E6E6" transform="matrix(1.00008 0 0 1 844.465 -25.1032)"/><path d="M409.855 182.506 69.0744 182.506C68.6314 183.831 68.2022 185.161 67.7891 186.498L411.139 186.498C410.727 185.16 410.298 183.831 409.855 182.506Z" fill="#E6E6E6" transform="matrix(1.00008 0 0 1 844.465 -25.1032)"/><path d="M413.467 194.729 65.4629 194.729C65.1226 196.053 64.7993 197.385 64.4889 198.721L414.442 198.721C414.131 197.385 413.807 196.053 413.467 194.729Z" fill="#E6E6E6" transform="matrix(1.00008 0 0 1 844.465 -25.1032)"/><path d="M416.143 206.952 62.7864 206.952C62.5439 208.277 62.3184 209.608 62.1058 210.944L416.826 210.944C416.611 209.608 416.387 208.277 416.143 206.952Z" fill="#E6E6E6" transform="matrix(1.00008 0 0 1 844.465 -25.1032)"/><path d="M417.942 219.175 60.9871 219.175C60.8374 220.501 60.7027 221.831 60.583 223.166L418.347 223.166C418.226 221.832 418.092 220.501 417.942 219.175Z" fill="#E6E6E6" transform="matrix(1.00008 0 0 1 844.465 -25.1032)"/><path d="M418.903 231.398 60.0261 231.398C59.9672 232.726 59.9173 234.056 59.8874 235.39L419.042 235.39C419.012 234.056 418.962 232.726 418.903 231.398Z" fill="#E6E6E6" transform="matrix(1.00008 0 0 1 844.465 -25.1032)"/><path d="M419.042 243.621 59.8874 243.621C59.9173 244.955 59.9672 246.286 60.0261 247.613L418.903 247.613C418.962 246.286 419.012 244.955 419.042 243.621Z" fill="#E6E6E6" transform="matrix(1.00008 0 0 1 844.465 -25.1032)"/><path d="M418.347 255.845 60.583 255.845C60.7037 257.18 60.8384 258.51 60.9871 259.837L417.941 259.837C418.092 258.51 418.226 257.179 418.347 255.845Z" fill="#E6E6E6" transform="matrix(1.00008 0 0 1 844.465 -25.1032)"/><path d="M416.825 268.068 62.1048 268.068C62.3184 269.403 62.5429 270.734 62.7854 272.06L416.143 272.06C416.387 270.734 416.611 269.403 416.825 268.068Z" fill="#E6E6E6" transform="matrix(1.00008 0 0 1 844.465 -25.1032)"/><path d="M414.441 280.291 64.4889 280.291C64.7993 281.627 65.1226 282.958 65.4629 284.282L413.467 284.282C413.807 282.958 414.131 281.627 414.441 280.291Z" fill="#E6E6E6" transform="matrix(1.00008 0 0 1 844.465 -25.1032)"/><path d="M411.139 292.513 67.7901 292.513C68.2032 293.851 68.6324 295.181 69.0754 296.505L409.855 296.505C410.298 295.181 410.727 293.852 411.139 292.513Z" fill="#E6E6E6" transform="matrix(1.00008 0 0 1 844.465 -25.1032)"/><path d="M406.875 304.737 72.0543 304.737C72.5762 306.075 73.1141 307.406 73.667 308.729L405.263 308.729C405.815 307.406 406.353 306.075 406.875 304.737Z" fill="#E6E6E6" transform="matrix(1.00008 0 0 1 844.465 -25.1032)"/><path d="M401.578 316.96 77.3514 316.96C77.993 318.299 78.6487 319.63 79.3223 320.952L399.606 320.952C400.28 319.63 400.937 318.299 401.578 316.96Z" fill="#E6E6E6" transform="matrix(1.00008 0 0 1 844.465 -25.1032)"/><path d="M395.139 329.183 83.7911 329.183C84.5655 330.525 85.3598 331.854 86.1682 333.174L392.76 333.174C393.57 331.855 394.363 330.525 395.139 329.183Z" fill="#E6E6E6" transform="matrix(1.00008 0 0 1 844.465 -25.1032)"/><path d="M387.398 341.405 91.5311 341.405C92.4582 342.75 93.4042 344.08 94.3672 345.397L384.563 345.397C385.525 344.08 386.471 342.75 387.398 341.405Z" fill="#E6E6E6" transform="matrix(1.00008 0 0 1 844.465 -25.1032)"/><path d="M378.186 353.628 100.743 353.628C101.854 354.976 102.987 356.305 104.136 357.62L374.793 357.62C375.942 356.306 377.076 354.977 378.186 353.628Z" fill="#E6E6E6" transform="matrix(1.00008 0 0 1 844.465 -25.1032)"/><path d="M367.137 365.852 111.792 365.852C113.13 367.203 114.485 368.535 115.864 369.844L363.065 369.844C364.445 368.535 365.8 367.203 367.137 365.852Z" fill="#E6E6E6" transform="matrix(1.00008 0 0 1 844.465 -25.1032)"/><path d="M353.775 378.075 125.155 378.075C126.805 379.438 128.488 380.762 130.186 382.066L348.743 382.066C350.443 380.762 352.125 379.438 353.775 378.075Z" fill="#E6E6E6" transform="matrix(1.00008 0 0 1 844.465 -25.1032)"/><path d="M337.1 390.298 141.829 390.298C143.95 391.675 146.102 393.003 148.284 394.29L330.648 394.29C332.827 393.002 334.98 391.674 337.1 390.298Z" fill="#E6E6E6" transform="matrix(1.00008 0 0 1 844.465 -25.1032)"/><path d="M314.987 402.521 163.943 402.521C166.985 403.933 170.07 405.27 173.202 406.513L305.729 406.513C308.861 405.269 311.945 403.932 314.987 402.521Z" fill="#E6E6E6" transform="matrix(1.00008 0 0 1 844.465 -25.1032)"/><path d="M279.072 414.744 199.858 414.744C208.871 416.773 218.142 418.119 227.611 418.736L251.317 418.736C260.788 418.119 270.059 416.773 279.072 414.744Z" fill="#E6E6E6" transform="matrix(1.00008 0 0 1 844.465 -25.1032)"/></g></svg>