<svg width="1160" height="815" xmlns="http://www.w3.org/2000/svg" xmlns:xlink="http://www.w3.org/1999/xlink" xml:space="preserve" overflow="hidden"><defs><clipPath id="clip0"><rect x="2827" y="440" width="1160" height="815"/></clipPath><clipPath id="clip1"><rect x="2832" y="444" width="560" height="792"/></clipPath><clipPath id="clip2"><rect x="2832" y="444" width="560" height="792"/></clipPath><clipPath id="clip3"><rect x="2832" y="444" width="560" height="792"/></clipPath><clipPath id="clip4"><rect x="3400" y="464" width="586" height="792"/></clipPath><clipPath id="clip5"><rect x="3400" y="464" width="586" height="792"/></clipPath><clipPath id="clip6"><rect x="3400" y="464" width="586" height="792"/></clipPath></defs><g clip-path="url(#clip0)" transform="translate(-2827 -440)"><g clip-path="url(#clip1)"><g clip-path="url(#clip2)"><g clip-path="url(#clip3)"><path d="M-15368.1-14026.7C-15369.5-14033.8-15372.2-14056.6-15372.3-14061.8L-15372.3-14062.4C-15372.3-14071.5-15373.3-14084.9-15375.3-14102.1-15377.3-14119.4-15380.2-14141-15384.2-14166.5-15384.2-14166.5-15402.4-14263.8-15404.6-14271.4-15411.3-14290.3-15421.1-14311.5-15430.8-14331.3-15444.2-14362.2-15456.2-14365.2-15484.7-14374-15499.2-14375.7-15512.1-14374.9-15519.1-14387.4-15527-14400.2-15531.2-14422.6-15533.8-14436.2-15536-14444.3-15533.8-14447.5-15540.3-14451.8-15564.4-14465.2-15596.5-14465.6-15620.9-14453-15623.8-14451.2-15625.9-14448.8-15626.1-14446.2-15626.3-14441.8-15627.9-14434.9-15627.9-14434.9-15636.1-14387-15662.6-14394-15704.9-14384.3-15798.7-14350.2-15841-14243.5-15853.5-14197.1L-15857.5-14167.9C-15857.5-14167.9-15863-14122.8-15862.2-14085.1-15861.3-14047.4-15851.6-13972.9-15851.6-13972.9L-15359.6-13973.1C-15358.7-13973.1-15357.9-13973.9-15358.1-13974.8-15359.6-13982.7-15365.7-14014.2-15368.1-14026.7Z" fill="#FFFFFF" fill-rule="nonzero" fill-opacity="1" transform="matrix(1 0 0 1.00964 18721.2 15319.1)"/><path d="M-15760.3-13965.8C-15770.1-13968.7-15769.1-14003.4-15770.6-14012.1-15773.5-14056.3-15773.5-14102.6-15767.5-14145.4-15767.6-14152.9-15768-14160.7-15767.9-14168.3-15796.1-14174.4-15826.9-14178.5-15852.4-14193.6-15858.5-14117.4-15856.9-14047.3-15845-13975.7-15844.3-13968.8-15855.6-13967.6-15857.1-13974.1-15863-14004.8-15866-14037.5-15867-14069.2-15868.3-14111.1-15864-14153.1-15854.8-14195.5-15855.9-14196.5-15856.9-14197.6-15857.8-14198.8-15868.4-14200.4-15855.5-14228.1-15854-14234.8-15829.7-14305.2-15765.2-14386.8-15686.3-14393.5-15682.4-14395.9-15677.4-14394.7-15673.8-14392.2-15673.8-14392.2-15672.9-14391.5-15672.9-14391.5-15670.5-14389.9-15668.7-14386.9-15670.3-14384.1-15659.3-14373.3-15655.4-14356.9-15642.6-14347.6-15603.8-14313.4-15528.7-14318.4-15514.2-14374.3-15514.2-14374.6-15514.4-14374.8-15514.7-14374.8-15527.8-14372.9-15535.2-14410.3-15535.7-14420.2-15536.1-14428.3-15535.1-14441-15530.1-14425.1L-15530.1-14425.1C-15529.4-14423.4-15528.9-14421.9-15528.3-14420.1-15524.7-14409.9-15520-14399.3-15514.4-14389.4-15514.1-14388.8-15513.2-14387.5-15513-14387.9-15512.6-14388.6-15511.4-14389.7-15511-14389.7-15502-14390.7-15487.8-14385.7-15477.7-14382.9-15468.1-14379.8-15451.1-14373.6-15443.6-14366.3-15407.9-14332.2-15391.1-14284.6-15377.2-14238.4-15369.4-14213.9-15361.2-14189.7-15353.3-14165.3-15350.8-14153.2-15372.5-14152.5-15379.9-14148.5-15366.8-14100.7-15371.6-14047.8-15356.8-14000.8-15355.7-13992.9-15349.2-13985.3-15351.3-13977.2-15353-13971.3-15363-13970.1-15364.1-13976.9-15375.8-14009.3-15381.9-14043.2-15383.1-14077.7-15384.8-14102.5-15385.9-14124.7-15384.1-14147.2-15388.8-14145.8-15393-14144.5-15397.6-14143.3-15400-14142.6-15402.4-14141.8-15404.9-14141.8-15408.6-14141.2-15412.4-14140.9-15416.1-14140.8-15413.4-14082.6-15405.9-14027.9-15399.1-13972.3-15399.1-13972.3-15399.1-13972.3-15399.1-13972.3-15400.2-13967-15408.2-13966.7-15410.1-13971.6-15412.6-13969.8-15440.7-13970.7-15444.2-13970.4-15468.7-13970.1-15497.4-13969.7-15522.5-13969.3-15600.1-13967.9-15679.7-13967-15757.2-13967.8-15757.7-13966.6-15758.9-13965.8-15760.3-13965.8ZM-15656.9-14384.3C-15663.2-14384.5-15665.7-14395.3-15659-14397-15643.1-14405.4-15633.6-14422.5-15628.7-14439.3-15627.8-14441.9-15627.4-14445.2-15625.8-14447.6-15622.9-14442.5-15622.8-14435.9-15623.5-14430.1-15626.2-14411.1-15639.5-14392.3-15656.9-14384.3Z" fill="#000000" fill-rule="nonzero" fill-opacity="1" transform="matrix(1 0 0 1.00964 18721.2 15319.1)"/><path d="M315.276 59.6605C275.248 62.8367 213.995 114.243 193.634 142.066 173.273 169.889 162.771 230.537 169.208 254.929 175.645 279.322 248.823 286.098 248.823 286.098 248.823 286.098 270.526 310.859 312.883 312.35 330.704 312.976 359.268 311.846 376.207 296.262 393.146 280.677 408.722 245.617 409.942 229.495 411.161 213.373 412.275 99.1717 397.288 82.5287 382.305 65.8858 355.304 56.4844 315.276 59.6605Z" fill="#FFFFFF" fill-rule="nonzero" fill-opacity="1" transform="matrix(1 0 0 1.00964 2832 444)"/><path d="M210.044 208.736C212.877 211.776 213.873 215.397 215.262 219.187 216.087 221.436 219.2 221.034 219.386 218.628 220.064 209.824 210.908 201.85 203.434 198.932 201.918 198.339 200.567 200.668 201.824 201.693 204.658 203.997 207.537 206.047 210.044 208.736Z" fill="#000000" fill-rule="nonzero" fill-opacity="1" transform="matrix(1 0 0 1.00964 2832 444)"/><path d="M455.763 271.234C455.022 263.056 452.117 255.234 447.865 248.247 443.901 241.738 438.798 235.826 436.922 228.279 434.919 220.238 438.955 213.369 443.105 206.826 447.357 200.13 450.948 193.689 452.625 185.859 455.132 174.124 452.078 163.435 444.388 154.398 437.773 146.623 428.897 140.987 422.866 132.678 419.169 127.583 416.908 121.917 417.836 115.539 419.055 107.184 422.409 99.574 422.799 91.0408 423.51 75.5582 419.656 57.937 408.447 47.316 361.131 2.49009 305.328 34.9587 302.326 38.6726 294.208 26.3577 246.155 17.0961 220.657 42.9414 205.187 46.0879 190.496 53.3379 179.27 64.4459 166.811 76.7778 160.2 93.3572 159.493 110.669 151.163 124.818 146.721 140.91 149.067 157.257 150.278 165.71 153.462 173.739 155.08 182.111 155.83 185.99 155.991 189.908 155.542 193.749 155.038 196.565 154.309 199.614 153.272 202.794 153.102 203.222 152.925 203.645 152.738 204.065 147.318 216.316 137.535 226.34 129.269 236.681 121.697 246.151 113.723 256.738 112.842 269.269 111.851 283.303 123.662 293.098 129.73 304.486 131.327 307.484 132.436 310.872 132.259 314.281 131.285 316.86 129.73 319.765 127.401 323.017 126.889 323.492 126.376 323.945 125.885 324.377 119.677 329.785 112.207 333.528 107.438 340.473 102.992 346.948 102.034 356.866 102.598 364.464 102.975 369.52 104.309 374.581 106.888 378.841 107.176 379.468 107.485 380.103 107.807 380.742 108.099 388.848 111.419 397.021 116.264 403.395 125.224 415.189 138.259 423.404 151.396 429.841 154.199 431.218 157.367 429.545 157.507 426.335 157.909 417.298 159.768 408.663 164.736 400.998 166.612 398.101 168.852 395.454 171.27 392.952 175.047 408.667 188.667 426.699 204.602 424.666 204.649 424.662 205.39 424.552 205.428 424.544 207.266 424.23 209.134 423.65 211.018 422.761 212.204 422.341 213.314 421.715 214.275 420.923 214.525 420.758 214.775 420.592 215.024 420.419 218.311 418.119 215.524 413.469 211.912 415.096 211.391 415.328 210.874 415.532 210.362 415.714 210.091 415.794 209.828 415.871 209.574 415.938 205.644 415.528 204.331 409.942 203.273 406.545 202.549 404.225 201.96 401.828 201.668 399.418 201.769 395.577 202.324 391.448 204.09 388.073 205.428 385.515 207.067 383.173 208.858 380.942 210.989 378.998 213.377 377.304 215.74 375.762 221.703 371.879 228.004 368.61 233.823 364.489 234.534 363.985 235.242 363.469 235.945 362.948 237.888 362.262 239.747 361.224 241.475 359.844 243.796 357.989 245.63 355.753 247.4 353.385 247.802 352.848 248.158 352.327 248.497 351.806 252.85 347.13 256.64 341.947 259.605 336.2 264.695 326.342 266.978 315.399 267.452 304.388 284.84 313.366 304.672 316.529 324.22 316.026 330.767 315.856 337.395 315.424 343.878 314.437 344.996 314.268 346.11 314.044 347.215 313.79 347.228 314.251 347.245 314.725 347.262 315.225 345.623 321.472 344.59 327.904 345.072 334.35 345.403 338.758 346.601 343.086 349.1 346.775 350.62 349.023 352.911 351.471 355.528 352.492 357.286 355.088 359.653 357.375 362.008 359.344 364.599 361.512 367.42 363.397 370.011 365.569 373.069 368.131 375.33 371.223 377.359 374.636 381.86 382.212 384.092 390.86 384.461 399.634 384.384 401.561 384.274 403.475 384.135 405.372 384.092 405.948 384.177 406.478 384.346 406.965 383.91 412.877 382.678 418.725 380.764 424.217 379.544 427.72 384.092 431.362 387.192 429.159 392.871 425.128 397.131 419.131 401.01 413.444 403.683 409.523 406.126 405.44 408.324 401.235 410.454 399.35 412.203 396.627 413.423 394.557 416.616 389.14 418.746 382.843 419.745 376.652 421.071 368.423 420.419 357.065 413.766 351.56 413.546 351.298 413.325 351.035 413.097 350.781 413.965 349.866 414.803 348.913 415.608 347.922 419.817 343.594 423.642 338.839 427.512 334.24 432.848 327.896 437.968 321.344 442.529 314.416 450.905 301.678 457.169 286.758 455.763 271.234ZM189.734 209.443C190.018 203.29 191.915 195.836 197.251 192.101 201.117 189.395 206.131 189.493 210.349 191.36 213.254 192.647 215.643 194.807 217.722 197.158 219.789 199.495 220.475 202.316 221.94 204.954 222.452 205.881 223.926 205.682 224.184 204.662 224.333 204.077 224.417 203.489 224.451 202.9L225.561 204.852C223.532 215.668 219.759 227.221 213.22 238.392 212.204 239.133 211.175 239.853 210.133 240.561 210.053 239.349 209.108 238.126 207.753 238.155 201.63 238.282 197.403 235.818 194.269 230.541 190.564 224.303 189.408 216.591 189.734 209.443ZM333.397 307.924C311.698 309.754 289.164 307.865 269.65 297.49 268.913 297.1 268.189 296.693 267.469 296.283 267.105 293.149 264.034 291.925 261.595 292.615 260.13 291.616 258.686 290.583 257.28 289.503 251.211 274.084 238.397 259.609 227.348 254.798 226.958 254.193 226.569 253.587 226.179 252.977 231.773 247.141 250.728 225.417 252.037 207.317 255.366 198.199 255.463 187.456 254.214 178.444 253.358 172.269 251.482 166.167 248.641 160.607 251.016 156.092 254.756 147.292 255.399 135.735 255.399 135.735 290.625 129.536 295.122 98.8329 319.21 116.831 369.393 119.372 384.359 110.839 384.359 110.839 385.583 129.451 387.777 135.676 389.106 139.441 391.131 142.85 393.527 146.001 394.048 150.71 394.917 155.402 396.162 160.179 399.109 171.482 401.883 182.793 403.026 194.443 405.233 216.994 403.75 241.369 394.789 262.497 387.755 273.8 377.626 287.275 364.421 297.926 360.458 300.382 356.303 302.55 351.979 304.215 345.932 306.544 339.817 307.382 333.397 307.924Z" fill="#000000" fill-rule="nonzero" fill-opacity="1" transform="matrix(1 0 0 1.00964 2832 444)"/><path d="M306.357 259.418C306.357 257.157 325.541 252.939 331.131 254.464 335.442 255.641 338.246 260.435 339.262 260.435 340.279 260.435 343.328 257.386 345.614 257.132 347.901 256.877 358.954 261.959 358.954 266.533 358.954 271.361 349.426 287.114 333.418 285.336 317.41 283.557 306.357 266.406 306.357 259.418Z" fill="#FFFFFF" fill-rule="nonzero" fill-opacity="1" transform="matrix(1 0 0 1.00964 2832 444)"/><path d="M360.28 264.271C359.323 262.832 357.612 261.57 356.333 260.562 354.368 259.02 352.267 257.504 349.959 256.526 345.979 254.845 342.438 255.7 339.766 258.449 337.585 253.744 331.567 251.901 326.49 252.198 319.358 252.617 311.659 254.908 304.994 257.377 304.947 257.394 304.909 257.424 304.867 257.449 303.63 257.682 302.944 259.423 304.244 260.295 306.887 270.221 314.353 279.928 323.669 284.205 335.739 289.744 349.693 286.123 357.239 275.244 358.535 273.376 359.75 271.318 360.449 269.146 360.686 268.405 360.826 267.685 360.932 266.918 360.94 266.863 360.962 266.74 360.983 266.601 361.012 266.562 361.046 266.524 361.076 266.486 361.614 265.741 361.101 264.572 360.28 264.271ZM331.263 257.805C334.108 258.626 336.001 260.917 338.487 262.391 339.152 262.785 340.168 262.45 340.456 261.739 344.369 258.19 347.685 258.897 351.89 261.849 353.064 262.671 354.647 264.064 356.316 264.945 354.757 265.402 353.199 265.953 351.666 266.3 348.752 266.965 345.716 267.198 342.735 267.189 336.865 267.177 331.038 266.037 325.385 264.53 320.671 263.272 315.835 261.815 311.223 259.969 311.223 259.952 311.215 259.935 311.194 259.935 311.177 259.935 311.16 259.935 311.139 259.935 310.897 259.838 310.656 259.744 310.419 259.647 314.708 259.554 319.092 258.385 323.199 257.716 325.85 257.284 328.645 257.051 331.263 257.805ZM353.644 273.774C349.193 279.881 342.434 283.265 334.858 283.104 321.992 282.833 313.849 273.173 308.365 262.679 313.806 265.639 319.545 268.04 325.49 269.794 331.546 271.581 337.975 272.639 344.306 272.47 347.702 272.377 352.073 271.915 355.715 270.416 355.084 271.568 354.427 272.703 353.644 273.774Z" fill="#000000" fill-rule="nonzero" fill-opacity="1" transform="matrix(1 0 0 1.00964 2832 444)"/><path d="M331.356 235.356C338.729 239.663 351.285 238.896 355.757 230.511 357.104 227.987 356.227 226.082 354.719 223.981 353.135 221.775 352.026 219.217 350.883 216.769 349.04 212.81 347.13 208.706 344.687 205.263 344.056 204.374 342.985 204.42 342.345 205.263 340.541 207.635 342.027 210.133 343.162 212.581 344.869 216.274 346.931 219.797 348.566 223.524 349.388 225.404 350.074 225.933 348.456 227.221 347.304 228.135 346.029 228.889 344.628 229.347 341.498 230.363 338.229 230.117 335.362 228.5 330.903 225.993 326.934 232.777 331.356 235.356Z" fill="#000000" fill-rule="nonzero" fill-opacity="1" transform="matrix(1 0 0 1.00964 2832 444)"/><path d="M277.306 176.225C282.735 171.439 288.893 166.938 296.355 166.324 299.539 166.065 302.898 166.408 305.743 167.954 308.314 169.352 309.102 171.956 311.355 173.536 312.642 174.438 314.073 173.409 314.569 172.227 315.907 169.03 312.528 165.655 310.148 163.978 306.65 161.513 302.241 160.433 297.998 160.628 288.423 161.072 280.711 166.544 273.986 172.905 271.78 175.001 275.062 178.207 277.306 176.225Z" fill="#000000" fill-rule="nonzero" fill-opacity="1" transform="matrix(1 0 0 1.00964 2832 444)"/><path d="M354.359 169.754C358.128 164.952 367.623 165.743 372.582 167.844 375.491 169.076 378.058 170.999 379.73 173.718 381.306 176.28 381.255 179.558 383.847 181.374 384.672 181.954 385.676 181.446 386.201 180.756 388.763 177.394 385.629 171.859 383.461 169.03 380.946 165.756 377.418 163.491 373.564 162.085 366.433 159.48 355.287 159.671 351.137 167.26 350.065 169.216 352.86 171.66 354.359 169.754Z" fill="#000000" fill-rule="nonzero" fill-opacity="1" transform="matrix(1 0 0 1.00964 2832 444)"/><path d="M316.618 205.695C313.751 198.619 304.685 195.159 297.46 195.908 294.915 196.171 292.099 196.98 289.338 197.501 288.948 197.251 288.571 196.984 288.232 196.654 286.915 195.375 286.128 193.812 285.742 192.033 285.17 189.382 281.177 190.513 281.694 193.151 282.028 194.854 282.718 196.455 283.688 197.878 281.122 197.564 278.865 196.328 277.264 193.278 276.468 191.762 273.808 192.817 274.448 194.464 275.854 198.098 278.636 200.922 282.358 202.214 284.751 203.044 287.343 202.875 289.892 202.485 290.341 202.51 290.79 202.447 291.23 202.265 292.154 202.104 293.064 201.93 293.949 201.786 296.511 201.367 298.989 200.855 301.597 201.257 306.552 202.019 309.593 205.826 313.993 207.711 315.217 208.236 317.279 207.325 316.618 205.695Z" fill="#000000" fill-rule="nonzero" fill-opacity="1" transform="matrix(1 0 0 1.00964 2832 444)"/><path d="M384.431 194.324C383.474 196.442 382.038 198.365 379.705 198.996 380.569 197.522 381.149 195.904 381.424 194.197 381.844 191.568 377.863 190.403 377.376 193.079 377.067 194.778 376.486 196.404 375.381 197.755 375.216 197.954 375.021 198.14 374.809 198.318 374.407 198.195 374.001 198.077 373.586 197.992 372.167 197.695 369.931 197.149 368.135 196.95 361.8 196.247 353.788 200.224 352.191 206.741 351.806 208.321 353.428 209.443 354.817 208.757 358.442 206.97 360.661 203.137 364.828 202.316 367.034 201.879 368.987 202.477 371.129 202.875 371.735 202.989 372.357 203.116 372.984 203.247 373.471 203.497 373.967 203.578 374.454 203.531 376.461 203.883 378.498 204.052 380.404 203.387 383.897 202.163 386.227 198.928 387.251 195.51 387.738 193.88 385.164 192.707 384.431 194.324Z" fill="#000000" fill-rule="nonzero" fill-opacity="1" transform="matrix(1 0 0 1.00964 2832 444)"/></g></g></g><g clip-path="url(#clip4)"><g clip-path="url(#clip5)"><g clip-path="url(#clip6)"><path d="M-3517.54-14325.4C-3504.61-14326-3509.81-14348.6-3510.74-14356.9-3515.08-14392.4-3522.75-14424.3-3526.78-14456.1-3529.29-14485.8-3528.34-14511.5-3531.05-14541.2-3534.14-14576.1-3541.46-14639.5-3565.57-14683.2-3578.89-14707.3-3605.07-14737.1-3623.42-14745.4-3628.84-14769.2-3645.86-14788.9-3674.01-14789.5-3674.81-14789.5-3675.56-14790.8-3676.08-14791.4-3695.52-14814.2-3718.88-14830-3748.72-14826.7-3761.23-14826.2-3773.36-14812.9-3785.34-14810.3-3792.05-14809.4-3819.14-14824.3-3862.47-14804.6-3870.78-14800.4-3871.4-14785.7-3877.78-14777.9-3884.17-14770.1-3901.33-14775.5-3910.86-14769.5-3946.31-14748.5-3941.11-14717.6-3933.54-14704.1-3930.83-14699.3-3927.11-14698.7-3926.75-14698.3-3958.9-14653.6-3991.74-14620.8-4004.75-14566.2-4013.17-14525.6-4013.29-14486.9-4020.35-14446.1-4022.84-14432-4029.65-14410.9-4033.78-14397.2-4038.26-14379.2-4035.95-14347.8-4036.81-14338.2-4037.25-14331.7-4034.53-14322.8-4029.76-14322.8-3897.45-14300.8-3763.06-14321.8-3630.04-14325.3-3592.56-14326.6-3555.03-14326.9-3517.54-14325.4Z" fill="#FFFFFF" fill-rule="nonzero" fill-opacity="1" transform="matrix(-1 0 0 1.00296 -79.667 15584.3)"/><path d="M-3788.3-14770.3C-3788.3-14767-3782.32-14761.8-3777.99-14755.6-3763.84-14735-3731.09-14705.9-3718.17-14708.5-3706.92-14710.8-3694.05-14727.1-3671.3-14754.8-3671.3-14754.8-3668.25-14762.8-3669.35-14770.5-3670.45-14778.2-3674.75-14789.2-3674.75-14789.2-3674.96-14789.8-3674.47-14790.5-3673.82-14790.4-3657.62-14789.5-3642.85-14781.2-3632.43-14769.8-3625.35-14762.1-3622.31-14752.9-3620.17-14743.5-3600.87-14734.8-3575.95-14707.6-3560.69-14673-3541.78-14630-3535.48-14576.4-3532.2-14542.8-3532.2-14542.8-3528.64-14480.6-3526.13-14450.9-3522.1-14419.1-3508.15-14355.6-3508.15-14355.6-3507.08-14346.8-3504.7-14325.6-3517.38-14325-3554.86-14326.5-3592.39-14326.2-3629.88-14324.9-3762.9-14321.5-3897.3-14300.4-4029.61-14322.4-4057.62-14327.5-4023.54-14425.6-4021.22-14438.8-4014.15-14479.6-4013.75-14527-4005.33-14567.6-3992.82-14620.2-3960.43-14652-3929.35-14694.1-3927.27-14696.9-3929.59-14697.8-3931.37-14700.8-3938-14712-3949.69-14744.9-3910.21-14770.2-3901.62-14777.3-3884.34-14763.8-3878.22-14777.6-3872.49-14789-3868.9-14801.9-3860.59-14806.2-3826.5-14822.1-3791.87-14810.4-3785.16-14811.3-3781.27-14812.1-3776.07-14814.9-3775.73-14814.7-3775.4-14814.5-3776.34-14811.9-3776.34-14811.9-3780.09-14799.3-3782.63-14789.1-3783.95-14781.2-3784.66-14777-3788.3-14773.2-3788.3-14770.3Z" fill="#FFFFFF" fill-rule="nonzero" fill-opacity="1" transform="matrix(-1 0 0 1.00296 -79.667 15584.3)"/><path d="M-3717.61-14312C-3718.46-14312-3719.16-14312.7-3719.18-14313.5-3722.32-14363.3-3724.6-14407.5-3725.3-14457.6-3751.26-14457.4-3781.22-14457.3-3806.44-14457.6-3798.81-14426.7-3813.24-14401.1-3835.91-14375.7-3842.61-14369.8-3847.12-14362.4-3848.07-14353.3-3848.47-14351-3852.01-14334.9-3852.56-14332.3-3853.81-14326.4-3854.14-14318.6-3858.53-14314.6-3867.4-14307.8-3873.22-14319.5-3869.58-14327.6L-3869.58-14327.6C-3866.33-14338.6-3862.63-14363-3857.23-14372.8-3848.78-14384.5-3835.52-14392.3-3827.65-14404.8-3815.39-14420-3810.41-14439.4-3807.39-14457.8-3781.44-14460.8-3752.6-14461.3-3725.39-14463.8-3725.82-14495.7-3725.03-14536.8-3724.56-14572.5-3723.64-14610.1-3724.32-14653.9-3717.93-14688.9-3717.81-14689.6-3716.76-14689.6-3716.68-14688.9-3708.51-14616.6-3710.48-14533.3-3709.8-14464.9-3695.59-14465.9-3680.47-14466.9-3665.7-14467.7-3661.22-14467.4-3655.81-14470.1-3652.16-14466.2-3648.78-14461.2-3655.78-14458.9-3659.73-14459.3-3675.79-14458.6-3693.3-14458-3709.81-14457.8-3709.88-14434.6-3710.98-14411.1-3712.04-14387.7-3713.29-14360.1-3714.44-14336.9-3716.05-14313.5-3716.06-14312.7-3716.76-14312-3717.61-14312ZM-3917.92-14314.6C-3919.44-14314.6-3920.87-14315.4-3921.62-14316.7-3921.52-14316.6-3921.13-14316.4-3921.01-14316.3-3921-14316.3-3921.49-14316.7-3922.53-14317.5-3925.88-14320.8-3925.5-14325.6-3924.96-14329.9-3921.79-14402.7-3909.89-14478-3918.43-14550.8-3917.92-14551.4-3916.83-14551.4-3916.43-14550.6-3907.5-14536.6-3902.81-14520.3-3901.1-14503.9-3897.9-14465-3903.55-14426.2-3905.24-14387.4-3905.24-14387.4-3909.19-14326.6-3909.19-14326.6-3909.36-14322.7-3910.45-14318.2-3914.21-14316.3-3915.25-14315.3-3916.51-14314.6-3917.92-14314.6ZM-4035.39-14315.6C-4038.33-14315.6-4040.93-14317.8-4041.8-14320.5-4051.58-14355.5-4040.99-14390-4032.75-14424.4-4019.87-14466.4-4019.44-14510.2-4013.98-14553.5-4005.25-14610.1-3969.09-14658.2-3932.33-14698-3947.75-14701.4-3942.77-14728.3-3940.63-14739.7-3935.86-14758.7-3919.31-14776.4-3898.74-14776.2-3894.74-14776.3-3890.61-14775.8-3886.73-14777.1-3877.05-14781-3876.68-14793.8-3870.66-14801.3-3854.54-14822.3-3810.34-14822.2-3787.9-14811.9-3786.98-14811.5-3787.23-14810.6-3788.23-14810.6-3799.9-14810.5-3813.3-14811.6-3824.4-14810.3-3838.48-14808.2-3857.01-14807.3-3864.76-14793.4-3868.92-14785.7-3870.89-14776-3878.72-14770.9-3884.92-14766.7-3892.69-14767.1-3899.86-14766.5-3911.67-14765.6-3922.53-14757.3-3928.19-14745-3932.33-14734.8-3936.22-14716.7-3930.19-14705.9-3928.62-14706.2-3927.02-14705.4-3926.39-14704-3904.49-14725-3881.06-14741.3-3853.3-14753.9-3851.45-14754.7-3851.18-14755.1-3850.62-14756-3848.45-14759.6-3843.18-14760.4-3839.31-14759.4-3838.68-14759.2-3837.31-14758.8-3837.25-14758.8-3811.92-14747.4-3796.4-14724.3-3772.86-14709.8-3767.33-14706.3-3761.63-14703.2-3755.33-14701.3-3751.36-14700-3746.86-14698.6-3745.3-14695.1-3743.57-14693.2-3744.25-14690-3746.35-14688.7-3750.11-14684.8-3756.46-14687.2-3761.12-14688.9-3793.74-14701-3816.26-14732.5-3842.79-14754.4-3843.29-14754.8-3844.01-14754.9-3844.58-14754.6-3896.1-14726.3-3939.68-14683-3970.18-14632.5-3994.09-14598.6-4005.4-14555.4-4006.2-14511.1-4007.64-14482.3-4011.2-14457.1-4018.6-14427.9-4026.87-14395.3-4035.12-14360.9-4029.19-14327.1-4027.69-14321.8-4028.85-14315.8-4035.39-14315.6ZM-3508.62-14324.6C-3512.04-14324.6-3515.82-14326.8-3516.04-14331.7-3517.12-14356.8-3521.67-14381.9-3526.2-14406.4-3550.52-14518.8-3519.74-14659.7-3619.49-14741.8-3622.26-14739.1-3627.37-14740.8-3628.56-14744.3-3629.47-14747-3629.24-14749.9-3629.81-14752.7-3633.43-14768.8-3646.7-14782.8-3662.55-14787.3-3668.11-14789-3671.51-14790-3662.9-14790.5-3639.65-14789.8-3616.39-14767.3-3618.31-14743.8-3500.33-14676.7-3540.36-14517.3-3511.04-14405.9-3509.47-14394.6-3490.87-14322.7-3508.62-14324.6ZM-3591.35-14330.2C-3601-14331.8-3599.05-14345.5-3599.99-14353.1-3600.67-14360.5-3601.54-14368-3602.45-14375.4-3603.77-14385.7-3604.38-14397.4-3612.57-14404.8-3625.12-14416.2-3636.09-14429.8-3642.23-14445.8-3644.59-14449.6-3651.44-14470.2-3643.38-14457-3632.32-14438.6-3616.02-14424.8-3600.31-14410.6-3591.86-14401.4-3590.51-14388.8-3588.72-14376.9-3587.07-14366.2-3585.57-14355.2-3584.38-14344-3583.43-14338.6-3584.38-14330.3-3591.35-14330.2ZM-3550.38-14332.5C-3559.93-14333.5-3558.31-14345.6-3559.01-14352.9-3560.62-14369.2-3562.73-14383.5-3565.4-14398.8-3572.94-14439-3585.51-14487.9-3584.88-14526.2-3583.76-14572.2-3580.02-14611.1-3577.48-14658.9-3577.49-14659.5-3576.49-14659.6-3576.48-14659-3576.37-14653.8-3576.26-14648.6-3576.13-14642.4-3574.73-14574-3576.8-14515.2-3560.85-14447.1-3558.98-14432.7-3529.6-14330.7-3550.38-14332.5ZM-3719.81-14703.1C-3725.7-14703.1-3730.84-14706.5-3735.37-14709.9-3750.71-14721.5-3764.12-14733.7-3776.39-14748.3-3781.71-14752.7-3809.88-14796.5-3788.81-14773.4-3789.17-14781.3-3789.33-14789.5-3787.49-14797.2-3785.72-14804-3775.86-14804.8-3773.01-14798.4-3770.42-14793.5-3775.04-14788.5-3777.37-14784.4-3780.01-14779.7-3783.86-14775.8-3786.95-14771.4-3768.14-14751.3-3748.08-14731.2-3725.69-14716.3-3718.37-14710.2-3710.84-14718.6-3705.6-14723.9-3694.21-14734.7-3684.15-14746.6-3675.46-14759.7-3680.43-14767.3-3677.72-14779-3678.57-14787.9-3678.47-14807.4-3669.4-14780.8-3667.35-14775.9-3666.47-14773.7-3665.62-14771.3-3664.76-14769-3664.38-14768.6-3664.03-14768.3-3663.73-14767.9-3659.02-14765.2-3661.35-14759.3-3663.96-14756-3675.24-14739.8-3699.59-14705.3-3719.81-14703.1Z" fill="#000000" fill-rule="nonzero" fill-opacity="1" transform="matrix(-1 0 0 1.00296 -79.667 15584.3)"/><path d="M-4988.01-9042.93C-4958.24-9042.93-4921.15-9033.79-4905.9-9015.54-4902.21-9011.17-4901.48-9000.16-4900.7-8995.57-4895.89-8967.62-4868.98-8860.89-4874.74-8826.52-4880.55-8792.12-4911.75-8767.38-4961.67-8767.38-5011.59-8767.38-5048.85-8794.59-5057.39-8803.95-5065.93-8813.31-5082.96-8847.15-5082.96-8847.15-5082.96-8847.15-5089.54-8843.34-5094.74-8845.55-5101.98-8848.62-5108.57-8859.33-5108.65-8872.02-5108.78-8893.82-5091.28-8901.71-5091.28-8901.71-5091.28-8901.71-5097.52-8987.72-5081.79-9010.08-5066.1-9032.49-5024.89-9042.93-4988.01-9042.93Z" fill="#FFFFFF" fill-rule="nonzero" fill-opacity="1" transform="matrix(-1 0 0 1.00296 -1336.33 9569.19)"/><path d="M-4959.54-8762.91C-4967.21-8762.91-4974.84-8763.78-4982.38-8765.38-4992.3-8766.2-5002.27-8778.03-4985.93-8777.47-4951.22-8769.58-4912.57-8775.43-4887.48-8808.97-4875.69-8826.91-4880.5-8848.49-4883.62-8868.73-4888.78-8901.53-4891.86-8922.68-4896.15-8950.85L-4896.15-8950.85C-4898.1-8964.15-4900.18-8976.15-4901.09-8989.98-4901.3-8993.27-4902.21-9000.03-4901.39-9000.12-4900.61-9000.16-4898.44-8991.62-4897.1-8987.46-4890.77-8967.57-4887.7-8948.98-4882.76-8926.23-4878.25-8902.62-4873.53-8878.7-4869.58-8854.69-4866.81-8838.35-4865.73-8820.41-4874.31-8805.59-4891.47-8776.69-4927.13-8763.34-4959.54-8762.91ZM-5042.48-8791.64C-5063.24-8798.14-5078.58-8824.01-5082.39-8844.64-5084.04-8840.48-5089.02-8839.57-5093.01-8840.39-5114.98-8844.12-5116.37-8887.36-5100.33-8897.85-5110.04-8920.69-5103.67-8946.21-5100.85-8969.87-5100.85-8969.87-5095.83-9007.53-5095.83-9007.53-5093.79-9029.37-5085.38-9056.97-5060.34-9061.22-5054.88-9062.34-5049.29-9062.73-5043.7-9062.61-5028.49-9062.3-4964.7-9060.83-4940.3-9060.31-4933.2-9060.13-4919.72-9060.05-4912.48-9059.92-4906.59-9059.14-4893.72-9062.26-4893.59-9053.5L-4888.48-9053.07C-4885.23-9052.98-4883.06-9049.34-4884.53-9046.48-4886.27-9042.84-4887.65-9034.7-4888.82-9028.02-4890.82-9019.88-4890.99-9011.12-4893.42-9004.45-4896.15-8999.6-4905.07-9000.51-4904.34-9006.92-4954.21-9008.57-5005.52-9007.53-5052.84-8992.23-5056.61-8989.94-5056.52-8985.69-5056.13-8981.92-5055.83-8978.23-5054.44-8978.93-5053.92-8976.15-5052.71-8971.47-5051.19-8966.84-5049.03-8962.5-5044.56-8956.26-5051.63-8950.42-5057.69-8950.07-5069.91-8949.11-5069.05-8933.86-5069.7-8924.5-5070.26-8916.09-5069.61-8907.69-5068.87-8899.37-5068.31-8894.38-5072.12-8889.53-5075.72-8892.95-5076.2-8893.39-5076.46-8892.82-5076.93-8893.39-5081.09-8898.2-5088.46-8897.55-5093.31-8893.99-5104.45-8887.02-5103.06-8856.77-5092.19-8851.66-5089.11-8850.4-5080.14-8852.09-5081.57-8846.67-5072.99-8830.81-5057.61-8808.8-5038.93-8801.09-5032.91-8799.31-5037.2-8790.95-5042.48-8791.64ZM-5078.36-8862.27C-5080.57-8862.19-5082.57-8863.88-5083-8866.04-5084.26-8871.29-5089.46-8875.97-5094.87-8876.66-5095.31-8876.7-5095.61-8877.44-5095.13-8877.66-5090.19-8880.08-5084.34-8879.78-5079.66-8876.83-5073.64-8873.41-5068.09-8863.49-5078.36-8862.27Z" fill="#000000" fill-rule="nonzero" fill-opacity="1" transform="matrix(-1 0 0 1.00296 -1336.33 9569.19)"/><path d="M351.399-5102.41C343.997-5102.33 336.817-5105.79 331.998-5111.38 329.351-5114.07 324.281-5124.38 329.416-5125.16 330.131-5125.16 330.837-5124.77 331.136-5124.12 339.075-5111.69 354.163-5106.66 364.607-5118.79 365.443-5119.83 366.704-5120.44 368.047-5120.48L368.078-5120.48C369.46-5120.44 370.777-5119.88 371.735-5118.84 372.745-5117.88 373.356-5116.54 373.442-5115.15 373.49-5113.77 372.979-5112.47 372.025-5111.47 366.769-5105.84 359.138-5102.41 351.399-5102.41Z" fill="#000000" fill-rule="nonzero" fill-opacity="1" transform="matrix(-1 0 0 1.00296 3963.33 5848.88)"/><path d="M359.142-5138.55C353.704-5138.38 334.109-5145.05 341.995-5152.38 342.684-5153.03 343.573-5153.33 344.491-5153.37 345.18-5153.37 345.852-5153.16 346.424-5152.77 351.234-5148.91 360.213-5142.15 365.998-5148.43 371.64-5155.28 362.83-5163.82 358.891-5165.77 358.349-5166.24 358.172-5166.98 358.449-5167.67 358.778-5168.67 359.74-5169.36 360.815-5169.32 368.931-5168.71 375.44-5161.13 374.422-5152.98 373.962-5145.14 367.142-5138.25 359.142-5138.55Z" fill="#000000" fill-rule="nonzero" fill-opacity="1" transform="matrix(-1 0 0 1.00296 3963.33 5848.88)"/><path d="M296.92-5163.56C296.617-5163.56 296.309-5163.6 296.019-5163.69 295.464-5163.82 295.005-5164.21 294.784-5164.73 293.211-5168.93 294.329-5173.22 295.542-5176.12 302.042-5192.07 317.755-5191.9 325.425-5178.16 325.893-5177.51 326.374-5176.82 326.863-5176.12 327.726-5175.04 327.99-5173.57 327.561-5172.27 327.076-5170.92 326.044-5169.88 324.727-5169.32 322.205-5168.15 319.003-5169.45 318.093-5172.09 316.823-5175.17 314.96-5177.64 312.971-5178.9 311.35-5180.02 309.253-5180.2 307.48-5179.33 305.812-5178.55 303.004-5176.08 301.093-5172.96 299.624-5170.75 298.892-5168.15 298.996-5165.51 299.117-5164.51 298.233-5163.64 297.262-5163.56 297.154-5163.56 297.037-5163.56 296.92-5163.56Z" fill="#000000" fill-rule="nonzero" fill-opacity="1" transform="matrix(-1 0 0 1.00296 3963.33 5848.88)"/><path d="M391.144-5172.74C389.328-5172.74 387.504-5174.04 387.127-5175.86 386.551-5178.98 383.639-5182.02 380.254-5181.37 377.914-5180.89 375.895-5179.33 374.755-5177.25L374.725-5177.21C374.227-5176.3 373.594-5175.43 372.84-5174.74 372.381-5174.35 371.726-5174.17 371.15-5174.35 369.295-5176.21 369.087-5177.55 369.135-5178.72 369.248-5180.2 369.755-5181.63 370.608-5182.8 375.258-5189.3 383.041-5191.16 389.233-5186.74 392.925-5184.14 398.038-5176.82 393.094-5173.26 392.5-5172.96 391.833-5172.74 391.144-5172.74Z" fill="#000000" fill-rule="nonzero" fill-opacity="1" transform="matrix(-1 0 0 1.00296 3963.33 5848.88)"/><path d="M285.194-5190.08C285.146-5190.08 285.099-5190.08 285.055-5190.08 284.8-5190.12 284.561-5190.25 284.371-5190.42 283.4-5191.25 282.928-5192.63 282.962-5194.5 284.028-5205.85 294.368-5215.99 305.21-5219.93 309.422-5221.62 316.91-5223.53 320.931-5219.46 322.001-5218.37 322.591-5216.94 322.565-5215.43 322.586-5213.91 321.993-5212.44 320.918-5211.35 318.019-5208.41 313.625-5208.93 309.894-5208.06 301.006-5206.24 293.341-5200.87 287.95-5193.59 287.46-5192.81 287.062-5191.77 286.563-5191.07 286.191-5190.47 285.996-5190.29 285.844-5190.21 285.645-5190.12 285.419-5190.08 285.194-5190.08L285.194-5190.08Z" fill="#000000" fill-rule="nonzero" fill-opacity="1" transform="matrix(-1 0 0 1.00296 3963.33 5848.88)"/><path d="M396.457-5191.51C395.898-5191.51 395.365-5191.9 395.248-5192.46 393.67-5199.35 390.537-5203.68 385.082-5206.46 382.057-5207.89 378.876-5208.93 375.609-5209.62 370.322-5210.36 362.15-5211.48 363.081-5218.81 364.958-5226.78 375.657-5223.36 380.527-5220.93L380.536-5220.93C380.783-5220.8 381.03-5220.71 381.268-5220.63 385.602-5218.89 389.523-5216.29 392.773-5212.91 397.406-5208.41 402.506-5195.88 396.457-5191.51Z" fill="#000000" fill-rule="nonzero" fill-opacity="1" transform="matrix(-1 0 0 1.00296 3963.33 5848.88)"/></g></g></g></g></svg>