<svg id="visual" viewBox="0 0 960 600" width="960" height="600" xmlns="http://www.w3.org/2000/svg" xmlns:xlink="http://www.w3.org/1999/xlink" version="1.1"><path d="M0 178L20 177.5C40 177 80 176 120 184.7C160 193.3 200 211.7 240 210C280 208.3 320 186.7 360 185.2C400 183.7 440 202.3 480 211.8C520 221.3 560 221.7 600 219.7C640 217.7 680 213.3 720 215.7C760 218 800 227 840 231.8C880 236.7 920 237.3 940 237.7L960 238L960 0L940 0C920 0 880 0 840 0C800 0 760 0 720 0C680 0 640 0 600 0C560 0 520 0 480 0C440 0 400 0 360 0C320 0 280 0 240 0C200 0 160 0 120 0C80 0 40 0 20 0L0 0Z" fill="#574bf9"></path><path d="M0 130L20 131.7C40 133.3 80 136.7 120 135C160 133.3 200 126.7 240 131.7C280 136.7 320 153.3 360 157.3C400 161.3 440 152.7 480 151.7C520 150.7 560 157.3 600 166.3C640 175.3 680 186.7 720 189C760 191.3 800 184.7 840 181C880 177.3 920 176.7 940 176.3L960 176L960 0L940 0C920 0 880 0 840 0C800 0 760 0 720 0C680 0 640 0 600 0C560 0 520 0 480 0C440 0 400 0 360 0C320 0 280 0 240 0C200 0 160 0 120 0C80 0 40 0 20 0L0 0Z" fill="#2545c7"></path><path d="M0 98L20 101.2C40 104.3 80 110.7 120 115.8C160 121 200 125 240 130.2C280 135.3 320 141.7 360 134.7C400 127.7 440 107.3 480 106.2C520 105 560 123 600 123.7C640 124.3 680 107.7 720 103.8C760 100 800 109 840 111.2C880 113.3 920 108.7 940 106.3L960 104L960 0L940 0C920 0 880 0 840 0C800 0 760 0 720 0C680 0 640 0 600 0C560 0 520 0 480 0C440 0 400 0 360 0C320 0 280 0 240 0C200 0 160 0 120 0C80 0 40 0 20 0L0 0Z" fill="#003a93"></path><path d="M0 114L20 110.2C40 106.3 80 98.7 120 97C160 95.3 200 99.7 240 103C280 106.3 320 108.7 360 103.3C400 98 440 85 480 85C520 85 560 98 600 104.2C640 110.3 680 109.7 720 100.5C760 91.3 800 73.7 840 73C880 72.3 920 88.7 940 96.8L960 105L960 0L940 0C920 0 880 0 840 0C800 0 760 0 720 0C680 0 640 0 600 0C560 0 520 0 480 0C440 0 400 0 360 0C320 0 280 0 240 0C200 0 160 0 120 0C80 0 40 0 20 0L0 0Z" fill="#002b5f"></path><path d="M0 50L20 53.3C40 56.7 80 63.3 120 66.3C160 69.3 200 68.7 240 61C280 53.3 320 38.7 360 36.8C400 35 440 46 480 51.5C520 57 560 57 600 58.5C640 60 680 63 720 61C760 59 800 52 840 45.8C880 39.7 920 34.3 940 31.7L960 29L960 0L940 0C920 0 880 0 840 0C800 0 760 0 720 0C680 0 640 0 600 0C560 0 520 0 480 0C440 0 400 0 360 0C320 0 280 0 240 0C200 0 160 0 120 0C80 0 40 0 20 0L0 0Z" fill="#0c192c"></path></svg>