<svg id="visual" viewBox="0 0 960 400" width="960" height="400" xmlns="http://www.w3.org/2000/svg" xmlns:xlink="http://www.w3.org/1999/xlink" version="1.1"><path d="M0 77L87 57L175 61L262 45L349 53L436 81L524 57L611 85L698 65L785 69L873 57L960 81L960 0L873 0L785 0L698 0L611 0L524 0L436 0L349 0L262 0L175 0L87 0L0 0Z" fill="#560090"></path><path d="M0 145L87 133L175 117L262 77L349 81L436 137L524 105L611 141L698 125L785 117L873 101L960 137L960 79L873 55L785 67L698 63L611 83L524 55L436 79L349 51L262 43L175 59L87 55L0 75Z" fill="#6600ab"></path><path d="M0 201L87 189L175 225L262 249L349 229L436 249L524 257L611 245L698 217L785 253L873 229L960 269L960 135L873 99L785 115L698 123L611 139L524 103L436 135L349 79L262 75L175 115L87 131L0 143Z" fill="#7700c6"></path><path d="M0 241L87 241L175 269L262 309L349 273L436 293L524 317L611 269L698 261L785 309L873 277L960 309L960 267L873 227L785 251L698 215L611 243L524 255L436 247L349 227L262 247L175 223L87 187L0 199Z" fill="#8800e2"></path><path d="M0 401L87 401L175 401L262 401L349 401L436 401L524 401L611 401L698 401L785 401L873 401L960 401L960 307L873 275L785 307L698 259L611 267L524 315L436 291L349 271L262 307L175 267L87 239L0 239Z" fill="#9900ff"></path></svg>