<svg width="351" height="364" xmlns="http://www.w3.org/2000/svg" xmlns:xlink="http://www.w3.org/1999/xlink" xml:space="preserve" overflow="hidden"><defs><clipPath id="clip0"><rect x="564" y="86" width="351" height="364"/></clipPath><clipPath id="clip1"><path d="M357.104 148.584 860.027-67.5331 1075.77 436.258 572.848 652.375Z" fill-rule="evenodd" clip-rule="evenodd"/></clipPath><clipPath id="clip2"><path d="M357.104 148.584 860.027-67.5331 1075.77 436.258 572.848 652.375Z" fill-rule="evenodd" clip-rule="evenodd"/></clipPath><clipPath id="clip3"><path d="M357.104 148.584 860.027-67.5331 1075.77 436.258 572.848 652.375Z" fill-rule="evenodd" clip-rule="evenodd"/></clipPath><clipPath id="clip4"><rect x="629" y="101" width="288" height="333"/></clipPath><clipPath id="clip5"><rect x="629" y="101" width="288" height="333"/></clipPath><clipPath id="clip6"><rect x="629" y="101" width="288" height="333"/></clipPath></defs><g clip-path="url(#clip0)" transform="translate(-564 -86)"><g clip-path="url(#clip1)"><g clip-path="url(#clip2)"><g clip-path="url(#clip3)"><path d="M458.375 292.907C402.52 303.373 355.335 411.796 351.554 477.675 350.736 491.909 345.501 583.179 399.506 618.378 417.745 630.265 429.725 627.272 525.858 623.724 621.826 620.182 644.875 621.873 661.516 615.749 665.985 614.105 668.922 613.431 671.663 610.799 715.231 568.929 559.089 274.035 458.375 292.907Z" fill="#9900FF" transform="matrix(1 0 0 1.00173 228.94 -192.14)"/></g></g></g><g clip-path="url(#clip4)"><g clip-path="url(#clip5)"><g clip-path="url(#clip6)"><path d="M141.538 288.265C179.441 291.085 211.154 266.634 223.826 235.64 236.358 204.986 230.68 167.191 203.8 142.859 179.19 119.247 144.801 113.854 115.995 124.125 85.7411 134.912 60.912 163.029 60.1711 200.636 58.5182 247.002 95.1722 286.65 141.538 288.265Z" fill="#FFFFFF" transform="matrix(1 0 0 1.00247 629.426 101.028)"/><path d="M75.1898 279.198C75.6097 279.174 79.4627 275.05 80.6144 274.885 82.875 274.298 85.2487 273.831 86.9946 275.732 89.1218 277.814 88.0742 283.591 85.9623 288.48 97.2319 301.663 124.078 305.083 142.484 306.095 159.971 306.448 181.019 304.38 198.635 292.376 199.272 291.943 199.392 291.04 199.166 290.304 197.752 285.697 197.748 281.474 199.834 279.689 202.874 277.246 207.301 278.858 209.724 282.103 209.973 282.438 210.35 282.656 210.763 282.706 245.29 257.478 258.682 210.399 244.721 170.565 230.639 126.049 189.403 100.97 149.395 99.6213 109.491 98.2775 67.0457 119.938 49.9112 163.216 33.1944 201.955 42.5465 251.604 75.1898 279.198ZM230.138 206.445C230.138 256.433 183.312 289.962 141.199 287.988 99.497 286.031 60.0967 257.388 60.6884 201.689 63.9043 147.279 103.567 119.087 144.431 118.856 187.488 118.613 230.138 152.365 230.138 206.445Z" fill="#FFFFFF" transform="matrix(1 0 0 1.00247 629.426 101.028)"/><path d="M203.48 278.42C209.907 277.923 214.654 293.815 218.123 298.314 221.246 303.073 227.904 312.761 223.23 318.022 221.597 319.565 219.203 319.249 217.116 318.33 210.372 314.936 208.852 308.111 205.214 301.931 200.654 293.141 193.247 280.879 203.48 278.42Z" fill="#FFFFFF" transform="matrix(1 0 0 1.00247 629.426 101.028)"/><path d="M60.7583 303.663C62.5448 299.164 65.6342 295.494 68.4663 291.722 72.222 286.692 74.4173 279.923 79.4151 275.822 81.6374 272.843 85.0883 274.245 86.9742 276.351 89.9913 280.279 86.7821 285.997 84.8671 289.393 79.7925 296.548 74.5325 311.707 65.3928 313.529 58.4547 314.788 59.5502 305.75 60.7583 303.663Z" fill="#FFFFFF" transform="matrix(1 0 0 1.00247 629.426 101.028)"/><path d="M203.531 101.017C204.656 98.1806 211.287 103.711 213.026 104.136 214.279 104.755 213.85 105.893 212.592 106.979 210.465 108.815 210.381 114.19 208.992 116.81 207.78 119.893 202.174 113.813 200.081 113.176 197.743 112.359 203.186 102.749 203.531 101.017Z" fill="#FFFFFF" transform="matrix(1 0 0 1.00247 629.426 101.028)"/><path d="M227.13 68.726C226.822 69.5166 225.827 69.9004 225.068 69.5212 222.405 68.2586 219.474 67.5495 216.712 66.3547 215.896 65.9572 216.075 63.8772 217.416 63.3306 220.111 62.2333 219.763 54.4687 222.809 54.7125 230.768 56.6368 230.255 63.3577 227.13 68.726Z" fill="#FFFFFF" transform="matrix(1 0 0 1.00247 629.426 101.028)"/><path d="M86.6536 116.32C83.7018 115.512 82.5839 105.83 81.0436 103.077 80.47 102.341 80.768 101.164 81.6239 100.789 84.9959 99.574 89.3771 96.4822 93.4512 96.3239 93.8196 96.5003 94.1019 96.8142 94.2349 97.2003 95.6871 101.367 96.9225 105.468 97.8351 108.576 98.0404 109.271 97.7264 110.015 97.0851 110.353 93.4557 112.002 90.2444 114.798 86.6536 116.32Z" fill="#FFFFFF" transform="matrix(1 0 0 1.00247 629.426 101.028)"/><path d="M82.3128 62.1021C79.8669 62.8903 77.3375 63.3691 75.0045 64.3403 74.2141 64.688 73.2227 64.2341 72.9696 63.4076 72.064 60.6951 70.5872 58.213 71.4543 54.9295 72.2064 52.1717 74.4895 50.399 78.2362 49.6629 80.9443 49.5657 81.8611 55.2726 81.8701 57.9536 81.8725 58.43 82.1118 58.8682 82.5093 59.1324 83.5504 59.8235 83.7469 61.6596 82.3128 62.1021Z" fill="#FFFFFF" transform="matrix(1 0 0 1.00247 629.426 101.028)"/><path d="M155.122 72.031C155.122 78.4159 152.837 83.592 150.018 83.592 147.199 83.592 144.914 78.4159 144.914 72.031 144.914 65.646 147.199 60.47 150.018 60.47 152.837 60.47 155.122 65.646 155.122 72.031Z" fill="#FFFFFF" transform="matrix(0.0348995 -1.00186 0.999388 0.0349856 702.22 321.01)"/><path d="M191.257 66.9193C208.367 60.2933 224.031 70.3747 237.966 78.5775 248.853 89.1718 251.333 103.928 243.955 118.235 242.702 121.474 226.495 110.297 223.647 109.226 217.789 105.884 203.193 97.9976 196.932 96.078 184.949 92.4057 176.93 87.2272 175.362 84.7473 172.083 79.5599 175.604 72.9877 191.257 66.9193Z" fill="#FFFFFF" transform="matrix(1 0 0 1.00247 629.426 101.028)"/><path d="M49.6945 95.1315 49.6945 95.1315C50.2973 85.863 55.7448 74.6659 65.3995 70.3702 76.3236 65.0043 87.6224 59.453 100.134 61.1829 109.271 63.0937 125.821 69.8056 124.43 80.2304 123.028 86.622 109.046 90.3052 102.219 92.3966 99.4699 92.8348 61.8694 109.674 54.7805 112.271 50.8303 113.14 49.3104 97.3156 49.6945 95.1315Z" fill="#FFFFFF" transform="matrix(1 0 0 1.00247 629.426 101.028)"/><path d="M210.191 118.547C211.389 114.89 213.103 111.345 214.234 107.679 214.34 107.293 214.248 106.909 214.042 106.595 223.369 111.74 232.518 117.219 242.309 121.451 243.14 121.808 244.17 121.729 244.655 120.835 256.001 100.913 247.666 79.8443 227.882 69.6747 230.222 67.3169 231.342 63.1591 230.54 60.004 229.544 56.0858 225.822 54.1006 222.13 53.344 221.642 53.2447 220.982 53.301 220.646 53.737 219.018 55.817 217.823 58.1588 217.238 60.7492 215.454 60.903 213.733 60.8013 212.301 60.352 196.273 51.8693 204.189 28.3747 187.061 18.2842 176.085 12.1661 162.943 12.5252 150.729 11.9245 139.749 11.5586 128.12 11.0211 117.739 15.1043 98.9417 22.7694 103.951 49.1862 89.2395 55.7628 87.5388 56.3883 85.4452 56.4223 83.2906 56.0497 82.9159 53.5472 81.9649 51.1533 80.5558 49.0621 80.2825 48.6555 79.7744 48.2354 79.239 48.3076 75.402 48.8205 71.4588 50.3765 70.106 54.3423 69.0559 57.4205 69.8757 61.5781 71.9897 64.1393 51.7224 72.8387 41.659 93.9189 51.8082 114.195 52.104 114.839 53.0843 115.213 53.7461 114.983 62.7097 111.855 71.2307 107.668 79.8331 103.675 80.0929 106.444 81.1791 109.211 82.0215 111.844 82.559 113.524 83.076 115.403 83.8576 117.084 29.7095 155.154 24.2035 236.089 72.6626 281.131L72.6942 281.099C71.4657 283.078 70.3636 285.128 69.2343 287.168 65.5304 293.727 59.0509 299.185 57.8404 306.956 57.1675 311.428 59.3627 316.131 64.4418 315.927 69.6316 315.714 73.2182 311.81 76.0614 307.885 79.6478 302.73 82.5566 297.137 85.9105 291.829 118.91 314.883 165.143 316.535 199.746 295.86 202.249 300.587 204.537 305.434 207.034 310.164 209.505 314.647 212.624 319.592 217.861 321.047 222.685 322.386 226.396 319.318 226.694 314.445 227.017 309.168 223.787 303.971 221.066 299.706 219.702 297.565 218.191 295.501 217.08 293.215 215.937 290.859 214.898 288.464 213.692 286.145 266.796 243.451 265.044 158.959 210.191 118.547ZM211.881 106.311C210.248 108.352 209.571 111.363 208.633 113.773 208.267 114.717 207.899 115.661 207.529 116.602 205.343 115.051 203.102 113.59 200.815 112.214 202.097 108.759 203.425 105.362 204.882 101.959 207.54 103.135 210.14 104.47 212.707 105.864 212.407 105.884 212.116 106.017 211.881 106.311ZM146.836 69.2771C148.912 69.0896 150.998 69.0514 153.083 69.0784 155.357 69.4444 158.286 69.8507 159.657 71.9376 159.666 71.9512 159.711 72.0144 159.718 72.0776 159.725 72.1341 159.698 72.1928 159.693 72.204 159.503 72.6602 158.998 73.0668 158.474 73.3919 154.537 75.8378 149.962 75.4472 145.684 74.5936 144.16 74.2614 141.382 73.7603 140.467 72.2831 139.044 70.115 145.531 69.3539 146.836 69.2771ZM151.509 97.2545C151.362 94.2259 151.041 91.2111 151.034 88.153 151.03 86.1838 151.034 84.2167 151.003 82.2472 150.985 81.1451 151.1 79.8533 150.849 78.7129 154.89 78.9727 165.432 76.5153 162.798 70.4334 162.295 69.3698 161.43 68.5614 160.416 67.9468 160.906 64.9116 155.192 65.7158 153.331 65.5869 150.488 65.5463 147.638 65.6231 144.819 66.0228 142.613 66.3345 140.149 66.8086 138.403 68.2971 136.72 69.7312 136.239 72.0866 137.434 74.0041 139.62 77.2066 143.968 77.848 147.52 78.4442 147.224 79.7946 147.514 81.4749 147.486 82.726 147.441 84.7789 147.351 86.8318 147.292 88.8847 147.224 91.2494 146.784 94.6075 147.583 97.1212 130.6 96.8593 114.132 100.57 99.2487 107.853 98.0358 104.235 96.9 100.593 95.7368 96.9566 104.215 93.7495 121.336 91.1747 125.891 82.9836 127.755 79.3519 126.885 75.4315 124.498 72.2855 121.786 68.7125 117.872 66.1085 113.956 64.0174 107.709 60.4895 100.877 58.3554 93.6682 58.78 99.723 54.9587 102.743 47.8357 105.06 41.3472 107.492 33.9013 109.777 25.7822 116.855 21.2405 126.874 15.0208 139.338 16.3781 150.626 16.4933 156.999 16.7936 163.435 16.9156 169.768 17.7354 203.34 22.1551 189.204 47.3322 206.571 62.6757 200.964 62.0344 195.494 62.9535 190.236 64.88 183.31 67.502 172.894 72.1904 172.092 80.5443 171.335 91.7508 193.628 97.0062 201.953 100.739 200.654 104.032 199.349 107.316 198.012 110.593 183.904 102.695 168.081 98.1038 151.509 97.2545ZM246.534 102.474C246.451 107.847 244.84 113.009 242.408 117.759 229.878 112.106 218.349 104.427 205.977 98.456 205.887 97.4577 204.679 97.0198 203.812 97.4938 197.7 94.8898 191.295 92.9411 185.317 90.0118 179.253 87.3287 171.977 82.6156 178.54 75.9056 183.554 71.032 193.337 67.1339 200.279 66.5446 213.737 65.6297 225.488 73.5117 236.712 79.8783 242.747 85.8856 246.67 93.8196 246.534 102.474ZM219.962 64.5525C220.434 63.2629 220.111 61.7319 220.517 60.3586 220.917 59.0058 221.545 57.6983 222.346 56.5285 224.772 57.1789 227.177 58.4526 227.681 61.1378 228.193 63.8817 226.642 66.1561 225.651 68.5635 223.643 67.6218 221.608 66.8426 219.532 66.2349 219.119 66.0567 218.704 65.8849 218.286 65.7158 217.956 65.5824 218.089 65.438 218.283 65.4967 218.941 65.6953 219.722 65.2074 219.962 64.5525ZM72.8501 55.7785C73.5141 53.1475 75.9961 51.9529 78.4713 51.4807 79.1668 52.6755 79.7043 53.9447 80.0297 55.3042 80.5807 56.9237 79.2616 60.4693 81.554 60.7176 81.8611 60.7516 81.353 61.2145 80.5874 61.3773 78.4779 61.8312 76.3889 62.4319 74.345 63.1885 73.5412 60.7538 72.1769 58.4457 72.8501 55.7785ZM54.0892 84.4695C56.1445 80.3436 59.0692 76.7705 62.5267 73.785 77.1115 66.6822 92.7918 57.9647 108.892 65.894 113.845 68.1434 125.063 73.995 122.766 80.6731 119.961 87.4734 101.089 90.983 94.1922 93.6411 93.3949 93.0245 92.2046 93.4876 91.9584 94.436 79.0494 99.2623 67.1249 106.379 54.1999 111.171 50.5661 102.623 49.8525 92.9793 54.0892 84.4695ZM84.9101 110.767C83.9546 108.066 83.4872 105.141 82.2562 102.56 85.7206 100.981 89.1989 99.4272 92.7467 98.0449 94.052 101.801 95.2016 105.55 96.3263 109.348 93.0178 111.096 89.7951 113.03 86.6671 115.135 86.0574 113.689 85.4272 112.248 84.9101 110.767ZM76.0118 301.58C73.7151 305.397 70.9011 310.451 66.4339 312.01 65.0991 312.477 63.1997 312.841 62.0864 311.707 60.7492 310.347 61.0995 307.856 61.5555 306.209 62.7886 301.758 65.8985 297.892 68.6448 294.269 71.8157 290.086 73.9318 285.333 76.9062 281.025 78.1212 279.325 79.5283 278.114 81.0412 276.715 81.8499 275.969 82.1864 275.796 83.3111 276.133 84.2257 276.407 85.2081 276.978 85.8112 277.74 88.2208 281.246 84.8241 286.307 83.2545 289.486 83.2545 289.486 83.0559 289.813 83.067 289.821 80.8537 293.805 78.3584 297.685 76.0118 301.58ZM222.57 310.238C223.518 313.226 223.792 318.784 219.144 317.773 214.575 316.777 211.955 311.906 209.909 308.151 208.407 305.397 207.102 302.542 205.679 299.751 204.313 297.066 202.834 294.452 201.632 291.688 200.042 288.153 197.836 281.875 203.007 280.446 204.013 280.135 204.704 280.005 205.417 280.794 206.896 282.435 208.333 283.859 209.505 285.768 211.876 289.778 213.371 294.24 215.903 298.149 218.383 301.984 221.177 305.843 222.57 310.238ZM247.257 207.28C246.247 236.12 233.024 263.059 210.901 281.524 209.747 279.936 208.324 278.491 206.486 278.114 205.322 277.875 204.313 277.283 203.096 277.27 201.675 277.251 200.239 277.79 199.107 278.63 195.243 281.498 196.16 286.769 197.623 290.918 164.528 311.011 119.927 309.434 88.3586 287.038 90.0864 283.017 91.3261 277.982 87.8166 274.816 86.8273 273.924 85.5063 273.292 84.1827 273.135 82.7916 272.973 81.6374 273.523 80.2915 273.724 78.4848 273.998 77.0212 275.281 75.7927 276.739 9.16695 213.351 57.5897 98.8355 149.562 102.501 205.383 104.454 249.21 151.459 247.257 207.28Z" transform="matrix(1 0 0 1.00247 629.426 101.028)"/><path d="M147.933 116.923C70.9754 114.098 28.6979 206.863 81.31 263.088 112.483 297.908 170.597 299.987 204.177 267.385 260.59 214.975 224.896 119.477 147.933 116.923ZM227.433 206.691C224.79 279.973 134.512 313.68 84.4921 260.123 35.4278 207.789 73.1481 121.063 144.826 121.214 190.311 120.205 230.009 161.256 227.433 206.691Z" transform="matrix(1 0 0 1.00247 629.426 101.028)"/><path d="M160.366 230.219C156.583 223.812 153.044 217.256 149.591 210.664 154.314 206.522 151.599 199.014 145.691 197.883 145.858 184.906 148.182 171.993 147.57 159 147.358 154.901 147.107 150.775 145.853 146.85 145.492 145.718 143.505 145.838 143.663 147.146 145.976 164.388 141.542 181.589 141.472 198.843 134.275 201.84 136.646 212.739 144.736 212.057 145.181 212.154 145.646 212.19 146.125 212.156 150.352 220.294 155.348 228.006 160.466 235.599 161.242 236.638 162.268 238.051 163.485 238.582 163.912 238.767 164.551 238.564 164.508 237.995 164.413 236.728 163.618 235.461 163.004 234.372 162.198 232.95 161.211 231.624 160.366 230.219Z" transform="matrix(1 0 0 1.00247 629.426 101.028)"/><path d="M186.241 138.365C184.26 139.989 182.506 141.933 180.717 143.764 178.98 145.542 177.225 147.484 176.297 149.819 175.676 151.384 178.127 152.299 178.949 150.937 180.322 148.663 181.814 146.757 183.678 144.853 185.347 143.148 187.05 141.623 187.978 139.374 188.416 138.308 186.936 137.795 186.241 138.365Z" transform="matrix(1 0 0 1.00247 629.426 101.028)"/><path d="M106.629 151.253C107.587 151.926 108.703 150.635 108.172 149.711 107.117 147.877 105.685 146.285 104.509 144.526 103.524 143.053 102.638 141.533 101.541 140.147 100.471 138.794 98.6549 140.517 99.2984 141.877 100.105 143.582 101.327 145.086 102.451 146.599 103.711 148.295 104.881 150.027 106.629 151.253Z" transform="matrix(1 0 0 1.00247 629.426 101.028)"/><path d="M199.846 175.773C203.369 173.874 207.482 173.501 211.007 171.701 211.569 171.414 211.461 170.439 210.826 170.314 206.684 169.502 202.45 171.602 198.667 172.979 196.589 173.736 197.89 176.826 199.846 175.773Z" transform="matrix(1 0 0 1.00247 629.426 101.028)"/><path d="M209.354 204.622C209.121 204.548 208.88 204.503 208.635 204.487 208.579 204.494 208.532 204.5 208.489 204.505 206.876 204.015 206.217 206.176 207.384 207.057 207.493 207.138 207.674 207.278 207.698 207.294 208.389 207.712 208.961 207.841 209.562 207.974 212.904 208.581 216.222 210.167 219.629 209.417 220.192 209.281 220.169 208.588 219.776 208.294 217.886 206.892 215.702 206.571 213.469 205.955 212.075 205.578 210.713 205.088 209.354 204.622Z" transform="matrix(1 0 0 1.00247 629.426 101.028)"/><path d="M204.308 239.906C202.849 238.792 201.454 237.408 199.742 236.703 198.689 236.269 197.632 237.738 198.256 238.637 199.326 240.181 201.097 241.256 202.617 242.322 204.008 243.298 205.553 244.596 207.244 244.985 208.385 245.247 209.462 243.761 208.464 242.889 207.186 241.776 205.659 240.933 204.308 239.906Z" transform="matrix(1 0 0 1.00247 629.426 101.028)"/><path d="M177.471 263.048C176.984 261.602 176.609 259.046 175.114 258.3 174.425 257.957 173.583 258.235 173.359 259.014 172.878 260.699 174.423 263.235 175.03 264.782 175.78 266.689 176.374 268.652 178.099 269.89 178.878 270.447 179.786 269.528 179.608 268.729 179.165 266.761 178.118 264.958 177.471 263.048Z" transform="matrix(1 0 0 1.00247 629.426 101.028)"/><path d="M142.565 261.846C141.373 265.603 141.66 269.834 140.865 273.698 140.492 275.504 143.295 276.255 143.62 274.457 144.336 270.495 144.989 265.813 144.031 261.846 143.846 261.09 142.782 261.162 142.565 261.846Z" transform="matrix(1 0 0 1.00247 629.426 101.028)"/><path d="M111.313 253.086C109.457 254.179 108.328 256.453 107.088 258.138 106.175 259.437 105.17 260.672 104.174 261.898 104.043 262.101 103.827 262.562 103.802 263.059 103.754 263.994 104.443 265.087 105.529 264.633 107.363 263.865 108.258 261.864 109.276 260.22 110.451 258.321 112.14 256.388 112.806 254.233 113.068 253.377 112.061 252.645 111.313 253.086Z" transform="matrix(1 0 0 1.00247 629.426 101.028)"/><path d="M89.0881 231.048C87.3537 230.876 85.6418 231.633 84.0722 232.288 82.5409 232.927 80.6801 233.467 79.3429 234.449 78.0602 235.391 78.7738 237.5 80.4609 237.101 81.992 236.737 83.3743 235.707 84.8039 235.059 86.3894 234.341 88.1238 233.993 89.6753 233.21 90.7976 232.643 90.1292 231.15 89.0881 231.048Z" transform="matrix(1 0 0 1.00247 629.426 101.028)"/><path d="M82.7329 207.195C84.0653 206.969 83.8823 205.015 82.7329 204.677 80.7499 204.094 78.9116 203.952 77.0327 202.947 75.3996 202.073 73.8731 200.415 72.0685 199.988 70.9959 199.735 70.35 200.792 70.7452 201.709 71.6011 203.692 74.4534 205.013 76.3236 205.846 78.2657 206.711 80.5895 207.556 82.7329 207.195Z" transform="matrix(1 0 0 1.00247 629.426 101.028)"/><path d="M83.0288 168.817C84.4018 170.046 85.8067 171.365 87.4349 172.252 88.6839 172.934 89.7972 171.376 88.9097 170.342 87.7127 168.95 86.2019 167.835 84.8421 166.609 83.5166 165.414 82.2541 163.695 80.6777 162.855 79.5168 162.236 78.4532 163.451 78.9682 164.565 79.7404 166.24 81.6736 167.607 83.0288 168.817Z" transform="matrix(1 0 0 1.00247 629.426 101.028)"/><path d="M145.7 137.974C147.155 136.971 147.078 134.672 147.224 133.05 147.398 131.122 147.416 128.999 146.61 127.208 145.052 125.485 144.474 131.671 144.417 132.5 144.252 134.047 143.473 136.127 144.16 137.567 144.408 138.091 145.23 138.297 145.7 137.974Z" transform="matrix(1 0 0 1.00247 629.426 101.028)"/><path d="M258.641 94.3252C259.793 92.0171 259.493 89.1083 259.17 86.6332 258.075 78.5005 253.511 70.9935 246.88 66.1832 245.525 65.1918 244.251 67.4388 245.57 68.4257 251.489 72.8206 255.335 79.6839 256.408 86.9426 256.781 89.2958 256.467 91.8164 257.052 94.1176 257.23 94.8131 258.305 95.003 258.641 94.3252Z" transform="matrix(1 0 0 1.00247 629.426 101.028)"/><path d="M254.025 65.9346C260.286 70.9643 262.28 77.1907 263.545 84.806 263.685 85.4949 264.812 85.5039 264.945 84.806 266.413 77.1636 261.41 68.909 255.624 64.3334 254.5 63.4459 252.889 65.0109 254.025 65.9346Z" transform="matrix(1 0 0 1.00247 629.426 101.028)"/><path d="M49.4549 67.9197C50.9342 66.8832 52.504 66.0071 53.8544 64.7942 54.7149 64.0219 53.7686 62.8993 52.8335 63.0417 45.3898 64.5504 38.6755 73.8054 36.338 80.662 35.7261 82.4076 38.47 83.1347 39.0933 81.4229 41.0604 75.9982 44.7484 71.2466 49.4549 67.9197Z" transform="matrix(1 0 0 1.00247 629.426 101.028)"/><path d="M34.8407 73.7738C36.6383 68.7961 40.1277 64.4734 44.597 61.6437 45.338 61.0926 50.7015 58.4932 48.1791 57.705 44.5949 57.4792 40.891 60.8534 38.5852 63.2563 35.8796 66.0769 33.917 69.476 32.7246 73.1911 32.2909 74.5461 34.3663 75.0836 34.8407 73.7738Z" transform="matrix(1 0 0 1.00247 629.426 101.028)"/><path d="M34.5403 157.476C25.1747 174.007 22.8304 193.809 26.3535 212.351 26.8232 214.898 27.1191 217.949 28.8174 219.995 29.5108 220.833 31.1617 220.409 31.3446 219.327 31.7804 216.773 30.7057 214.09 30.2154 211.585 28.7407 204.085 28.2823 196.383 28.849 188.761 29.6261 178.445 32.4377 168.23 37.2935 159.088 38.2578 157.277 35.5476 155.675 34.5403 157.476Z" transform="matrix(1 0 0 1.00247 629.426 101.028)"/><path d="M19.628 161.945C13.4738 173.445 12.3807 187.323 12.3197 200.155 12.3581 202.447 12.462 204.737 12.6268 207.025 12.6969 208.003 12.724 209.013 12.8934 209.979 13.0876 211.095 13.1373 212.344 13.8328 213.259 14.3094 213.889 15.5018 214.18 15.9106 213.259 16.683 211.515 16.1952 209.209 16.0393 207.339 15.1811 196.664 15.5425 185.798 18.0267 175.351 19.0453 171.11 20.5494 167.019 21.6764 162.81 21.9993 161.592 20.2648 160.829 19.628 161.945Z" transform="matrix(1 0 0 1.00247 629.426 101.028)"/><path d="M262.329 190.349C265.266 206.221 263.809 222.647 259.007 238.006 258.402 240.231 257.174 242.433 257.117 244.766 257.094 245.689 258.348 246.245 258.987 245.54 260.5 243.876 261.076 241.491 261.835 239.422 264.292 232.649 265.635 225.511 266.408 218.36 267.404 208.757 266.976 199.037 265.27 189.54 264.922 187.61 261.984 188.427 262.329 190.349Z" transform="matrix(1 0 0 1.00247 629.426 101.028)"/><path d="M276.33 202.511C275.984 201.11 273.844 201.702 274.171 203.107 275.881 210.447 276.03 217.861 274.827 225.287 274.256 228.794 273.4 232.247 272.229 235.601 271 239.117 269.22 242.417 268.108 245.949 267.815 246.875 269.098 247.645 269.759 246.911 272.248 244.142 273.751 240.457 274.965 236.954 278.837 225.955 279.142 213.794 276.33 202.511Z" transform="matrix(1 0 0 1.00247 629.426 101.028)"/></g></g></g></g></svg>