<svg width="810" height="810" xmlns="http://www.w3.org/2000/svg" xmlns:xlink="http://www.w3.org/1999/xlink" xml:space="preserve" overflow="hidden"><defs><clipPath id="clip0"><rect x="-295" y="564" width="810" height="810"/></clipPath><clipPath id="clip1"><path d="M-294.367 788.917 290.267 564.531 514.653 1149.16-69.9815 1373.55Z" fill-rule="evenodd" clip-rule="evenodd"/></clipPath><clipPath id="clip2"><path d="M-294.367 788.917 290.267 564.531 514.653 1149.16-69.9815 1373.55Z" fill-rule="evenodd" clip-rule="evenodd"/></clipPath><clipPath id="clip3"><path d="M-294.367 788.917 290.267 564.531 514.653 1149.16-69.9815 1373.55Z" fill-rule="evenodd" clip-rule="evenodd"/></clipPath></defs><g clip-path="url(#clip0)" transform="translate(295 -564)"><g clip-path="url(#clip1)"><g clip-path="url(#clip2)"><g clip-path="url(#clip3)"><path d="M247.69 821.346C221.921 755.992 147.156 723.564 81.8081 749.349 59.3928 758.194 40.8546 772.692 27.2017 790.576 18.0893 802.51 5.92294 811.724-7.98959 817.371-8.34122 817.515-8.69406 817.659-9.0455 817.806-73.4295 844.603-104.542 919.07-78.4356 983.736-71.1605 1001.76-60.2165 1017.23-46.799 1029.64-38.8056 1037.03-35.2611 1048.26-38.2387 1058.73-40.5483 1066.85-40.3448 1075.75-37.0879 1084.24-34.0045 1092.27-28.6353 1098.76-22.008 1103.23-11.9156 1110.05-4.81863 1120.48-2.78513 1132.49-1.78098 1138.42-0.136078 1144.33 2.19247 1150.15 19.3223 1192.95 67.9284 1214.79 111.295 1199.15 146.396 1186.49 168.052 1153.56 168.226 1118.54 169.251 1118.19 170.275 1117.84 171.295 1117.45 215.692 1100.41 237.869 1050.61 220.829 1006.21 220.489 1005.33 220.137 1004.45 219.772 1003.59 212.172 985.551 214.817 964.872 227.28 949.782 255.927 915.094 265.406 866.277 247.69 821.346Z" fill="#9900FF"/></g></g></g></g></svg>